; NON-PLATED HOLES START AT T1
; THROUGH (PLATED) HOLES START AT T100
M48
INCH
T1C0.108268
T100C0.044111
T101C0.039370
T102C0.040000
T103C0.044139
T104C0.038000
%
T1
X001531Y020707
X001567Y001417
X024334Y020715
X024321Y001380
T100
X009433Y020380
X005434Y021380
X011433Y020380
X010434Y021380
X004433Y021380
X004433Y020380
X009433Y021380
X018434Y021380
X010434Y020380
X018434Y020380
X003434Y021380
X017434Y020380
X020434Y021380
X022434Y020380
X013434Y021380
X008434Y021380
X015434Y021380
X011433Y021380
X021433Y020380
X005434Y020380
X017434Y021380
X003434Y020380
X013434Y020380
X020434Y020380
X015434Y020380
X021433Y021380
X022434Y021380
X016433Y021380
X008434Y020380
X006433Y021380
X016433Y020380
X006433Y020380
T101
X008434Y006880
X015934Y006880
X014934Y006880
X028934Y006880
X007434Y006880
X018934Y006880
X005434Y006880
X004434Y006880
X023934Y006880
X020934Y006880
X029934Y006880
X031934Y006880
X021934Y006880
X027934Y006880
X030934Y006880
X003434Y006880
X011934Y006880
X012934Y006880
X026934Y006880
X006434Y006880
X019934Y006880
X010934Y006880
X022934Y006880
X013934Y006880
T102
X029934Y016880
X019323Y008903
X014434Y016880
X006822Y008903
X022434Y016880
X002822Y008903
X021434Y016880
X028934Y016880
X029934Y004380
X030823Y008903
X006934Y016880
X003822Y008903
X005934Y016880
X012434Y016880
X018300Y004380
X028556Y004380
X022434Y004380
X002800Y004380
X027934Y016880
X027823Y008903
X020434Y016880
X027178Y004380
X004178Y004380
X003934Y016880
X011678Y004380
X013056Y004380
X023323Y008903
X007822Y008903
X029823Y008903
X019678Y004380
X006934Y004380
X005822Y008903
X010300Y004380
X018323Y008903
X004934Y016880
X021056Y004380
X021323Y008903
X013322Y008903
X028823Y008903
X025823Y008903
X026823Y008903
X011434Y016880
X014434Y004380
X004822Y008903
X019434Y016880
X013434Y016880
X011322Y008903
X022323Y008903
X014322Y008903
X025800Y004380
X020323Y008903
X012322Y008903
X005556Y004380
X010322Y008903
X026934Y016880
X015322Y008903
T103
X007434Y021380
X019434Y020380
X007434Y020380
X014434Y020380
X012434Y020380
X012434Y021380
X014434Y021380
X019434Y021380
T104
X000934Y018880
X000934Y017880
T00
M30
