G04 MADE WITH FRITZING*
G04 WWW.FRITZING.ORG*
G04 DOUBLE SIDED*
G04 HOLES PLATED*
G04 CONTOUR ON CENTER OF CONTOUR VECTOR*
%ASAXBY*%
%FSLAX23Y23*%
%MOIN*%
%OFA0B0*%
%SFA1.0B1.0*%
%ADD10C,0.079370*%
%ADD11C,0.080000*%
%ADD12C,0.078000*%
%ADD13C,0.071889*%
%ADD14C,0.071917*%
%ADD15C,0.074000*%
%ADD16R,0.080000X0.080000*%
%ADD17R,0.078740X0.078740*%
%ADD18R,0.074000X0.074000*%
%ADD19C,0.024000*%
%LNCOPPER0*%
G90*
G70*
G54D10*
X2993Y688D03*
X3093Y688D03*
X3193Y688D03*
X2693Y688D03*
X2793Y688D03*
X2893Y688D03*
X2193Y688D03*
X2293Y688D03*
X2393Y688D03*
X1893Y688D03*
X1993Y688D03*
X2093Y688D03*
X1393Y688D03*
X1493Y688D03*
X1593Y688D03*
X1093Y688D03*
X1193Y688D03*
X1293Y688D03*
X643Y688D03*
X743Y688D03*
X843Y688D03*
X343Y688D03*
X443Y688D03*
X543Y688D03*
G54D11*
X693Y438D03*
X556Y438D03*
X418Y438D03*
X280Y438D03*
X2993Y438D03*
X2856Y438D03*
X2718Y438D03*
X2580Y438D03*
X1443Y438D03*
X1306Y438D03*
X1168Y438D03*
X1030Y438D03*
X2243Y438D03*
X2106Y438D03*
X1968Y438D03*
X1830Y438D03*
G54D12*
X93Y1888D03*
X93Y1788D03*
G54D13*
X343Y2038D03*
X443Y2038D03*
X543Y2038D03*
X643Y2038D03*
G54D14*
X743Y2038D03*
G54D13*
X843Y2038D03*
X943Y2038D03*
X1043Y2038D03*
X1143Y2038D03*
G54D14*
X1243Y2038D03*
G54D13*
X1343Y2038D03*
G54D14*
X1443Y2038D03*
G54D13*
X1543Y2038D03*
X1643Y2038D03*
X1743Y2038D03*
X1843Y2038D03*
G54D14*
X1943Y2038D03*
G54D13*
X2043Y2038D03*
X2143Y2038D03*
X2243Y2038D03*
X2243Y2138D03*
X2143Y2138D03*
X2043Y2138D03*
G54D14*
X1943Y2138D03*
G54D13*
X1843Y2138D03*
X1743Y2138D03*
X1643Y2138D03*
X1543Y2138D03*
G54D14*
X1443Y2138D03*
G54D13*
X1343Y2138D03*
G54D14*
X1243Y2138D03*
G54D13*
X1143Y2138D03*
X1043Y2138D03*
X943Y2138D03*
X843Y2138D03*
G54D14*
X743Y2138D03*
G54D13*
X643Y2138D03*
X543Y2138D03*
X443Y2138D03*
X343Y2138D03*
G54D15*
X393Y1688D03*
X493Y1688D03*
X593Y1688D03*
X693Y1688D03*
X782Y890D03*
X682Y890D03*
X582Y890D03*
X482Y890D03*
X382Y890D03*
X282Y890D03*
X1143Y1688D03*
X1243Y1688D03*
X1343Y1688D03*
X1443Y1688D03*
X1532Y890D03*
X1432Y890D03*
X1332Y890D03*
X1232Y890D03*
X1132Y890D03*
X1032Y890D03*
X1943Y1688D03*
X2043Y1688D03*
X2143Y1688D03*
X2243Y1688D03*
X2332Y890D03*
X2232Y890D03*
X2132Y890D03*
X2032Y890D03*
X1932Y890D03*
X1832Y890D03*
X2693Y1688D03*
X2793Y1688D03*
X2893Y1688D03*
X2993Y1688D03*
X3082Y890D03*
X2982Y890D03*
X2882Y890D03*
X2782Y890D03*
X2682Y890D03*
X2582Y890D03*
G54D16*
X693Y438D03*
X2993Y438D03*
X1443Y438D03*
X2243Y438D03*
G54D17*
X443Y1238D03*
X343Y1338D03*
X443Y1338D03*
X343Y1438D03*
X443Y1438D03*
G54D18*
X393Y1688D03*
X1143Y1688D03*
X1943Y1688D03*
X2693Y1688D03*
G54D19*
X244Y1438D02*
X301Y1438D01*
D02*
X244Y1888D02*
X244Y1438D01*
D02*
X325Y2010D02*
X244Y1888D01*
D02*
X456Y660D02*
X543Y466D01*
D02*
X700Y469D02*
X737Y658D01*
D02*
X1450Y469D02*
X1487Y658D01*
D02*
X1293Y466D02*
X1206Y660D01*
D02*
X2093Y466D02*
X2006Y660D01*
D02*
X2250Y469D02*
X2287Y658D01*
D02*
X2848Y468D02*
X2801Y658D01*
D02*
X3005Y467D02*
X3082Y659D01*
D02*
X194Y1938D02*
X192Y1337D01*
D02*
X324Y2111D02*
X194Y1938D01*
D02*
X192Y1337D02*
X301Y1338D01*
D02*
X93Y1758D02*
X94Y1187D01*
D02*
X394Y1187D02*
X414Y1207D01*
D02*
X94Y1187D02*
X394Y1187D01*
D02*
X443Y1395D02*
X443Y1381D01*
D02*
X401Y1338D02*
X386Y1338D01*
D02*
X744Y1937D02*
X744Y2005D01*
D02*
X427Y1712D02*
X744Y1937D01*
D02*
X1143Y1729D02*
X1143Y1788D01*
D02*
X744Y1937D02*
X744Y2005D01*
D02*
X1143Y1788D02*
X744Y1937D01*
D02*
X693Y1537D02*
X693Y1657D01*
D02*
X483Y1454D02*
X693Y1537D01*
D02*
X1443Y1537D02*
X1443Y1657D01*
D02*
X693Y1657D02*
X693Y1537D01*
D02*
X693Y1537D02*
X1443Y1537D01*
D02*
X2243Y1537D02*
X2243Y1657D01*
D02*
X1443Y1657D02*
X1443Y1537D01*
D02*
X1443Y1537D02*
X2243Y1537D01*
D02*
X1143Y1788D02*
X1143Y1729D01*
D02*
X1943Y1788D02*
X1143Y1788D01*
D02*
X1943Y1729D02*
X1943Y1788D01*
D02*
X193Y737D02*
X267Y864D01*
D02*
X193Y638D02*
X193Y737D01*
D02*
X268Y467D02*
X193Y638D01*
D02*
X243Y638D02*
X243Y737D01*
D02*
X243Y737D02*
X361Y867D01*
D02*
X397Y461D02*
X243Y638D01*
D02*
X945Y737D02*
X1017Y863D01*
D02*
X945Y638D02*
X945Y737D01*
D02*
X1018Y467D02*
X945Y638D01*
D02*
X993Y737D02*
X1111Y867D01*
D02*
X993Y638D02*
X993Y737D01*
D02*
X1147Y461D02*
X993Y638D01*
D02*
X465Y865D02*
X361Y713D01*
D02*
X591Y861D02*
X635Y718D01*
D02*
X1215Y865D02*
X1111Y713D01*
D02*
X1744Y737D02*
X1817Y863D01*
D02*
X1744Y638D02*
X1744Y737D01*
D02*
X1818Y467D02*
X1744Y638D01*
D02*
X1793Y737D02*
X1911Y867D01*
D02*
X1793Y638D02*
X1793Y737D01*
D02*
X1947Y461D02*
X1793Y638D01*
D02*
X2015Y865D02*
X1911Y713D01*
D02*
X2243Y1537D02*
X2243Y1657D01*
D02*
X2994Y1537D02*
X2243Y1537D01*
D02*
X2994Y1657D02*
X2994Y1537D01*
D02*
X1943Y1788D02*
X1943Y1729D01*
D02*
X2445Y1788D02*
X1943Y1788D01*
D02*
X2656Y1703D02*
X2445Y1788D01*
D02*
X2544Y737D02*
X2544Y638D01*
D02*
X2544Y638D02*
X2575Y469D01*
D02*
X2575Y860D02*
X2544Y737D01*
D02*
X2593Y737D02*
X2593Y638D01*
D02*
X2593Y638D02*
X2701Y464D01*
D02*
X2667Y864D02*
X2593Y737D01*
D02*
X2770Y862D02*
X2706Y716D01*
D02*
X2897Y863D02*
X2979Y715D01*
D02*
X1385Y718D02*
X1341Y861D01*
D02*
X2185Y718D02*
X2141Y861D01*
G04 End of Copper0*
M02*