; NON-PLATED HOLES START AT T1
; THROUGH (PLATED) HOLES START AT T100
M48
INCH
T1C0.108268
T100C0.038000
T101C0.045708
T102C0.048028
T103C0.044139
T104C0.044111
T105C0.040000
T106C0.039370
%
T1
X001531Y020707
X024334Y020715
X001567Y001417
X024321Y001380
T100
X000934Y018880
X000934Y017880
T101
X003433Y018380
X011433Y018380
X002406Y008255
X026406Y008255
X018406Y008255
X010406Y008255
X027433Y018380
X019433Y018380
T102
X005406Y008255
X014406Y008255
X028433Y018380
X012406Y008255
X027406Y008255
X029406Y008255
X003406Y008255
X007406Y008255
X013434Y018380
X022406Y008255
X029433Y018380
X028406Y008255
X006406Y008255
X022434Y018380
X005433Y018380
X030434Y018380
X004433Y018380
X006434Y018380
X031406Y008255
X023406Y008255
X012433Y018380
X020433Y018380
X004406Y008255
X019406Y008255
X015406Y008255
X030406Y008255
X013406Y008255
X021406Y008255
X021433Y018380
X020406Y008255
X011406Y008255
X014434Y018380
T103
X019434Y020380
X012434Y020380
X007434Y020380
X014434Y020380
X014434Y021380
X019434Y021380
X007434Y021380
X012434Y021380
T104
X021433Y020380
X017434Y020380
X022434Y020380
X020434Y020380
X008434Y020380
X010434Y021380
X015434Y020380
X003434Y020380
X015434Y021380
X008434Y021380
X004433Y020380
X022434Y021380
X013434Y020380
X011433Y021380
X018434Y021380
X018434Y020380
X016433Y020380
X005434Y021380
X004433Y021380
X006433Y020380
X006433Y021380
X009433Y021380
X017434Y021380
X013434Y021380
X020434Y021380
X009433Y020380
X005434Y020380
X011433Y020380
X003434Y021380
X016433Y021380
X010434Y020380
X021433Y021380
T105
X019311Y003880
X017934Y003880
X014567Y003880
X005689Y003880
X013189Y003880
X002934Y003880
X020689Y003880
X011811Y003880
X027311Y003880
X028689Y003880
X025934Y003880
X010434Y003880
X007067Y003880
X030067Y003880
X004312Y003880
X022067Y003880
T106
X020934Y006380
X019934Y006380
X027934Y006380
X011934Y006380
X007434Y006380
X029934Y006380
X018934Y006380
X023934Y006380
X028934Y006380
X021934Y006380
X006434Y006380
X026934Y006380
X010934Y006380
X030934Y006380
X014934Y006380
X031934Y006380
X003434Y006380
X008434Y006380
X015934Y006380
X013934Y006380
X004434Y006380
X012934Y006380
X022934Y006380
X005434Y006380
T00
M30
