G04 MADE WITH FRITZING*
G04 WWW.FRITZING.ORG*
G04 DOUBLE SIDED*
G04 HOLES PLATED*
G04 CONTOUR ON CENTER OF CONTOUR VECTOR*
%ASAXBY*%
%FSLAX23Y23*%
%MOIN*%
%OFA0B0*%
%SFA1.0B1.0*%
%ADD10C,0.079370*%
%ADD11C,0.075806*%
%ADD12C,0.073486*%
%ADD13C,0.080000*%
%ADD14C,0.078000*%
%ADD15C,0.071889*%
%ADD16C,0.071917*%
%ADD17R,0.080000X0.080000*%
%ADD18R,0.078740X0.078740*%
%ADD19C,0.024000*%
%ADD20R,0.001000X0.001000*%
%LNCOPPER0*%
G90*
G70*
G54D10*
X2993Y638D03*
X3093Y638D03*
X3193Y638D03*
X2693Y638D03*
X2793Y638D03*
X2893Y638D03*
X2193Y638D03*
X2293Y638D03*
X2393Y638D03*
X1893Y638D03*
X1993Y638D03*
X2093Y638D03*
X1393Y638D03*
X1493Y638D03*
X1593Y638D03*
X1093Y638D03*
X1193Y638D03*
X1293Y638D03*
X643Y638D03*
X743Y638D03*
X843Y638D03*
X343Y638D03*
X443Y638D03*
X543Y638D03*
G54D11*
X741Y826D03*
X641Y826D03*
X541Y826D03*
X441Y826D03*
X341Y826D03*
G54D12*
X241Y826D03*
G54D11*
X643Y1838D03*
X543Y1838D03*
X443Y1838D03*
G54D12*
X343Y1838D03*
G54D11*
X1541Y826D03*
X1441Y826D03*
X1341Y826D03*
X1241Y826D03*
X1141Y826D03*
G54D12*
X1041Y826D03*
G54D11*
X1443Y1838D03*
X1343Y1838D03*
X1243Y1838D03*
G54D12*
X1143Y1838D03*
G54D11*
X2341Y826D03*
X2241Y826D03*
X2141Y826D03*
X2041Y826D03*
X1941Y826D03*
G54D12*
X1841Y826D03*
G54D11*
X2243Y1838D03*
X2143Y1838D03*
X2043Y1838D03*
G54D12*
X1943Y1838D03*
G54D11*
X3141Y826D03*
X3041Y826D03*
X2941Y826D03*
X2841Y826D03*
X2741Y826D03*
G54D12*
X2641Y826D03*
G54D11*
X3043Y1838D03*
X2943Y1838D03*
X2843Y1838D03*
G54D12*
X2743Y1838D03*
G54D13*
X707Y388D03*
X569Y388D03*
X431Y388D03*
X293Y388D03*
X3007Y388D03*
X2869Y388D03*
X2731Y388D03*
X2593Y388D03*
X1457Y388D03*
X1319Y388D03*
X1181Y388D03*
X1043Y388D03*
X2207Y388D03*
X2069Y388D03*
X1931Y388D03*
X1793Y388D03*
G54D14*
X93Y1888D03*
X93Y1788D03*
G54D15*
X343Y2038D03*
X443Y2038D03*
X543Y2038D03*
X643Y2038D03*
G54D16*
X743Y2038D03*
G54D15*
X843Y2038D03*
X943Y2038D03*
X1043Y2038D03*
X1143Y2038D03*
G54D16*
X1243Y2038D03*
G54D15*
X1343Y2038D03*
G54D16*
X1443Y2038D03*
G54D15*
X1543Y2038D03*
X1643Y2038D03*
X1743Y2038D03*
X1843Y2038D03*
G54D16*
X1943Y2038D03*
G54D15*
X2043Y2038D03*
X2143Y2038D03*
X2243Y2038D03*
X2243Y2138D03*
X2143Y2138D03*
X2043Y2138D03*
G54D16*
X1943Y2138D03*
G54D15*
X1843Y2138D03*
X1743Y2138D03*
X1643Y2138D03*
X1543Y2138D03*
G54D16*
X1443Y2138D03*
G54D15*
X1343Y2138D03*
G54D16*
X1243Y2138D03*
G54D15*
X1143Y2138D03*
X1043Y2138D03*
X943Y2138D03*
X843Y2138D03*
G54D16*
X743Y2138D03*
G54D15*
X643Y2138D03*
X543Y2138D03*
X443Y2138D03*
X343Y2138D03*
G54D17*
X707Y388D03*
X3007Y388D03*
X1457Y388D03*
X2207Y388D03*
G54D18*
X443Y1238D03*
X343Y1338D03*
X443Y1338D03*
X343Y1438D03*
X443Y1438D03*
G54D19*
X244Y1438D02*
X301Y1438D01*
D02*
X244Y1888D02*
X244Y1438D01*
D02*
X325Y2010D02*
X244Y1888D01*
D02*
X744Y1939D02*
X744Y2005D01*
D02*
X343Y1937D02*
X744Y1939D01*
D02*
X343Y1872D02*
X343Y1937D01*
D02*
X457Y611D02*
X555Y416D01*
D02*
X711Y419D02*
X739Y608D01*
D02*
X1461Y419D02*
X1489Y608D01*
D02*
X1305Y416D02*
X1207Y611D01*
D02*
X2060Y418D02*
X2002Y609D01*
D02*
X2217Y417D02*
X2283Y609D01*
D02*
X2860Y418D02*
X2802Y609D01*
D02*
X3017Y417D02*
X3083Y609D01*
D02*
X194Y1938D02*
X192Y1337D01*
D02*
X324Y2111D02*
X194Y1938D01*
D02*
X192Y1337D02*
X301Y1338D01*
D02*
X93Y1758D02*
X94Y1187D01*
D02*
X394Y1187D02*
X414Y1207D01*
D02*
X94Y1187D02*
X394Y1187D01*
D02*
X643Y1737D02*
X643Y1803D01*
D02*
X1444Y1737D02*
X643Y1737D01*
D02*
X1444Y1803D02*
X1444Y1737D01*
D02*
X1444Y1803D02*
X1444Y1737D01*
D02*
X1444Y1737D02*
X2243Y1737D01*
D02*
X2243Y1737D02*
X2243Y1803D01*
D02*
X1143Y1937D02*
X1143Y1872D01*
D02*
X1944Y1937D02*
X1143Y1937D01*
D02*
X1944Y1872D02*
X1944Y1937D01*
D02*
X1944Y1937D02*
X1944Y1872D01*
D02*
X2743Y1939D02*
X1944Y1937D01*
D02*
X2743Y1872D02*
X2743Y1939D01*
D02*
X643Y1737D02*
X467Y1473D01*
D02*
X643Y1803D02*
X643Y1737D01*
D02*
X443Y1395D02*
X443Y1381D01*
D02*
X2243Y1737D02*
X3042Y1737D01*
D02*
X3042Y1737D02*
X3043Y1803D01*
D02*
X2243Y1803D02*
X2243Y1737D01*
D02*
X192Y687D02*
X192Y538D01*
D02*
X192Y538D02*
X276Y414D01*
D02*
X229Y793D02*
X192Y687D01*
D02*
X244Y689D02*
X244Y538D01*
D02*
X244Y538D02*
X407Y408D01*
D02*
X320Y797D02*
X244Y689D01*
D02*
X944Y537D02*
X1026Y414D01*
D02*
X944Y688D02*
X944Y537D01*
D02*
X1021Y798D02*
X944Y688D01*
D02*
X993Y537D02*
X1157Y407D01*
D02*
X993Y688D02*
X993Y537D01*
D02*
X1115Y802D02*
X993Y688D01*
D02*
X1743Y537D02*
X1784Y418D01*
D02*
X1743Y689D02*
X1743Y537D01*
D02*
X1821Y798D02*
X1743Y689D01*
D02*
X1794Y689D02*
X1794Y537D01*
D02*
X1794Y537D02*
X1910Y411D01*
D02*
X1915Y802D02*
X1794Y689D01*
D02*
X2544Y538D02*
X2584Y418D01*
D02*
X2544Y688D02*
X2544Y538D01*
D02*
X2621Y798D02*
X2544Y688D01*
D02*
X2593Y688D02*
X2593Y538D01*
D02*
X2593Y538D02*
X2710Y411D01*
D02*
X2715Y802D02*
X2593Y688D01*
D02*
X401Y1338D02*
X386Y1338D01*
D02*
X744Y1939D02*
X744Y2005D01*
D02*
X1142Y1937D02*
X744Y1939D01*
D02*
X1143Y1872D02*
X1142Y1937D01*
D02*
X2819Y798D02*
X2712Y662D01*
D02*
X2950Y792D02*
X2985Y668D01*
D02*
X2019Y798D02*
X1912Y662D01*
D02*
X2150Y792D02*
X2185Y668D01*
D02*
X1219Y798D02*
X1112Y662D01*
D02*
X1350Y792D02*
X1385Y668D01*
D02*
X424Y794D02*
X358Y665D01*
D02*
X558Y795D02*
X629Y665D01*
G54D20*
X437Y1869D02*
X449Y1869D01*
X537Y1869D02*
X549Y1869D01*
X637Y1869D02*
X649Y1869D01*
X1237Y1869D02*
X1249Y1869D01*
X1337Y1869D02*
X1349Y1869D01*
X1437Y1869D02*
X1449Y1869D01*
X2037Y1869D02*
X2048Y1869D01*
X2137Y1869D02*
X2149Y1869D01*
X2237Y1869D02*
X2249Y1869D01*
X2837Y1869D02*
X2848Y1869D01*
X2937Y1869D02*
X2948Y1869D01*
X3037Y1869D02*
X3048Y1869D01*
X314Y1868D02*
X372Y1868D01*
X433Y1868D02*
X452Y1868D01*
X533Y1868D02*
X552Y1868D01*
X633Y1868D02*
X652Y1868D01*
X1114Y1868D02*
X1172Y1868D01*
X1233Y1868D02*
X1252Y1868D01*
X1333Y1868D02*
X1352Y1868D01*
X1433Y1868D02*
X1452Y1868D01*
X1913Y1868D02*
X1972Y1868D01*
X2033Y1868D02*
X2052Y1868D01*
X2133Y1868D02*
X2152Y1868D01*
X2233Y1868D02*
X2252Y1868D01*
X2713Y1868D02*
X2772Y1868D01*
X2833Y1868D02*
X2852Y1868D01*
X2933Y1868D02*
X2952Y1868D01*
X3033Y1868D02*
X3052Y1868D01*
X314Y1867D02*
X372Y1867D01*
X431Y1867D02*
X455Y1867D01*
X531Y1867D02*
X555Y1867D01*
X631Y1867D02*
X655Y1867D01*
X1114Y1867D02*
X1172Y1867D01*
X1231Y1867D02*
X1255Y1867D01*
X1331Y1867D02*
X1355Y1867D01*
X1431Y1867D02*
X1455Y1867D01*
X1913Y1867D02*
X1972Y1867D01*
X2031Y1867D02*
X2055Y1867D01*
X2131Y1867D02*
X2155Y1867D01*
X2231Y1867D02*
X2255Y1867D01*
X2713Y1867D02*
X2772Y1867D01*
X2831Y1867D02*
X2855Y1867D01*
X2931Y1867D02*
X2955Y1867D01*
X3031Y1867D02*
X3055Y1867D01*
X314Y1866D02*
X372Y1866D01*
X429Y1866D02*
X457Y1866D01*
X529Y1866D02*
X557Y1866D01*
X629Y1866D02*
X657Y1866D01*
X1114Y1866D02*
X1172Y1866D01*
X1229Y1866D02*
X1257Y1866D01*
X1329Y1866D02*
X1357Y1866D01*
X1429Y1866D02*
X1457Y1866D01*
X1913Y1866D02*
X1972Y1866D01*
X2029Y1866D02*
X2057Y1866D01*
X2129Y1866D02*
X2157Y1866D01*
X2229Y1866D02*
X2257Y1866D01*
X2713Y1866D02*
X2772Y1866D01*
X2829Y1866D02*
X2857Y1866D01*
X2929Y1866D02*
X2957Y1866D01*
X3029Y1866D02*
X3057Y1866D01*
X314Y1865D02*
X372Y1865D01*
X427Y1865D02*
X459Y1865D01*
X527Y1865D02*
X559Y1865D01*
X627Y1865D02*
X659Y1865D01*
X1114Y1865D02*
X1172Y1865D01*
X1227Y1865D02*
X1259Y1865D01*
X1327Y1865D02*
X1359Y1865D01*
X1427Y1865D02*
X1459Y1865D01*
X1913Y1865D02*
X1972Y1865D01*
X2027Y1865D02*
X2059Y1865D01*
X2127Y1865D02*
X2159Y1865D01*
X2227Y1865D02*
X2259Y1865D01*
X2713Y1865D02*
X2772Y1865D01*
X2827Y1865D02*
X2858Y1865D01*
X2927Y1865D02*
X2958Y1865D01*
X3027Y1865D02*
X3058Y1865D01*
X314Y1864D02*
X372Y1864D01*
X426Y1864D02*
X460Y1864D01*
X526Y1864D02*
X560Y1864D01*
X626Y1864D02*
X660Y1864D01*
X1114Y1864D02*
X1172Y1864D01*
X1226Y1864D02*
X1260Y1864D01*
X1326Y1864D02*
X1360Y1864D01*
X1426Y1864D02*
X1460Y1864D01*
X1913Y1864D02*
X1972Y1864D01*
X2025Y1864D02*
X2060Y1864D01*
X2125Y1864D02*
X2160Y1864D01*
X2225Y1864D02*
X2260Y1864D01*
X2713Y1864D02*
X2772Y1864D01*
X2825Y1864D02*
X2860Y1864D01*
X2925Y1864D02*
X2960Y1864D01*
X3025Y1864D02*
X3060Y1864D01*
X314Y1863D02*
X372Y1863D01*
X424Y1863D02*
X461Y1863D01*
X524Y1863D02*
X561Y1863D01*
X624Y1863D02*
X662Y1863D01*
X1114Y1863D02*
X1172Y1863D01*
X1224Y1863D02*
X1261Y1863D01*
X1324Y1863D02*
X1361Y1863D01*
X1424Y1863D02*
X1461Y1863D01*
X1913Y1863D02*
X1972Y1863D01*
X2024Y1863D02*
X2061Y1863D01*
X2124Y1863D02*
X2161Y1863D01*
X2224Y1863D02*
X2261Y1863D01*
X2713Y1863D02*
X2772Y1863D01*
X2824Y1863D02*
X2861Y1863D01*
X2924Y1863D02*
X2961Y1863D01*
X3024Y1863D02*
X3061Y1863D01*
X314Y1862D02*
X372Y1862D01*
X423Y1862D02*
X463Y1862D01*
X523Y1862D02*
X563Y1862D01*
X623Y1862D02*
X663Y1862D01*
X1114Y1862D02*
X1172Y1862D01*
X1223Y1862D02*
X1263Y1862D01*
X1323Y1862D02*
X1363Y1862D01*
X1423Y1862D02*
X1463Y1862D01*
X1913Y1862D02*
X1972Y1862D01*
X2023Y1862D02*
X2063Y1862D01*
X2123Y1862D02*
X2163Y1862D01*
X2223Y1862D02*
X2263Y1862D01*
X2713Y1862D02*
X2772Y1862D01*
X2823Y1862D02*
X2863Y1862D01*
X2923Y1862D02*
X2963Y1862D01*
X3023Y1862D02*
X3063Y1862D01*
X314Y1861D02*
X372Y1861D01*
X422Y1861D02*
X464Y1861D01*
X522Y1861D02*
X564Y1861D01*
X622Y1861D02*
X664Y1861D01*
X1114Y1861D02*
X1172Y1861D01*
X1222Y1861D02*
X1264Y1861D01*
X1322Y1861D02*
X1364Y1861D01*
X1422Y1861D02*
X1464Y1861D01*
X1913Y1861D02*
X1972Y1861D01*
X2022Y1861D02*
X2064Y1861D01*
X2122Y1861D02*
X2164Y1861D01*
X2222Y1861D02*
X2264Y1861D01*
X2713Y1861D02*
X2772Y1861D01*
X2822Y1861D02*
X2864Y1861D01*
X2922Y1861D02*
X2964Y1861D01*
X3022Y1861D02*
X3064Y1861D01*
X314Y1860D02*
X372Y1860D01*
X421Y1860D02*
X465Y1860D01*
X521Y1860D02*
X565Y1860D01*
X621Y1860D02*
X665Y1860D01*
X1114Y1860D02*
X1172Y1860D01*
X1221Y1860D02*
X1265Y1860D01*
X1321Y1860D02*
X1365Y1860D01*
X1421Y1860D02*
X1465Y1860D01*
X1913Y1860D02*
X1972Y1860D01*
X2021Y1860D02*
X2065Y1860D01*
X2121Y1860D02*
X2165Y1860D01*
X2221Y1860D02*
X2265Y1860D01*
X2713Y1860D02*
X2772Y1860D01*
X2821Y1860D02*
X2865Y1860D01*
X2921Y1860D02*
X2965Y1860D01*
X3021Y1860D02*
X3065Y1860D01*
X314Y1859D02*
X372Y1859D01*
X420Y1859D02*
X466Y1859D01*
X520Y1859D02*
X566Y1859D01*
X620Y1859D02*
X666Y1859D01*
X1114Y1859D02*
X1172Y1859D01*
X1220Y1859D02*
X1266Y1859D01*
X1320Y1859D02*
X1366Y1859D01*
X1420Y1859D02*
X1466Y1859D01*
X1913Y1859D02*
X1972Y1859D01*
X2020Y1859D02*
X2066Y1859D01*
X2120Y1859D02*
X2166Y1859D01*
X2220Y1859D02*
X2266Y1859D01*
X2713Y1859D02*
X2772Y1859D01*
X2820Y1859D02*
X2866Y1859D01*
X2920Y1859D02*
X2966Y1859D01*
X3020Y1859D02*
X3066Y1859D01*
X314Y1858D02*
X372Y1858D01*
X419Y1858D02*
X467Y1858D01*
X519Y1858D02*
X567Y1858D01*
X619Y1858D02*
X667Y1858D01*
X1114Y1858D02*
X1172Y1858D01*
X1219Y1858D02*
X1266Y1858D01*
X1319Y1858D02*
X1366Y1858D01*
X1419Y1858D02*
X1467Y1858D01*
X1913Y1858D02*
X1972Y1858D01*
X2019Y1858D02*
X2066Y1858D01*
X2119Y1858D02*
X2166Y1858D01*
X2219Y1858D02*
X2266Y1858D01*
X2713Y1858D02*
X2772Y1858D01*
X2819Y1858D02*
X2866Y1858D01*
X2919Y1858D02*
X2966Y1858D01*
X3019Y1858D02*
X3066Y1858D01*
X314Y1857D02*
X340Y1857D01*
X345Y1857D02*
X372Y1857D01*
X418Y1857D02*
X440Y1857D01*
X445Y1857D02*
X467Y1857D01*
X518Y1857D02*
X540Y1857D01*
X545Y1857D02*
X567Y1857D01*
X618Y1857D02*
X640Y1857D01*
X645Y1857D02*
X667Y1857D01*
X1114Y1857D02*
X1140Y1857D01*
X1145Y1857D02*
X1172Y1857D01*
X1218Y1857D02*
X1240Y1857D01*
X1245Y1857D02*
X1267Y1857D01*
X1318Y1857D02*
X1340Y1857D01*
X1345Y1857D02*
X1367Y1857D01*
X1418Y1857D02*
X1440Y1857D01*
X1445Y1857D02*
X1467Y1857D01*
X1913Y1857D02*
X1940Y1857D01*
X1945Y1857D02*
X1972Y1857D01*
X2018Y1857D02*
X2040Y1857D01*
X2045Y1857D02*
X2067Y1857D01*
X2118Y1857D02*
X2140Y1857D01*
X2145Y1857D02*
X2167Y1857D01*
X2218Y1857D02*
X2240Y1857D01*
X2245Y1857D02*
X2267Y1857D01*
X2713Y1857D02*
X2740Y1857D01*
X2745Y1857D02*
X2772Y1857D01*
X2818Y1857D02*
X2840Y1857D01*
X2845Y1857D02*
X2867Y1857D01*
X2918Y1857D02*
X2940Y1857D01*
X2945Y1857D02*
X2967Y1857D01*
X3018Y1857D02*
X3040Y1857D01*
X3045Y1857D02*
X3067Y1857D01*
X314Y1856D02*
X336Y1856D01*
X350Y1856D02*
X372Y1856D01*
X418Y1856D02*
X436Y1856D01*
X450Y1856D02*
X468Y1856D01*
X518Y1856D02*
X536Y1856D01*
X550Y1856D02*
X568Y1856D01*
X618Y1856D02*
X636Y1856D01*
X650Y1856D02*
X668Y1856D01*
X1114Y1856D02*
X1136Y1856D01*
X1150Y1856D02*
X1172Y1856D01*
X1218Y1856D02*
X1236Y1856D01*
X1250Y1856D02*
X1268Y1856D01*
X1318Y1856D02*
X1336Y1856D01*
X1350Y1856D02*
X1368Y1856D01*
X1418Y1856D02*
X1436Y1856D01*
X1450Y1856D02*
X1468Y1856D01*
X1913Y1856D02*
X1936Y1856D01*
X1950Y1856D02*
X1972Y1856D01*
X2018Y1856D02*
X2036Y1856D01*
X2050Y1856D02*
X2068Y1856D01*
X2118Y1856D02*
X2136Y1856D01*
X2150Y1856D02*
X2168Y1856D01*
X2218Y1856D02*
X2236Y1856D01*
X2250Y1856D02*
X2268Y1856D01*
X2713Y1856D02*
X2736Y1856D01*
X2750Y1856D02*
X2772Y1856D01*
X2818Y1856D02*
X2836Y1856D01*
X2850Y1856D02*
X2868Y1856D01*
X2918Y1856D02*
X2936Y1856D01*
X2950Y1856D02*
X2968Y1856D01*
X3018Y1856D02*
X3036Y1856D01*
X3050Y1856D02*
X3068Y1856D01*
X314Y1855D02*
X334Y1855D01*
X352Y1855D02*
X372Y1855D01*
X417Y1855D02*
X434Y1855D01*
X452Y1855D02*
X469Y1855D01*
X517Y1855D02*
X534Y1855D01*
X552Y1855D02*
X569Y1855D01*
X617Y1855D02*
X634Y1855D01*
X652Y1855D02*
X669Y1855D01*
X1114Y1855D02*
X1134Y1855D01*
X1152Y1855D02*
X1172Y1855D01*
X1217Y1855D02*
X1234Y1855D01*
X1252Y1855D02*
X1269Y1855D01*
X1317Y1855D02*
X1334Y1855D01*
X1352Y1855D02*
X1369Y1855D01*
X1417Y1855D02*
X1434Y1855D01*
X1452Y1855D02*
X1469Y1855D01*
X1913Y1855D02*
X1934Y1855D01*
X1952Y1855D02*
X1972Y1855D01*
X2017Y1855D02*
X2034Y1855D01*
X2052Y1855D02*
X2069Y1855D01*
X2117Y1855D02*
X2134Y1855D01*
X2152Y1855D02*
X2169Y1855D01*
X2217Y1855D02*
X2234Y1855D01*
X2252Y1855D02*
X2269Y1855D01*
X2713Y1855D02*
X2734Y1855D01*
X2752Y1855D02*
X2772Y1855D01*
X2817Y1855D02*
X2834Y1855D01*
X2852Y1855D02*
X2868Y1855D01*
X2917Y1855D02*
X2934Y1855D01*
X2952Y1855D02*
X2969Y1855D01*
X3017Y1855D02*
X3034Y1855D01*
X3052Y1855D02*
X3069Y1855D01*
X314Y1854D02*
X332Y1854D01*
X354Y1854D02*
X372Y1854D01*
X416Y1854D02*
X432Y1854D01*
X454Y1854D02*
X469Y1854D01*
X516Y1854D02*
X532Y1854D01*
X554Y1854D02*
X569Y1854D01*
X616Y1854D02*
X632Y1854D01*
X654Y1854D02*
X669Y1854D01*
X1114Y1854D02*
X1132Y1854D01*
X1154Y1854D02*
X1172Y1854D01*
X1216Y1854D02*
X1232Y1854D01*
X1254Y1854D02*
X1269Y1854D01*
X1316Y1854D02*
X1332Y1854D01*
X1354Y1854D02*
X1369Y1854D01*
X1416Y1854D02*
X1432Y1854D01*
X1454Y1854D02*
X1469Y1854D01*
X1913Y1854D02*
X1932Y1854D01*
X1954Y1854D02*
X1972Y1854D01*
X2016Y1854D02*
X2032Y1854D01*
X2054Y1854D02*
X2069Y1854D01*
X2116Y1854D02*
X2132Y1854D01*
X2154Y1854D02*
X2169Y1854D01*
X2216Y1854D02*
X2232Y1854D01*
X2254Y1854D02*
X2269Y1854D01*
X2713Y1854D02*
X2732Y1854D01*
X2754Y1854D02*
X2772Y1854D01*
X2816Y1854D02*
X2832Y1854D01*
X2854Y1854D02*
X2869Y1854D01*
X2916Y1854D02*
X2932Y1854D01*
X2954Y1854D02*
X2969Y1854D01*
X3016Y1854D02*
X3032Y1854D01*
X3054Y1854D02*
X3069Y1854D01*
X314Y1853D02*
X331Y1853D01*
X355Y1853D02*
X372Y1853D01*
X416Y1853D02*
X431Y1853D01*
X455Y1853D02*
X470Y1853D01*
X516Y1853D02*
X531Y1853D01*
X555Y1853D02*
X570Y1853D01*
X616Y1853D02*
X631Y1853D01*
X655Y1853D02*
X670Y1853D01*
X1114Y1853D02*
X1131Y1853D01*
X1155Y1853D02*
X1172Y1853D01*
X1216Y1853D02*
X1231Y1853D01*
X1255Y1853D02*
X1270Y1853D01*
X1316Y1853D02*
X1331Y1853D01*
X1355Y1853D02*
X1370Y1853D01*
X1416Y1853D02*
X1431Y1853D01*
X1455Y1853D02*
X1470Y1853D01*
X1913Y1853D02*
X1931Y1853D01*
X1955Y1853D02*
X1972Y1853D01*
X2016Y1853D02*
X2031Y1853D01*
X2055Y1853D02*
X2070Y1853D01*
X2116Y1853D02*
X2131Y1853D01*
X2155Y1853D02*
X2170Y1853D01*
X2216Y1853D02*
X2231Y1853D01*
X2255Y1853D02*
X2270Y1853D01*
X2713Y1853D02*
X2731Y1853D01*
X2755Y1853D02*
X2772Y1853D01*
X2816Y1853D02*
X2831Y1853D01*
X2855Y1853D02*
X2870Y1853D01*
X2916Y1853D02*
X2931Y1853D01*
X2955Y1853D02*
X2970Y1853D01*
X3016Y1853D02*
X3031Y1853D01*
X3055Y1853D02*
X3070Y1853D01*
X314Y1852D02*
X330Y1852D01*
X356Y1852D02*
X372Y1852D01*
X415Y1852D02*
X430Y1852D01*
X456Y1852D02*
X470Y1852D01*
X515Y1852D02*
X530Y1852D01*
X556Y1852D02*
X570Y1852D01*
X615Y1852D02*
X630Y1852D01*
X656Y1852D02*
X670Y1852D01*
X1114Y1852D02*
X1129Y1852D01*
X1156Y1852D02*
X1172Y1852D01*
X1215Y1852D02*
X1229Y1852D01*
X1256Y1852D02*
X1270Y1852D01*
X1315Y1852D02*
X1329Y1852D01*
X1356Y1852D02*
X1370Y1852D01*
X1415Y1852D02*
X1429Y1852D01*
X1456Y1852D02*
X1470Y1852D01*
X1913Y1852D02*
X1929Y1852D01*
X1956Y1852D02*
X1972Y1852D01*
X2015Y1852D02*
X2029Y1852D01*
X2056Y1852D02*
X2070Y1852D01*
X2115Y1852D02*
X2129Y1852D01*
X2156Y1852D02*
X2170Y1852D01*
X2215Y1852D02*
X2229Y1852D01*
X2256Y1852D02*
X2270Y1852D01*
X2713Y1852D02*
X2729Y1852D01*
X2756Y1852D02*
X2772Y1852D01*
X2815Y1852D02*
X2829Y1852D01*
X2856Y1852D02*
X2870Y1852D01*
X2915Y1852D02*
X2929Y1852D01*
X2956Y1852D02*
X2970Y1852D01*
X3015Y1852D02*
X3029Y1852D01*
X3056Y1852D02*
X3070Y1852D01*
X314Y1851D02*
X329Y1851D01*
X357Y1851D02*
X372Y1851D01*
X415Y1851D02*
X429Y1851D01*
X457Y1851D02*
X471Y1851D01*
X515Y1851D02*
X529Y1851D01*
X557Y1851D02*
X571Y1851D01*
X615Y1851D02*
X629Y1851D01*
X657Y1851D02*
X671Y1851D01*
X1114Y1851D02*
X1129Y1851D01*
X1157Y1851D02*
X1172Y1851D01*
X1215Y1851D02*
X1229Y1851D01*
X1257Y1851D02*
X1271Y1851D01*
X1315Y1851D02*
X1329Y1851D01*
X1357Y1851D02*
X1371Y1851D01*
X1415Y1851D02*
X1429Y1851D01*
X1457Y1851D02*
X1471Y1851D01*
X1913Y1851D02*
X1929Y1851D01*
X1957Y1851D02*
X1972Y1851D01*
X2015Y1851D02*
X2029Y1851D01*
X2057Y1851D02*
X2071Y1851D01*
X2115Y1851D02*
X2129Y1851D01*
X2157Y1851D02*
X2171Y1851D01*
X2215Y1851D02*
X2229Y1851D01*
X2257Y1851D02*
X2271Y1851D01*
X2713Y1851D02*
X2728Y1851D01*
X2757Y1851D02*
X2772Y1851D01*
X2815Y1851D02*
X2828Y1851D01*
X2857Y1851D02*
X2871Y1851D01*
X2915Y1851D02*
X2928Y1851D01*
X2957Y1851D02*
X2971Y1851D01*
X3015Y1851D02*
X3028Y1851D01*
X3057Y1851D02*
X3071Y1851D01*
X314Y1850D02*
X328Y1850D01*
X358Y1850D02*
X372Y1850D01*
X415Y1850D02*
X428Y1850D01*
X458Y1850D02*
X471Y1850D01*
X515Y1850D02*
X528Y1850D01*
X558Y1850D02*
X571Y1850D01*
X615Y1850D02*
X628Y1850D01*
X658Y1850D02*
X671Y1850D01*
X1114Y1850D02*
X1128Y1850D01*
X1158Y1850D02*
X1172Y1850D01*
X1215Y1850D02*
X1228Y1850D01*
X1258Y1850D02*
X1271Y1850D01*
X1315Y1850D02*
X1328Y1850D01*
X1358Y1850D02*
X1371Y1850D01*
X1415Y1850D02*
X1428Y1850D01*
X1458Y1850D02*
X1471Y1850D01*
X1913Y1850D02*
X1928Y1850D01*
X1958Y1850D02*
X1972Y1850D01*
X2014Y1850D02*
X2028Y1850D01*
X2058Y1850D02*
X2071Y1850D01*
X2114Y1850D02*
X2128Y1850D01*
X2158Y1850D02*
X2171Y1850D01*
X2214Y1850D02*
X2228Y1850D01*
X2258Y1850D02*
X2271Y1850D01*
X2713Y1850D02*
X2728Y1850D01*
X2758Y1850D02*
X2772Y1850D01*
X2814Y1850D02*
X2828Y1850D01*
X2858Y1850D02*
X2871Y1850D01*
X2914Y1850D02*
X2928Y1850D01*
X2958Y1850D02*
X2971Y1850D01*
X3014Y1850D02*
X3028Y1850D01*
X3058Y1850D02*
X3071Y1850D01*
X314Y1849D02*
X327Y1849D01*
X359Y1849D02*
X372Y1849D01*
X414Y1849D02*
X427Y1849D01*
X459Y1849D02*
X472Y1849D01*
X514Y1849D02*
X527Y1849D01*
X559Y1849D02*
X572Y1849D01*
X614Y1849D02*
X627Y1849D01*
X659Y1849D02*
X672Y1849D01*
X1114Y1849D02*
X1127Y1849D01*
X1159Y1849D02*
X1172Y1849D01*
X1214Y1849D02*
X1227Y1849D01*
X1259Y1849D02*
X1271Y1849D01*
X1314Y1849D02*
X1327Y1849D01*
X1359Y1849D02*
X1371Y1849D01*
X1414Y1849D02*
X1427Y1849D01*
X1459Y1849D02*
X1471Y1849D01*
X1913Y1849D02*
X1927Y1849D01*
X1959Y1849D02*
X1972Y1849D01*
X2014Y1849D02*
X2027Y1849D01*
X2059Y1849D02*
X2071Y1849D01*
X2114Y1849D02*
X2127Y1849D01*
X2159Y1849D02*
X2171Y1849D01*
X2214Y1849D02*
X2227Y1849D01*
X2259Y1849D02*
X2271Y1849D01*
X2713Y1849D02*
X2727Y1849D01*
X2759Y1849D02*
X2772Y1849D01*
X2814Y1849D02*
X2827Y1849D01*
X2859Y1849D02*
X2871Y1849D01*
X2914Y1849D02*
X2927Y1849D01*
X2959Y1849D02*
X2971Y1849D01*
X3014Y1849D02*
X3027Y1849D01*
X3059Y1849D02*
X3071Y1849D01*
X314Y1848D02*
X326Y1848D01*
X359Y1848D02*
X372Y1848D01*
X414Y1848D02*
X426Y1848D01*
X459Y1848D02*
X472Y1848D01*
X514Y1848D02*
X526Y1848D01*
X559Y1848D02*
X572Y1848D01*
X614Y1848D02*
X626Y1848D01*
X659Y1848D02*
X672Y1848D01*
X1114Y1848D02*
X1126Y1848D01*
X1159Y1848D02*
X1172Y1848D01*
X1214Y1848D02*
X1226Y1848D01*
X1259Y1848D02*
X1272Y1848D01*
X1314Y1848D02*
X1326Y1848D01*
X1359Y1848D02*
X1372Y1848D01*
X1414Y1848D02*
X1426Y1848D01*
X1459Y1848D02*
X1472Y1848D01*
X1913Y1848D02*
X1926Y1848D01*
X1959Y1848D02*
X1972Y1848D01*
X2014Y1848D02*
X2026Y1848D01*
X2059Y1848D02*
X2072Y1848D01*
X2114Y1848D02*
X2126Y1848D01*
X2159Y1848D02*
X2172Y1848D01*
X2214Y1848D02*
X2226Y1848D01*
X2259Y1848D02*
X2272Y1848D01*
X2713Y1848D02*
X2726Y1848D01*
X2759Y1848D02*
X2772Y1848D01*
X2814Y1848D02*
X2826Y1848D01*
X2859Y1848D02*
X2872Y1848D01*
X2914Y1848D02*
X2926Y1848D01*
X2959Y1848D02*
X2972Y1848D01*
X3014Y1848D02*
X3026Y1848D01*
X3059Y1848D02*
X3072Y1848D01*
X314Y1847D02*
X326Y1847D01*
X360Y1847D02*
X372Y1847D01*
X414Y1847D02*
X426Y1847D01*
X460Y1847D02*
X472Y1847D01*
X514Y1847D02*
X526Y1847D01*
X560Y1847D02*
X572Y1847D01*
X614Y1847D02*
X626Y1847D01*
X660Y1847D02*
X672Y1847D01*
X1114Y1847D02*
X1126Y1847D01*
X1160Y1847D02*
X1172Y1847D01*
X1213Y1847D02*
X1226Y1847D01*
X1260Y1847D02*
X1272Y1847D01*
X1314Y1847D02*
X1326Y1847D01*
X1360Y1847D02*
X1372Y1847D01*
X1414Y1847D02*
X1426Y1847D01*
X1460Y1847D02*
X1472Y1847D01*
X1913Y1847D02*
X1926Y1847D01*
X1960Y1847D02*
X1972Y1847D01*
X2013Y1847D02*
X2026Y1847D01*
X2060Y1847D02*
X2072Y1847D01*
X2113Y1847D02*
X2126Y1847D01*
X2160Y1847D02*
X2172Y1847D01*
X2213Y1847D02*
X2226Y1847D01*
X2260Y1847D02*
X2272Y1847D01*
X2713Y1847D02*
X2726Y1847D01*
X2760Y1847D02*
X2772Y1847D01*
X2813Y1847D02*
X2826Y1847D01*
X2860Y1847D02*
X2872Y1847D01*
X2913Y1847D02*
X2926Y1847D01*
X2960Y1847D02*
X2972Y1847D01*
X3013Y1847D02*
X3026Y1847D01*
X3060Y1847D02*
X3072Y1847D01*
X314Y1846D02*
X325Y1846D01*
X360Y1846D02*
X372Y1846D01*
X413Y1846D02*
X425Y1846D01*
X460Y1846D02*
X472Y1846D01*
X513Y1846D02*
X525Y1846D01*
X560Y1846D02*
X572Y1846D01*
X613Y1846D02*
X625Y1846D01*
X660Y1846D02*
X672Y1846D01*
X1114Y1846D02*
X1125Y1846D01*
X1160Y1846D02*
X1172Y1846D01*
X1213Y1846D02*
X1225Y1846D01*
X1260Y1846D02*
X1272Y1846D01*
X1313Y1846D02*
X1325Y1846D01*
X1360Y1846D02*
X1372Y1846D01*
X1413Y1846D02*
X1425Y1846D01*
X1460Y1846D02*
X1472Y1846D01*
X1913Y1846D02*
X1925Y1846D01*
X1960Y1846D02*
X1972Y1846D01*
X2013Y1846D02*
X2025Y1846D01*
X2060Y1846D02*
X2072Y1846D01*
X2113Y1846D02*
X2125Y1846D01*
X2160Y1846D02*
X2172Y1846D01*
X2213Y1846D02*
X2225Y1846D01*
X2260Y1846D02*
X2272Y1846D01*
X2713Y1846D02*
X2725Y1846D01*
X2760Y1846D02*
X2772Y1846D01*
X2813Y1846D02*
X2825Y1846D01*
X2860Y1846D02*
X2872Y1846D01*
X2913Y1846D02*
X2925Y1846D01*
X2960Y1846D02*
X2972Y1846D01*
X3013Y1846D02*
X3025Y1846D01*
X3060Y1846D02*
X3072Y1846D01*
X314Y1845D02*
X325Y1845D01*
X361Y1845D02*
X372Y1845D01*
X413Y1845D02*
X425Y1845D01*
X461Y1845D02*
X473Y1845D01*
X513Y1845D02*
X525Y1845D01*
X561Y1845D02*
X573Y1845D01*
X613Y1845D02*
X625Y1845D01*
X661Y1845D02*
X673Y1845D01*
X1114Y1845D02*
X1125Y1845D01*
X1161Y1845D02*
X1172Y1845D01*
X1213Y1845D02*
X1225Y1845D01*
X1261Y1845D02*
X1273Y1845D01*
X1313Y1845D02*
X1325Y1845D01*
X1361Y1845D02*
X1373Y1845D01*
X1413Y1845D02*
X1425Y1845D01*
X1461Y1845D02*
X1473Y1845D01*
X1913Y1845D02*
X1925Y1845D01*
X1961Y1845D02*
X1972Y1845D01*
X2013Y1845D02*
X2025Y1845D01*
X2061Y1845D02*
X2073Y1845D01*
X2113Y1845D02*
X2125Y1845D01*
X2161Y1845D02*
X2173Y1845D01*
X2213Y1845D02*
X2225Y1845D01*
X2261Y1845D02*
X2273Y1845D01*
X2713Y1845D02*
X2725Y1845D01*
X2761Y1845D02*
X2772Y1845D01*
X2813Y1845D02*
X2825Y1845D01*
X2861Y1845D02*
X2873Y1845D01*
X2913Y1845D02*
X2925Y1845D01*
X2961Y1845D02*
X2973Y1845D01*
X3013Y1845D02*
X3025Y1845D01*
X3061Y1845D02*
X3073Y1845D01*
X314Y1844D02*
X325Y1844D01*
X361Y1844D02*
X372Y1844D01*
X413Y1844D02*
X425Y1844D01*
X461Y1844D02*
X473Y1844D01*
X513Y1844D02*
X525Y1844D01*
X561Y1844D02*
X573Y1844D01*
X613Y1844D02*
X625Y1844D01*
X661Y1844D02*
X673Y1844D01*
X1114Y1844D02*
X1125Y1844D01*
X1161Y1844D02*
X1172Y1844D01*
X1213Y1844D02*
X1225Y1844D01*
X1261Y1844D02*
X1273Y1844D01*
X1313Y1844D02*
X1325Y1844D01*
X1361Y1844D02*
X1373Y1844D01*
X1413Y1844D02*
X1425Y1844D01*
X1461Y1844D02*
X1473Y1844D01*
X1913Y1844D02*
X1925Y1844D01*
X1961Y1844D02*
X1972Y1844D01*
X2013Y1844D02*
X2025Y1844D01*
X2061Y1844D02*
X2073Y1844D01*
X2113Y1844D02*
X2125Y1844D01*
X2161Y1844D02*
X2173Y1844D01*
X2213Y1844D02*
X2225Y1844D01*
X2261Y1844D02*
X2273Y1844D01*
X2713Y1844D02*
X2725Y1844D01*
X2761Y1844D02*
X2772Y1844D01*
X2813Y1844D02*
X2825Y1844D01*
X2861Y1844D02*
X2873Y1844D01*
X2913Y1844D02*
X2925Y1844D01*
X2961Y1844D02*
X2973Y1844D01*
X3013Y1844D02*
X3025Y1844D01*
X3061Y1844D02*
X3073Y1844D01*
X314Y1843D02*
X324Y1843D01*
X361Y1843D02*
X372Y1843D01*
X413Y1843D02*
X424Y1843D01*
X461Y1843D02*
X473Y1843D01*
X513Y1843D02*
X524Y1843D01*
X561Y1843D02*
X573Y1843D01*
X613Y1843D02*
X624Y1843D01*
X661Y1843D02*
X673Y1843D01*
X1114Y1843D02*
X1124Y1843D01*
X1161Y1843D02*
X1172Y1843D01*
X1213Y1843D02*
X1224Y1843D01*
X1261Y1843D02*
X1273Y1843D01*
X1313Y1843D02*
X1324Y1843D01*
X1361Y1843D02*
X1373Y1843D01*
X1413Y1843D02*
X1424Y1843D01*
X1461Y1843D02*
X1473Y1843D01*
X1913Y1843D02*
X1924Y1843D01*
X1961Y1843D02*
X1972Y1843D01*
X2013Y1843D02*
X2024Y1843D01*
X2061Y1843D02*
X2073Y1843D01*
X2113Y1843D02*
X2124Y1843D01*
X2161Y1843D02*
X2173Y1843D01*
X2213Y1843D02*
X2224Y1843D01*
X2261Y1843D02*
X2273Y1843D01*
X2713Y1843D02*
X2724Y1843D01*
X2761Y1843D02*
X2772Y1843D01*
X2813Y1843D02*
X2824Y1843D01*
X2861Y1843D02*
X2873Y1843D01*
X2913Y1843D02*
X2924Y1843D01*
X2961Y1843D02*
X2973Y1843D01*
X3013Y1843D02*
X3024Y1843D01*
X3061Y1843D02*
X3073Y1843D01*
X314Y1842D02*
X324Y1842D01*
X362Y1842D02*
X372Y1842D01*
X413Y1842D02*
X424Y1842D01*
X462Y1842D02*
X473Y1842D01*
X513Y1842D02*
X524Y1842D01*
X562Y1842D02*
X573Y1842D01*
X613Y1842D02*
X624Y1842D01*
X662Y1842D02*
X673Y1842D01*
X1114Y1842D02*
X1124Y1842D01*
X1161Y1842D02*
X1172Y1842D01*
X1213Y1842D02*
X1224Y1842D01*
X1261Y1842D02*
X1273Y1842D01*
X1313Y1842D02*
X1324Y1842D01*
X1362Y1842D02*
X1373Y1842D01*
X1413Y1842D02*
X1424Y1842D01*
X1461Y1842D02*
X1473Y1842D01*
X1913Y1842D02*
X1924Y1842D01*
X1961Y1842D02*
X1972Y1842D01*
X2012Y1842D02*
X2024Y1842D01*
X2061Y1842D02*
X2073Y1842D01*
X2112Y1842D02*
X2124Y1842D01*
X2161Y1842D02*
X2173Y1842D01*
X2212Y1842D02*
X2224Y1842D01*
X2261Y1842D02*
X2273Y1842D01*
X2713Y1842D02*
X2724Y1842D01*
X2761Y1842D02*
X2772Y1842D01*
X2812Y1842D02*
X2824Y1842D01*
X2861Y1842D02*
X2873Y1842D01*
X2912Y1842D02*
X2924Y1842D01*
X2961Y1842D02*
X2973Y1842D01*
X3012Y1842D02*
X3024Y1842D01*
X3061Y1842D02*
X3073Y1842D01*
X314Y1841D02*
X324Y1841D01*
X362Y1841D02*
X372Y1841D01*
X413Y1841D02*
X424Y1841D01*
X462Y1841D02*
X473Y1841D01*
X513Y1841D02*
X524Y1841D01*
X562Y1841D02*
X573Y1841D01*
X613Y1841D02*
X624Y1841D01*
X662Y1841D02*
X673Y1841D01*
X1114Y1841D02*
X1124Y1841D01*
X1162Y1841D02*
X1172Y1841D01*
X1212Y1841D02*
X1224Y1841D01*
X1262Y1841D02*
X1273Y1841D01*
X1312Y1841D02*
X1324Y1841D01*
X1362Y1841D02*
X1373Y1841D01*
X1412Y1841D02*
X1424Y1841D01*
X1462Y1841D02*
X1473Y1841D01*
X1913Y1841D02*
X1924Y1841D01*
X1962Y1841D02*
X1972Y1841D01*
X2012Y1841D02*
X2024Y1841D01*
X2062Y1841D02*
X2073Y1841D01*
X2112Y1841D02*
X2124Y1841D01*
X2162Y1841D02*
X2173Y1841D01*
X2212Y1841D02*
X2224Y1841D01*
X2262Y1841D02*
X2273Y1841D01*
X2713Y1841D02*
X2724Y1841D01*
X2762Y1841D02*
X2772Y1841D01*
X2812Y1841D02*
X2824Y1841D01*
X2861Y1841D02*
X2873Y1841D01*
X2912Y1841D02*
X2924Y1841D01*
X2962Y1841D02*
X2973Y1841D01*
X3012Y1841D02*
X3024Y1841D01*
X3062Y1841D02*
X3073Y1841D01*
X314Y1840D02*
X324Y1840D01*
X362Y1840D02*
X372Y1840D01*
X412Y1840D02*
X424Y1840D01*
X462Y1840D02*
X473Y1840D01*
X512Y1840D02*
X524Y1840D01*
X562Y1840D02*
X573Y1840D01*
X612Y1840D02*
X624Y1840D01*
X662Y1840D02*
X673Y1840D01*
X1114Y1840D02*
X1124Y1840D01*
X1162Y1840D02*
X1172Y1840D01*
X1212Y1840D02*
X1224Y1840D01*
X1262Y1840D02*
X1273Y1840D01*
X1312Y1840D02*
X1324Y1840D01*
X1362Y1840D02*
X1373Y1840D01*
X1412Y1840D02*
X1424Y1840D01*
X1462Y1840D02*
X1473Y1840D01*
X1913Y1840D02*
X1924Y1840D01*
X1962Y1840D02*
X1972Y1840D01*
X2012Y1840D02*
X2024Y1840D01*
X2062Y1840D02*
X2073Y1840D01*
X2112Y1840D02*
X2124Y1840D01*
X2162Y1840D02*
X2173Y1840D01*
X2212Y1840D02*
X2224Y1840D01*
X2262Y1840D02*
X2273Y1840D01*
X2713Y1840D02*
X2724Y1840D01*
X2762Y1840D02*
X2772Y1840D01*
X2812Y1840D02*
X2824Y1840D01*
X2862Y1840D02*
X2873Y1840D01*
X2912Y1840D02*
X2924Y1840D01*
X2962Y1840D02*
X2973Y1840D01*
X3012Y1840D02*
X3024Y1840D01*
X3062Y1840D02*
X3073Y1840D01*
X314Y1839D02*
X324Y1839D01*
X362Y1839D02*
X372Y1839D01*
X412Y1839D02*
X424Y1839D01*
X462Y1839D02*
X473Y1839D01*
X512Y1839D02*
X524Y1839D01*
X562Y1839D02*
X573Y1839D01*
X612Y1839D02*
X624Y1839D01*
X662Y1839D02*
X673Y1839D01*
X1114Y1839D02*
X1124Y1839D01*
X1162Y1839D02*
X1172Y1839D01*
X1212Y1839D02*
X1224Y1839D01*
X1262Y1839D02*
X1273Y1839D01*
X1312Y1839D02*
X1324Y1839D01*
X1362Y1839D02*
X1373Y1839D01*
X1412Y1839D02*
X1424Y1839D01*
X1462Y1839D02*
X1473Y1839D01*
X1913Y1839D02*
X1924Y1839D01*
X1962Y1839D02*
X1972Y1839D01*
X2012Y1839D02*
X2024Y1839D01*
X2062Y1839D02*
X2073Y1839D01*
X2112Y1839D02*
X2124Y1839D01*
X2162Y1839D02*
X2173Y1839D01*
X2212Y1839D02*
X2224Y1839D01*
X2262Y1839D02*
X2273Y1839D01*
X2713Y1839D02*
X2724Y1839D01*
X2762Y1839D02*
X2772Y1839D01*
X2812Y1839D02*
X2824Y1839D01*
X2862Y1839D02*
X2873Y1839D01*
X2912Y1839D02*
X2924Y1839D01*
X2962Y1839D02*
X2973Y1839D01*
X3012Y1839D02*
X3024Y1839D01*
X3062Y1839D02*
X3073Y1839D01*
X314Y1838D02*
X324Y1838D01*
X362Y1838D02*
X372Y1838D01*
X412Y1838D02*
X424Y1838D01*
X462Y1838D02*
X473Y1838D01*
X512Y1838D02*
X524Y1838D01*
X562Y1838D02*
X573Y1838D01*
X612Y1838D02*
X624Y1838D01*
X662Y1838D02*
X673Y1838D01*
X1114Y1838D02*
X1124Y1838D01*
X1162Y1838D02*
X1172Y1838D01*
X1212Y1838D02*
X1224Y1838D01*
X1262Y1838D02*
X1273Y1838D01*
X1312Y1838D02*
X1324Y1838D01*
X1362Y1838D02*
X1373Y1838D01*
X1412Y1838D02*
X1424Y1838D01*
X1462Y1838D02*
X1473Y1838D01*
X1913Y1838D02*
X1924Y1838D01*
X1962Y1838D02*
X1972Y1838D01*
X2012Y1838D02*
X2024Y1838D01*
X2062Y1838D02*
X2073Y1838D01*
X2112Y1838D02*
X2124Y1838D01*
X2162Y1838D02*
X2173Y1838D01*
X2212Y1838D02*
X2224Y1838D01*
X2262Y1838D02*
X2273Y1838D01*
X2713Y1838D02*
X2724Y1838D01*
X2762Y1838D02*
X2772Y1838D01*
X2812Y1838D02*
X2824Y1838D01*
X2862Y1838D02*
X2873Y1838D01*
X2912Y1838D02*
X2924Y1838D01*
X2962Y1838D02*
X2973Y1838D01*
X3012Y1838D02*
X3024Y1838D01*
X3062Y1838D02*
X3073Y1838D01*
X314Y1837D02*
X324Y1837D01*
X362Y1837D02*
X372Y1837D01*
X412Y1837D02*
X424Y1837D01*
X462Y1837D02*
X473Y1837D01*
X512Y1837D02*
X524Y1837D01*
X562Y1837D02*
X573Y1837D01*
X612Y1837D02*
X624Y1837D01*
X662Y1837D02*
X673Y1837D01*
X1114Y1837D02*
X1124Y1837D01*
X1162Y1837D02*
X1172Y1837D01*
X1212Y1837D02*
X1224Y1837D01*
X1262Y1837D02*
X1273Y1837D01*
X1312Y1837D02*
X1324Y1837D01*
X1362Y1837D02*
X1373Y1837D01*
X1412Y1837D02*
X1424Y1837D01*
X1462Y1837D02*
X1473Y1837D01*
X1913Y1837D02*
X1924Y1837D01*
X1962Y1837D02*
X1972Y1837D01*
X2012Y1837D02*
X2024Y1837D01*
X2062Y1837D02*
X2073Y1837D01*
X2112Y1837D02*
X2124Y1837D01*
X2162Y1837D02*
X2173Y1837D01*
X2212Y1837D02*
X2224Y1837D01*
X2262Y1837D02*
X2273Y1837D01*
X2713Y1837D02*
X2724Y1837D01*
X2762Y1837D02*
X2772Y1837D01*
X2812Y1837D02*
X2824Y1837D01*
X2862Y1837D02*
X2873Y1837D01*
X2912Y1837D02*
X2924Y1837D01*
X2962Y1837D02*
X2973Y1837D01*
X3012Y1837D02*
X3024Y1837D01*
X3062Y1837D02*
X3073Y1837D01*
X314Y1836D02*
X324Y1836D01*
X362Y1836D02*
X372Y1836D01*
X413Y1836D02*
X424Y1836D01*
X462Y1836D02*
X473Y1836D01*
X513Y1836D02*
X524Y1836D01*
X562Y1836D02*
X573Y1836D01*
X613Y1836D02*
X624Y1836D01*
X662Y1836D02*
X673Y1836D01*
X1114Y1836D02*
X1124Y1836D01*
X1162Y1836D02*
X1172Y1836D01*
X1212Y1836D02*
X1224Y1836D01*
X1262Y1836D02*
X1273Y1836D01*
X1313Y1836D02*
X1324Y1836D01*
X1362Y1836D02*
X1373Y1836D01*
X1412Y1836D02*
X1424Y1836D01*
X1462Y1836D02*
X1473Y1836D01*
X1913Y1836D02*
X1924Y1836D01*
X1962Y1836D02*
X1972Y1836D01*
X2012Y1836D02*
X2024Y1836D01*
X2061Y1836D02*
X2073Y1836D01*
X2112Y1836D02*
X2124Y1836D01*
X2162Y1836D02*
X2173Y1836D01*
X2212Y1836D02*
X2224Y1836D01*
X2262Y1836D02*
X2273Y1836D01*
X2713Y1836D02*
X2724Y1836D01*
X2761Y1836D02*
X2772Y1836D01*
X2812Y1836D02*
X2824Y1836D01*
X2861Y1836D02*
X2873Y1836D01*
X2912Y1836D02*
X2924Y1836D01*
X2961Y1836D02*
X2973Y1836D01*
X3012Y1836D02*
X3024Y1836D01*
X3061Y1836D02*
X3073Y1836D01*
X314Y1835D02*
X324Y1835D01*
X361Y1835D02*
X372Y1835D01*
X413Y1835D02*
X424Y1835D01*
X461Y1835D02*
X473Y1835D01*
X513Y1835D02*
X524Y1835D01*
X561Y1835D02*
X573Y1835D01*
X613Y1835D02*
X624Y1835D01*
X661Y1835D02*
X673Y1835D01*
X1114Y1835D02*
X1124Y1835D01*
X1161Y1835D02*
X1172Y1835D01*
X1213Y1835D02*
X1224Y1835D01*
X1261Y1835D02*
X1273Y1835D01*
X1313Y1835D02*
X1324Y1835D01*
X1361Y1835D02*
X1373Y1835D01*
X1413Y1835D02*
X1424Y1835D01*
X1461Y1835D02*
X1473Y1835D01*
X1913Y1835D02*
X1924Y1835D01*
X1961Y1835D02*
X1972Y1835D01*
X2013Y1835D02*
X2024Y1835D01*
X2061Y1835D02*
X2073Y1835D01*
X2113Y1835D02*
X2124Y1835D01*
X2161Y1835D02*
X2173Y1835D01*
X2213Y1835D02*
X2224Y1835D01*
X2261Y1835D02*
X2273Y1835D01*
X2713Y1835D02*
X2724Y1835D01*
X2761Y1835D02*
X2772Y1835D01*
X2812Y1835D02*
X2824Y1835D01*
X2861Y1835D02*
X2873Y1835D01*
X2913Y1835D02*
X2924Y1835D01*
X2961Y1835D02*
X2973Y1835D01*
X3013Y1835D02*
X3024Y1835D01*
X3061Y1835D02*
X3073Y1835D01*
X314Y1834D02*
X325Y1834D01*
X361Y1834D02*
X372Y1834D01*
X413Y1834D02*
X425Y1834D01*
X461Y1834D02*
X473Y1834D01*
X513Y1834D02*
X525Y1834D01*
X561Y1834D02*
X573Y1834D01*
X613Y1834D02*
X625Y1834D01*
X661Y1834D02*
X673Y1834D01*
X1114Y1834D02*
X1124Y1834D01*
X1161Y1834D02*
X1172Y1834D01*
X1213Y1834D02*
X1224Y1834D01*
X1261Y1834D02*
X1273Y1834D01*
X1313Y1834D02*
X1324Y1834D01*
X1361Y1834D02*
X1373Y1834D01*
X1413Y1834D02*
X1424Y1834D01*
X1461Y1834D02*
X1473Y1834D01*
X1913Y1834D02*
X1924Y1834D01*
X1961Y1834D02*
X1972Y1834D01*
X2013Y1834D02*
X2024Y1834D01*
X2061Y1834D02*
X2073Y1834D01*
X2113Y1834D02*
X2124Y1834D01*
X2161Y1834D02*
X2173Y1834D01*
X2213Y1834D02*
X2224Y1834D01*
X2261Y1834D02*
X2273Y1834D01*
X2713Y1834D02*
X2724Y1834D01*
X2761Y1834D02*
X2772Y1834D01*
X2813Y1834D02*
X2824Y1834D01*
X2861Y1834D02*
X2873Y1834D01*
X2913Y1834D02*
X2924Y1834D01*
X2961Y1834D02*
X2973Y1834D01*
X3013Y1834D02*
X3024Y1834D01*
X3061Y1834D02*
X3073Y1834D01*
X314Y1833D02*
X325Y1833D01*
X361Y1833D02*
X372Y1833D01*
X413Y1833D02*
X425Y1833D01*
X461Y1833D02*
X473Y1833D01*
X513Y1833D02*
X525Y1833D01*
X561Y1833D02*
X573Y1833D01*
X613Y1833D02*
X625Y1833D01*
X661Y1833D02*
X673Y1833D01*
X1114Y1833D02*
X1125Y1833D01*
X1161Y1833D02*
X1172Y1833D01*
X1213Y1833D02*
X1225Y1833D01*
X1261Y1833D02*
X1273Y1833D01*
X1313Y1833D02*
X1325Y1833D01*
X1361Y1833D02*
X1373Y1833D01*
X1413Y1833D02*
X1425Y1833D01*
X1461Y1833D02*
X1473Y1833D01*
X1913Y1833D02*
X1925Y1833D01*
X1961Y1833D02*
X1972Y1833D01*
X2013Y1833D02*
X2025Y1833D01*
X2061Y1833D02*
X2073Y1833D01*
X2113Y1833D02*
X2125Y1833D01*
X2161Y1833D02*
X2173Y1833D01*
X2213Y1833D02*
X2225Y1833D01*
X2261Y1833D02*
X2273Y1833D01*
X2713Y1833D02*
X2725Y1833D01*
X2761Y1833D02*
X2772Y1833D01*
X2813Y1833D02*
X2825Y1833D01*
X2861Y1833D02*
X2873Y1833D01*
X2913Y1833D02*
X2925Y1833D01*
X2961Y1833D02*
X2973Y1833D01*
X3013Y1833D02*
X3025Y1833D01*
X3061Y1833D02*
X3073Y1833D01*
X314Y1832D02*
X325Y1832D01*
X361Y1832D02*
X372Y1832D01*
X413Y1832D02*
X425Y1832D01*
X461Y1832D02*
X473Y1832D01*
X513Y1832D02*
X525Y1832D01*
X561Y1832D02*
X573Y1832D01*
X613Y1832D02*
X625Y1832D01*
X661Y1832D02*
X673Y1832D01*
X1114Y1832D02*
X1125Y1832D01*
X1161Y1832D02*
X1172Y1832D01*
X1213Y1832D02*
X1225Y1832D01*
X1261Y1832D02*
X1273Y1832D01*
X1313Y1832D02*
X1325Y1832D01*
X1361Y1832D02*
X1373Y1832D01*
X1413Y1832D02*
X1425Y1832D01*
X1461Y1832D02*
X1473Y1832D01*
X1913Y1832D02*
X1925Y1832D01*
X1960Y1832D02*
X1972Y1832D01*
X2013Y1832D02*
X2025Y1832D01*
X2060Y1832D02*
X2072Y1832D01*
X2113Y1832D02*
X2125Y1832D01*
X2160Y1832D02*
X2172Y1832D01*
X2213Y1832D02*
X2225Y1832D01*
X2260Y1832D02*
X2272Y1832D01*
X2713Y1832D02*
X2725Y1832D01*
X2760Y1832D02*
X2772Y1832D01*
X2813Y1832D02*
X2825Y1832D01*
X2860Y1832D02*
X2872Y1832D01*
X2913Y1832D02*
X2925Y1832D01*
X2960Y1832D02*
X2972Y1832D01*
X3013Y1832D02*
X3025Y1832D01*
X3060Y1832D02*
X3072Y1832D01*
X314Y1831D02*
X326Y1831D01*
X360Y1831D02*
X372Y1831D01*
X413Y1831D02*
X426Y1831D01*
X460Y1831D02*
X472Y1831D01*
X513Y1831D02*
X526Y1831D01*
X560Y1831D02*
X572Y1831D01*
X613Y1831D02*
X626Y1831D01*
X660Y1831D02*
X672Y1831D01*
X1114Y1831D02*
X1126Y1831D01*
X1160Y1831D02*
X1172Y1831D01*
X1213Y1831D02*
X1226Y1831D01*
X1260Y1831D02*
X1272Y1831D01*
X1313Y1831D02*
X1326Y1831D01*
X1360Y1831D02*
X1372Y1831D01*
X1413Y1831D02*
X1426Y1831D01*
X1460Y1831D02*
X1472Y1831D01*
X1913Y1831D02*
X1925Y1831D01*
X1960Y1831D02*
X1972Y1831D01*
X2013Y1831D02*
X2025Y1831D01*
X2060Y1831D02*
X2072Y1831D01*
X2113Y1831D02*
X2125Y1831D01*
X2160Y1831D02*
X2172Y1831D01*
X2213Y1831D02*
X2225Y1831D01*
X2260Y1831D02*
X2272Y1831D01*
X2713Y1831D02*
X2725Y1831D01*
X2760Y1831D02*
X2772Y1831D01*
X2813Y1831D02*
X2825Y1831D01*
X2860Y1831D02*
X2872Y1831D01*
X2913Y1831D02*
X2925Y1831D01*
X2960Y1831D02*
X2972Y1831D01*
X3013Y1831D02*
X3025Y1831D01*
X3060Y1831D02*
X3072Y1831D01*
X314Y1830D02*
X326Y1830D01*
X360Y1830D02*
X372Y1830D01*
X414Y1830D02*
X426Y1830D01*
X460Y1830D02*
X472Y1830D01*
X514Y1830D02*
X526Y1830D01*
X560Y1830D02*
X572Y1830D01*
X614Y1830D02*
X626Y1830D01*
X660Y1830D02*
X672Y1830D01*
X1114Y1830D02*
X1126Y1830D01*
X1160Y1830D02*
X1172Y1830D01*
X1214Y1830D02*
X1226Y1830D01*
X1260Y1830D02*
X1272Y1830D01*
X1314Y1830D02*
X1326Y1830D01*
X1360Y1830D02*
X1372Y1830D01*
X1414Y1830D02*
X1426Y1830D01*
X1460Y1830D02*
X1472Y1830D01*
X1913Y1830D02*
X1926Y1830D01*
X1960Y1830D02*
X1972Y1830D01*
X2014Y1830D02*
X2026Y1830D01*
X2059Y1830D02*
X2072Y1830D01*
X2114Y1830D02*
X2126Y1830D01*
X2160Y1830D02*
X2172Y1830D01*
X2214Y1830D02*
X2226Y1830D01*
X2260Y1830D02*
X2272Y1830D01*
X2713Y1830D02*
X2726Y1830D01*
X2759Y1830D02*
X2772Y1830D01*
X2814Y1830D02*
X2826Y1830D01*
X2859Y1830D02*
X2872Y1830D01*
X2914Y1830D02*
X2926Y1830D01*
X2959Y1830D02*
X2972Y1830D01*
X3014Y1830D02*
X3026Y1830D01*
X3059Y1830D02*
X3072Y1830D01*
X314Y1829D02*
X327Y1829D01*
X359Y1829D02*
X372Y1829D01*
X414Y1829D02*
X427Y1829D01*
X459Y1829D02*
X472Y1829D01*
X514Y1829D02*
X527Y1829D01*
X559Y1829D02*
X572Y1829D01*
X614Y1829D02*
X627Y1829D01*
X659Y1829D02*
X672Y1829D01*
X1114Y1829D02*
X1127Y1829D01*
X1159Y1829D02*
X1172Y1829D01*
X1214Y1829D02*
X1227Y1829D01*
X1259Y1829D02*
X1272Y1829D01*
X1314Y1829D02*
X1327Y1829D01*
X1359Y1829D02*
X1372Y1829D01*
X1414Y1829D02*
X1427Y1829D01*
X1459Y1829D02*
X1472Y1829D01*
X1913Y1829D02*
X1927Y1829D01*
X1959Y1829D02*
X1972Y1829D01*
X2014Y1829D02*
X2027Y1829D01*
X2059Y1829D02*
X2072Y1829D01*
X2114Y1829D02*
X2127Y1829D01*
X2159Y1829D02*
X2172Y1829D01*
X2214Y1829D02*
X2227Y1829D01*
X2259Y1829D02*
X2272Y1829D01*
X2713Y1829D02*
X2727Y1829D01*
X2759Y1829D02*
X2772Y1829D01*
X2814Y1829D02*
X2827Y1829D01*
X2859Y1829D02*
X2872Y1829D01*
X2914Y1829D02*
X2927Y1829D01*
X2959Y1829D02*
X2972Y1829D01*
X3014Y1829D02*
X3027Y1829D01*
X3059Y1829D02*
X3072Y1829D01*
X314Y1828D02*
X327Y1828D01*
X358Y1828D02*
X372Y1828D01*
X414Y1828D02*
X427Y1828D01*
X458Y1828D02*
X471Y1828D01*
X514Y1828D02*
X527Y1828D01*
X558Y1828D02*
X571Y1828D01*
X614Y1828D02*
X627Y1828D01*
X658Y1828D02*
X671Y1828D01*
X1114Y1828D02*
X1127Y1828D01*
X1158Y1828D02*
X1172Y1828D01*
X1214Y1828D02*
X1227Y1828D01*
X1258Y1828D02*
X1271Y1828D01*
X1314Y1828D02*
X1327Y1828D01*
X1358Y1828D02*
X1371Y1828D01*
X1414Y1828D02*
X1427Y1828D01*
X1458Y1828D02*
X1471Y1828D01*
X1913Y1828D02*
X1927Y1828D01*
X1958Y1828D02*
X1972Y1828D01*
X2014Y1828D02*
X2027Y1828D01*
X2058Y1828D02*
X2071Y1828D01*
X2114Y1828D02*
X2127Y1828D01*
X2158Y1828D02*
X2171Y1828D01*
X2214Y1828D02*
X2227Y1828D01*
X2258Y1828D02*
X2271Y1828D01*
X2713Y1828D02*
X2727Y1828D01*
X2758Y1828D02*
X2772Y1828D01*
X2814Y1828D02*
X2827Y1828D01*
X2858Y1828D02*
X2871Y1828D01*
X2914Y1828D02*
X2927Y1828D01*
X2958Y1828D02*
X2971Y1828D01*
X3014Y1828D02*
X3027Y1828D01*
X3058Y1828D02*
X3071Y1828D01*
X314Y1827D02*
X328Y1827D01*
X358Y1827D02*
X372Y1827D01*
X415Y1827D02*
X428Y1827D01*
X458Y1827D02*
X471Y1827D01*
X515Y1827D02*
X528Y1827D01*
X558Y1827D02*
X571Y1827D01*
X615Y1827D02*
X628Y1827D01*
X658Y1827D02*
X671Y1827D01*
X1114Y1827D02*
X1128Y1827D01*
X1158Y1827D02*
X1172Y1827D01*
X1215Y1827D02*
X1228Y1827D01*
X1258Y1827D02*
X1271Y1827D01*
X1315Y1827D02*
X1328Y1827D01*
X1358Y1827D02*
X1371Y1827D01*
X1415Y1827D02*
X1428Y1827D01*
X1458Y1827D02*
X1471Y1827D01*
X1913Y1827D02*
X1928Y1827D01*
X1957Y1827D02*
X1972Y1827D01*
X2015Y1827D02*
X2028Y1827D01*
X2057Y1827D02*
X2071Y1827D01*
X2115Y1827D02*
X2128Y1827D01*
X2157Y1827D02*
X2171Y1827D01*
X2215Y1827D02*
X2228Y1827D01*
X2257Y1827D02*
X2271Y1827D01*
X2713Y1827D02*
X2728Y1827D01*
X2757Y1827D02*
X2772Y1827D01*
X2815Y1827D02*
X2828Y1827D01*
X2857Y1827D02*
X2871Y1827D01*
X2915Y1827D02*
X2928Y1827D01*
X2957Y1827D02*
X2971Y1827D01*
X3015Y1827D02*
X3028Y1827D01*
X3057Y1827D02*
X3071Y1827D01*
X314Y1826D02*
X329Y1826D01*
X357Y1826D02*
X372Y1826D01*
X415Y1826D02*
X429Y1826D01*
X457Y1826D02*
X471Y1826D01*
X515Y1826D02*
X529Y1826D01*
X557Y1826D02*
X571Y1826D01*
X615Y1826D02*
X629Y1826D01*
X657Y1826D02*
X671Y1826D01*
X1114Y1826D02*
X1129Y1826D01*
X1157Y1826D02*
X1172Y1826D01*
X1215Y1826D02*
X1229Y1826D01*
X1257Y1826D02*
X1271Y1826D01*
X1315Y1826D02*
X1329Y1826D01*
X1357Y1826D02*
X1371Y1826D01*
X1415Y1826D02*
X1429Y1826D01*
X1457Y1826D02*
X1471Y1826D01*
X1913Y1826D02*
X1929Y1826D01*
X1957Y1826D02*
X1972Y1826D01*
X2015Y1826D02*
X2029Y1826D01*
X2057Y1826D02*
X2070Y1826D01*
X2115Y1826D02*
X2129Y1826D01*
X2157Y1826D02*
X2170Y1826D01*
X2215Y1826D02*
X2229Y1826D01*
X2257Y1826D02*
X2270Y1826D01*
X2713Y1826D02*
X2729Y1826D01*
X2757Y1826D02*
X2772Y1826D01*
X2815Y1826D02*
X2829Y1826D01*
X2857Y1826D02*
X2870Y1826D01*
X2915Y1826D02*
X2929Y1826D01*
X2957Y1826D02*
X2970Y1826D01*
X3015Y1826D02*
X3029Y1826D01*
X3057Y1826D02*
X3070Y1826D01*
X314Y1825D02*
X330Y1825D01*
X356Y1825D02*
X372Y1825D01*
X416Y1825D02*
X430Y1825D01*
X456Y1825D02*
X470Y1825D01*
X516Y1825D02*
X530Y1825D01*
X556Y1825D02*
X570Y1825D01*
X616Y1825D02*
X630Y1825D01*
X656Y1825D02*
X670Y1825D01*
X1114Y1825D02*
X1130Y1825D01*
X1156Y1825D02*
X1172Y1825D01*
X1216Y1825D02*
X1230Y1825D01*
X1256Y1825D02*
X1270Y1825D01*
X1316Y1825D02*
X1330Y1825D01*
X1356Y1825D02*
X1370Y1825D01*
X1416Y1825D02*
X1430Y1825D01*
X1456Y1825D02*
X1470Y1825D01*
X1913Y1825D02*
X1930Y1825D01*
X1956Y1825D02*
X1972Y1825D01*
X2016Y1825D02*
X2030Y1825D01*
X2056Y1825D02*
X2070Y1825D01*
X2116Y1825D02*
X2130Y1825D01*
X2156Y1825D02*
X2170Y1825D01*
X2216Y1825D02*
X2230Y1825D01*
X2256Y1825D02*
X2270Y1825D01*
X2713Y1825D02*
X2730Y1825D01*
X2756Y1825D02*
X2772Y1825D01*
X2815Y1825D02*
X2830Y1825D01*
X2856Y1825D02*
X2870Y1825D01*
X2915Y1825D02*
X2930Y1825D01*
X2956Y1825D02*
X2970Y1825D01*
X3015Y1825D02*
X3030Y1825D01*
X3056Y1825D02*
X3070Y1825D01*
X314Y1824D02*
X331Y1824D01*
X354Y1824D02*
X372Y1824D01*
X416Y1824D02*
X431Y1824D01*
X454Y1824D02*
X470Y1824D01*
X516Y1824D02*
X531Y1824D01*
X554Y1824D02*
X570Y1824D01*
X616Y1824D02*
X631Y1824D01*
X654Y1824D02*
X670Y1824D01*
X1114Y1824D02*
X1131Y1824D01*
X1154Y1824D02*
X1172Y1824D01*
X1216Y1824D02*
X1231Y1824D01*
X1254Y1824D02*
X1270Y1824D01*
X1316Y1824D02*
X1331Y1824D01*
X1354Y1824D02*
X1370Y1824D01*
X1416Y1824D02*
X1431Y1824D01*
X1454Y1824D02*
X1470Y1824D01*
X1913Y1824D02*
X1931Y1824D01*
X1954Y1824D02*
X1972Y1824D01*
X2016Y1824D02*
X2031Y1824D01*
X2054Y1824D02*
X2069Y1824D01*
X2116Y1824D02*
X2131Y1824D01*
X2154Y1824D02*
X2169Y1824D01*
X2216Y1824D02*
X2231Y1824D01*
X2254Y1824D02*
X2270Y1824D01*
X2713Y1824D02*
X2731Y1824D01*
X2754Y1824D02*
X2772Y1824D01*
X2816Y1824D02*
X2831Y1824D01*
X2854Y1824D02*
X2869Y1824D01*
X2916Y1824D02*
X2931Y1824D01*
X2954Y1824D02*
X2969Y1824D01*
X3016Y1824D02*
X3031Y1824D01*
X3054Y1824D02*
X3069Y1824D01*
X314Y1823D02*
X333Y1823D01*
X353Y1823D02*
X372Y1823D01*
X417Y1823D02*
X433Y1823D01*
X453Y1823D02*
X469Y1823D01*
X517Y1823D02*
X533Y1823D01*
X553Y1823D02*
X569Y1823D01*
X617Y1823D02*
X633Y1823D01*
X653Y1823D02*
X669Y1823D01*
X1114Y1823D02*
X1133Y1823D01*
X1153Y1823D02*
X1172Y1823D01*
X1217Y1823D02*
X1233Y1823D01*
X1253Y1823D02*
X1269Y1823D01*
X1317Y1823D02*
X1333Y1823D01*
X1353Y1823D02*
X1369Y1823D01*
X1417Y1823D02*
X1433Y1823D01*
X1453Y1823D02*
X1469Y1823D01*
X1913Y1823D02*
X1933Y1823D01*
X1953Y1823D02*
X1972Y1823D01*
X2017Y1823D02*
X2033Y1823D01*
X2053Y1823D02*
X2069Y1823D01*
X2117Y1823D02*
X2133Y1823D01*
X2153Y1823D02*
X2169Y1823D01*
X2217Y1823D02*
X2233Y1823D01*
X2253Y1823D02*
X2269Y1823D01*
X2713Y1823D02*
X2733Y1823D01*
X2753Y1823D02*
X2772Y1823D01*
X2817Y1823D02*
X2833Y1823D01*
X2853Y1823D02*
X2869Y1823D01*
X2917Y1823D02*
X2933Y1823D01*
X2953Y1823D02*
X2969Y1823D01*
X3017Y1823D02*
X3033Y1823D01*
X3053Y1823D02*
X3069Y1823D01*
X314Y1822D02*
X335Y1822D01*
X351Y1822D02*
X372Y1822D01*
X417Y1822D02*
X435Y1822D01*
X451Y1822D02*
X468Y1822D01*
X517Y1822D02*
X535Y1822D01*
X551Y1822D02*
X568Y1822D01*
X617Y1822D02*
X635Y1822D01*
X651Y1822D02*
X668Y1822D01*
X1114Y1822D02*
X1134Y1822D01*
X1151Y1822D02*
X1172Y1822D01*
X1217Y1822D02*
X1234Y1822D01*
X1251Y1822D02*
X1268Y1822D01*
X1317Y1822D02*
X1334Y1822D01*
X1351Y1822D02*
X1368Y1822D01*
X1417Y1822D02*
X1434Y1822D01*
X1451Y1822D02*
X1468Y1822D01*
X1913Y1822D02*
X1934Y1822D01*
X1951Y1822D02*
X1972Y1822D01*
X2017Y1822D02*
X2034Y1822D01*
X2051Y1822D02*
X2068Y1822D01*
X2117Y1822D02*
X2134Y1822D01*
X2151Y1822D02*
X2168Y1822D01*
X2217Y1822D02*
X2234Y1822D01*
X2251Y1822D02*
X2268Y1822D01*
X2713Y1822D02*
X2734Y1822D01*
X2751Y1822D02*
X2772Y1822D01*
X2817Y1822D02*
X2834Y1822D01*
X2851Y1822D02*
X2868Y1822D01*
X2917Y1822D02*
X2934Y1822D01*
X2951Y1822D02*
X2968Y1822D01*
X3017Y1822D02*
X3034Y1822D01*
X3051Y1822D02*
X3068Y1822D01*
X314Y1821D02*
X337Y1821D01*
X348Y1821D02*
X372Y1821D01*
X418Y1821D02*
X437Y1821D01*
X448Y1821D02*
X468Y1821D01*
X518Y1821D02*
X537Y1821D01*
X548Y1821D02*
X568Y1821D01*
X618Y1821D02*
X637Y1821D01*
X648Y1821D02*
X668Y1821D01*
X1114Y1821D02*
X1137Y1821D01*
X1148Y1821D02*
X1172Y1821D01*
X1218Y1821D02*
X1237Y1821D01*
X1248Y1821D02*
X1268Y1821D01*
X1318Y1821D02*
X1337Y1821D01*
X1348Y1821D02*
X1368Y1821D01*
X1418Y1821D02*
X1437Y1821D01*
X1448Y1821D02*
X1468Y1821D01*
X1913Y1821D02*
X1937Y1821D01*
X1948Y1821D02*
X1972Y1821D01*
X2018Y1821D02*
X2037Y1821D01*
X2048Y1821D02*
X2068Y1821D01*
X2118Y1821D02*
X2137Y1821D01*
X2148Y1821D02*
X2168Y1821D01*
X2218Y1821D02*
X2237Y1821D01*
X2248Y1821D02*
X2268Y1821D01*
X2713Y1821D02*
X2737Y1821D01*
X2748Y1821D02*
X2772Y1821D01*
X2818Y1821D02*
X2837Y1821D01*
X2848Y1821D02*
X2868Y1821D01*
X2918Y1821D02*
X2937Y1821D01*
X2948Y1821D02*
X2968Y1821D01*
X3018Y1821D02*
X3037Y1821D01*
X3048Y1821D02*
X3068Y1821D01*
X314Y1820D02*
X372Y1820D01*
X419Y1820D02*
X467Y1820D01*
X519Y1820D02*
X567Y1820D01*
X619Y1820D02*
X667Y1820D01*
X1114Y1820D02*
X1172Y1820D01*
X1219Y1820D02*
X1267Y1820D01*
X1319Y1820D02*
X1367Y1820D01*
X1419Y1820D02*
X1467Y1820D01*
X1913Y1820D02*
X1972Y1820D01*
X2019Y1820D02*
X2067Y1820D01*
X2119Y1820D02*
X2167Y1820D01*
X2219Y1820D02*
X2267Y1820D01*
X2713Y1820D02*
X2772Y1820D01*
X2819Y1820D02*
X2867Y1820D01*
X2919Y1820D02*
X2967Y1820D01*
X3019Y1820D02*
X3067Y1820D01*
X314Y1819D02*
X372Y1819D01*
X419Y1819D02*
X466Y1819D01*
X520Y1819D02*
X566Y1819D01*
X620Y1819D02*
X666Y1819D01*
X1114Y1819D02*
X1172Y1819D01*
X1219Y1819D02*
X1266Y1819D01*
X1319Y1819D02*
X1366Y1819D01*
X1419Y1819D02*
X1466Y1819D01*
X1913Y1819D02*
X1972Y1819D01*
X2019Y1819D02*
X2066Y1819D01*
X2119Y1819D02*
X2166Y1819D01*
X2219Y1819D02*
X2266Y1819D01*
X2713Y1819D02*
X2772Y1819D01*
X2819Y1819D02*
X2866Y1819D01*
X2919Y1819D02*
X2966Y1819D01*
X3019Y1819D02*
X3066Y1819D01*
X314Y1818D02*
X372Y1818D01*
X420Y1818D02*
X465Y1818D01*
X520Y1818D02*
X565Y1818D01*
X620Y1818D02*
X665Y1818D01*
X1114Y1818D02*
X1172Y1818D01*
X1220Y1818D02*
X1265Y1818D01*
X1320Y1818D02*
X1365Y1818D01*
X1420Y1818D02*
X1465Y1818D01*
X1913Y1818D02*
X1972Y1818D01*
X2020Y1818D02*
X2065Y1818D01*
X2120Y1818D02*
X2165Y1818D01*
X2220Y1818D02*
X2265Y1818D01*
X2713Y1818D02*
X2772Y1818D01*
X2820Y1818D02*
X2865Y1818D01*
X2920Y1818D02*
X2965Y1818D01*
X3020Y1818D02*
X3065Y1818D01*
X314Y1817D02*
X372Y1817D01*
X421Y1817D02*
X464Y1817D01*
X521Y1817D02*
X564Y1817D01*
X621Y1817D02*
X664Y1817D01*
X1114Y1817D02*
X1172Y1817D01*
X1221Y1817D02*
X1264Y1817D01*
X1321Y1817D02*
X1364Y1817D01*
X1421Y1817D02*
X1464Y1817D01*
X1913Y1817D02*
X1972Y1817D01*
X2021Y1817D02*
X2064Y1817D01*
X2121Y1817D02*
X2164Y1817D01*
X2221Y1817D02*
X2264Y1817D01*
X2713Y1817D02*
X2772Y1817D01*
X2821Y1817D02*
X2864Y1817D01*
X2921Y1817D02*
X2964Y1817D01*
X3021Y1817D02*
X3064Y1817D01*
X314Y1816D02*
X372Y1816D01*
X422Y1816D02*
X463Y1816D01*
X522Y1816D02*
X563Y1816D01*
X622Y1816D02*
X663Y1816D01*
X1114Y1816D02*
X1172Y1816D01*
X1222Y1816D02*
X1263Y1816D01*
X1322Y1816D02*
X1363Y1816D01*
X1422Y1816D02*
X1463Y1816D01*
X1913Y1816D02*
X1972Y1816D01*
X2022Y1816D02*
X2063Y1816D01*
X2122Y1816D02*
X2163Y1816D01*
X2222Y1816D02*
X2263Y1816D01*
X2713Y1816D02*
X2772Y1816D01*
X2822Y1816D02*
X2863Y1816D01*
X2922Y1816D02*
X2963Y1816D01*
X3022Y1816D02*
X3063Y1816D01*
X314Y1815D02*
X372Y1815D01*
X423Y1815D02*
X462Y1815D01*
X523Y1815D02*
X562Y1815D01*
X623Y1815D02*
X662Y1815D01*
X1114Y1815D02*
X1172Y1815D01*
X1223Y1815D02*
X1262Y1815D01*
X1323Y1815D02*
X1362Y1815D01*
X1423Y1815D02*
X1462Y1815D01*
X1913Y1815D02*
X1972Y1815D01*
X2023Y1815D02*
X2062Y1815D01*
X2123Y1815D02*
X2162Y1815D01*
X2223Y1815D02*
X2262Y1815D01*
X2713Y1815D02*
X2772Y1815D01*
X2823Y1815D02*
X2862Y1815D01*
X2923Y1815D02*
X2962Y1815D01*
X3023Y1815D02*
X3062Y1815D01*
X314Y1814D02*
X372Y1814D01*
X425Y1814D02*
X461Y1814D01*
X525Y1814D02*
X561Y1814D01*
X625Y1814D02*
X661Y1814D01*
X1114Y1814D02*
X1172Y1814D01*
X1225Y1814D02*
X1261Y1814D01*
X1325Y1814D02*
X1361Y1814D01*
X1425Y1814D02*
X1461Y1814D01*
X1913Y1814D02*
X1972Y1814D01*
X2025Y1814D02*
X2061Y1814D01*
X2125Y1814D02*
X2161Y1814D01*
X2225Y1814D02*
X2261Y1814D01*
X2713Y1814D02*
X2772Y1814D01*
X2825Y1814D02*
X2861Y1814D01*
X2925Y1814D02*
X2961Y1814D01*
X3025Y1814D02*
X3061Y1814D01*
X314Y1813D02*
X372Y1813D01*
X426Y1813D02*
X460Y1813D01*
X526Y1813D02*
X560Y1813D01*
X626Y1813D02*
X660Y1813D01*
X1114Y1813D02*
X1172Y1813D01*
X1226Y1813D02*
X1260Y1813D01*
X1326Y1813D02*
X1360Y1813D01*
X1426Y1813D02*
X1460Y1813D01*
X1913Y1813D02*
X1972Y1813D01*
X2026Y1813D02*
X2059Y1813D01*
X2126Y1813D02*
X2159Y1813D01*
X2226Y1813D02*
X2259Y1813D01*
X2713Y1813D02*
X2772Y1813D01*
X2826Y1813D02*
X2859Y1813D01*
X2926Y1813D02*
X2959Y1813D01*
X3026Y1813D02*
X3059Y1813D01*
X314Y1812D02*
X372Y1812D01*
X428Y1812D02*
X458Y1812D01*
X528Y1812D02*
X558Y1812D01*
X628Y1812D02*
X658Y1812D01*
X1114Y1812D02*
X1172Y1812D01*
X1228Y1812D02*
X1258Y1812D01*
X1328Y1812D02*
X1358Y1812D01*
X1428Y1812D02*
X1458Y1812D01*
X1913Y1812D02*
X1972Y1812D01*
X2028Y1812D02*
X2058Y1812D01*
X2128Y1812D02*
X2158Y1812D01*
X2228Y1812D02*
X2258Y1812D01*
X2713Y1812D02*
X2772Y1812D01*
X2828Y1812D02*
X2858Y1812D01*
X2928Y1812D02*
X2958Y1812D01*
X3028Y1812D02*
X3058Y1812D01*
X314Y1811D02*
X372Y1811D01*
X430Y1811D02*
X456Y1811D01*
X530Y1811D02*
X556Y1811D01*
X630Y1811D02*
X656Y1811D01*
X1114Y1811D02*
X1172Y1811D01*
X1230Y1811D02*
X1256Y1811D01*
X1330Y1811D02*
X1356Y1811D01*
X1430Y1811D02*
X1456Y1811D01*
X1913Y1811D02*
X1972Y1811D01*
X2030Y1811D02*
X2056Y1811D01*
X2130Y1811D02*
X2156Y1811D01*
X2230Y1811D02*
X2256Y1811D01*
X2713Y1811D02*
X2772Y1811D01*
X2829Y1811D02*
X2856Y1811D01*
X2929Y1811D02*
X2956Y1811D01*
X3029Y1811D02*
X3056Y1811D01*
X314Y1810D02*
X372Y1810D01*
X432Y1810D02*
X454Y1810D01*
X532Y1810D02*
X554Y1810D01*
X632Y1810D02*
X654Y1810D01*
X1114Y1810D02*
X1172Y1810D01*
X1232Y1810D02*
X1254Y1810D01*
X1332Y1810D02*
X1354Y1810D01*
X1432Y1810D02*
X1454Y1810D01*
X1913Y1810D02*
X1972Y1810D01*
X2032Y1810D02*
X2054Y1810D01*
X2132Y1810D02*
X2154Y1810D01*
X2232Y1810D02*
X2254Y1810D01*
X2713Y1810D02*
X2772Y1810D01*
X2832Y1810D02*
X2854Y1810D01*
X2932Y1810D02*
X2954Y1810D01*
X3032Y1810D02*
X3054Y1810D01*
X314Y1809D02*
X372Y1809D01*
X435Y1809D02*
X451Y1809D01*
X535Y1809D02*
X551Y1809D01*
X635Y1809D02*
X651Y1809D01*
X1114Y1809D02*
X1172Y1809D01*
X1235Y1809D02*
X1251Y1809D01*
X1335Y1809D02*
X1351Y1809D01*
X1435Y1809D02*
X1451Y1809D01*
X1914Y1809D02*
X1972Y1809D01*
X2035Y1809D02*
X2051Y1809D01*
X2135Y1809D02*
X2151Y1809D01*
X2235Y1809D02*
X2251Y1809D01*
X2714Y1809D02*
X2772Y1809D01*
X2835Y1809D02*
X2851Y1809D01*
X2935Y1809D02*
X2951Y1809D01*
X3035Y1809D02*
X3051Y1809D01*
X440Y1808D02*
X446Y1808D01*
X540Y1808D02*
X546Y1808D01*
X640Y1808D02*
X646Y1808D01*
X1240Y1808D02*
X1246Y1808D01*
X1340Y1808D02*
X1346Y1808D01*
X1440Y1808D02*
X1446Y1808D01*
X2040Y1808D02*
X2046Y1808D01*
X2140Y1808D02*
X2146Y1808D01*
X2240Y1808D02*
X2246Y1808D01*
X2840Y1808D02*
X2846Y1808D01*
X2940Y1808D02*
X2946Y1808D01*
X3040Y1808D02*
X3046Y1808D01*
X335Y857D02*
X346Y857D01*
X435Y857D02*
X446Y857D01*
X535Y857D02*
X545Y857D01*
X635Y857D02*
X646Y857D01*
X735Y857D02*
X745Y857D01*
X1135Y857D02*
X1145Y857D01*
X1235Y857D02*
X1245Y857D01*
X1335Y857D02*
X1345Y857D01*
X1435Y857D02*
X1445Y857D01*
X1535Y857D02*
X1545Y857D01*
X1935Y857D02*
X1945Y857D01*
X2035Y857D02*
X2045Y857D01*
X2135Y857D02*
X2145Y857D01*
X2235Y857D02*
X2245Y857D01*
X2335Y857D02*
X2345Y857D01*
X2735Y857D02*
X2745Y857D01*
X2835Y857D02*
X2845Y857D01*
X2935Y857D02*
X2945Y857D01*
X3035Y857D02*
X3045Y857D01*
X3135Y857D02*
X3145Y857D01*
X211Y856D02*
X269Y856D01*
X331Y856D02*
X349Y856D01*
X431Y856D02*
X449Y856D01*
X531Y856D02*
X549Y856D01*
X631Y856D02*
X649Y856D01*
X731Y856D02*
X749Y856D01*
X1011Y856D02*
X1069Y856D01*
X1131Y856D02*
X1149Y856D01*
X1231Y856D02*
X1249Y856D01*
X1331Y856D02*
X1349Y856D01*
X1431Y856D02*
X1449Y856D01*
X1531Y856D02*
X1549Y856D01*
X1811Y856D02*
X1869Y856D01*
X1931Y856D02*
X1949Y856D01*
X2031Y856D02*
X2049Y856D01*
X2131Y856D02*
X2149Y856D01*
X2231Y856D02*
X2249Y856D01*
X2331Y856D02*
X2349Y856D01*
X2611Y856D02*
X2669Y856D01*
X2731Y856D02*
X2749Y856D01*
X2831Y856D02*
X2849Y856D01*
X2931Y856D02*
X2949Y856D01*
X3031Y856D02*
X3049Y856D01*
X3131Y856D02*
X3149Y856D01*
X211Y855D02*
X269Y855D01*
X328Y855D02*
X352Y855D01*
X428Y855D02*
X452Y855D01*
X528Y855D02*
X552Y855D01*
X628Y855D02*
X652Y855D01*
X728Y855D02*
X752Y855D01*
X1011Y855D02*
X1069Y855D01*
X1128Y855D02*
X1152Y855D01*
X1228Y855D02*
X1252Y855D01*
X1328Y855D02*
X1352Y855D01*
X1428Y855D02*
X1452Y855D01*
X1528Y855D02*
X1552Y855D01*
X1811Y855D02*
X1869Y855D01*
X1928Y855D02*
X1952Y855D01*
X2028Y855D02*
X2052Y855D01*
X2128Y855D02*
X2152Y855D01*
X2228Y855D02*
X2252Y855D01*
X2328Y855D02*
X2352Y855D01*
X2611Y855D02*
X2669Y855D01*
X2728Y855D02*
X2752Y855D01*
X2828Y855D02*
X2852Y855D01*
X2928Y855D02*
X2952Y855D01*
X3028Y855D02*
X3052Y855D01*
X3128Y855D02*
X3152Y855D01*
X211Y854D02*
X269Y854D01*
X326Y854D02*
X354Y854D01*
X426Y854D02*
X454Y854D01*
X526Y854D02*
X554Y854D01*
X626Y854D02*
X654Y854D01*
X726Y854D02*
X754Y854D01*
X1011Y854D02*
X1069Y854D01*
X1126Y854D02*
X1154Y854D01*
X1226Y854D02*
X1254Y854D01*
X1326Y854D02*
X1354Y854D01*
X1426Y854D02*
X1454Y854D01*
X1526Y854D02*
X1554Y854D01*
X1811Y854D02*
X1869Y854D01*
X1926Y854D02*
X1954Y854D01*
X2026Y854D02*
X2054Y854D01*
X2126Y854D02*
X2154Y854D01*
X2226Y854D02*
X2254Y854D01*
X2326Y854D02*
X2354Y854D01*
X2611Y854D02*
X2669Y854D01*
X2726Y854D02*
X2754Y854D01*
X2826Y854D02*
X2854Y854D01*
X2926Y854D02*
X2954Y854D01*
X3026Y854D02*
X3054Y854D01*
X3126Y854D02*
X3154Y854D01*
X211Y853D02*
X269Y853D01*
X324Y853D02*
X356Y853D01*
X424Y853D02*
X456Y853D01*
X524Y853D02*
X556Y853D01*
X624Y853D02*
X656Y853D01*
X724Y853D02*
X756Y853D01*
X1011Y853D02*
X1069Y853D01*
X1124Y853D02*
X1156Y853D01*
X1224Y853D02*
X1256Y853D01*
X1324Y853D02*
X1356Y853D01*
X1424Y853D02*
X1456Y853D01*
X1524Y853D02*
X1556Y853D01*
X1811Y853D02*
X1869Y853D01*
X1924Y853D02*
X1956Y853D01*
X2024Y853D02*
X2056Y853D01*
X2124Y853D02*
X2156Y853D01*
X2224Y853D02*
X2256Y853D01*
X2324Y853D02*
X2356Y853D01*
X2611Y853D02*
X2669Y853D01*
X2724Y853D02*
X2756Y853D01*
X2824Y853D02*
X2856Y853D01*
X2924Y853D02*
X2956Y853D01*
X3024Y853D02*
X3056Y853D01*
X3124Y853D02*
X3156Y853D01*
X211Y852D02*
X269Y852D01*
X323Y852D02*
X357Y852D01*
X423Y852D02*
X457Y852D01*
X523Y852D02*
X557Y852D01*
X623Y852D02*
X657Y852D01*
X723Y852D02*
X757Y852D01*
X1011Y852D02*
X1069Y852D01*
X1123Y852D02*
X1157Y852D01*
X1223Y852D02*
X1257Y852D01*
X1323Y852D02*
X1357Y852D01*
X1423Y852D02*
X1457Y852D01*
X1523Y852D02*
X1557Y852D01*
X1811Y852D02*
X1869Y852D01*
X1923Y852D02*
X1957Y852D01*
X2023Y852D02*
X2057Y852D01*
X2123Y852D02*
X2157Y852D01*
X2223Y852D02*
X2257Y852D01*
X2323Y852D02*
X2357Y852D01*
X2611Y852D02*
X2669Y852D01*
X2723Y852D02*
X2757Y852D01*
X2823Y852D02*
X2857Y852D01*
X2923Y852D02*
X2957Y852D01*
X3023Y852D02*
X3057Y852D01*
X3123Y852D02*
X3157Y852D01*
X211Y851D02*
X269Y851D01*
X322Y851D02*
X359Y851D01*
X422Y851D02*
X459Y851D01*
X522Y851D02*
X559Y851D01*
X622Y851D02*
X659Y851D01*
X722Y851D02*
X759Y851D01*
X1011Y851D02*
X1069Y851D01*
X1122Y851D02*
X1159Y851D01*
X1221Y851D02*
X1259Y851D01*
X1321Y851D02*
X1359Y851D01*
X1421Y851D02*
X1459Y851D01*
X1521Y851D02*
X1559Y851D01*
X1811Y851D02*
X1869Y851D01*
X1921Y851D02*
X1959Y851D01*
X2021Y851D02*
X2059Y851D01*
X2121Y851D02*
X2159Y851D01*
X2221Y851D02*
X2259Y851D01*
X2321Y851D02*
X2359Y851D01*
X2611Y851D02*
X2669Y851D01*
X2721Y851D02*
X2759Y851D01*
X2821Y851D02*
X2858Y851D01*
X2921Y851D02*
X2958Y851D01*
X3021Y851D02*
X3058Y851D01*
X3121Y851D02*
X3158Y851D01*
X211Y850D02*
X269Y850D01*
X320Y850D02*
X360Y850D01*
X420Y850D02*
X460Y850D01*
X520Y850D02*
X560Y850D01*
X620Y850D02*
X660Y850D01*
X720Y850D02*
X760Y850D01*
X1011Y850D02*
X1069Y850D01*
X1120Y850D02*
X1160Y850D01*
X1220Y850D02*
X1260Y850D01*
X1320Y850D02*
X1360Y850D01*
X1420Y850D02*
X1460Y850D01*
X1520Y850D02*
X1560Y850D01*
X1811Y850D02*
X1869Y850D01*
X1920Y850D02*
X1960Y850D01*
X2020Y850D02*
X2060Y850D01*
X2120Y850D02*
X2160Y850D01*
X2220Y850D02*
X2260Y850D01*
X2320Y850D02*
X2360Y850D01*
X2611Y850D02*
X2669Y850D01*
X2720Y850D02*
X2760Y850D01*
X2820Y850D02*
X2860Y850D01*
X2920Y850D02*
X2960Y850D01*
X3020Y850D02*
X3060Y850D01*
X3120Y850D02*
X3160Y850D01*
X211Y849D02*
X269Y849D01*
X319Y849D02*
X361Y849D01*
X419Y849D02*
X461Y849D01*
X519Y849D02*
X561Y849D01*
X619Y849D02*
X661Y849D01*
X719Y849D02*
X761Y849D01*
X1011Y849D02*
X1069Y849D01*
X1119Y849D02*
X1161Y849D01*
X1219Y849D02*
X1261Y849D01*
X1319Y849D02*
X1361Y849D01*
X1419Y849D02*
X1461Y849D01*
X1519Y849D02*
X1561Y849D01*
X1811Y849D02*
X1869Y849D01*
X1919Y849D02*
X1961Y849D01*
X2019Y849D02*
X2061Y849D01*
X2119Y849D02*
X2161Y849D01*
X2219Y849D02*
X2261Y849D01*
X2319Y849D02*
X2361Y849D01*
X2611Y849D02*
X2669Y849D01*
X2719Y849D02*
X2761Y849D01*
X2819Y849D02*
X2861Y849D01*
X2919Y849D02*
X2961Y849D01*
X3019Y849D02*
X3061Y849D01*
X3119Y849D02*
X3161Y849D01*
X211Y848D02*
X269Y848D01*
X318Y848D02*
X362Y848D01*
X418Y848D02*
X462Y848D01*
X518Y848D02*
X562Y848D01*
X618Y848D02*
X662Y848D01*
X718Y848D02*
X762Y848D01*
X1011Y848D02*
X1069Y848D01*
X1118Y848D02*
X1162Y848D01*
X1218Y848D02*
X1262Y848D01*
X1318Y848D02*
X1362Y848D01*
X1418Y848D02*
X1462Y848D01*
X1518Y848D02*
X1562Y848D01*
X1811Y848D02*
X1869Y848D01*
X1918Y848D02*
X1962Y848D01*
X2018Y848D02*
X2062Y848D01*
X2118Y848D02*
X2162Y848D01*
X2218Y848D02*
X2262Y848D01*
X2318Y848D02*
X2362Y848D01*
X2611Y848D02*
X2669Y848D01*
X2718Y848D02*
X2762Y848D01*
X2818Y848D02*
X2862Y848D01*
X2918Y848D02*
X2962Y848D01*
X3018Y848D02*
X3062Y848D01*
X3118Y848D02*
X3162Y848D01*
X211Y847D02*
X269Y847D01*
X317Y847D02*
X363Y847D01*
X417Y847D02*
X463Y847D01*
X517Y847D02*
X563Y847D01*
X617Y847D02*
X663Y847D01*
X717Y847D02*
X763Y847D01*
X1011Y847D02*
X1069Y847D01*
X1117Y847D02*
X1163Y847D01*
X1217Y847D02*
X1263Y847D01*
X1317Y847D02*
X1363Y847D01*
X1417Y847D02*
X1463Y847D01*
X1517Y847D02*
X1563Y847D01*
X1811Y847D02*
X1869Y847D01*
X1917Y847D02*
X1963Y847D01*
X2017Y847D02*
X2063Y847D01*
X2117Y847D02*
X2163Y847D01*
X2217Y847D02*
X2263Y847D01*
X2317Y847D02*
X2363Y847D01*
X2611Y847D02*
X2669Y847D01*
X2717Y847D02*
X2763Y847D01*
X2817Y847D02*
X2863Y847D01*
X2917Y847D02*
X2963Y847D01*
X3017Y847D02*
X3063Y847D01*
X3117Y847D02*
X3163Y847D01*
X211Y846D02*
X269Y846D01*
X316Y846D02*
X364Y846D01*
X416Y846D02*
X464Y846D01*
X516Y846D02*
X564Y846D01*
X616Y846D02*
X664Y846D01*
X716Y846D02*
X764Y846D01*
X1011Y846D02*
X1069Y846D01*
X1116Y846D02*
X1164Y846D01*
X1216Y846D02*
X1264Y846D01*
X1316Y846D02*
X1364Y846D01*
X1416Y846D02*
X1464Y846D01*
X1516Y846D02*
X1564Y846D01*
X1811Y846D02*
X1869Y846D01*
X1916Y846D02*
X1964Y846D01*
X2016Y846D02*
X2064Y846D01*
X2116Y846D02*
X2164Y846D01*
X2216Y846D02*
X2264Y846D01*
X2316Y846D02*
X2364Y846D01*
X2611Y846D02*
X2669Y846D01*
X2716Y846D02*
X2764Y846D01*
X2816Y846D02*
X2864Y846D01*
X2916Y846D02*
X2964Y846D01*
X3016Y846D02*
X3064Y846D01*
X3116Y846D02*
X3164Y846D01*
X211Y845D02*
X238Y845D01*
X242Y845D02*
X269Y845D01*
X316Y845D02*
X338Y845D01*
X342Y845D02*
X364Y845D01*
X416Y845D02*
X438Y845D01*
X442Y845D02*
X464Y845D01*
X516Y845D02*
X538Y845D01*
X542Y845D02*
X564Y845D01*
X616Y845D02*
X638Y845D01*
X642Y845D02*
X664Y845D01*
X716Y845D02*
X738Y845D01*
X742Y845D02*
X764Y845D01*
X1011Y845D02*
X1038Y845D01*
X1042Y845D02*
X1069Y845D01*
X1116Y845D02*
X1138Y845D01*
X1142Y845D02*
X1164Y845D01*
X1216Y845D02*
X1238Y845D01*
X1242Y845D02*
X1264Y845D01*
X1316Y845D02*
X1338Y845D01*
X1342Y845D02*
X1364Y845D01*
X1416Y845D02*
X1438Y845D01*
X1442Y845D02*
X1464Y845D01*
X1516Y845D02*
X1538Y845D01*
X1542Y845D02*
X1564Y845D01*
X1811Y845D02*
X1838Y845D01*
X1842Y845D02*
X1869Y845D01*
X1916Y845D02*
X1938Y845D01*
X1942Y845D02*
X1964Y845D01*
X2016Y845D02*
X2038Y845D01*
X2042Y845D02*
X2064Y845D01*
X2116Y845D02*
X2138Y845D01*
X2142Y845D02*
X2164Y845D01*
X2216Y845D02*
X2238Y845D01*
X2242Y845D02*
X2264Y845D01*
X2316Y845D02*
X2338Y845D01*
X2342Y845D02*
X2364Y845D01*
X2611Y845D02*
X2638Y845D01*
X2642Y845D02*
X2669Y845D01*
X2716Y845D02*
X2738Y845D01*
X2742Y845D02*
X2764Y845D01*
X2816Y845D02*
X2838Y845D01*
X2842Y845D02*
X2864Y845D01*
X2916Y845D02*
X2938Y845D01*
X2942Y845D02*
X2964Y845D01*
X3016Y845D02*
X3038Y845D01*
X3042Y845D02*
X3064Y845D01*
X3116Y845D02*
X3138Y845D01*
X3142Y845D02*
X3164Y845D01*
X211Y844D02*
X233Y844D01*
X247Y844D02*
X269Y844D01*
X315Y844D02*
X333Y844D01*
X347Y844D02*
X365Y844D01*
X415Y844D02*
X433Y844D01*
X447Y844D02*
X465Y844D01*
X515Y844D02*
X533Y844D01*
X547Y844D02*
X565Y844D01*
X615Y844D02*
X633Y844D01*
X647Y844D02*
X665Y844D01*
X715Y844D02*
X733Y844D01*
X747Y844D02*
X765Y844D01*
X1011Y844D02*
X1033Y844D01*
X1047Y844D02*
X1069Y844D01*
X1115Y844D02*
X1133Y844D01*
X1147Y844D02*
X1165Y844D01*
X1215Y844D02*
X1233Y844D01*
X1247Y844D02*
X1265Y844D01*
X1315Y844D02*
X1333Y844D01*
X1347Y844D02*
X1365Y844D01*
X1415Y844D02*
X1433Y844D01*
X1447Y844D02*
X1465Y844D01*
X1515Y844D02*
X1533Y844D01*
X1547Y844D02*
X1565Y844D01*
X1811Y844D02*
X1833Y844D01*
X1847Y844D02*
X1869Y844D01*
X1915Y844D02*
X1933Y844D01*
X1947Y844D02*
X1965Y844D01*
X2015Y844D02*
X2033Y844D01*
X2047Y844D02*
X2065Y844D01*
X2115Y844D02*
X2133Y844D01*
X2147Y844D02*
X2165Y844D01*
X2215Y844D02*
X2233Y844D01*
X2247Y844D02*
X2265Y844D01*
X2315Y844D02*
X2333Y844D01*
X2347Y844D02*
X2365Y844D01*
X2611Y844D02*
X2633Y844D01*
X2647Y844D02*
X2669Y844D01*
X2715Y844D02*
X2733Y844D01*
X2747Y844D02*
X2765Y844D01*
X2815Y844D02*
X2833Y844D01*
X2847Y844D02*
X2865Y844D01*
X2915Y844D02*
X2933Y844D01*
X2947Y844D02*
X2965Y844D01*
X3015Y844D02*
X3033Y844D01*
X3047Y844D02*
X3065Y844D01*
X3115Y844D02*
X3133Y844D01*
X3147Y844D02*
X3165Y844D01*
X211Y843D02*
X231Y843D01*
X249Y843D02*
X269Y843D01*
X314Y843D02*
X331Y843D01*
X349Y843D02*
X366Y843D01*
X414Y843D02*
X431Y843D01*
X449Y843D02*
X466Y843D01*
X514Y843D02*
X531Y843D01*
X549Y843D02*
X566Y843D01*
X614Y843D02*
X631Y843D01*
X649Y843D02*
X666Y843D01*
X714Y843D02*
X731Y843D01*
X749Y843D02*
X766Y843D01*
X1011Y843D02*
X1031Y843D01*
X1049Y843D02*
X1069Y843D01*
X1114Y843D02*
X1131Y843D01*
X1149Y843D02*
X1166Y843D01*
X1214Y843D02*
X1231Y843D01*
X1249Y843D02*
X1266Y843D01*
X1314Y843D02*
X1331Y843D01*
X1349Y843D02*
X1366Y843D01*
X1414Y843D02*
X1431Y843D01*
X1449Y843D02*
X1466Y843D01*
X1514Y843D02*
X1531Y843D01*
X1549Y843D02*
X1566Y843D01*
X1811Y843D02*
X1831Y843D01*
X1849Y843D02*
X1869Y843D01*
X1914Y843D02*
X1931Y843D01*
X1949Y843D02*
X1966Y843D01*
X2014Y843D02*
X2031Y843D01*
X2049Y843D02*
X2066Y843D01*
X2114Y843D02*
X2131Y843D01*
X2149Y843D02*
X2166Y843D01*
X2214Y843D02*
X2231Y843D01*
X2249Y843D02*
X2266Y843D01*
X2314Y843D02*
X2331Y843D01*
X2349Y843D02*
X2366Y843D01*
X2611Y843D02*
X2631Y843D01*
X2649Y843D02*
X2669Y843D01*
X2714Y843D02*
X2731Y843D01*
X2749Y843D02*
X2766Y843D01*
X2814Y843D02*
X2831Y843D01*
X2849Y843D02*
X2866Y843D01*
X2914Y843D02*
X2931Y843D01*
X2949Y843D02*
X2966Y843D01*
X3014Y843D02*
X3031Y843D01*
X3049Y843D02*
X3066Y843D01*
X3114Y843D02*
X3131Y843D01*
X3149Y843D02*
X3166Y843D01*
X211Y842D02*
X229Y842D01*
X251Y842D02*
X269Y842D01*
X314Y842D02*
X329Y842D01*
X351Y842D02*
X366Y842D01*
X414Y842D02*
X429Y842D01*
X451Y842D02*
X466Y842D01*
X514Y842D02*
X529Y842D01*
X551Y842D02*
X566Y842D01*
X614Y842D02*
X629Y842D01*
X651Y842D02*
X666Y842D01*
X714Y842D02*
X729Y842D01*
X751Y842D02*
X766Y842D01*
X1011Y842D02*
X1029Y842D01*
X1051Y842D02*
X1069Y842D01*
X1114Y842D02*
X1129Y842D01*
X1151Y842D02*
X1166Y842D01*
X1214Y842D02*
X1229Y842D01*
X1251Y842D02*
X1266Y842D01*
X1314Y842D02*
X1329Y842D01*
X1351Y842D02*
X1366Y842D01*
X1414Y842D02*
X1429Y842D01*
X1451Y842D02*
X1466Y842D01*
X1514Y842D02*
X1529Y842D01*
X1551Y842D02*
X1566Y842D01*
X1811Y842D02*
X1829Y842D01*
X1851Y842D02*
X1869Y842D01*
X1914Y842D02*
X1929Y842D01*
X1951Y842D02*
X1966Y842D01*
X2014Y842D02*
X2029Y842D01*
X2051Y842D02*
X2066Y842D01*
X2114Y842D02*
X2129Y842D01*
X2151Y842D02*
X2166Y842D01*
X2214Y842D02*
X2229Y842D01*
X2251Y842D02*
X2266Y842D01*
X2314Y842D02*
X2329Y842D01*
X2351Y842D02*
X2366Y842D01*
X2611Y842D02*
X2629Y842D01*
X2651Y842D02*
X2669Y842D01*
X2714Y842D02*
X2729Y842D01*
X2751Y842D02*
X2766Y842D01*
X2814Y842D02*
X2829Y842D01*
X2851Y842D02*
X2866Y842D01*
X2914Y842D02*
X2929Y842D01*
X2951Y842D02*
X2966Y842D01*
X3014Y842D02*
X3029Y842D01*
X3051Y842D02*
X3066Y842D01*
X3114Y842D02*
X3129Y842D01*
X3151Y842D02*
X3166Y842D01*
X211Y841D02*
X228Y841D01*
X252Y841D02*
X269Y841D01*
X313Y841D02*
X328Y841D01*
X352Y841D02*
X367Y841D01*
X413Y841D02*
X428Y841D01*
X452Y841D02*
X467Y841D01*
X513Y841D02*
X528Y841D01*
X552Y841D02*
X567Y841D01*
X613Y841D02*
X628Y841D01*
X652Y841D02*
X667Y841D01*
X713Y841D02*
X728Y841D01*
X752Y841D02*
X767Y841D01*
X1011Y841D02*
X1028Y841D01*
X1052Y841D02*
X1069Y841D01*
X1113Y841D02*
X1128Y841D01*
X1152Y841D02*
X1167Y841D01*
X1213Y841D02*
X1228Y841D01*
X1252Y841D02*
X1267Y841D01*
X1313Y841D02*
X1328Y841D01*
X1352Y841D02*
X1367Y841D01*
X1413Y841D02*
X1428Y841D01*
X1452Y841D02*
X1467Y841D01*
X1513Y841D02*
X1528Y841D01*
X1552Y841D02*
X1567Y841D01*
X1811Y841D02*
X1828Y841D01*
X1852Y841D02*
X1869Y841D01*
X1913Y841D02*
X1928Y841D01*
X1952Y841D02*
X1967Y841D01*
X2013Y841D02*
X2028Y841D01*
X2052Y841D02*
X2067Y841D01*
X2113Y841D02*
X2128Y841D01*
X2152Y841D02*
X2167Y841D01*
X2213Y841D02*
X2228Y841D01*
X2252Y841D02*
X2267Y841D01*
X2313Y841D02*
X2328Y841D01*
X2352Y841D02*
X2367Y841D01*
X2611Y841D02*
X2628Y841D01*
X2652Y841D02*
X2669Y841D01*
X2713Y841D02*
X2728Y841D01*
X2752Y841D02*
X2767Y841D01*
X2813Y841D02*
X2828Y841D01*
X2852Y841D02*
X2867Y841D01*
X2913Y841D02*
X2928Y841D01*
X2952Y841D02*
X2967Y841D01*
X3013Y841D02*
X3028Y841D01*
X3052Y841D02*
X3067Y841D01*
X3113Y841D02*
X3128Y841D01*
X3152Y841D02*
X3167Y841D01*
X211Y840D02*
X227Y840D01*
X253Y840D02*
X269Y840D01*
X313Y840D02*
X327Y840D01*
X353Y840D02*
X367Y840D01*
X413Y840D02*
X427Y840D01*
X453Y840D02*
X467Y840D01*
X513Y840D02*
X527Y840D01*
X553Y840D02*
X567Y840D01*
X613Y840D02*
X627Y840D01*
X653Y840D02*
X667Y840D01*
X713Y840D02*
X727Y840D01*
X753Y840D02*
X767Y840D01*
X1011Y840D02*
X1027Y840D01*
X1053Y840D02*
X1069Y840D01*
X1113Y840D02*
X1127Y840D01*
X1153Y840D02*
X1167Y840D01*
X1213Y840D02*
X1227Y840D01*
X1253Y840D02*
X1267Y840D01*
X1313Y840D02*
X1327Y840D01*
X1353Y840D02*
X1367Y840D01*
X1413Y840D02*
X1427Y840D01*
X1453Y840D02*
X1467Y840D01*
X1513Y840D02*
X1527Y840D01*
X1553Y840D02*
X1567Y840D01*
X1811Y840D02*
X1827Y840D01*
X1853Y840D02*
X1869Y840D01*
X1913Y840D02*
X1927Y840D01*
X1953Y840D02*
X1967Y840D01*
X2013Y840D02*
X2027Y840D01*
X2053Y840D02*
X2067Y840D01*
X2113Y840D02*
X2127Y840D01*
X2153Y840D02*
X2167Y840D01*
X2213Y840D02*
X2227Y840D01*
X2253Y840D02*
X2267Y840D01*
X2313Y840D02*
X2327Y840D01*
X2353Y840D02*
X2367Y840D01*
X2611Y840D02*
X2627Y840D01*
X2653Y840D02*
X2669Y840D01*
X2713Y840D02*
X2727Y840D01*
X2753Y840D02*
X2767Y840D01*
X2813Y840D02*
X2827Y840D01*
X2853Y840D02*
X2867Y840D01*
X2913Y840D02*
X2927Y840D01*
X2953Y840D02*
X2967Y840D01*
X3013Y840D02*
X3027Y840D01*
X3053Y840D02*
X3067Y840D01*
X3113Y840D02*
X3127Y840D01*
X3153Y840D02*
X3167Y840D01*
X211Y839D02*
X226Y839D01*
X254Y839D02*
X269Y839D01*
X312Y839D02*
X326Y839D01*
X354Y839D02*
X368Y839D01*
X412Y839D02*
X426Y839D01*
X454Y839D02*
X468Y839D01*
X512Y839D02*
X526Y839D01*
X554Y839D02*
X568Y839D01*
X612Y839D02*
X626Y839D01*
X654Y839D02*
X668Y839D01*
X712Y839D02*
X726Y839D01*
X754Y839D02*
X768Y839D01*
X1011Y839D02*
X1026Y839D01*
X1054Y839D02*
X1069Y839D01*
X1112Y839D02*
X1126Y839D01*
X1154Y839D02*
X1168Y839D01*
X1212Y839D02*
X1226Y839D01*
X1254Y839D02*
X1268Y839D01*
X1312Y839D02*
X1326Y839D01*
X1354Y839D02*
X1368Y839D01*
X1412Y839D02*
X1426Y839D01*
X1454Y839D02*
X1468Y839D01*
X1512Y839D02*
X1526Y839D01*
X1554Y839D02*
X1568Y839D01*
X1811Y839D02*
X1826Y839D01*
X1854Y839D02*
X1869Y839D01*
X1912Y839D02*
X1926Y839D01*
X1954Y839D02*
X1968Y839D01*
X2012Y839D02*
X2026Y839D01*
X2054Y839D02*
X2068Y839D01*
X2112Y839D02*
X2126Y839D01*
X2154Y839D02*
X2168Y839D01*
X2212Y839D02*
X2226Y839D01*
X2254Y839D02*
X2268Y839D01*
X2312Y839D02*
X2326Y839D01*
X2354Y839D02*
X2368Y839D01*
X2611Y839D02*
X2626Y839D01*
X2654Y839D02*
X2669Y839D01*
X2712Y839D02*
X2726Y839D01*
X2754Y839D02*
X2768Y839D01*
X2812Y839D02*
X2826Y839D01*
X2854Y839D02*
X2868Y839D01*
X2912Y839D02*
X2926Y839D01*
X2954Y839D02*
X2968Y839D01*
X3012Y839D02*
X3026Y839D01*
X3054Y839D02*
X3068Y839D01*
X3112Y839D02*
X3126Y839D01*
X3154Y839D02*
X3168Y839D01*
X211Y838D02*
X225Y838D01*
X255Y838D02*
X269Y838D01*
X312Y838D02*
X325Y838D01*
X355Y838D02*
X368Y838D01*
X412Y838D02*
X425Y838D01*
X455Y838D02*
X468Y838D01*
X512Y838D02*
X525Y838D01*
X555Y838D02*
X568Y838D01*
X612Y838D02*
X625Y838D01*
X655Y838D02*
X668Y838D01*
X712Y838D02*
X725Y838D01*
X755Y838D02*
X768Y838D01*
X1011Y838D02*
X1025Y838D01*
X1055Y838D02*
X1069Y838D01*
X1112Y838D02*
X1125Y838D01*
X1155Y838D02*
X1168Y838D01*
X1212Y838D02*
X1225Y838D01*
X1255Y838D02*
X1268Y838D01*
X1312Y838D02*
X1325Y838D01*
X1355Y838D02*
X1368Y838D01*
X1412Y838D02*
X1425Y838D01*
X1455Y838D02*
X1468Y838D01*
X1512Y838D02*
X1525Y838D01*
X1555Y838D02*
X1568Y838D01*
X1811Y838D02*
X1825Y838D01*
X1855Y838D02*
X1869Y838D01*
X1912Y838D02*
X1925Y838D01*
X1955Y838D02*
X1968Y838D01*
X2012Y838D02*
X2025Y838D01*
X2055Y838D02*
X2068Y838D01*
X2112Y838D02*
X2125Y838D01*
X2155Y838D02*
X2168Y838D01*
X2212Y838D02*
X2225Y838D01*
X2255Y838D02*
X2268Y838D01*
X2312Y838D02*
X2325Y838D01*
X2355Y838D02*
X2368Y838D01*
X2611Y838D02*
X2625Y838D01*
X2655Y838D02*
X2669Y838D01*
X2712Y838D02*
X2725Y838D01*
X2755Y838D02*
X2768Y838D01*
X2812Y838D02*
X2825Y838D01*
X2855Y838D02*
X2868Y838D01*
X2912Y838D02*
X2925Y838D01*
X2955Y838D02*
X2968Y838D01*
X3012Y838D02*
X3025Y838D01*
X3055Y838D02*
X3068Y838D01*
X3112Y838D02*
X3125Y838D01*
X3155Y838D02*
X3168Y838D01*
X211Y837D02*
X224Y837D01*
X256Y837D02*
X269Y837D01*
X311Y837D02*
X324Y837D01*
X356Y837D02*
X369Y837D01*
X411Y837D02*
X424Y837D01*
X456Y837D02*
X469Y837D01*
X511Y837D02*
X524Y837D01*
X556Y837D02*
X569Y837D01*
X611Y837D02*
X624Y837D01*
X656Y837D02*
X669Y837D01*
X711Y837D02*
X724Y837D01*
X756Y837D02*
X769Y837D01*
X1011Y837D02*
X1024Y837D01*
X1056Y837D02*
X1069Y837D01*
X1111Y837D02*
X1124Y837D01*
X1156Y837D02*
X1169Y837D01*
X1211Y837D02*
X1224Y837D01*
X1256Y837D02*
X1269Y837D01*
X1311Y837D02*
X1324Y837D01*
X1356Y837D02*
X1369Y837D01*
X1411Y837D02*
X1424Y837D01*
X1456Y837D02*
X1469Y837D01*
X1511Y837D02*
X1524Y837D01*
X1556Y837D02*
X1569Y837D01*
X1811Y837D02*
X1824Y837D01*
X1856Y837D02*
X1869Y837D01*
X1911Y837D02*
X1924Y837D01*
X1956Y837D02*
X1969Y837D01*
X2011Y837D02*
X2024Y837D01*
X2056Y837D02*
X2069Y837D01*
X2111Y837D02*
X2124Y837D01*
X2156Y837D02*
X2169Y837D01*
X2211Y837D02*
X2224Y837D01*
X2256Y837D02*
X2269Y837D01*
X2311Y837D02*
X2324Y837D01*
X2356Y837D02*
X2369Y837D01*
X2611Y837D02*
X2624Y837D01*
X2656Y837D02*
X2669Y837D01*
X2711Y837D02*
X2724Y837D01*
X2756Y837D02*
X2769Y837D01*
X2811Y837D02*
X2824Y837D01*
X2856Y837D02*
X2869Y837D01*
X2911Y837D02*
X2924Y837D01*
X2956Y837D02*
X2969Y837D01*
X3011Y837D02*
X3024Y837D01*
X3056Y837D02*
X3069Y837D01*
X3111Y837D02*
X3124Y837D01*
X3156Y837D02*
X3169Y837D01*
X211Y836D02*
X224Y836D01*
X256Y836D02*
X269Y836D01*
X311Y836D02*
X324Y836D01*
X356Y836D02*
X369Y836D01*
X411Y836D02*
X424Y836D01*
X456Y836D02*
X469Y836D01*
X511Y836D02*
X524Y836D01*
X556Y836D02*
X569Y836D01*
X611Y836D02*
X624Y836D01*
X656Y836D02*
X669Y836D01*
X711Y836D02*
X724Y836D01*
X756Y836D02*
X769Y836D01*
X1011Y836D02*
X1024Y836D01*
X1056Y836D02*
X1069Y836D01*
X1111Y836D02*
X1124Y836D01*
X1156Y836D02*
X1169Y836D01*
X1211Y836D02*
X1224Y836D01*
X1256Y836D02*
X1269Y836D01*
X1311Y836D02*
X1324Y836D01*
X1356Y836D02*
X1369Y836D01*
X1411Y836D02*
X1424Y836D01*
X1456Y836D02*
X1469Y836D01*
X1511Y836D02*
X1524Y836D01*
X1556Y836D02*
X1569Y836D01*
X1811Y836D02*
X1824Y836D01*
X1856Y836D02*
X1869Y836D01*
X1911Y836D02*
X1924Y836D01*
X1956Y836D02*
X1969Y836D01*
X2011Y836D02*
X2024Y836D01*
X2056Y836D02*
X2069Y836D01*
X2111Y836D02*
X2124Y836D01*
X2156Y836D02*
X2169Y836D01*
X2211Y836D02*
X2224Y836D01*
X2256Y836D02*
X2269Y836D01*
X2311Y836D02*
X2324Y836D01*
X2356Y836D02*
X2369Y836D01*
X2611Y836D02*
X2624Y836D01*
X2656Y836D02*
X2669Y836D01*
X2711Y836D02*
X2724Y836D01*
X2756Y836D02*
X2769Y836D01*
X2811Y836D02*
X2824Y836D01*
X2856Y836D02*
X2869Y836D01*
X2911Y836D02*
X2924Y836D01*
X2956Y836D02*
X2969Y836D01*
X3011Y836D02*
X3024Y836D01*
X3056Y836D02*
X3069Y836D01*
X3111Y836D02*
X3124Y836D01*
X3156Y836D02*
X3169Y836D01*
X211Y835D02*
X223Y835D01*
X257Y835D02*
X269Y835D01*
X311Y835D02*
X323Y835D01*
X357Y835D02*
X369Y835D01*
X411Y835D02*
X423Y835D01*
X457Y835D02*
X469Y835D01*
X511Y835D02*
X523Y835D01*
X557Y835D02*
X569Y835D01*
X611Y835D02*
X623Y835D01*
X657Y835D02*
X669Y835D01*
X711Y835D02*
X723Y835D01*
X757Y835D02*
X769Y835D01*
X1011Y835D02*
X1023Y835D01*
X1057Y835D02*
X1069Y835D01*
X1111Y835D02*
X1123Y835D01*
X1157Y835D02*
X1169Y835D01*
X1211Y835D02*
X1223Y835D01*
X1257Y835D02*
X1269Y835D01*
X1311Y835D02*
X1323Y835D01*
X1357Y835D02*
X1369Y835D01*
X1411Y835D02*
X1423Y835D01*
X1457Y835D02*
X1469Y835D01*
X1511Y835D02*
X1523Y835D01*
X1557Y835D02*
X1569Y835D01*
X1811Y835D02*
X1823Y835D01*
X1857Y835D02*
X1869Y835D01*
X1911Y835D02*
X1923Y835D01*
X1957Y835D02*
X1969Y835D01*
X2011Y835D02*
X2023Y835D01*
X2057Y835D02*
X2069Y835D01*
X2111Y835D02*
X2123Y835D01*
X2157Y835D02*
X2169Y835D01*
X2211Y835D02*
X2223Y835D01*
X2257Y835D02*
X2269Y835D01*
X2311Y835D02*
X2323Y835D01*
X2357Y835D02*
X2369Y835D01*
X2611Y835D02*
X2623Y835D01*
X2657Y835D02*
X2669Y835D01*
X2711Y835D02*
X2723Y835D01*
X2757Y835D02*
X2769Y835D01*
X2811Y835D02*
X2823Y835D01*
X2857Y835D02*
X2869Y835D01*
X2911Y835D02*
X2923Y835D01*
X2957Y835D02*
X2969Y835D01*
X3011Y835D02*
X3023Y835D01*
X3057Y835D02*
X3069Y835D01*
X3111Y835D02*
X3123Y835D01*
X3157Y835D02*
X3169Y835D01*
X211Y834D02*
X223Y834D01*
X258Y834D02*
X269Y834D01*
X311Y834D02*
X323Y834D01*
X358Y834D02*
X370Y834D01*
X411Y834D02*
X423Y834D01*
X458Y834D02*
X470Y834D01*
X511Y834D02*
X523Y834D01*
X558Y834D02*
X570Y834D01*
X611Y834D02*
X623Y834D01*
X658Y834D02*
X670Y834D01*
X711Y834D02*
X723Y834D01*
X758Y834D02*
X770Y834D01*
X1011Y834D02*
X1023Y834D01*
X1058Y834D02*
X1069Y834D01*
X1111Y834D02*
X1123Y834D01*
X1157Y834D02*
X1170Y834D01*
X1210Y834D02*
X1223Y834D01*
X1258Y834D02*
X1270Y834D01*
X1310Y834D02*
X1323Y834D01*
X1357Y834D02*
X1370Y834D01*
X1411Y834D02*
X1423Y834D01*
X1457Y834D02*
X1470Y834D01*
X1510Y834D02*
X1523Y834D01*
X1557Y834D02*
X1570Y834D01*
X1811Y834D02*
X1823Y834D01*
X1857Y834D02*
X1869Y834D01*
X1910Y834D02*
X1923Y834D01*
X1957Y834D02*
X1970Y834D01*
X2010Y834D02*
X2023Y834D01*
X2057Y834D02*
X2070Y834D01*
X2110Y834D02*
X2123Y834D01*
X2157Y834D02*
X2170Y834D01*
X2210Y834D02*
X2223Y834D01*
X2257Y834D02*
X2270Y834D01*
X2310Y834D02*
X2322Y834D01*
X2357Y834D02*
X2370Y834D01*
X2611Y834D02*
X2622Y834D01*
X2657Y834D02*
X2669Y834D01*
X2710Y834D02*
X2722Y834D01*
X2757Y834D02*
X2769Y834D01*
X2810Y834D02*
X2822Y834D01*
X2857Y834D02*
X2869Y834D01*
X2910Y834D02*
X2922Y834D01*
X2957Y834D02*
X2969Y834D01*
X3010Y834D02*
X3022Y834D01*
X3057Y834D02*
X3069Y834D01*
X3110Y834D02*
X3122Y834D01*
X3157Y834D02*
X3169Y834D01*
X211Y833D02*
X222Y833D01*
X258Y833D02*
X269Y833D01*
X310Y833D02*
X322Y833D01*
X358Y833D02*
X370Y833D01*
X410Y833D02*
X422Y833D01*
X458Y833D02*
X470Y833D01*
X510Y833D02*
X522Y833D01*
X558Y833D02*
X570Y833D01*
X610Y833D02*
X622Y833D01*
X658Y833D02*
X670Y833D01*
X710Y833D02*
X722Y833D01*
X758Y833D02*
X770Y833D01*
X1011Y833D02*
X1022Y833D01*
X1058Y833D02*
X1069Y833D01*
X1110Y833D02*
X1122Y833D01*
X1158Y833D02*
X1170Y833D01*
X1210Y833D02*
X1222Y833D01*
X1258Y833D02*
X1270Y833D01*
X1310Y833D02*
X1322Y833D01*
X1358Y833D02*
X1370Y833D01*
X1410Y833D02*
X1422Y833D01*
X1458Y833D02*
X1470Y833D01*
X1510Y833D02*
X1522Y833D01*
X1558Y833D02*
X1570Y833D01*
X1811Y833D02*
X1822Y833D01*
X1858Y833D02*
X1869Y833D01*
X1910Y833D02*
X1922Y833D01*
X1958Y833D02*
X1970Y833D01*
X2010Y833D02*
X2022Y833D01*
X2058Y833D02*
X2070Y833D01*
X2110Y833D02*
X2122Y833D01*
X2158Y833D02*
X2170Y833D01*
X2210Y833D02*
X2222Y833D01*
X2258Y833D02*
X2270Y833D01*
X2310Y833D02*
X2322Y833D01*
X2358Y833D02*
X2370Y833D01*
X2611Y833D02*
X2622Y833D01*
X2658Y833D02*
X2669Y833D01*
X2710Y833D02*
X2722Y833D01*
X2758Y833D02*
X2770Y833D01*
X2810Y833D02*
X2822Y833D01*
X2858Y833D02*
X2870Y833D01*
X2910Y833D02*
X2922Y833D01*
X2958Y833D02*
X2970Y833D01*
X3010Y833D02*
X3022Y833D01*
X3058Y833D02*
X3070Y833D01*
X3110Y833D02*
X3122Y833D01*
X3158Y833D02*
X3170Y833D01*
X211Y832D02*
X222Y832D01*
X258Y832D02*
X269Y832D01*
X310Y832D02*
X322Y832D01*
X358Y832D02*
X370Y832D01*
X410Y832D02*
X422Y832D01*
X458Y832D02*
X470Y832D01*
X510Y832D02*
X522Y832D01*
X558Y832D02*
X570Y832D01*
X610Y832D02*
X622Y832D01*
X658Y832D02*
X670Y832D01*
X710Y832D02*
X722Y832D01*
X758Y832D02*
X770Y832D01*
X1011Y832D02*
X1022Y832D01*
X1058Y832D02*
X1069Y832D01*
X1110Y832D02*
X1122Y832D01*
X1158Y832D02*
X1170Y832D01*
X1210Y832D02*
X1222Y832D01*
X1258Y832D02*
X1270Y832D01*
X1310Y832D02*
X1322Y832D01*
X1358Y832D02*
X1370Y832D01*
X1410Y832D02*
X1422Y832D01*
X1458Y832D02*
X1470Y832D01*
X1510Y832D02*
X1522Y832D01*
X1558Y832D02*
X1570Y832D01*
X1811Y832D02*
X1822Y832D01*
X1858Y832D02*
X1869Y832D01*
X1910Y832D02*
X1922Y832D01*
X1958Y832D02*
X1970Y832D01*
X2010Y832D02*
X2022Y832D01*
X2058Y832D02*
X2070Y832D01*
X2110Y832D02*
X2122Y832D01*
X2158Y832D02*
X2170Y832D01*
X2210Y832D02*
X2222Y832D01*
X2258Y832D02*
X2270Y832D01*
X2310Y832D02*
X2322Y832D01*
X2358Y832D02*
X2370Y832D01*
X2611Y832D02*
X2622Y832D01*
X2658Y832D02*
X2669Y832D01*
X2710Y832D02*
X2722Y832D01*
X2758Y832D02*
X2770Y832D01*
X2810Y832D02*
X2822Y832D01*
X2858Y832D02*
X2870Y832D01*
X2910Y832D02*
X2922Y832D01*
X2958Y832D02*
X2970Y832D01*
X3010Y832D02*
X3022Y832D01*
X3058Y832D02*
X3070Y832D01*
X3110Y832D02*
X3122Y832D01*
X3158Y832D02*
X3170Y832D01*
X211Y831D02*
X222Y831D01*
X259Y831D02*
X269Y831D01*
X310Y831D02*
X322Y831D01*
X359Y831D02*
X370Y831D01*
X410Y831D02*
X422Y831D01*
X459Y831D02*
X470Y831D01*
X510Y831D02*
X522Y831D01*
X559Y831D02*
X570Y831D01*
X610Y831D02*
X622Y831D01*
X659Y831D02*
X670Y831D01*
X710Y831D02*
X722Y831D01*
X759Y831D02*
X770Y831D01*
X1011Y831D02*
X1022Y831D01*
X1059Y831D02*
X1069Y831D01*
X1110Y831D02*
X1122Y831D01*
X1158Y831D02*
X1170Y831D01*
X1210Y831D02*
X1222Y831D01*
X1258Y831D02*
X1270Y831D01*
X1310Y831D02*
X1322Y831D01*
X1358Y831D02*
X1370Y831D01*
X1410Y831D02*
X1422Y831D01*
X1458Y831D02*
X1470Y831D01*
X1510Y831D02*
X1522Y831D01*
X1558Y831D02*
X1570Y831D01*
X1811Y831D02*
X1822Y831D01*
X1858Y831D02*
X1869Y831D01*
X1910Y831D02*
X1922Y831D01*
X1958Y831D02*
X1970Y831D01*
X2010Y831D02*
X2022Y831D01*
X2058Y831D02*
X2070Y831D01*
X2110Y831D02*
X2122Y831D01*
X2158Y831D02*
X2170Y831D01*
X2210Y831D02*
X2222Y831D01*
X2258Y831D02*
X2270Y831D01*
X2310Y831D02*
X2322Y831D01*
X2358Y831D02*
X2370Y831D01*
X2611Y831D02*
X2622Y831D01*
X2658Y831D02*
X2669Y831D01*
X2710Y831D02*
X2722Y831D01*
X2758Y831D02*
X2770Y831D01*
X2810Y831D02*
X2821Y831D01*
X2858Y831D02*
X2870Y831D01*
X2910Y831D02*
X2922Y831D01*
X2958Y831D02*
X2970Y831D01*
X3010Y831D02*
X3021Y831D01*
X3058Y831D02*
X3070Y831D01*
X3110Y831D02*
X3121Y831D01*
X3158Y831D02*
X3170Y831D01*
X211Y830D02*
X221Y830D01*
X259Y830D02*
X269Y830D01*
X310Y830D02*
X321Y830D01*
X359Y830D02*
X370Y830D01*
X410Y830D02*
X421Y830D01*
X459Y830D02*
X470Y830D01*
X510Y830D02*
X521Y830D01*
X559Y830D02*
X570Y830D01*
X610Y830D02*
X621Y830D01*
X659Y830D02*
X670Y830D01*
X710Y830D02*
X721Y830D01*
X759Y830D02*
X770Y830D01*
X1011Y830D02*
X1021Y830D01*
X1059Y830D02*
X1069Y830D01*
X1110Y830D02*
X1121Y830D01*
X1159Y830D02*
X1170Y830D01*
X1210Y830D02*
X1221Y830D01*
X1259Y830D02*
X1270Y830D01*
X1310Y830D02*
X1321Y830D01*
X1359Y830D02*
X1370Y830D01*
X1410Y830D02*
X1421Y830D01*
X1459Y830D02*
X1470Y830D01*
X1510Y830D02*
X1521Y830D01*
X1559Y830D02*
X1570Y830D01*
X1811Y830D02*
X1821Y830D01*
X1859Y830D02*
X1869Y830D01*
X1910Y830D02*
X1921Y830D01*
X1959Y830D02*
X1970Y830D01*
X2010Y830D02*
X2021Y830D01*
X2059Y830D02*
X2070Y830D01*
X2110Y830D02*
X2121Y830D01*
X2159Y830D02*
X2170Y830D01*
X2210Y830D02*
X2221Y830D01*
X2259Y830D02*
X2270Y830D01*
X2310Y830D02*
X2321Y830D01*
X2359Y830D02*
X2370Y830D01*
X2611Y830D02*
X2621Y830D01*
X2659Y830D02*
X2669Y830D01*
X2710Y830D02*
X2721Y830D01*
X2759Y830D02*
X2770Y830D01*
X2810Y830D02*
X2821Y830D01*
X2859Y830D02*
X2870Y830D01*
X2910Y830D02*
X2921Y830D01*
X2959Y830D02*
X2970Y830D01*
X3010Y830D02*
X3021Y830D01*
X3059Y830D02*
X3070Y830D01*
X3110Y830D02*
X3121Y830D01*
X3159Y830D02*
X3170Y830D01*
X211Y829D02*
X221Y829D01*
X259Y829D02*
X269Y829D01*
X310Y829D02*
X321Y829D01*
X359Y829D02*
X370Y829D01*
X410Y829D02*
X421Y829D01*
X459Y829D02*
X470Y829D01*
X510Y829D02*
X521Y829D01*
X559Y829D02*
X570Y829D01*
X610Y829D02*
X621Y829D01*
X659Y829D02*
X670Y829D01*
X710Y829D02*
X721Y829D01*
X759Y829D02*
X770Y829D01*
X1011Y829D02*
X1021Y829D01*
X1059Y829D02*
X1069Y829D01*
X1110Y829D02*
X1121Y829D01*
X1159Y829D02*
X1170Y829D01*
X1210Y829D02*
X1221Y829D01*
X1259Y829D02*
X1270Y829D01*
X1310Y829D02*
X1321Y829D01*
X1359Y829D02*
X1370Y829D01*
X1410Y829D02*
X1421Y829D01*
X1459Y829D02*
X1470Y829D01*
X1510Y829D02*
X1521Y829D01*
X1559Y829D02*
X1570Y829D01*
X1811Y829D02*
X1821Y829D01*
X1859Y829D02*
X1869Y829D01*
X1910Y829D02*
X1921Y829D01*
X1959Y829D02*
X1970Y829D01*
X2010Y829D02*
X2021Y829D01*
X2059Y829D02*
X2070Y829D01*
X2110Y829D02*
X2121Y829D01*
X2159Y829D02*
X2170Y829D01*
X2210Y829D02*
X2221Y829D01*
X2259Y829D02*
X2270Y829D01*
X2310Y829D02*
X2321Y829D01*
X2359Y829D02*
X2370Y829D01*
X2611Y829D02*
X2621Y829D01*
X2659Y829D02*
X2669Y829D01*
X2710Y829D02*
X2721Y829D01*
X2759Y829D02*
X2770Y829D01*
X2810Y829D02*
X2821Y829D01*
X2859Y829D02*
X2870Y829D01*
X2910Y829D02*
X2921Y829D01*
X2959Y829D02*
X2970Y829D01*
X3010Y829D02*
X3021Y829D01*
X3059Y829D02*
X3070Y829D01*
X3110Y829D02*
X3121Y829D01*
X3159Y829D02*
X3170Y829D01*
X211Y828D02*
X221Y828D01*
X259Y828D02*
X269Y828D01*
X310Y828D02*
X321Y828D01*
X359Y828D02*
X370Y828D01*
X410Y828D02*
X421Y828D01*
X459Y828D02*
X470Y828D01*
X510Y828D02*
X521Y828D01*
X559Y828D02*
X570Y828D01*
X610Y828D02*
X621Y828D01*
X659Y828D02*
X670Y828D01*
X710Y828D02*
X721Y828D01*
X759Y828D02*
X770Y828D01*
X1011Y828D02*
X1021Y828D01*
X1059Y828D02*
X1069Y828D01*
X1110Y828D02*
X1121Y828D01*
X1159Y828D02*
X1170Y828D01*
X1210Y828D02*
X1221Y828D01*
X1259Y828D02*
X1270Y828D01*
X1310Y828D02*
X1321Y828D01*
X1359Y828D02*
X1370Y828D01*
X1410Y828D02*
X1421Y828D01*
X1459Y828D02*
X1470Y828D01*
X1510Y828D02*
X1521Y828D01*
X1559Y828D02*
X1570Y828D01*
X1811Y828D02*
X1821Y828D01*
X1859Y828D02*
X1869Y828D01*
X1910Y828D02*
X1921Y828D01*
X1959Y828D02*
X1970Y828D01*
X2010Y828D02*
X2021Y828D01*
X2059Y828D02*
X2070Y828D01*
X2110Y828D02*
X2121Y828D01*
X2159Y828D02*
X2170Y828D01*
X2210Y828D02*
X2221Y828D01*
X2259Y828D02*
X2270Y828D01*
X2310Y828D02*
X2321Y828D01*
X2359Y828D02*
X2370Y828D01*
X2611Y828D02*
X2621Y828D01*
X2659Y828D02*
X2669Y828D01*
X2710Y828D02*
X2721Y828D01*
X2759Y828D02*
X2770Y828D01*
X2810Y828D02*
X2821Y828D01*
X2859Y828D02*
X2870Y828D01*
X2910Y828D02*
X2921Y828D01*
X2959Y828D02*
X2970Y828D01*
X3010Y828D02*
X3021Y828D01*
X3059Y828D02*
X3070Y828D01*
X3110Y828D02*
X3121Y828D01*
X3159Y828D02*
X3170Y828D01*
X211Y827D02*
X221Y827D01*
X259Y827D02*
X269Y827D01*
X310Y827D02*
X321Y827D01*
X359Y827D02*
X371Y827D01*
X410Y827D02*
X421Y827D01*
X459Y827D02*
X471Y827D01*
X510Y827D02*
X521Y827D01*
X559Y827D02*
X571Y827D01*
X610Y827D02*
X621Y827D01*
X659Y827D02*
X671Y827D01*
X710Y827D02*
X721Y827D01*
X759Y827D02*
X770Y827D01*
X1011Y827D02*
X1021Y827D01*
X1059Y827D02*
X1069Y827D01*
X1110Y827D02*
X1121Y827D01*
X1159Y827D02*
X1170Y827D01*
X1210Y827D02*
X1221Y827D01*
X1259Y827D02*
X1270Y827D01*
X1310Y827D02*
X1321Y827D01*
X1359Y827D02*
X1370Y827D01*
X1410Y827D02*
X1421Y827D01*
X1459Y827D02*
X1470Y827D01*
X1510Y827D02*
X1521Y827D01*
X1559Y827D02*
X1570Y827D01*
X1811Y827D02*
X1821Y827D01*
X1859Y827D02*
X1869Y827D01*
X1910Y827D02*
X1921Y827D01*
X1959Y827D02*
X1970Y827D01*
X2010Y827D02*
X2021Y827D01*
X2059Y827D02*
X2070Y827D01*
X2110Y827D02*
X2121Y827D01*
X2159Y827D02*
X2170Y827D01*
X2210Y827D02*
X2221Y827D01*
X2259Y827D02*
X2270Y827D01*
X2310Y827D02*
X2321Y827D01*
X2359Y827D02*
X2370Y827D01*
X2611Y827D02*
X2621Y827D01*
X2659Y827D02*
X2669Y827D01*
X2710Y827D02*
X2721Y827D01*
X2759Y827D02*
X2770Y827D01*
X2810Y827D02*
X2821Y827D01*
X2859Y827D02*
X2870Y827D01*
X2910Y827D02*
X2921Y827D01*
X2959Y827D02*
X2970Y827D01*
X3010Y827D02*
X3021Y827D01*
X3059Y827D02*
X3070Y827D01*
X3109Y827D02*
X3121Y827D01*
X3159Y827D02*
X3170Y827D01*
X211Y826D02*
X221Y826D01*
X259Y826D02*
X269Y826D01*
X310Y826D02*
X321Y826D01*
X359Y826D02*
X371Y826D01*
X410Y826D02*
X421Y826D01*
X459Y826D02*
X470Y826D01*
X510Y826D02*
X521Y826D01*
X559Y826D02*
X571Y826D01*
X610Y826D02*
X621Y826D01*
X659Y826D02*
X671Y826D01*
X710Y826D02*
X721Y826D01*
X759Y826D02*
X770Y826D01*
X1011Y826D02*
X1021Y826D01*
X1059Y826D02*
X1069Y826D01*
X1110Y826D02*
X1121Y826D01*
X1159Y826D02*
X1170Y826D01*
X1210Y826D02*
X1221Y826D01*
X1259Y826D02*
X1270Y826D01*
X1310Y826D02*
X1321Y826D01*
X1359Y826D02*
X1370Y826D01*
X1410Y826D02*
X1421Y826D01*
X1459Y826D02*
X1470Y826D01*
X1510Y826D02*
X1521Y826D01*
X1559Y826D02*
X1570Y826D01*
X1811Y826D02*
X1821Y826D01*
X1859Y826D02*
X1869Y826D01*
X1910Y826D02*
X1921Y826D01*
X1959Y826D02*
X1970Y826D01*
X2010Y826D02*
X2021Y826D01*
X2059Y826D02*
X2070Y826D01*
X2110Y826D02*
X2121Y826D01*
X2159Y826D02*
X2170Y826D01*
X2210Y826D02*
X2221Y826D01*
X2259Y826D02*
X2270Y826D01*
X2310Y826D02*
X2321Y826D01*
X2359Y826D02*
X2370Y826D01*
X2611Y826D02*
X2621Y826D01*
X2659Y826D02*
X2669Y826D01*
X2710Y826D02*
X2721Y826D01*
X2759Y826D02*
X2770Y826D01*
X2810Y826D02*
X2821Y826D01*
X2859Y826D02*
X2870Y826D01*
X2910Y826D02*
X2921Y826D01*
X2959Y826D02*
X2970Y826D01*
X3010Y826D02*
X3021Y826D01*
X3059Y826D02*
X3070Y826D01*
X3109Y826D02*
X3121Y826D01*
X3159Y826D02*
X3170Y826D01*
X211Y825D02*
X221Y825D01*
X259Y825D02*
X269Y825D01*
X310Y825D02*
X321Y825D01*
X359Y825D02*
X370Y825D01*
X410Y825D02*
X421Y825D01*
X459Y825D02*
X470Y825D01*
X510Y825D02*
X521Y825D01*
X559Y825D02*
X570Y825D01*
X610Y825D02*
X621Y825D01*
X659Y825D02*
X670Y825D01*
X710Y825D02*
X721Y825D01*
X759Y825D02*
X770Y825D01*
X1011Y825D02*
X1021Y825D01*
X1059Y825D02*
X1069Y825D01*
X1110Y825D02*
X1121Y825D01*
X1159Y825D02*
X1170Y825D01*
X1210Y825D02*
X1221Y825D01*
X1259Y825D02*
X1270Y825D01*
X1310Y825D02*
X1321Y825D01*
X1359Y825D02*
X1370Y825D01*
X1410Y825D02*
X1421Y825D01*
X1459Y825D02*
X1470Y825D01*
X1510Y825D02*
X1521Y825D01*
X1559Y825D02*
X1570Y825D01*
X1811Y825D02*
X1821Y825D01*
X1859Y825D02*
X1869Y825D01*
X1910Y825D02*
X1921Y825D01*
X1959Y825D02*
X1970Y825D01*
X2010Y825D02*
X2021Y825D01*
X2059Y825D02*
X2070Y825D01*
X2110Y825D02*
X2121Y825D01*
X2159Y825D02*
X2170Y825D01*
X2210Y825D02*
X2221Y825D01*
X2259Y825D02*
X2270Y825D01*
X2310Y825D02*
X2321Y825D01*
X2359Y825D02*
X2370Y825D01*
X2611Y825D02*
X2621Y825D01*
X2659Y825D02*
X2669Y825D01*
X2710Y825D02*
X2721Y825D01*
X2759Y825D02*
X2770Y825D01*
X2810Y825D02*
X2821Y825D01*
X2859Y825D02*
X2870Y825D01*
X2910Y825D02*
X2921Y825D01*
X2959Y825D02*
X2970Y825D01*
X3010Y825D02*
X3021Y825D01*
X3059Y825D02*
X3070Y825D01*
X3110Y825D02*
X3121Y825D01*
X3159Y825D02*
X3170Y825D01*
X211Y824D02*
X221Y824D01*
X259Y824D02*
X269Y824D01*
X310Y824D02*
X321Y824D01*
X359Y824D02*
X370Y824D01*
X410Y824D02*
X421Y824D01*
X459Y824D02*
X470Y824D01*
X510Y824D02*
X521Y824D01*
X559Y824D02*
X570Y824D01*
X610Y824D02*
X621Y824D01*
X659Y824D02*
X670Y824D01*
X710Y824D02*
X721Y824D01*
X759Y824D02*
X770Y824D01*
X1011Y824D02*
X1021Y824D01*
X1059Y824D02*
X1069Y824D01*
X1110Y824D02*
X1121Y824D01*
X1159Y824D02*
X1170Y824D01*
X1210Y824D02*
X1221Y824D01*
X1259Y824D02*
X1270Y824D01*
X1310Y824D02*
X1321Y824D01*
X1359Y824D02*
X1370Y824D01*
X1410Y824D02*
X1421Y824D01*
X1459Y824D02*
X1470Y824D01*
X1510Y824D02*
X1521Y824D01*
X1559Y824D02*
X1570Y824D01*
X1811Y824D02*
X1821Y824D01*
X1859Y824D02*
X1869Y824D01*
X1910Y824D02*
X1921Y824D01*
X1959Y824D02*
X1970Y824D01*
X2010Y824D02*
X2021Y824D01*
X2059Y824D02*
X2070Y824D01*
X2110Y824D02*
X2121Y824D01*
X2159Y824D02*
X2170Y824D01*
X2210Y824D02*
X2221Y824D01*
X2259Y824D02*
X2270Y824D01*
X2310Y824D02*
X2321Y824D01*
X2359Y824D02*
X2370Y824D01*
X2611Y824D02*
X2621Y824D01*
X2659Y824D02*
X2669Y824D01*
X2710Y824D02*
X2721Y824D01*
X2759Y824D02*
X2770Y824D01*
X2810Y824D02*
X2821Y824D01*
X2859Y824D02*
X2870Y824D01*
X2910Y824D02*
X2921Y824D01*
X2959Y824D02*
X2970Y824D01*
X3010Y824D02*
X3021Y824D01*
X3059Y824D02*
X3070Y824D01*
X3110Y824D02*
X3121Y824D01*
X3159Y824D02*
X3170Y824D01*
X211Y823D02*
X221Y823D01*
X259Y823D02*
X269Y823D01*
X310Y823D02*
X321Y823D01*
X359Y823D02*
X370Y823D01*
X410Y823D02*
X421Y823D01*
X459Y823D02*
X470Y823D01*
X510Y823D02*
X521Y823D01*
X559Y823D02*
X570Y823D01*
X610Y823D02*
X621Y823D01*
X659Y823D02*
X670Y823D01*
X710Y823D02*
X721Y823D01*
X759Y823D02*
X770Y823D01*
X1011Y823D02*
X1021Y823D01*
X1059Y823D02*
X1069Y823D01*
X1110Y823D02*
X1121Y823D01*
X1159Y823D02*
X1170Y823D01*
X1210Y823D02*
X1221Y823D01*
X1259Y823D02*
X1270Y823D01*
X1310Y823D02*
X1321Y823D01*
X1359Y823D02*
X1370Y823D01*
X1410Y823D02*
X1421Y823D01*
X1459Y823D02*
X1470Y823D01*
X1510Y823D02*
X1521Y823D01*
X1559Y823D02*
X1570Y823D01*
X1811Y823D02*
X1821Y823D01*
X1859Y823D02*
X1869Y823D01*
X1910Y823D02*
X1921Y823D01*
X1959Y823D02*
X1970Y823D01*
X2010Y823D02*
X2021Y823D01*
X2059Y823D02*
X2070Y823D01*
X2110Y823D02*
X2121Y823D01*
X2159Y823D02*
X2170Y823D01*
X2210Y823D02*
X2221Y823D01*
X2259Y823D02*
X2270Y823D01*
X2310Y823D02*
X2321Y823D01*
X2359Y823D02*
X2370Y823D01*
X2611Y823D02*
X2621Y823D01*
X2659Y823D02*
X2669Y823D01*
X2710Y823D02*
X2721Y823D01*
X2759Y823D02*
X2770Y823D01*
X2810Y823D02*
X2821Y823D01*
X2859Y823D02*
X2870Y823D01*
X2910Y823D02*
X2921Y823D01*
X2959Y823D02*
X2970Y823D01*
X3010Y823D02*
X3021Y823D01*
X3059Y823D02*
X3070Y823D01*
X3110Y823D02*
X3121Y823D01*
X3159Y823D02*
X3170Y823D01*
X211Y822D02*
X222Y822D01*
X258Y822D02*
X269Y822D01*
X310Y822D02*
X322Y822D01*
X358Y822D02*
X370Y822D01*
X410Y822D02*
X422Y822D01*
X458Y822D02*
X470Y822D01*
X510Y822D02*
X522Y822D01*
X558Y822D02*
X570Y822D01*
X610Y822D02*
X622Y822D01*
X658Y822D02*
X670Y822D01*
X710Y822D02*
X722Y822D01*
X758Y822D02*
X770Y822D01*
X1011Y822D02*
X1022Y822D01*
X1058Y822D02*
X1069Y822D01*
X1110Y822D02*
X1122Y822D01*
X1158Y822D02*
X1170Y822D01*
X1210Y822D02*
X1222Y822D01*
X1258Y822D02*
X1270Y822D01*
X1310Y822D02*
X1322Y822D01*
X1358Y822D02*
X1370Y822D01*
X1410Y822D02*
X1422Y822D01*
X1458Y822D02*
X1470Y822D01*
X1510Y822D02*
X1522Y822D01*
X1558Y822D02*
X1570Y822D01*
X1811Y822D02*
X1822Y822D01*
X1858Y822D02*
X1869Y822D01*
X1910Y822D02*
X1922Y822D01*
X1958Y822D02*
X1970Y822D01*
X2010Y822D02*
X2022Y822D01*
X2058Y822D02*
X2070Y822D01*
X2110Y822D02*
X2122Y822D01*
X2158Y822D02*
X2170Y822D01*
X2210Y822D02*
X2222Y822D01*
X2258Y822D02*
X2270Y822D01*
X2310Y822D02*
X2322Y822D01*
X2358Y822D02*
X2370Y822D01*
X2611Y822D02*
X2622Y822D01*
X2658Y822D02*
X2669Y822D01*
X2710Y822D02*
X2722Y822D01*
X2758Y822D02*
X2770Y822D01*
X2810Y822D02*
X2822Y822D01*
X2858Y822D02*
X2870Y822D01*
X2910Y822D02*
X2922Y822D01*
X2958Y822D02*
X2970Y822D01*
X3010Y822D02*
X3022Y822D01*
X3058Y822D02*
X3070Y822D01*
X3110Y822D02*
X3122Y822D01*
X3158Y822D02*
X3170Y822D01*
X211Y821D02*
X222Y821D01*
X258Y821D02*
X269Y821D01*
X310Y821D02*
X322Y821D01*
X358Y821D02*
X370Y821D01*
X410Y821D02*
X422Y821D01*
X458Y821D02*
X470Y821D01*
X510Y821D02*
X522Y821D01*
X558Y821D02*
X570Y821D01*
X610Y821D02*
X622Y821D01*
X658Y821D02*
X670Y821D01*
X710Y821D02*
X722Y821D01*
X758Y821D02*
X770Y821D01*
X1011Y821D02*
X1022Y821D01*
X1058Y821D02*
X1069Y821D01*
X1110Y821D02*
X1122Y821D01*
X1158Y821D02*
X1170Y821D01*
X1210Y821D02*
X1222Y821D01*
X1258Y821D02*
X1270Y821D01*
X1310Y821D02*
X1322Y821D01*
X1358Y821D02*
X1370Y821D01*
X1410Y821D02*
X1422Y821D01*
X1458Y821D02*
X1470Y821D01*
X1510Y821D02*
X1522Y821D01*
X1558Y821D02*
X1570Y821D01*
X1811Y821D02*
X1822Y821D01*
X1858Y821D02*
X1869Y821D01*
X1910Y821D02*
X1922Y821D01*
X1958Y821D02*
X1970Y821D01*
X2010Y821D02*
X2022Y821D01*
X2058Y821D02*
X2070Y821D01*
X2110Y821D02*
X2122Y821D01*
X2158Y821D02*
X2170Y821D01*
X2210Y821D02*
X2222Y821D01*
X2258Y821D02*
X2270Y821D01*
X2310Y821D02*
X2322Y821D01*
X2358Y821D02*
X2370Y821D01*
X2611Y821D02*
X2622Y821D01*
X2658Y821D02*
X2669Y821D01*
X2710Y821D02*
X2722Y821D01*
X2758Y821D02*
X2770Y821D01*
X2810Y821D02*
X2822Y821D01*
X2858Y821D02*
X2870Y821D01*
X2910Y821D02*
X2922Y821D01*
X2958Y821D02*
X2970Y821D01*
X3010Y821D02*
X3022Y821D01*
X3058Y821D02*
X3070Y821D01*
X3110Y821D02*
X3122Y821D01*
X3158Y821D02*
X3170Y821D01*
X211Y820D02*
X222Y820D01*
X258Y820D02*
X269Y820D01*
X310Y820D02*
X322Y820D01*
X358Y820D02*
X370Y820D01*
X410Y820D02*
X422Y820D01*
X458Y820D02*
X470Y820D01*
X510Y820D02*
X522Y820D01*
X558Y820D02*
X570Y820D01*
X610Y820D02*
X622Y820D01*
X658Y820D02*
X670Y820D01*
X710Y820D02*
X722Y820D01*
X758Y820D02*
X770Y820D01*
X1011Y820D02*
X1022Y820D01*
X1058Y820D02*
X1069Y820D01*
X1110Y820D02*
X1122Y820D01*
X1158Y820D02*
X1170Y820D01*
X1210Y820D02*
X1222Y820D01*
X1258Y820D02*
X1270Y820D01*
X1310Y820D02*
X1322Y820D01*
X1358Y820D02*
X1370Y820D01*
X1410Y820D02*
X1422Y820D01*
X1458Y820D02*
X1470Y820D01*
X1510Y820D02*
X1522Y820D01*
X1558Y820D02*
X1570Y820D01*
X1811Y820D02*
X1822Y820D01*
X1858Y820D02*
X1869Y820D01*
X1910Y820D02*
X1922Y820D01*
X1958Y820D02*
X1970Y820D01*
X2010Y820D02*
X2022Y820D01*
X2058Y820D02*
X2070Y820D01*
X2110Y820D02*
X2122Y820D01*
X2158Y820D02*
X2170Y820D01*
X2210Y820D02*
X2222Y820D01*
X2258Y820D02*
X2270Y820D01*
X2310Y820D02*
X2322Y820D01*
X2358Y820D02*
X2370Y820D01*
X2611Y820D02*
X2622Y820D01*
X2658Y820D02*
X2669Y820D01*
X2710Y820D02*
X2722Y820D01*
X2758Y820D02*
X2770Y820D01*
X2810Y820D02*
X2822Y820D01*
X2858Y820D02*
X2870Y820D01*
X2910Y820D02*
X2922Y820D01*
X2958Y820D02*
X2970Y820D01*
X3010Y820D02*
X3022Y820D01*
X3058Y820D02*
X3070Y820D01*
X3110Y820D02*
X3122Y820D01*
X3158Y820D02*
X3170Y820D01*
X211Y819D02*
X223Y819D01*
X257Y819D02*
X269Y819D01*
X311Y819D02*
X323Y819D01*
X357Y819D02*
X370Y819D01*
X411Y819D02*
X423Y819D01*
X457Y819D02*
X470Y819D01*
X511Y819D02*
X523Y819D01*
X557Y819D02*
X570Y819D01*
X611Y819D02*
X623Y819D01*
X657Y819D02*
X670Y819D01*
X711Y819D02*
X723Y819D01*
X757Y819D02*
X770Y819D01*
X1011Y819D02*
X1023Y819D01*
X1057Y819D02*
X1069Y819D01*
X1111Y819D02*
X1123Y819D01*
X1157Y819D02*
X1170Y819D01*
X1211Y819D02*
X1223Y819D01*
X1257Y819D02*
X1269Y819D01*
X1311Y819D02*
X1323Y819D01*
X1357Y819D02*
X1370Y819D01*
X1411Y819D02*
X1423Y819D01*
X1457Y819D02*
X1470Y819D01*
X1511Y819D02*
X1523Y819D01*
X1557Y819D02*
X1569Y819D01*
X1811Y819D02*
X1823Y819D01*
X1857Y819D02*
X1869Y819D01*
X1911Y819D02*
X1923Y819D01*
X1957Y819D02*
X1969Y819D01*
X2011Y819D02*
X2023Y819D01*
X2057Y819D02*
X2069Y819D01*
X2111Y819D02*
X2123Y819D01*
X2157Y819D02*
X2169Y819D01*
X2211Y819D02*
X2223Y819D01*
X2257Y819D02*
X2269Y819D01*
X2310Y819D02*
X2323Y819D01*
X2357Y819D02*
X2369Y819D01*
X2611Y819D02*
X2623Y819D01*
X2657Y819D02*
X2669Y819D01*
X2710Y819D02*
X2723Y819D01*
X2757Y819D02*
X2769Y819D01*
X2810Y819D02*
X2823Y819D01*
X2857Y819D02*
X2869Y819D01*
X2910Y819D02*
X2923Y819D01*
X2957Y819D02*
X2969Y819D01*
X3010Y819D02*
X3023Y819D01*
X3057Y819D02*
X3069Y819D01*
X3110Y819D02*
X3123Y819D01*
X3157Y819D02*
X3169Y819D01*
X211Y818D02*
X223Y818D01*
X257Y818D02*
X269Y818D01*
X311Y818D02*
X323Y818D01*
X357Y818D02*
X369Y818D01*
X411Y818D02*
X423Y818D01*
X457Y818D02*
X469Y818D01*
X511Y818D02*
X523Y818D01*
X557Y818D02*
X569Y818D01*
X611Y818D02*
X623Y818D01*
X657Y818D02*
X669Y818D01*
X711Y818D02*
X723Y818D01*
X757Y818D02*
X769Y818D01*
X1011Y818D02*
X1023Y818D01*
X1057Y818D02*
X1069Y818D01*
X1111Y818D02*
X1123Y818D01*
X1157Y818D02*
X1169Y818D01*
X1211Y818D02*
X1223Y818D01*
X1257Y818D02*
X1269Y818D01*
X1311Y818D02*
X1323Y818D01*
X1357Y818D02*
X1369Y818D01*
X1411Y818D02*
X1423Y818D01*
X1457Y818D02*
X1469Y818D01*
X1511Y818D02*
X1523Y818D01*
X1557Y818D02*
X1569Y818D01*
X1811Y818D02*
X1823Y818D01*
X1857Y818D02*
X1869Y818D01*
X1911Y818D02*
X1923Y818D01*
X1957Y818D02*
X1969Y818D01*
X2011Y818D02*
X2023Y818D01*
X2057Y818D02*
X2069Y818D01*
X2111Y818D02*
X2123Y818D01*
X2157Y818D02*
X2169Y818D01*
X2211Y818D02*
X2223Y818D01*
X2257Y818D02*
X2269Y818D01*
X2311Y818D02*
X2323Y818D01*
X2357Y818D02*
X2369Y818D01*
X2611Y818D02*
X2623Y818D01*
X2657Y818D02*
X2669Y818D01*
X2711Y818D02*
X2723Y818D01*
X2757Y818D02*
X2769Y818D01*
X2811Y818D02*
X2823Y818D01*
X2857Y818D02*
X2869Y818D01*
X2911Y818D02*
X2923Y818D01*
X2957Y818D02*
X2969Y818D01*
X3011Y818D02*
X3023Y818D01*
X3057Y818D02*
X3069Y818D01*
X3111Y818D02*
X3123Y818D01*
X3157Y818D02*
X3169Y818D01*
X211Y817D02*
X224Y817D01*
X256Y817D02*
X269Y817D01*
X311Y817D02*
X324Y817D01*
X356Y817D02*
X369Y817D01*
X411Y817D02*
X424Y817D01*
X456Y817D02*
X469Y817D01*
X511Y817D02*
X524Y817D01*
X556Y817D02*
X569Y817D01*
X611Y817D02*
X624Y817D01*
X656Y817D02*
X669Y817D01*
X711Y817D02*
X724Y817D01*
X756Y817D02*
X769Y817D01*
X1011Y817D02*
X1024Y817D01*
X1056Y817D02*
X1069Y817D01*
X1111Y817D02*
X1124Y817D01*
X1156Y817D02*
X1169Y817D01*
X1211Y817D02*
X1224Y817D01*
X1256Y817D02*
X1269Y817D01*
X1311Y817D02*
X1324Y817D01*
X1356Y817D02*
X1369Y817D01*
X1411Y817D02*
X1424Y817D01*
X1456Y817D02*
X1469Y817D01*
X1511Y817D02*
X1524Y817D01*
X1556Y817D02*
X1569Y817D01*
X1811Y817D02*
X1824Y817D01*
X1856Y817D02*
X1869Y817D01*
X1911Y817D02*
X1924Y817D01*
X1956Y817D02*
X1969Y817D01*
X2011Y817D02*
X2024Y817D01*
X2056Y817D02*
X2069Y817D01*
X2111Y817D02*
X2124Y817D01*
X2156Y817D02*
X2169Y817D01*
X2211Y817D02*
X2224Y817D01*
X2256Y817D02*
X2269Y817D01*
X2311Y817D02*
X2324Y817D01*
X2356Y817D02*
X2369Y817D01*
X2611Y817D02*
X2624Y817D01*
X2656Y817D02*
X2669Y817D01*
X2711Y817D02*
X2724Y817D01*
X2756Y817D02*
X2769Y817D01*
X2811Y817D02*
X2824Y817D01*
X2856Y817D02*
X2869Y817D01*
X2911Y817D02*
X2924Y817D01*
X2956Y817D02*
X2969Y817D01*
X3011Y817D02*
X3024Y817D01*
X3056Y817D02*
X3069Y817D01*
X3111Y817D02*
X3124Y817D01*
X3156Y817D02*
X3169Y817D01*
X211Y816D02*
X224Y816D01*
X256Y816D02*
X269Y816D01*
X312Y816D02*
X324Y816D01*
X356Y816D02*
X369Y816D01*
X412Y816D02*
X424Y816D01*
X456Y816D02*
X469Y816D01*
X512Y816D02*
X524Y816D01*
X556Y816D02*
X569Y816D01*
X612Y816D02*
X624Y816D01*
X656Y816D02*
X669Y816D01*
X712Y816D02*
X724Y816D01*
X756Y816D02*
X769Y816D01*
X1011Y816D02*
X1024Y816D01*
X1056Y816D02*
X1069Y816D01*
X1112Y816D02*
X1124Y816D01*
X1156Y816D02*
X1169Y816D01*
X1211Y816D02*
X1224Y816D01*
X1256Y816D02*
X1269Y816D01*
X1311Y816D02*
X1324Y816D01*
X1356Y816D02*
X1369Y816D01*
X1411Y816D02*
X1424Y816D01*
X1456Y816D02*
X1469Y816D01*
X1511Y816D02*
X1524Y816D01*
X1556Y816D02*
X1569Y816D01*
X1811Y816D02*
X1824Y816D01*
X1856Y816D02*
X1869Y816D01*
X1911Y816D02*
X1924Y816D01*
X1956Y816D02*
X1969Y816D01*
X2011Y816D02*
X2024Y816D01*
X2056Y816D02*
X2069Y816D01*
X2111Y816D02*
X2124Y816D01*
X2156Y816D02*
X2169Y816D01*
X2211Y816D02*
X2224Y816D01*
X2256Y816D02*
X2269Y816D01*
X2311Y816D02*
X2324Y816D01*
X2356Y816D02*
X2369Y816D01*
X2611Y816D02*
X2624Y816D01*
X2656Y816D02*
X2669Y816D01*
X2711Y816D02*
X2724Y816D01*
X2756Y816D02*
X2769Y816D01*
X2811Y816D02*
X2824Y816D01*
X2856Y816D02*
X2868Y816D01*
X2911Y816D02*
X2924Y816D01*
X2956Y816D02*
X2968Y816D01*
X3011Y816D02*
X3024Y816D01*
X3056Y816D02*
X3068Y816D01*
X3111Y816D02*
X3124Y816D01*
X3156Y816D02*
X3168Y816D01*
X211Y815D02*
X225Y815D01*
X255Y815D02*
X269Y815D01*
X312Y815D02*
X325Y815D01*
X355Y815D02*
X368Y815D01*
X412Y815D02*
X425Y815D01*
X455Y815D02*
X468Y815D01*
X512Y815D02*
X525Y815D01*
X555Y815D02*
X568Y815D01*
X612Y815D02*
X625Y815D01*
X655Y815D02*
X668Y815D01*
X712Y815D02*
X725Y815D01*
X755Y815D02*
X768Y815D01*
X1011Y815D02*
X1025Y815D01*
X1055Y815D02*
X1069Y815D01*
X1112Y815D02*
X1125Y815D01*
X1155Y815D02*
X1168Y815D01*
X1212Y815D02*
X1225Y815D01*
X1255Y815D02*
X1268Y815D01*
X1312Y815D02*
X1325Y815D01*
X1355Y815D02*
X1368Y815D01*
X1412Y815D02*
X1425Y815D01*
X1455Y815D02*
X1468Y815D01*
X1512Y815D02*
X1525Y815D01*
X1555Y815D02*
X1568Y815D01*
X1811Y815D02*
X1825Y815D01*
X1855Y815D02*
X1869Y815D01*
X1912Y815D02*
X1925Y815D01*
X1955Y815D02*
X1968Y815D01*
X2012Y815D02*
X2025Y815D01*
X2055Y815D02*
X2068Y815D01*
X2112Y815D02*
X2125Y815D01*
X2155Y815D02*
X2168Y815D01*
X2212Y815D02*
X2225Y815D01*
X2255Y815D02*
X2268Y815D01*
X2312Y815D02*
X2325Y815D01*
X2355Y815D02*
X2368Y815D01*
X2611Y815D02*
X2625Y815D01*
X2655Y815D02*
X2669Y815D01*
X2712Y815D02*
X2725Y815D01*
X2755Y815D02*
X2768Y815D01*
X2812Y815D02*
X2825Y815D01*
X2855Y815D02*
X2868Y815D01*
X2912Y815D02*
X2925Y815D01*
X2955Y815D02*
X2968Y815D01*
X3012Y815D02*
X3025Y815D01*
X3055Y815D02*
X3068Y815D01*
X3112Y815D02*
X3125Y815D01*
X3155Y815D02*
X3168Y815D01*
X211Y814D02*
X226Y814D01*
X254Y814D02*
X269Y814D01*
X312Y814D02*
X326Y814D01*
X354Y814D02*
X368Y814D01*
X412Y814D02*
X426Y814D01*
X454Y814D02*
X468Y814D01*
X512Y814D02*
X526Y814D01*
X554Y814D02*
X568Y814D01*
X612Y814D02*
X626Y814D01*
X654Y814D02*
X668Y814D01*
X712Y814D02*
X726Y814D01*
X754Y814D02*
X768Y814D01*
X1011Y814D02*
X1026Y814D01*
X1054Y814D02*
X1069Y814D01*
X1112Y814D02*
X1126Y814D01*
X1154Y814D02*
X1168Y814D01*
X1212Y814D02*
X1226Y814D01*
X1254Y814D02*
X1268Y814D01*
X1312Y814D02*
X1326Y814D01*
X1354Y814D02*
X1368Y814D01*
X1412Y814D02*
X1426Y814D01*
X1454Y814D02*
X1468Y814D01*
X1512Y814D02*
X1526Y814D01*
X1554Y814D02*
X1568Y814D01*
X1811Y814D02*
X1826Y814D01*
X1854Y814D02*
X1869Y814D01*
X1912Y814D02*
X1926Y814D01*
X1954Y814D02*
X1968Y814D01*
X2012Y814D02*
X2026Y814D01*
X2054Y814D02*
X2068Y814D01*
X2112Y814D02*
X2126Y814D01*
X2154Y814D02*
X2168Y814D01*
X2212Y814D02*
X2226Y814D01*
X2254Y814D02*
X2268Y814D01*
X2312Y814D02*
X2326Y814D01*
X2354Y814D02*
X2368Y814D01*
X2611Y814D02*
X2626Y814D01*
X2654Y814D02*
X2669Y814D01*
X2712Y814D02*
X2726Y814D01*
X2754Y814D02*
X2768Y814D01*
X2812Y814D02*
X2826Y814D01*
X2854Y814D02*
X2868Y814D01*
X2912Y814D02*
X2926Y814D01*
X2954Y814D02*
X2968Y814D01*
X3012Y814D02*
X3026Y814D01*
X3054Y814D02*
X3068Y814D01*
X3112Y814D02*
X3126Y814D01*
X3154Y814D02*
X3168Y814D01*
X211Y813D02*
X227Y813D01*
X253Y813D02*
X269Y813D01*
X313Y813D02*
X327Y813D01*
X353Y813D02*
X367Y813D01*
X413Y813D02*
X427Y813D01*
X453Y813D02*
X467Y813D01*
X513Y813D02*
X527Y813D01*
X553Y813D02*
X567Y813D01*
X613Y813D02*
X627Y813D01*
X653Y813D02*
X667Y813D01*
X713Y813D02*
X727Y813D01*
X753Y813D02*
X767Y813D01*
X1011Y813D02*
X1027Y813D01*
X1053Y813D02*
X1069Y813D01*
X1113Y813D02*
X1127Y813D01*
X1153Y813D02*
X1167Y813D01*
X1213Y813D02*
X1227Y813D01*
X1253Y813D02*
X1267Y813D01*
X1313Y813D02*
X1327Y813D01*
X1353Y813D02*
X1367Y813D01*
X1413Y813D02*
X1427Y813D01*
X1453Y813D02*
X1467Y813D01*
X1513Y813D02*
X1527Y813D01*
X1553Y813D02*
X1567Y813D01*
X1811Y813D02*
X1827Y813D01*
X1853Y813D02*
X1869Y813D01*
X1913Y813D02*
X1927Y813D01*
X1953Y813D02*
X1967Y813D01*
X2013Y813D02*
X2027Y813D01*
X2053Y813D02*
X2067Y813D01*
X2113Y813D02*
X2127Y813D01*
X2153Y813D02*
X2167Y813D01*
X2213Y813D02*
X2227Y813D01*
X2253Y813D02*
X2267Y813D01*
X2313Y813D02*
X2327Y813D01*
X2353Y813D02*
X2367Y813D01*
X2611Y813D02*
X2627Y813D01*
X2653Y813D02*
X2669Y813D01*
X2713Y813D02*
X2727Y813D01*
X2753Y813D02*
X2767Y813D01*
X2813Y813D02*
X2827Y813D01*
X2853Y813D02*
X2867Y813D01*
X2913Y813D02*
X2927Y813D01*
X2953Y813D02*
X2967Y813D01*
X3013Y813D02*
X3027Y813D01*
X3053Y813D02*
X3067Y813D01*
X3113Y813D02*
X3127Y813D01*
X3153Y813D02*
X3167Y813D01*
X211Y812D02*
X228Y812D01*
X252Y812D02*
X269Y812D01*
X313Y812D02*
X328Y812D01*
X352Y812D02*
X367Y812D01*
X413Y812D02*
X428Y812D01*
X452Y812D02*
X467Y812D01*
X513Y812D02*
X528Y812D01*
X552Y812D02*
X567Y812D01*
X613Y812D02*
X628Y812D01*
X652Y812D02*
X667Y812D01*
X713Y812D02*
X728Y812D01*
X752Y812D02*
X767Y812D01*
X1011Y812D02*
X1028Y812D01*
X1052Y812D02*
X1069Y812D01*
X1113Y812D02*
X1128Y812D01*
X1152Y812D02*
X1167Y812D01*
X1213Y812D02*
X1228Y812D01*
X1252Y812D02*
X1267Y812D01*
X1313Y812D02*
X1328Y812D01*
X1352Y812D02*
X1367Y812D01*
X1413Y812D02*
X1428Y812D01*
X1452Y812D02*
X1467Y812D01*
X1513Y812D02*
X1528Y812D01*
X1552Y812D02*
X1567Y812D01*
X1811Y812D02*
X1828Y812D01*
X1852Y812D02*
X1869Y812D01*
X1913Y812D02*
X1928Y812D01*
X1952Y812D02*
X1967Y812D01*
X2013Y812D02*
X2028Y812D01*
X2052Y812D02*
X2067Y812D01*
X2113Y812D02*
X2128Y812D01*
X2152Y812D02*
X2167Y812D01*
X2213Y812D02*
X2228Y812D01*
X2252Y812D02*
X2267Y812D01*
X2313Y812D02*
X2328Y812D01*
X2352Y812D02*
X2367Y812D01*
X2611Y812D02*
X2628Y812D01*
X2652Y812D02*
X2669Y812D01*
X2713Y812D02*
X2728Y812D01*
X2752Y812D02*
X2767Y812D01*
X2813Y812D02*
X2828Y812D01*
X2852Y812D02*
X2867Y812D01*
X2913Y812D02*
X2928Y812D01*
X2952Y812D02*
X2967Y812D01*
X3013Y812D02*
X3028Y812D01*
X3052Y812D02*
X3067Y812D01*
X3113Y812D02*
X3128Y812D01*
X3152Y812D02*
X3167Y812D01*
X211Y811D02*
X230Y811D01*
X250Y811D02*
X269Y811D01*
X314Y811D02*
X330Y811D01*
X350Y811D02*
X366Y811D01*
X414Y811D02*
X430Y811D01*
X450Y811D02*
X466Y811D01*
X514Y811D02*
X530Y811D01*
X550Y811D02*
X566Y811D01*
X614Y811D02*
X630Y811D01*
X650Y811D02*
X666Y811D01*
X714Y811D02*
X730Y811D01*
X750Y811D02*
X766Y811D01*
X1011Y811D02*
X1030Y811D01*
X1050Y811D02*
X1069Y811D01*
X1114Y811D02*
X1130Y811D01*
X1150Y811D02*
X1166Y811D01*
X1214Y811D02*
X1230Y811D01*
X1250Y811D02*
X1266Y811D01*
X1314Y811D02*
X1330Y811D01*
X1350Y811D02*
X1366Y811D01*
X1414Y811D02*
X1430Y811D01*
X1450Y811D02*
X1466Y811D01*
X1514Y811D02*
X1530Y811D01*
X1550Y811D02*
X1566Y811D01*
X1811Y811D02*
X1830Y811D01*
X1850Y811D02*
X1869Y811D01*
X1914Y811D02*
X1930Y811D01*
X1950Y811D02*
X1966Y811D01*
X2014Y811D02*
X2030Y811D01*
X2050Y811D02*
X2066Y811D01*
X2114Y811D02*
X2130Y811D01*
X2150Y811D02*
X2166Y811D01*
X2214Y811D02*
X2230Y811D01*
X2250Y811D02*
X2266Y811D01*
X2314Y811D02*
X2330Y811D01*
X2350Y811D02*
X2366Y811D01*
X2611Y811D02*
X2630Y811D01*
X2650Y811D02*
X2669Y811D01*
X2714Y811D02*
X2730Y811D01*
X2750Y811D02*
X2766Y811D01*
X2814Y811D02*
X2830Y811D01*
X2850Y811D02*
X2866Y811D01*
X2914Y811D02*
X2930Y811D01*
X2950Y811D02*
X2966Y811D01*
X3014Y811D02*
X3030Y811D01*
X3050Y811D02*
X3066Y811D01*
X3114Y811D02*
X3130Y811D01*
X3150Y811D02*
X3166Y811D01*
X211Y810D02*
X232Y810D01*
X249Y810D02*
X269Y810D01*
X315Y810D02*
X332Y810D01*
X349Y810D02*
X366Y810D01*
X415Y810D02*
X432Y810D01*
X449Y810D02*
X466Y810D01*
X515Y810D02*
X532Y810D01*
X549Y810D02*
X566Y810D01*
X615Y810D02*
X632Y810D01*
X649Y810D02*
X666Y810D01*
X714Y810D02*
X732Y810D01*
X749Y810D02*
X766Y810D01*
X1011Y810D02*
X1032Y810D01*
X1048Y810D02*
X1069Y810D01*
X1114Y810D02*
X1132Y810D01*
X1148Y810D02*
X1166Y810D01*
X1214Y810D02*
X1232Y810D01*
X1248Y810D02*
X1266Y810D01*
X1314Y810D02*
X1332Y810D01*
X1348Y810D02*
X1366Y810D01*
X1414Y810D02*
X1432Y810D01*
X1448Y810D02*
X1466Y810D01*
X1514Y810D02*
X1532Y810D01*
X1548Y810D02*
X1566Y810D01*
X1811Y810D02*
X1832Y810D01*
X1848Y810D02*
X1869Y810D01*
X1914Y810D02*
X1932Y810D01*
X1948Y810D02*
X1966Y810D01*
X2014Y810D02*
X2032Y810D01*
X2048Y810D02*
X2066Y810D01*
X2114Y810D02*
X2132Y810D01*
X2148Y810D02*
X2166Y810D01*
X2214Y810D02*
X2232Y810D01*
X2248Y810D02*
X2266Y810D01*
X2314Y810D02*
X2332Y810D01*
X2348Y810D02*
X2366Y810D01*
X2611Y810D02*
X2632Y810D01*
X2648Y810D02*
X2669Y810D01*
X2714Y810D02*
X2731Y810D01*
X2748Y810D02*
X2766Y810D01*
X2814Y810D02*
X2831Y810D01*
X2848Y810D02*
X2866Y810D01*
X2914Y810D02*
X2932Y810D01*
X2948Y810D02*
X2966Y810D01*
X3014Y810D02*
X3031Y810D01*
X3048Y810D02*
X3066Y810D01*
X3114Y810D02*
X3131Y810D01*
X3148Y810D02*
X3165Y810D01*
X211Y809D02*
X234Y809D01*
X246Y809D02*
X269Y809D01*
X315Y809D02*
X334Y809D01*
X346Y809D02*
X365Y809D01*
X415Y809D02*
X434Y809D01*
X446Y809D02*
X465Y809D01*
X515Y809D02*
X534Y809D01*
X546Y809D02*
X565Y809D01*
X615Y809D02*
X634Y809D01*
X646Y809D02*
X665Y809D01*
X715Y809D02*
X734Y809D01*
X746Y809D02*
X765Y809D01*
X1011Y809D02*
X1034Y809D01*
X1046Y809D02*
X1069Y809D01*
X1115Y809D02*
X1134Y809D01*
X1146Y809D02*
X1165Y809D01*
X1215Y809D02*
X1234Y809D01*
X1246Y809D02*
X1265Y809D01*
X1315Y809D02*
X1334Y809D01*
X1346Y809D02*
X1365Y809D01*
X1415Y809D02*
X1434Y809D01*
X1446Y809D02*
X1465Y809D01*
X1515Y809D02*
X1534Y809D01*
X1546Y809D02*
X1565Y809D01*
X1811Y809D02*
X1834Y809D01*
X1846Y809D02*
X1869Y809D01*
X1915Y809D02*
X1934Y809D01*
X1946Y809D02*
X1965Y809D01*
X2015Y809D02*
X2034Y809D01*
X2046Y809D02*
X2065Y809D01*
X2115Y809D02*
X2134Y809D01*
X2146Y809D02*
X2165Y809D01*
X2215Y809D02*
X2234Y809D01*
X2246Y809D02*
X2265Y809D01*
X2315Y809D02*
X2334Y809D01*
X2346Y809D02*
X2365Y809D01*
X2611Y809D02*
X2634Y809D01*
X2646Y809D02*
X2669Y809D01*
X2715Y809D02*
X2734Y809D01*
X2746Y809D02*
X2765Y809D01*
X2815Y809D02*
X2834Y809D01*
X2846Y809D02*
X2865Y809D01*
X2915Y809D02*
X2934Y809D01*
X2946Y809D02*
X2965Y809D01*
X3015Y809D02*
X3034Y809D01*
X3046Y809D02*
X3065Y809D01*
X3115Y809D02*
X3134Y809D01*
X3146Y809D02*
X3165Y809D01*
X211Y808D02*
X269Y808D01*
X316Y808D02*
X364Y808D01*
X416Y808D02*
X464Y808D01*
X516Y808D02*
X564Y808D01*
X616Y808D02*
X664Y808D01*
X716Y808D02*
X764Y808D01*
X1011Y808D02*
X1069Y808D01*
X1116Y808D02*
X1164Y808D01*
X1216Y808D02*
X1264Y808D01*
X1316Y808D02*
X1364Y808D01*
X1416Y808D02*
X1464Y808D01*
X1516Y808D02*
X1564Y808D01*
X1811Y808D02*
X1869Y808D01*
X1916Y808D02*
X1964Y808D01*
X2016Y808D02*
X2064Y808D01*
X2116Y808D02*
X2164Y808D01*
X2216Y808D02*
X2264Y808D01*
X2316Y808D02*
X2364Y808D01*
X2611Y808D02*
X2669Y808D01*
X2716Y808D02*
X2764Y808D01*
X2816Y808D02*
X2864Y808D01*
X2916Y808D02*
X2964Y808D01*
X3016Y808D02*
X3064Y808D01*
X3116Y808D02*
X3164Y808D01*
X211Y807D02*
X269Y807D01*
X317Y807D02*
X364Y807D01*
X417Y807D02*
X463Y807D01*
X517Y807D02*
X563Y807D01*
X617Y807D02*
X663Y807D01*
X717Y807D02*
X763Y807D01*
X1011Y807D02*
X1069Y807D01*
X1117Y807D02*
X1163Y807D01*
X1217Y807D02*
X1263Y807D01*
X1317Y807D02*
X1363Y807D01*
X1417Y807D02*
X1463Y807D01*
X1517Y807D02*
X1563Y807D01*
X1811Y807D02*
X1869Y807D01*
X1917Y807D02*
X1963Y807D01*
X2017Y807D02*
X2063Y807D01*
X2117Y807D02*
X2163Y807D01*
X2217Y807D02*
X2263Y807D01*
X2317Y807D02*
X2363Y807D01*
X2611Y807D02*
X2669Y807D01*
X2717Y807D02*
X2763Y807D01*
X2817Y807D02*
X2863Y807D01*
X2917Y807D02*
X2963Y807D01*
X3017Y807D02*
X3063Y807D01*
X3117Y807D02*
X3163Y807D01*
X211Y806D02*
X269Y806D01*
X318Y806D02*
X363Y806D01*
X418Y806D02*
X463Y806D01*
X518Y806D02*
X563Y806D01*
X618Y806D02*
X663Y806D01*
X718Y806D02*
X763Y806D01*
X1011Y806D02*
X1069Y806D01*
X1118Y806D02*
X1163Y806D01*
X1218Y806D02*
X1263Y806D01*
X1318Y806D02*
X1363Y806D01*
X1418Y806D02*
X1463Y806D01*
X1517Y806D02*
X1563Y806D01*
X1811Y806D02*
X1869Y806D01*
X1917Y806D02*
X1963Y806D01*
X2017Y806D02*
X2063Y806D01*
X2117Y806D02*
X2163Y806D01*
X2217Y806D02*
X2263Y806D01*
X2317Y806D02*
X2362Y806D01*
X2611Y806D02*
X2669Y806D01*
X2717Y806D02*
X2762Y806D01*
X2817Y806D02*
X2862Y806D01*
X2917Y806D02*
X2962Y806D01*
X3017Y806D02*
X3062Y806D01*
X3117Y806D02*
X3162Y806D01*
X211Y805D02*
X269Y805D01*
X319Y805D02*
X362Y805D01*
X418Y805D02*
X462Y805D01*
X518Y805D02*
X562Y805D01*
X618Y805D02*
X662Y805D01*
X718Y805D02*
X762Y805D01*
X1011Y805D02*
X1069Y805D01*
X1118Y805D02*
X1162Y805D01*
X1218Y805D02*
X1262Y805D01*
X1318Y805D02*
X1362Y805D01*
X1418Y805D02*
X1462Y805D01*
X1518Y805D02*
X1562Y805D01*
X1811Y805D02*
X1869Y805D01*
X1918Y805D02*
X1962Y805D01*
X2018Y805D02*
X2062Y805D01*
X2118Y805D02*
X2162Y805D01*
X2218Y805D02*
X2262Y805D01*
X2318Y805D02*
X2362Y805D01*
X2611Y805D02*
X2669Y805D01*
X2718Y805D02*
X2762Y805D01*
X2818Y805D02*
X2862Y805D01*
X2918Y805D02*
X2962Y805D01*
X3018Y805D02*
X3062Y805D01*
X3118Y805D02*
X3162Y805D01*
X211Y804D02*
X269Y804D01*
X320Y804D02*
X361Y804D01*
X420Y804D02*
X461Y804D01*
X520Y804D02*
X561Y804D01*
X620Y804D02*
X661Y804D01*
X720Y804D02*
X761Y804D01*
X1011Y804D02*
X1069Y804D01*
X1120Y804D02*
X1161Y804D01*
X1219Y804D02*
X1261Y804D01*
X1319Y804D02*
X1361Y804D01*
X1419Y804D02*
X1461Y804D01*
X1519Y804D02*
X1561Y804D01*
X1811Y804D02*
X1869Y804D01*
X1919Y804D02*
X1961Y804D01*
X2019Y804D02*
X2061Y804D01*
X2119Y804D02*
X2161Y804D01*
X2219Y804D02*
X2261Y804D01*
X2319Y804D02*
X2361Y804D01*
X2611Y804D02*
X2669Y804D01*
X2719Y804D02*
X2761Y804D01*
X2819Y804D02*
X2860Y804D01*
X2919Y804D02*
X2960Y804D01*
X3019Y804D02*
X3060Y804D01*
X3119Y804D02*
X3160Y804D01*
X211Y803D02*
X269Y803D01*
X321Y803D02*
X360Y803D01*
X421Y803D02*
X460Y803D01*
X521Y803D02*
X560Y803D01*
X621Y803D02*
X660Y803D01*
X721Y803D02*
X760Y803D01*
X1011Y803D02*
X1069Y803D01*
X1121Y803D02*
X1160Y803D01*
X1221Y803D02*
X1259Y803D01*
X1321Y803D02*
X1359Y803D01*
X1421Y803D02*
X1459Y803D01*
X1521Y803D02*
X1559Y803D01*
X1811Y803D02*
X1869Y803D01*
X1921Y803D02*
X1959Y803D01*
X2021Y803D02*
X2059Y803D01*
X2121Y803D02*
X2159Y803D01*
X2221Y803D02*
X2259Y803D01*
X2321Y803D02*
X2359Y803D01*
X2611Y803D02*
X2669Y803D01*
X2721Y803D02*
X2759Y803D01*
X2820Y803D02*
X2859Y803D01*
X2920Y803D02*
X2959Y803D01*
X3020Y803D02*
X3059Y803D01*
X3120Y803D02*
X3159Y803D01*
X211Y802D02*
X269Y802D01*
X322Y802D02*
X358Y802D01*
X422Y802D02*
X458Y802D01*
X522Y802D02*
X558Y802D01*
X622Y802D02*
X658Y802D01*
X722Y802D02*
X758Y802D01*
X1011Y802D02*
X1069Y802D01*
X1122Y802D02*
X1158Y802D01*
X1222Y802D02*
X1258Y802D01*
X1322Y802D02*
X1358Y802D01*
X1422Y802D02*
X1458Y802D01*
X1522Y802D02*
X1558Y802D01*
X1811Y802D02*
X1869Y802D01*
X1922Y802D02*
X1958Y802D01*
X2022Y802D02*
X2058Y802D01*
X2122Y802D02*
X2158Y802D01*
X2222Y802D02*
X2258Y802D01*
X2322Y802D02*
X2358Y802D01*
X2611Y802D02*
X2669Y802D01*
X2722Y802D02*
X2758Y802D01*
X2822Y802D02*
X2858Y802D01*
X2922Y802D02*
X2958Y802D01*
X3022Y802D02*
X3058Y802D01*
X3122Y802D02*
X3158Y802D01*
X211Y801D02*
X269Y801D01*
X323Y801D02*
X357Y801D01*
X423Y801D02*
X457Y801D01*
X523Y801D02*
X557Y801D01*
X623Y801D02*
X657Y801D01*
X723Y801D02*
X757Y801D01*
X1011Y801D02*
X1069Y801D01*
X1123Y801D02*
X1157Y801D01*
X1223Y801D02*
X1257Y801D01*
X1323Y801D02*
X1357Y801D01*
X1423Y801D02*
X1457Y801D01*
X1523Y801D02*
X1557Y801D01*
X1811Y801D02*
X1869Y801D01*
X1923Y801D02*
X1957Y801D01*
X2023Y801D02*
X2057Y801D01*
X2123Y801D02*
X2157Y801D01*
X2223Y801D02*
X2257Y801D01*
X2323Y801D02*
X2357Y801D01*
X2611Y801D02*
X2669Y801D01*
X2723Y801D02*
X2757Y801D01*
X2823Y801D02*
X2857Y801D01*
X2923Y801D02*
X2957Y801D01*
X3023Y801D02*
X3057Y801D01*
X3123Y801D02*
X3157Y801D01*
X211Y800D02*
X269Y800D01*
X325Y800D02*
X355Y800D01*
X425Y800D02*
X455Y800D01*
X525Y800D02*
X555Y800D01*
X625Y800D02*
X655Y800D01*
X725Y800D02*
X755Y800D01*
X1011Y800D02*
X1069Y800D01*
X1125Y800D02*
X1155Y800D01*
X1225Y800D02*
X1255Y800D01*
X1325Y800D02*
X1355Y800D01*
X1425Y800D02*
X1455Y800D01*
X1525Y800D02*
X1555Y800D01*
X1811Y800D02*
X1869Y800D01*
X1925Y800D02*
X1955Y800D01*
X2025Y800D02*
X2055Y800D01*
X2125Y800D02*
X2155Y800D01*
X2225Y800D02*
X2255Y800D01*
X2325Y800D02*
X2355Y800D01*
X2611Y800D02*
X2669Y800D01*
X2725Y800D02*
X2755Y800D01*
X2825Y800D02*
X2855Y800D01*
X2925Y800D02*
X2955Y800D01*
X3025Y800D02*
X3055Y800D01*
X3125Y800D02*
X3155Y800D01*
X211Y799D02*
X269Y799D01*
X327Y799D02*
X353Y799D01*
X427Y799D02*
X453Y799D01*
X527Y799D02*
X553Y799D01*
X627Y799D02*
X653Y799D01*
X727Y799D02*
X753Y799D01*
X1011Y799D02*
X1069Y799D01*
X1127Y799D02*
X1153Y799D01*
X1227Y799D02*
X1253Y799D01*
X1327Y799D02*
X1353Y799D01*
X1427Y799D02*
X1453Y799D01*
X1527Y799D02*
X1553Y799D01*
X1811Y799D02*
X1869Y799D01*
X1927Y799D02*
X1953Y799D01*
X2027Y799D02*
X2053Y799D01*
X2127Y799D02*
X2153Y799D01*
X2227Y799D02*
X2253Y799D01*
X2327Y799D02*
X2353Y799D01*
X2611Y799D02*
X2669Y799D01*
X2727Y799D02*
X2753Y799D01*
X2827Y799D02*
X2853Y799D01*
X2927Y799D02*
X2953Y799D01*
X3027Y799D02*
X3053Y799D01*
X3127Y799D02*
X3153Y799D01*
X211Y798D02*
X269Y798D01*
X329Y798D02*
X351Y798D01*
X429Y798D02*
X451Y798D01*
X529Y798D02*
X551Y798D01*
X629Y798D02*
X651Y798D01*
X729Y798D02*
X751Y798D01*
X1011Y798D02*
X1069Y798D01*
X1129Y798D02*
X1151Y798D01*
X1229Y798D02*
X1251Y798D01*
X1329Y798D02*
X1351Y798D01*
X1429Y798D02*
X1451Y798D01*
X1529Y798D02*
X1551Y798D01*
X1811Y798D02*
X1869Y798D01*
X1929Y798D02*
X1951Y798D01*
X2029Y798D02*
X2051Y798D01*
X2129Y798D02*
X2151Y798D01*
X2229Y798D02*
X2251Y798D01*
X2329Y798D02*
X2351Y798D01*
X2611Y798D02*
X2669Y798D01*
X2729Y798D02*
X2751Y798D01*
X2829Y798D02*
X2851Y798D01*
X2929Y798D02*
X2951Y798D01*
X3029Y798D02*
X3051Y798D01*
X3129Y798D02*
X3151Y798D01*
X211Y797D02*
X269Y797D01*
X332Y797D02*
X348Y797D01*
X432Y797D02*
X448Y797D01*
X532Y797D02*
X548Y797D01*
X632Y797D02*
X648Y797D01*
X732Y797D02*
X748Y797D01*
X1011Y797D02*
X1069Y797D01*
X1132Y797D02*
X1148Y797D01*
X1232Y797D02*
X1248Y797D01*
X1332Y797D02*
X1348Y797D01*
X1432Y797D02*
X1448Y797D01*
X1532Y797D02*
X1548Y797D01*
X1811Y797D02*
X1869Y797D01*
X1932Y797D02*
X1948Y797D01*
X2032Y797D02*
X2048Y797D01*
X2132Y797D02*
X2148Y797D01*
X2232Y797D02*
X2248Y797D01*
X2332Y797D02*
X2348Y797D01*
X2611Y797D02*
X2669Y797D01*
X2732Y797D02*
X2748Y797D01*
X2832Y797D02*
X2848Y797D01*
X2932Y797D02*
X2948Y797D01*
X3032Y797D02*
X3048Y797D01*
X3132Y797D02*
X3148Y797D01*
X337Y796D02*
X344Y796D01*
X437Y796D02*
X444Y796D01*
X536Y796D02*
X544Y796D01*
X637Y796D02*
X644Y796D01*
X736Y796D02*
X744Y796D01*
X1136Y796D02*
X1144Y796D01*
X1236Y796D02*
X1244Y796D01*
X1336Y796D02*
X1344Y796D01*
X1436Y796D02*
X1444Y796D01*
X1536Y796D02*
X1544Y796D01*
X1936Y796D02*
X1944Y796D01*
X2036Y796D02*
X2044Y796D01*
X2136Y796D02*
X2144Y796D01*
X2236Y796D02*
X2244Y796D01*
X2336Y796D02*
X2344Y796D01*
X2736Y796D02*
X2744Y796D01*
X2836Y796D02*
X2844Y796D01*
X2936Y796D02*
X2944Y796D01*
X3036Y796D02*
X3044Y796D01*
X3136Y796D02*
X3144Y796D01*
D02*
G04 End of Copper0*
M02*