G04 MADE WITH FRITZING*
G04 WWW.FRITZING.ORG*
G04 DOUBLE SIDED*
G04 HOLES PLATED*
G04 CONTOUR ON CENTER OF CONTOUR VECTOR*
%ASAXBY*%
%FSLAX23Y23*%
%MOIN*%
%OFA0B0*%
%SFA1.0B1.0*%
%ADD10C,0.089370*%
%ADD11C,0.090000*%
%ADD12C,0.088000*%
%ADD13C,0.081889*%
%ADD14C,0.081917*%
%ADD15C,0.118268*%
%ADD16R,0.090000X0.090000*%
%ADD17R,0.001000X0.001000*%
%LNMASK1*%
G90*
G70*
G54D10*
X2993Y638D03*
X3093Y638D03*
X3193Y638D03*
X2693Y638D03*
X2793Y638D03*
X2893Y638D03*
X2193Y638D03*
X2293Y638D03*
X2393Y638D03*
X1893Y638D03*
X1993Y638D03*
X2093Y638D03*
X1393Y638D03*
X1493Y638D03*
X1593Y638D03*
X1093Y638D03*
X1193Y638D03*
X1293Y638D03*
X643Y638D03*
X743Y638D03*
X843Y638D03*
X343Y638D03*
X443Y638D03*
X543Y638D03*
G54D11*
X707Y388D03*
X569Y388D03*
X431Y388D03*
X293Y388D03*
X3007Y388D03*
X2869Y388D03*
X2731Y388D03*
X2593Y388D03*
X1457Y388D03*
X1319Y388D03*
X1181Y388D03*
X1043Y388D03*
X2207Y388D03*
X2069Y388D03*
X1931Y388D03*
X1793Y388D03*
G54D12*
X93Y1888D03*
X93Y1788D03*
G54D13*
X343Y2038D03*
X443Y2038D03*
X543Y2038D03*
X643Y2038D03*
G54D14*
X743Y2038D03*
G54D13*
X843Y2038D03*
X943Y2038D03*
X1043Y2038D03*
X1143Y2038D03*
G54D14*
X1243Y2038D03*
G54D13*
X1343Y2038D03*
G54D14*
X1443Y2038D03*
G54D13*
X1543Y2038D03*
X1643Y2038D03*
X1743Y2038D03*
X1843Y2038D03*
G54D14*
X1943Y2038D03*
G54D13*
X2043Y2038D03*
X2143Y2038D03*
X2243Y2038D03*
X2243Y2138D03*
X2143Y2138D03*
X2043Y2138D03*
G54D14*
X1943Y2138D03*
G54D13*
X1843Y2138D03*
X1743Y2138D03*
X1643Y2138D03*
X1543Y2138D03*
G54D14*
X1443Y2138D03*
G54D13*
X1343Y2138D03*
G54D14*
X1243Y2138D03*
G54D13*
X1143Y2138D03*
X1043Y2138D03*
X943Y2138D03*
X843Y2138D03*
G54D14*
X743Y2138D03*
G54D13*
X643Y2138D03*
X543Y2138D03*
X443Y2138D03*
X343Y2138D03*
G54D15*
X2433Y2072D03*
X153Y2071D03*
X157Y142D03*
X2432Y138D03*
G54D16*
X707Y388D03*
X3007Y388D03*
X1457Y388D03*
X2207Y388D03*
G54D17*
X437Y1874D02*
X449Y1874D01*
X537Y1874D02*
X549Y1874D01*
X637Y1874D02*
X649Y1874D01*
X1237Y1874D02*
X1249Y1874D01*
X1337Y1874D02*
X1349Y1874D01*
X1437Y1874D02*
X1449Y1874D01*
X2037Y1874D02*
X2049Y1874D01*
X2137Y1874D02*
X2149Y1874D01*
X2237Y1874D02*
X2249Y1874D01*
X2837Y1874D02*
X2849Y1874D01*
X2937Y1874D02*
X2949Y1874D01*
X3037Y1874D02*
X3049Y1874D01*
X309Y1873D02*
X377Y1873D01*
X433Y1873D02*
X453Y1873D01*
X533Y1873D02*
X553Y1873D01*
X633Y1873D02*
X653Y1873D01*
X1109Y1873D02*
X1177Y1873D01*
X1233Y1873D02*
X1253Y1873D01*
X1333Y1873D02*
X1353Y1873D01*
X1433Y1873D02*
X1453Y1873D01*
X1908Y1873D02*
X1977Y1873D01*
X2033Y1873D02*
X2053Y1873D01*
X2133Y1873D02*
X2153Y1873D01*
X2233Y1873D02*
X2253Y1873D01*
X2708Y1873D02*
X2777Y1873D01*
X2833Y1873D02*
X2853Y1873D01*
X2933Y1873D02*
X2953Y1873D01*
X3033Y1873D02*
X3053Y1873D01*
X309Y1872D02*
X377Y1872D01*
X430Y1872D02*
X456Y1872D01*
X530Y1872D02*
X556Y1872D01*
X630Y1872D02*
X656Y1872D01*
X1109Y1872D02*
X1177Y1872D01*
X1230Y1872D02*
X1256Y1872D01*
X1330Y1872D02*
X1356Y1872D01*
X1430Y1872D02*
X1456Y1872D01*
X1908Y1872D02*
X1977Y1872D01*
X2030Y1872D02*
X2055Y1872D01*
X2130Y1872D02*
X2156Y1872D01*
X2230Y1872D02*
X2256Y1872D01*
X2708Y1872D02*
X2777Y1872D01*
X2830Y1872D02*
X2855Y1872D01*
X2930Y1872D02*
X2955Y1872D01*
X3030Y1872D02*
X3055Y1872D01*
X309Y1871D02*
X377Y1871D01*
X428Y1871D02*
X458Y1871D01*
X528Y1871D02*
X558Y1871D01*
X628Y1871D02*
X658Y1871D01*
X1109Y1871D02*
X1177Y1871D01*
X1228Y1871D02*
X1258Y1871D01*
X1328Y1871D02*
X1358Y1871D01*
X1428Y1871D02*
X1458Y1871D01*
X1908Y1871D02*
X1977Y1871D01*
X2028Y1871D02*
X2058Y1871D01*
X2128Y1871D02*
X2158Y1871D01*
X2228Y1871D02*
X2258Y1871D01*
X2708Y1871D02*
X2777Y1871D01*
X2828Y1871D02*
X2858Y1871D01*
X2928Y1871D02*
X2958Y1871D01*
X3028Y1871D02*
X3058Y1871D01*
X309Y1870D02*
X377Y1870D01*
X426Y1870D02*
X460Y1870D01*
X526Y1870D02*
X560Y1870D01*
X626Y1870D02*
X660Y1870D01*
X1109Y1870D02*
X1177Y1870D01*
X1226Y1870D02*
X1260Y1870D01*
X1326Y1870D02*
X1360Y1870D01*
X1426Y1870D02*
X1460Y1870D01*
X1908Y1870D02*
X1977Y1870D01*
X2026Y1870D02*
X2060Y1870D01*
X2126Y1870D02*
X2160Y1870D01*
X2226Y1870D02*
X2260Y1870D01*
X2708Y1870D02*
X2777Y1870D01*
X2826Y1870D02*
X2860Y1870D01*
X2926Y1870D02*
X2960Y1870D01*
X3026Y1870D02*
X3060Y1870D01*
X309Y1869D02*
X377Y1869D01*
X424Y1869D02*
X462Y1869D01*
X524Y1869D02*
X562Y1869D01*
X624Y1869D02*
X662Y1869D01*
X1109Y1869D02*
X1177Y1869D01*
X1224Y1869D02*
X1261Y1869D01*
X1324Y1869D02*
X1361Y1869D01*
X1424Y1869D02*
X1462Y1869D01*
X1908Y1869D02*
X1977Y1869D01*
X2024Y1869D02*
X2061Y1869D01*
X2124Y1869D02*
X2161Y1869D01*
X2224Y1869D02*
X2261Y1869D01*
X2708Y1869D02*
X2777Y1869D01*
X2824Y1869D02*
X2861Y1869D01*
X2924Y1869D02*
X2961Y1869D01*
X3024Y1869D02*
X3061Y1869D01*
X309Y1868D02*
X377Y1868D01*
X423Y1868D02*
X463Y1868D01*
X523Y1868D02*
X563Y1868D01*
X623Y1868D02*
X663Y1868D01*
X1109Y1868D02*
X1177Y1868D01*
X1223Y1868D02*
X1263Y1868D01*
X1323Y1868D02*
X1363Y1868D01*
X1423Y1868D02*
X1463Y1868D01*
X1908Y1868D02*
X1977Y1868D01*
X2023Y1868D02*
X2063Y1868D01*
X2123Y1868D02*
X2163Y1868D01*
X2223Y1868D02*
X2263Y1868D01*
X2708Y1868D02*
X2777Y1868D01*
X2822Y1868D02*
X2863Y1868D01*
X2923Y1868D02*
X2963Y1868D01*
X3023Y1868D02*
X3063Y1868D01*
X309Y1867D02*
X377Y1867D01*
X421Y1867D02*
X464Y1867D01*
X521Y1867D02*
X564Y1867D01*
X621Y1867D02*
X664Y1867D01*
X1109Y1867D02*
X1177Y1867D01*
X1221Y1867D02*
X1264Y1867D01*
X1321Y1867D02*
X1364Y1867D01*
X1421Y1867D02*
X1464Y1867D01*
X1908Y1867D02*
X1977Y1867D01*
X2021Y1867D02*
X2064Y1867D01*
X2121Y1867D02*
X2164Y1867D01*
X2221Y1867D02*
X2264Y1867D01*
X2708Y1867D02*
X2777Y1867D01*
X2821Y1867D02*
X2864Y1867D01*
X2921Y1867D02*
X2964Y1867D01*
X3021Y1867D02*
X3064Y1867D01*
X309Y1866D02*
X377Y1866D01*
X420Y1866D02*
X466Y1866D01*
X520Y1866D02*
X566Y1866D01*
X620Y1866D02*
X666Y1866D01*
X1109Y1866D02*
X1177Y1866D01*
X1220Y1866D02*
X1266Y1866D01*
X1320Y1866D02*
X1366Y1866D01*
X1420Y1866D02*
X1466Y1866D01*
X1908Y1866D02*
X1977Y1866D01*
X2020Y1866D02*
X2066Y1866D01*
X2120Y1866D02*
X2166Y1866D01*
X2220Y1866D02*
X2266Y1866D01*
X2708Y1866D02*
X2777Y1866D01*
X2820Y1866D02*
X2866Y1866D01*
X2920Y1866D02*
X2966Y1866D01*
X3020Y1866D02*
X3066Y1866D01*
X309Y1865D02*
X377Y1865D01*
X419Y1865D02*
X467Y1865D01*
X519Y1865D02*
X567Y1865D01*
X619Y1865D02*
X667Y1865D01*
X1109Y1865D02*
X1177Y1865D01*
X1219Y1865D02*
X1267Y1865D01*
X1319Y1865D02*
X1367Y1865D01*
X1419Y1865D02*
X1467Y1865D01*
X1908Y1865D02*
X1977Y1865D01*
X2019Y1865D02*
X2067Y1865D01*
X2119Y1865D02*
X2167Y1865D01*
X2219Y1865D02*
X2267Y1865D01*
X2708Y1865D02*
X2777Y1865D01*
X2819Y1865D02*
X2867Y1865D01*
X2919Y1865D02*
X2967Y1865D01*
X3019Y1865D02*
X3067Y1865D01*
X309Y1864D02*
X377Y1864D01*
X418Y1864D02*
X468Y1864D01*
X518Y1864D02*
X568Y1864D01*
X618Y1864D02*
X668Y1864D01*
X1109Y1864D02*
X1177Y1864D01*
X1218Y1864D02*
X1268Y1864D01*
X1318Y1864D02*
X1368Y1864D01*
X1418Y1864D02*
X1468Y1864D01*
X1908Y1864D02*
X1977Y1864D01*
X2018Y1864D02*
X2068Y1864D01*
X2118Y1864D02*
X2168Y1864D01*
X2218Y1864D02*
X2268Y1864D01*
X2708Y1864D02*
X2777Y1864D01*
X2818Y1864D02*
X2868Y1864D01*
X2918Y1864D02*
X2968Y1864D01*
X3018Y1864D02*
X3068Y1864D01*
X309Y1863D02*
X377Y1863D01*
X417Y1863D02*
X469Y1863D01*
X517Y1863D02*
X569Y1863D01*
X617Y1863D02*
X669Y1863D01*
X1109Y1863D02*
X1177Y1863D01*
X1217Y1863D02*
X1269Y1863D01*
X1317Y1863D02*
X1369Y1863D01*
X1417Y1863D02*
X1469Y1863D01*
X1908Y1863D02*
X1977Y1863D01*
X2017Y1863D02*
X2069Y1863D01*
X2117Y1863D02*
X2169Y1863D01*
X2217Y1863D02*
X2269Y1863D01*
X2708Y1863D02*
X2777Y1863D01*
X2817Y1863D02*
X2869Y1863D01*
X2917Y1863D02*
X2969Y1863D01*
X3017Y1863D02*
X3069Y1863D01*
X309Y1862D02*
X377Y1862D01*
X416Y1862D02*
X470Y1862D01*
X516Y1862D02*
X570Y1862D01*
X616Y1862D02*
X670Y1862D01*
X1109Y1862D02*
X1177Y1862D01*
X1216Y1862D02*
X1270Y1862D01*
X1316Y1862D02*
X1370Y1862D01*
X1416Y1862D02*
X1470Y1862D01*
X1908Y1862D02*
X1977Y1862D01*
X2016Y1862D02*
X2070Y1862D01*
X2116Y1862D02*
X2170Y1862D01*
X2216Y1862D02*
X2270Y1862D01*
X2708Y1862D02*
X2777Y1862D01*
X2816Y1862D02*
X2870Y1862D01*
X2916Y1862D02*
X2970Y1862D01*
X3016Y1862D02*
X3070Y1862D01*
X309Y1861D02*
X377Y1861D01*
X415Y1861D02*
X470Y1861D01*
X515Y1861D02*
X571Y1861D01*
X615Y1861D02*
X671Y1861D01*
X1109Y1861D02*
X1177Y1861D01*
X1215Y1861D02*
X1270Y1861D01*
X1315Y1861D02*
X1370Y1861D01*
X1415Y1861D02*
X1470Y1861D01*
X1908Y1861D02*
X1977Y1861D01*
X2015Y1861D02*
X2070Y1861D01*
X2115Y1861D02*
X2170Y1861D01*
X2215Y1861D02*
X2270Y1861D01*
X2708Y1861D02*
X2777Y1861D01*
X2815Y1861D02*
X2870Y1861D01*
X2915Y1861D02*
X2970Y1861D01*
X3015Y1861D02*
X3070Y1861D01*
X309Y1860D02*
X377Y1860D01*
X414Y1860D02*
X471Y1860D01*
X514Y1860D02*
X571Y1860D01*
X614Y1860D02*
X671Y1860D01*
X1109Y1860D02*
X1177Y1860D01*
X1214Y1860D02*
X1271Y1860D01*
X1314Y1860D02*
X1371Y1860D01*
X1414Y1860D02*
X1471Y1860D01*
X1908Y1860D02*
X1977Y1860D01*
X2014Y1860D02*
X2071Y1860D01*
X2114Y1860D02*
X2171Y1860D01*
X2214Y1860D02*
X2271Y1860D01*
X2708Y1860D02*
X2777Y1860D01*
X2814Y1860D02*
X2871Y1860D01*
X2914Y1860D02*
X2971Y1860D01*
X3014Y1860D02*
X3071Y1860D01*
X309Y1859D02*
X377Y1859D01*
X414Y1859D02*
X472Y1859D01*
X514Y1859D02*
X572Y1859D01*
X614Y1859D02*
X672Y1859D01*
X1109Y1859D02*
X1177Y1859D01*
X1214Y1859D02*
X1272Y1859D01*
X1314Y1859D02*
X1372Y1859D01*
X1414Y1859D02*
X1472Y1859D01*
X1908Y1859D02*
X1977Y1859D01*
X2014Y1859D02*
X2072Y1859D01*
X2114Y1859D02*
X2172Y1859D01*
X2214Y1859D02*
X2272Y1859D01*
X2708Y1859D02*
X2777Y1859D01*
X2814Y1859D02*
X2872Y1859D01*
X2914Y1859D02*
X2972Y1859D01*
X3014Y1859D02*
X3072Y1859D01*
X309Y1858D02*
X377Y1858D01*
X413Y1858D02*
X473Y1858D01*
X513Y1858D02*
X573Y1858D01*
X613Y1858D02*
X673Y1858D01*
X1109Y1858D02*
X1177Y1858D01*
X1213Y1858D02*
X1273Y1858D01*
X1313Y1858D02*
X1373Y1858D01*
X1413Y1858D02*
X1473Y1858D01*
X1908Y1858D02*
X1977Y1858D01*
X2013Y1858D02*
X2072Y1858D01*
X2113Y1858D02*
X2173Y1858D01*
X2213Y1858D02*
X2273Y1858D01*
X2708Y1858D02*
X2777Y1858D01*
X2813Y1858D02*
X2872Y1858D01*
X2913Y1858D02*
X2972Y1858D01*
X3013Y1858D02*
X3072Y1858D01*
X309Y1857D02*
X377Y1857D01*
X413Y1857D02*
X473Y1857D01*
X513Y1857D02*
X573Y1857D01*
X613Y1857D02*
X673Y1857D01*
X1109Y1857D02*
X1177Y1857D01*
X1212Y1857D02*
X1273Y1857D01*
X1312Y1857D02*
X1373Y1857D01*
X1412Y1857D02*
X1473Y1857D01*
X1908Y1857D02*
X1977Y1857D01*
X2012Y1857D02*
X2073Y1857D01*
X2112Y1857D02*
X2173Y1857D01*
X2212Y1857D02*
X2273Y1857D01*
X2708Y1857D02*
X2777Y1857D01*
X2812Y1857D02*
X2873Y1857D01*
X2912Y1857D02*
X2973Y1857D01*
X3012Y1857D02*
X3073Y1857D01*
X309Y1856D02*
X377Y1856D01*
X412Y1856D02*
X474Y1856D01*
X512Y1856D02*
X574Y1856D01*
X612Y1856D02*
X674Y1856D01*
X1109Y1856D02*
X1177Y1856D01*
X1212Y1856D02*
X1274Y1856D01*
X1312Y1856D02*
X1374Y1856D01*
X1412Y1856D02*
X1474Y1856D01*
X1908Y1856D02*
X1977Y1856D01*
X2012Y1856D02*
X2074Y1856D01*
X2112Y1856D02*
X2174Y1856D01*
X2212Y1856D02*
X2274Y1856D01*
X2708Y1856D02*
X2777Y1856D01*
X2812Y1856D02*
X2874Y1856D01*
X2912Y1856D02*
X2974Y1856D01*
X3012Y1856D02*
X3074Y1856D01*
X309Y1855D02*
X377Y1855D01*
X411Y1855D02*
X474Y1855D01*
X511Y1855D02*
X574Y1855D01*
X611Y1855D02*
X674Y1855D01*
X1109Y1855D02*
X1177Y1855D01*
X1211Y1855D02*
X1274Y1855D01*
X1311Y1855D02*
X1374Y1855D01*
X1411Y1855D02*
X1474Y1855D01*
X1908Y1855D02*
X1977Y1855D01*
X2011Y1855D02*
X2074Y1855D01*
X2111Y1855D02*
X2174Y1855D01*
X2211Y1855D02*
X2274Y1855D01*
X2708Y1855D02*
X2777Y1855D01*
X2811Y1855D02*
X2874Y1855D01*
X2911Y1855D02*
X2974Y1855D01*
X3011Y1855D02*
X3074Y1855D01*
X309Y1854D02*
X377Y1854D01*
X411Y1854D02*
X475Y1854D01*
X511Y1854D02*
X575Y1854D01*
X611Y1854D02*
X675Y1854D01*
X1109Y1854D02*
X1177Y1854D01*
X1211Y1854D02*
X1275Y1854D01*
X1311Y1854D02*
X1375Y1854D01*
X1411Y1854D02*
X1475Y1854D01*
X1908Y1854D02*
X1977Y1854D01*
X2011Y1854D02*
X2075Y1854D01*
X2111Y1854D02*
X2175Y1854D01*
X2211Y1854D02*
X2275Y1854D01*
X2708Y1854D02*
X2777Y1854D01*
X2811Y1854D02*
X2875Y1854D01*
X2911Y1854D02*
X2975Y1854D01*
X3011Y1854D02*
X3075Y1854D01*
X309Y1853D02*
X377Y1853D01*
X410Y1853D02*
X475Y1853D01*
X510Y1853D02*
X575Y1853D01*
X610Y1853D02*
X675Y1853D01*
X1109Y1853D02*
X1177Y1853D01*
X1210Y1853D02*
X1275Y1853D01*
X1310Y1853D02*
X1375Y1853D01*
X1410Y1853D02*
X1475Y1853D01*
X1908Y1853D02*
X1977Y1853D01*
X2010Y1853D02*
X2075Y1853D01*
X2110Y1853D02*
X2175Y1853D01*
X2210Y1853D02*
X2275Y1853D01*
X2708Y1853D02*
X2777Y1853D01*
X2810Y1853D02*
X2875Y1853D01*
X2910Y1853D02*
X2975Y1853D01*
X3010Y1853D02*
X3075Y1853D01*
X309Y1852D02*
X340Y1852D01*
X346Y1852D02*
X377Y1852D01*
X410Y1852D02*
X440Y1852D01*
X446Y1852D02*
X476Y1852D01*
X510Y1852D02*
X540Y1852D01*
X546Y1852D02*
X576Y1852D01*
X610Y1852D02*
X640Y1852D01*
X646Y1852D02*
X676Y1852D01*
X1109Y1852D02*
X1140Y1852D01*
X1146Y1852D02*
X1177Y1852D01*
X1210Y1852D02*
X1240Y1852D01*
X1246Y1852D02*
X1276Y1852D01*
X1310Y1852D02*
X1340Y1852D01*
X1346Y1852D02*
X1376Y1852D01*
X1410Y1852D02*
X1440Y1852D01*
X1446Y1852D02*
X1476Y1852D01*
X1908Y1852D02*
X1940Y1852D01*
X1946Y1852D02*
X1977Y1852D01*
X2010Y1852D02*
X2040Y1852D01*
X2046Y1852D02*
X2076Y1852D01*
X2110Y1852D02*
X2140Y1852D01*
X2146Y1852D02*
X2176Y1852D01*
X2210Y1852D02*
X2240Y1852D01*
X2246Y1852D02*
X2276Y1852D01*
X2708Y1852D02*
X2740Y1852D01*
X2746Y1852D02*
X2777Y1852D01*
X2810Y1852D02*
X2840Y1852D01*
X2846Y1852D02*
X2875Y1852D01*
X2910Y1852D02*
X2940Y1852D01*
X2946Y1852D02*
X2976Y1852D01*
X3010Y1852D02*
X3040Y1852D01*
X3046Y1852D02*
X3076Y1852D01*
X309Y1851D02*
X337Y1851D01*
X349Y1851D02*
X377Y1851D01*
X410Y1851D02*
X437Y1851D01*
X449Y1851D02*
X476Y1851D01*
X510Y1851D02*
X537Y1851D01*
X549Y1851D02*
X576Y1851D01*
X610Y1851D02*
X637Y1851D01*
X649Y1851D02*
X676Y1851D01*
X1109Y1851D02*
X1137Y1851D01*
X1149Y1851D02*
X1177Y1851D01*
X1210Y1851D02*
X1237Y1851D01*
X1249Y1851D02*
X1276Y1851D01*
X1310Y1851D02*
X1337Y1851D01*
X1349Y1851D02*
X1376Y1851D01*
X1410Y1851D02*
X1437Y1851D01*
X1449Y1851D02*
X1476Y1851D01*
X1908Y1851D02*
X1937Y1851D01*
X1949Y1851D02*
X1977Y1851D01*
X2010Y1851D02*
X2037Y1851D01*
X2049Y1851D02*
X2076Y1851D01*
X2110Y1851D02*
X2137Y1851D01*
X2149Y1851D02*
X2176Y1851D01*
X2210Y1851D02*
X2237Y1851D01*
X2249Y1851D02*
X2276Y1851D01*
X2708Y1851D02*
X2736Y1851D01*
X2749Y1851D02*
X2777Y1851D01*
X2810Y1851D02*
X2836Y1851D01*
X2849Y1851D02*
X2876Y1851D01*
X2910Y1851D02*
X2937Y1851D01*
X2949Y1851D02*
X2976Y1851D01*
X3010Y1851D02*
X3036Y1851D01*
X3049Y1851D02*
X3076Y1851D01*
X309Y1850D02*
X335Y1850D01*
X351Y1850D02*
X377Y1850D01*
X409Y1850D02*
X435Y1850D01*
X451Y1850D02*
X476Y1850D01*
X509Y1850D02*
X535Y1850D01*
X551Y1850D02*
X576Y1850D01*
X609Y1850D02*
X635Y1850D01*
X651Y1850D02*
X676Y1850D01*
X1109Y1850D02*
X1135Y1850D01*
X1151Y1850D02*
X1177Y1850D01*
X1209Y1850D02*
X1235Y1850D01*
X1251Y1850D02*
X1276Y1850D01*
X1309Y1850D02*
X1335Y1850D01*
X1351Y1850D02*
X1376Y1850D01*
X1409Y1850D02*
X1435Y1850D01*
X1451Y1850D02*
X1476Y1850D01*
X1908Y1850D02*
X1935Y1850D01*
X1951Y1850D02*
X1977Y1850D01*
X2009Y1850D02*
X2035Y1850D01*
X2051Y1850D02*
X2076Y1850D01*
X2109Y1850D02*
X2135Y1850D01*
X2151Y1850D02*
X2176Y1850D01*
X2209Y1850D02*
X2235Y1850D01*
X2251Y1850D02*
X2276Y1850D01*
X2708Y1850D02*
X2735Y1850D01*
X2751Y1850D02*
X2777Y1850D01*
X2809Y1850D02*
X2835Y1850D01*
X2851Y1850D02*
X2876Y1850D01*
X2909Y1850D02*
X2935Y1850D01*
X2951Y1850D02*
X2976Y1850D01*
X3009Y1850D02*
X3035Y1850D01*
X3051Y1850D02*
X3076Y1850D01*
X309Y1849D02*
X334Y1849D01*
X352Y1849D02*
X377Y1849D01*
X409Y1849D02*
X434Y1849D01*
X452Y1849D02*
X477Y1849D01*
X509Y1849D02*
X534Y1849D01*
X552Y1849D02*
X577Y1849D01*
X609Y1849D02*
X634Y1849D01*
X652Y1849D02*
X677Y1849D01*
X1109Y1849D02*
X1134Y1849D01*
X1152Y1849D02*
X1177Y1849D01*
X1209Y1849D02*
X1234Y1849D01*
X1252Y1849D02*
X1277Y1849D01*
X1309Y1849D02*
X1334Y1849D01*
X1352Y1849D02*
X1377Y1849D01*
X1409Y1849D02*
X1434Y1849D01*
X1452Y1849D02*
X1477Y1849D01*
X1908Y1849D02*
X1934Y1849D01*
X1952Y1849D02*
X1977Y1849D01*
X2009Y1849D02*
X2034Y1849D01*
X2052Y1849D02*
X2077Y1849D01*
X2109Y1849D02*
X2134Y1849D01*
X2152Y1849D02*
X2177Y1849D01*
X2209Y1849D02*
X2234Y1849D01*
X2252Y1849D02*
X2277Y1849D01*
X2708Y1849D02*
X2734Y1849D01*
X2752Y1849D02*
X2777Y1849D01*
X2809Y1849D02*
X2834Y1849D01*
X2852Y1849D02*
X2877Y1849D01*
X2909Y1849D02*
X2934Y1849D01*
X2952Y1849D02*
X2977Y1849D01*
X3009Y1849D02*
X3034Y1849D01*
X3052Y1849D02*
X3077Y1849D01*
X309Y1848D02*
X333Y1848D01*
X353Y1848D02*
X377Y1848D01*
X409Y1848D02*
X433Y1848D01*
X453Y1848D02*
X477Y1848D01*
X509Y1848D02*
X533Y1848D01*
X553Y1848D02*
X577Y1848D01*
X609Y1848D02*
X633Y1848D01*
X653Y1848D02*
X677Y1848D01*
X1109Y1848D02*
X1133Y1848D01*
X1153Y1848D02*
X1177Y1848D01*
X1209Y1848D02*
X1233Y1848D01*
X1253Y1848D02*
X1277Y1848D01*
X1309Y1848D02*
X1333Y1848D01*
X1353Y1848D02*
X1377Y1848D01*
X1409Y1848D02*
X1433Y1848D01*
X1453Y1848D02*
X1477Y1848D01*
X1908Y1848D02*
X1933Y1848D01*
X1953Y1848D02*
X1977Y1848D01*
X2009Y1848D02*
X2032Y1848D01*
X2053Y1848D02*
X2077Y1848D01*
X2109Y1848D02*
X2133Y1848D01*
X2153Y1848D02*
X2177Y1848D01*
X2209Y1848D02*
X2233Y1848D01*
X2253Y1848D02*
X2277Y1848D01*
X2708Y1848D02*
X2732Y1848D01*
X2753Y1848D02*
X2777Y1848D01*
X2809Y1848D02*
X2832Y1848D01*
X2853Y1848D02*
X2877Y1848D01*
X2909Y1848D02*
X2932Y1848D01*
X2953Y1848D02*
X2977Y1848D01*
X3009Y1848D02*
X3032Y1848D01*
X3053Y1848D02*
X3077Y1848D01*
X309Y1847D02*
X332Y1847D01*
X354Y1847D02*
X377Y1847D01*
X408Y1847D02*
X432Y1847D01*
X454Y1847D02*
X477Y1847D01*
X508Y1847D02*
X532Y1847D01*
X554Y1847D02*
X577Y1847D01*
X608Y1847D02*
X632Y1847D01*
X654Y1847D02*
X677Y1847D01*
X1109Y1847D02*
X1132Y1847D01*
X1154Y1847D02*
X1177Y1847D01*
X1208Y1847D02*
X1232Y1847D01*
X1254Y1847D02*
X1277Y1847D01*
X1308Y1847D02*
X1332Y1847D01*
X1354Y1847D02*
X1377Y1847D01*
X1408Y1847D02*
X1432Y1847D01*
X1454Y1847D02*
X1477Y1847D01*
X1908Y1847D02*
X1932Y1847D01*
X1954Y1847D02*
X1977Y1847D01*
X2008Y1847D02*
X2032Y1847D01*
X2054Y1847D02*
X2077Y1847D01*
X2108Y1847D02*
X2132Y1847D01*
X2154Y1847D02*
X2177Y1847D01*
X2208Y1847D02*
X2232Y1847D01*
X2254Y1847D02*
X2277Y1847D01*
X2708Y1847D02*
X2732Y1847D01*
X2754Y1847D02*
X2777Y1847D01*
X2808Y1847D02*
X2832Y1847D01*
X2854Y1847D02*
X2877Y1847D01*
X2908Y1847D02*
X2932Y1847D01*
X2954Y1847D02*
X2977Y1847D01*
X3008Y1847D02*
X3032Y1847D01*
X3054Y1847D02*
X3077Y1847D01*
X309Y1846D02*
X331Y1846D01*
X355Y1846D02*
X377Y1846D01*
X408Y1846D02*
X431Y1846D01*
X455Y1846D02*
X478Y1846D01*
X508Y1846D02*
X531Y1846D01*
X555Y1846D02*
X578Y1846D01*
X608Y1846D02*
X631Y1846D01*
X655Y1846D02*
X678Y1846D01*
X1109Y1846D02*
X1131Y1846D01*
X1155Y1846D02*
X1177Y1846D01*
X1208Y1846D02*
X1231Y1846D01*
X1255Y1846D02*
X1277Y1846D01*
X1308Y1846D02*
X1331Y1846D01*
X1355Y1846D02*
X1377Y1846D01*
X1408Y1846D02*
X1431Y1846D01*
X1455Y1846D02*
X1477Y1846D01*
X1908Y1846D02*
X1931Y1846D01*
X1955Y1846D02*
X1977Y1846D01*
X2008Y1846D02*
X2031Y1846D01*
X2055Y1846D02*
X2077Y1846D01*
X2108Y1846D02*
X2131Y1846D01*
X2155Y1846D02*
X2177Y1846D01*
X2208Y1846D02*
X2231Y1846D01*
X2255Y1846D02*
X2277Y1846D01*
X2708Y1846D02*
X2731Y1846D01*
X2755Y1846D02*
X2777Y1846D01*
X2808Y1846D02*
X2831Y1846D01*
X2855Y1846D02*
X2877Y1846D01*
X2908Y1846D02*
X2931Y1846D01*
X2955Y1846D02*
X2977Y1846D01*
X3008Y1846D02*
X3031Y1846D01*
X3055Y1846D02*
X3077Y1846D01*
X309Y1845D02*
X330Y1845D01*
X355Y1845D02*
X377Y1845D01*
X408Y1845D02*
X430Y1845D01*
X455Y1845D02*
X478Y1845D01*
X508Y1845D02*
X530Y1845D01*
X555Y1845D02*
X578Y1845D01*
X608Y1845D02*
X630Y1845D01*
X655Y1845D02*
X678Y1845D01*
X1109Y1845D02*
X1130Y1845D01*
X1155Y1845D02*
X1177Y1845D01*
X1208Y1845D02*
X1230Y1845D01*
X1255Y1845D02*
X1278Y1845D01*
X1308Y1845D02*
X1330Y1845D01*
X1355Y1845D02*
X1378Y1845D01*
X1408Y1845D02*
X1430Y1845D01*
X1455Y1845D02*
X1478Y1845D01*
X1908Y1845D02*
X1930Y1845D01*
X1955Y1845D02*
X1977Y1845D01*
X2008Y1845D02*
X2030Y1845D01*
X2055Y1845D02*
X2078Y1845D01*
X2108Y1845D02*
X2130Y1845D01*
X2155Y1845D02*
X2178Y1845D01*
X2208Y1845D02*
X2230Y1845D01*
X2255Y1845D02*
X2278Y1845D01*
X2708Y1845D02*
X2730Y1845D01*
X2755Y1845D02*
X2777Y1845D01*
X2808Y1845D02*
X2830Y1845D01*
X2855Y1845D02*
X2878Y1845D01*
X2908Y1845D02*
X2930Y1845D01*
X2955Y1845D02*
X2978Y1845D01*
X3008Y1845D02*
X3030Y1845D01*
X3055Y1845D02*
X3078Y1845D01*
X309Y1844D02*
X330Y1844D01*
X356Y1844D02*
X377Y1844D01*
X408Y1844D02*
X430Y1844D01*
X456Y1844D02*
X478Y1844D01*
X508Y1844D02*
X530Y1844D01*
X556Y1844D02*
X578Y1844D01*
X608Y1844D02*
X630Y1844D01*
X656Y1844D02*
X678Y1844D01*
X1109Y1844D02*
X1130Y1844D01*
X1156Y1844D02*
X1177Y1844D01*
X1208Y1844D02*
X1230Y1844D01*
X1256Y1844D02*
X1278Y1844D01*
X1308Y1844D02*
X1330Y1844D01*
X1356Y1844D02*
X1378Y1844D01*
X1408Y1844D02*
X1430Y1844D01*
X1456Y1844D02*
X1478Y1844D01*
X1908Y1844D02*
X1930Y1844D01*
X1956Y1844D02*
X1977Y1844D01*
X2008Y1844D02*
X2030Y1844D01*
X2056Y1844D02*
X2078Y1844D01*
X2108Y1844D02*
X2130Y1844D01*
X2156Y1844D02*
X2178Y1844D01*
X2208Y1844D02*
X2230Y1844D01*
X2256Y1844D02*
X2278Y1844D01*
X2708Y1844D02*
X2730Y1844D01*
X2756Y1844D02*
X2777Y1844D01*
X2808Y1844D02*
X2830Y1844D01*
X2856Y1844D02*
X2878Y1844D01*
X2908Y1844D02*
X2930Y1844D01*
X2956Y1844D02*
X2978Y1844D01*
X3008Y1844D02*
X3030Y1844D01*
X3056Y1844D02*
X3078Y1844D01*
X309Y1843D02*
X330Y1843D01*
X356Y1843D02*
X377Y1843D01*
X408Y1843D02*
X430Y1843D01*
X456Y1843D02*
X478Y1843D01*
X508Y1843D02*
X530Y1843D01*
X556Y1843D02*
X578Y1843D01*
X608Y1843D02*
X630Y1843D01*
X656Y1843D02*
X678Y1843D01*
X1109Y1843D02*
X1129Y1843D01*
X1156Y1843D02*
X1177Y1843D01*
X1208Y1843D02*
X1229Y1843D01*
X1256Y1843D02*
X1278Y1843D01*
X1308Y1843D02*
X1329Y1843D01*
X1356Y1843D02*
X1378Y1843D01*
X1408Y1843D02*
X1429Y1843D01*
X1456Y1843D02*
X1478Y1843D01*
X1908Y1843D02*
X1929Y1843D01*
X1956Y1843D02*
X1977Y1843D01*
X2008Y1843D02*
X2029Y1843D01*
X2056Y1843D02*
X2078Y1843D01*
X2108Y1843D02*
X2129Y1843D01*
X2156Y1843D02*
X2178Y1843D01*
X2208Y1843D02*
X2229Y1843D01*
X2256Y1843D02*
X2278Y1843D01*
X2708Y1843D02*
X2729Y1843D01*
X2756Y1843D02*
X2777Y1843D01*
X2808Y1843D02*
X2829Y1843D01*
X2856Y1843D02*
X2878Y1843D01*
X2908Y1843D02*
X2929Y1843D01*
X2956Y1843D02*
X2978Y1843D01*
X3008Y1843D02*
X3029Y1843D01*
X3056Y1843D02*
X3078Y1843D01*
X309Y1842D02*
X329Y1842D01*
X356Y1842D02*
X377Y1842D01*
X408Y1842D02*
X429Y1842D01*
X456Y1842D02*
X478Y1842D01*
X508Y1842D02*
X529Y1842D01*
X557Y1842D02*
X578Y1842D01*
X608Y1842D02*
X629Y1842D01*
X656Y1842D02*
X678Y1842D01*
X1109Y1842D02*
X1129Y1842D01*
X1156Y1842D02*
X1177Y1842D01*
X1208Y1842D02*
X1229Y1842D01*
X1256Y1842D02*
X1278Y1842D01*
X1308Y1842D02*
X1329Y1842D01*
X1356Y1842D02*
X1378Y1842D01*
X1408Y1842D02*
X1429Y1842D01*
X1456Y1842D02*
X1478Y1842D01*
X1908Y1842D02*
X1929Y1842D01*
X1956Y1842D02*
X1977Y1842D01*
X2007Y1842D02*
X2029Y1842D01*
X2056Y1842D02*
X2078Y1842D01*
X2107Y1842D02*
X2129Y1842D01*
X2156Y1842D02*
X2178Y1842D01*
X2207Y1842D02*
X2229Y1842D01*
X2256Y1842D02*
X2278Y1842D01*
X2708Y1842D02*
X2729Y1842D01*
X2756Y1842D02*
X2777Y1842D01*
X2807Y1842D02*
X2829Y1842D01*
X2856Y1842D02*
X2878Y1842D01*
X2907Y1842D02*
X2929Y1842D01*
X2956Y1842D02*
X2978Y1842D01*
X3007Y1842D02*
X3029Y1842D01*
X3056Y1842D02*
X3078Y1842D01*
X309Y1841D02*
X329Y1841D01*
X357Y1841D02*
X377Y1841D01*
X408Y1841D02*
X429Y1841D01*
X457Y1841D02*
X478Y1841D01*
X508Y1841D02*
X529Y1841D01*
X557Y1841D02*
X578Y1841D01*
X608Y1841D02*
X629Y1841D01*
X657Y1841D02*
X678Y1841D01*
X1109Y1841D02*
X1129Y1841D01*
X1157Y1841D02*
X1177Y1841D01*
X1207Y1841D02*
X1229Y1841D01*
X1257Y1841D02*
X1278Y1841D01*
X1307Y1841D02*
X1329Y1841D01*
X1357Y1841D02*
X1378Y1841D01*
X1407Y1841D02*
X1429Y1841D01*
X1457Y1841D02*
X1478Y1841D01*
X1908Y1841D02*
X1929Y1841D01*
X1957Y1841D02*
X1977Y1841D01*
X2007Y1841D02*
X2029Y1841D01*
X2057Y1841D02*
X2078Y1841D01*
X2107Y1841D02*
X2129Y1841D01*
X2157Y1841D02*
X2178Y1841D01*
X2207Y1841D02*
X2229Y1841D01*
X2257Y1841D02*
X2278Y1841D01*
X2708Y1841D02*
X2729Y1841D01*
X2757Y1841D02*
X2777Y1841D01*
X2807Y1841D02*
X2829Y1841D01*
X2857Y1841D02*
X2878Y1841D01*
X2907Y1841D02*
X2929Y1841D01*
X2957Y1841D02*
X2978Y1841D01*
X3007Y1841D02*
X3029Y1841D01*
X3057Y1841D02*
X3078Y1841D01*
X309Y1840D02*
X329Y1840D01*
X357Y1840D02*
X377Y1840D01*
X407Y1840D02*
X429Y1840D01*
X457Y1840D02*
X478Y1840D01*
X507Y1840D02*
X529Y1840D01*
X557Y1840D02*
X578Y1840D01*
X607Y1840D02*
X629Y1840D01*
X657Y1840D02*
X678Y1840D01*
X1109Y1840D02*
X1129Y1840D01*
X1157Y1840D02*
X1177Y1840D01*
X1207Y1840D02*
X1229Y1840D01*
X1257Y1840D02*
X1278Y1840D01*
X1307Y1840D02*
X1329Y1840D01*
X1357Y1840D02*
X1378Y1840D01*
X1407Y1840D02*
X1429Y1840D01*
X1457Y1840D02*
X1478Y1840D01*
X1908Y1840D02*
X1929Y1840D01*
X1957Y1840D02*
X1977Y1840D01*
X2007Y1840D02*
X2029Y1840D01*
X2057Y1840D02*
X2078Y1840D01*
X2107Y1840D02*
X2129Y1840D01*
X2157Y1840D02*
X2178Y1840D01*
X2207Y1840D02*
X2229Y1840D01*
X2257Y1840D02*
X2278Y1840D01*
X2708Y1840D02*
X2729Y1840D01*
X2757Y1840D02*
X2777Y1840D01*
X2807Y1840D02*
X2829Y1840D01*
X2857Y1840D02*
X2878Y1840D01*
X2907Y1840D02*
X2929Y1840D01*
X2957Y1840D02*
X2978Y1840D01*
X3007Y1840D02*
X3029Y1840D01*
X3057Y1840D02*
X3078Y1840D01*
X309Y1839D02*
X329Y1839D01*
X357Y1839D02*
X377Y1839D01*
X407Y1839D02*
X429Y1839D01*
X457Y1839D02*
X478Y1839D01*
X507Y1839D02*
X529Y1839D01*
X557Y1839D02*
X578Y1839D01*
X607Y1839D02*
X629Y1839D01*
X657Y1839D02*
X678Y1839D01*
X1109Y1839D02*
X1129Y1839D01*
X1157Y1839D02*
X1177Y1839D01*
X1207Y1839D02*
X1229Y1839D01*
X1257Y1839D02*
X1278Y1839D01*
X1307Y1839D02*
X1329Y1839D01*
X1357Y1839D02*
X1378Y1839D01*
X1407Y1839D02*
X1429Y1839D01*
X1457Y1839D02*
X1478Y1839D01*
X1908Y1839D02*
X1929Y1839D01*
X1957Y1839D02*
X1977Y1839D01*
X2007Y1839D02*
X2029Y1839D01*
X2057Y1839D02*
X2078Y1839D01*
X2107Y1839D02*
X2129Y1839D01*
X2157Y1839D02*
X2178Y1839D01*
X2207Y1839D02*
X2229Y1839D01*
X2257Y1839D02*
X2278Y1839D01*
X2708Y1839D02*
X2729Y1839D01*
X2757Y1839D02*
X2777Y1839D01*
X2807Y1839D02*
X2829Y1839D01*
X2857Y1839D02*
X2878Y1839D01*
X2907Y1839D02*
X2929Y1839D01*
X2957Y1839D02*
X2978Y1839D01*
X3007Y1839D02*
X3029Y1839D01*
X3057Y1839D02*
X3078Y1839D01*
X309Y1838D02*
X329Y1838D01*
X357Y1838D02*
X377Y1838D01*
X407Y1838D02*
X429Y1838D01*
X457Y1838D02*
X478Y1838D01*
X507Y1838D02*
X529Y1838D01*
X557Y1838D02*
X578Y1838D01*
X607Y1838D02*
X629Y1838D01*
X657Y1838D02*
X678Y1838D01*
X1109Y1838D02*
X1129Y1838D01*
X1157Y1838D02*
X1177Y1838D01*
X1207Y1838D02*
X1229Y1838D01*
X1257Y1838D02*
X1278Y1838D01*
X1307Y1838D02*
X1329Y1838D01*
X1357Y1838D02*
X1378Y1838D01*
X1407Y1838D02*
X1429Y1838D01*
X1457Y1838D02*
X1478Y1838D01*
X1908Y1838D02*
X1929Y1838D01*
X1957Y1838D02*
X1977Y1838D01*
X2007Y1838D02*
X2029Y1838D01*
X2057Y1838D02*
X2078Y1838D01*
X2107Y1838D02*
X2129Y1838D01*
X2157Y1838D02*
X2178Y1838D01*
X2207Y1838D02*
X2229Y1838D01*
X2257Y1838D02*
X2278Y1838D01*
X2708Y1838D02*
X2729Y1838D01*
X2757Y1838D02*
X2777Y1838D01*
X2807Y1838D02*
X2829Y1838D01*
X2857Y1838D02*
X2878Y1838D01*
X2907Y1838D02*
X2929Y1838D01*
X2957Y1838D02*
X2978Y1838D01*
X3007Y1838D02*
X3029Y1838D01*
X3057Y1838D02*
X3078Y1838D01*
X309Y1837D02*
X329Y1837D01*
X357Y1837D02*
X377Y1837D01*
X407Y1837D02*
X429Y1837D01*
X457Y1837D02*
X478Y1837D01*
X507Y1837D02*
X529Y1837D01*
X557Y1837D02*
X578Y1837D01*
X607Y1837D02*
X629Y1837D01*
X657Y1837D02*
X678Y1837D01*
X1109Y1837D02*
X1129Y1837D01*
X1157Y1837D02*
X1177Y1837D01*
X1207Y1837D02*
X1229Y1837D01*
X1257Y1837D02*
X1278Y1837D01*
X1307Y1837D02*
X1329Y1837D01*
X1357Y1837D02*
X1378Y1837D01*
X1407Y1837D02*
X1429Y1837D01*
X1457Y1837D02*
X1478Y1837D01*
X1908Y1837D02*
X1929Y1837D01*
X1957Y1837D02*
X1977Y1837D01*
X2007Y1837D02*
X2029Y1837D01*
X2057Y1837D02*
X2078Y1837D01*
X2107Y1837D02*
X2129Y1837D01*
X2157Y1837D02*
X2178Y1837D01*
X2207Y1837D02*
X2229Y1837D01*
X2257Y1837D02*
X2278Y1837D01*
X2708Y1837D02*
X2729Y1837D01*
X2757Y1837D02*
X2777Y1837D01*
X2807Y1837D02*
X2829Y1837D01*
X2857Y1837D02*
X2878Y1837D01*
X2907Y1837D02*
X2929Y1837D01*
X2957Y1837D02*
X2978Y1837D01*
X3007Y1837D02*
X3029Y1837D01*
X3057Y1837D02*
X3078Y1837D01*
X309Y1836D02*
X329Y1836D01*
X357Y1836D02*
X377Y1836D01*
X408Y1836D02*
X429Y1836D01*
X457Y1836D02*
X478Y1836D01*
X508Y1836D02*
X529Y1836D01*
X557Y1836D02*
X578Y1836D01*
X608Y1836D02*
X629Y1836D01*
X657Y1836D02*
X678Y1836D01*
X1109Y1836D02*
X1129Y1836D01*
X1157Y1836D02*
X1177Y1836D01*
X1207Y1836D02*
X1229Y1836D01*
X1257Y1836D02*
X1278Y1836D01*
X1308Y1836D02*
X1329Y1836D01*
X1357Y1836D02*
X1378Y1836D01*
X1408Y1836D02*
X1429Y1836D01*
X1457Y1836D02*
X1478Y1836D01*
X1908Y1836D02*
X1929Y1836D01*
X1957Y1836D02*
X1977Y1836D01*
X2007Y1836D02*
X2029Y1836D01*
X2057Y1836D02*
X2078Y1836D01*
X2107Y1836D02*
X2129Y1836D01*
X2157Y1836D02*
X2178Y1836D01*
X2207Y1836D02*
X2229Y1836D01*
X2257Y1836D02*
X2278Y1836D01*
X2708Y1836D02*
X2729Y1836D01*
X2756Y1836D02*
X2777Y1836D01*
X2807Y1836D02*
X2829Y1836D01*
X2856Y1836D02*
X2878Y1836D01*
X2907Y1836D02*
X2929Y1836D01*
X2957Y1836D02*
X2978Y1836D01*
X3007Y1836D02*
X3029Y1836D01*
X3056Y1836D02*
X3078Y1836D01*
X309Y1835D02*
X329Y1835D01*
X356Y1835D02*
X377Y1835D01*
X408Y1835D02*
X429Y1835D01*
X456Y1835D02*
X478Y1835D01*
X508Y1835D02*
X529Y1835D01*
X556Y1835D02*
X578Y1835D01*
X608Y1835D02*
X629Y1835D01*
X656Y1835D02*
X678Y1835D01*
X1109Y1835D02*
X1129Y1835D01*
X1156Y1835D02*
X1177Y1835D01*
X1208Y1835D02*
X1229Y1835D01*
X1256Y1835D02*
X1278Y1835D01*
X1308Y1835D02*
X1329Y1835D01*
X1356Y1835D02*
X1378Y1835D01*
X1408Y1835D02*
X1429Y1835D01*
X1456Y1835D02*
X1478Y1835D01*
X1908Y1835D02*
X1929Y1835D01*
X1956Y1835D02*
X1977Y1835D01*
X2008Y1835D02*
X2029Y1835D01*
X2056Y1835D02*
X2078Y1835D01*
X2108Y1835D02*
X2129Y1835D01*
X2156Y1835D02*
X2178Y1835D01*
X2208Y1835D02*
X2229Y1835D01*
X2256Y1835D02*
X2278Y1835D01*
X2708Y1835D02*
X2729Y1835D01*
X2756Y1835D02*
X2777Y1835D01*
X2807Y1835D02*
X2829Y1835D01*
X2856Y1835D02*
X2878Y1835D01*
X2907Y1835D02*
X2929Y1835D01*
X2956Y1835D02*
X2978Y1835D01*
X3007Y1835D02*
X3029Y1835D01*
X3056Y1835D02*
X3078Y1835D01*
X309Y1834D02*
X330Y1834D01*
X356Y1834D02*
X377Y1834D01*
X408Y1834D02*
X430Y1834D01*
X456Y1834D02*
X478Y1834D01*
X508Y1834D02*
X530Y1834D01*
X556Y1834D02*
X578Y1834D01*
X608Y1834D02*
X630Y1834D01*
X656Y1834D02*
X678Y1834D01*
X1109Y1834D02*
X1130Y1834D01*
X1156Y1834D02*
X1177Y1834D01*
X1208Y1834D02*
X1230Y1834D01*
X1256Y1834D02*
X1278Y1834D01*
X1308Y1834D02*
X1330Y1834D01*
X1356Y1834D02*
X1378Y1834D01*
X1408Y1834D02*
X1430Y1834D01*
X1456Y1834D02*
X1478Y1834D01*
X1908Y1834D02*
X1930Y1834D01*
X1956Y1834D02*
X1977Y1834D01*
X2008Y1834D02*
X2030Y1834D01*
X2056Y1834D02*
X2078Y1834D01*
X2108Y1834D02*
X2130Y1834D01*
X2156Y1834D02*
X2178Y1834D01*
X2208Y1834D02*
X2230Y1834D01*
X2256Y1834D02*
X2278Y1834D01*
X2708Y1834D02*
X2729Y1834D01*
X2756Y1834D02*
X2777Y1834D01*
X2808Y1834D02*
X2829Y1834D01*
X2856Y1834D02*
X2878Y1834D01*
X2908Y1834D02*
X2930Y1834D01*
X2956Y1834D02*
X2978Y1834D01*
X3008Y1834D02*
X3030Y1834D01*
X3056Y1834D02*
X3078Y1834D01*
X309Y1833D02*
X330Y1833D01*
X356Y1833D02*
X377Y1833D01*
X408Y1833D02*
X430Y1833D01*
X456Y1833D02*
X478Y1833D01*
X508Y1833D02*
X530Y1833D01*
X556Y1833D02*
X578Y1833D01*
X608Y1833D02*
X630Y1833D01*
X656Y1833D02*
X678Y1833D01*
X1109Y1833D02*
X1130Y1833D01*
X1156Y1833D02*
X1177Y1833D01*
X1208Y1833D02*
X1230Y1833D01*
X1256Y1833D02*
X1278Y1833D01*
X1308Y1833D02*
X1330Y1833D01*
X1356Y1833D02*
X1378Y1833D01*
X1408Y1833D02*
X1430Y1833D01*
X1456Y1833D02*
X1478Y1833D01*
X1908Y1833D02*
X1930Y1833D01*
X1956Y1833D02*
X1977Y1833D01*
X2008Y1833D02*
X2030Y1833D01*
X2056Y1833D02*
X2078Y1833D01*
X2108Y1833D02*
X2130Y1833D01*
X2156Y1833D02*
X2178Y1833D01*
X2208Y1833D02*
X2230Y1833D01*
X2256Y1833D02*
X2278Y1833D01*
X2708Y1833D02*
X2730Y1833D01*
X2756Y1833D02*
X2777Y1833D01*
X2808Y1833D02*
X2830Y1833D01*
X2856Y1833D02*
X2878Y1833D01*
X2908Y1833D02*
X2930Y1833D01*
X2956Y1833D02*
X2978Y1833D01*
X3008Y1833D02*
X3030Y1833D01*
X3056Y1833D02*
X3078Y1833D01*
X309Y1832D02*
X331Y1832D01*
X355Y1832D02*
X377Y1832D01*
X408Y1832D02*
X431Y1832D01*
X455Y1832D02*
X478Y1832D01*
X508Y1832D02*
X531Y1832D01*
X555Y1832D02*
X578Y1832D01*
X608Y1832D02*
X631Y1832D01*
X655Y1832D02*
X678Y1832D01*
X1109Y1832D02*
X1131Y1832D01*
X1155Y1832D02*
X1177Y1832D01*
X1208Y1832D02*
X1231Y1832D01*
X1255Y1832D02*
X1278Y1832D01*
X1308Y1832D02*
X1331Y1832D01*
X1355Y1832D02*
X1378Y1832D01*
X1408Y1832D02*
X1431Y1832D01*
X1455Y1832D02*
X1478Y1832D01*
X1908Y1832D02*
X1931Y1832D01*
X1955Y1832D02*
X1977Y1832D01*
X2008Y1832D02*
X2031Y1832D01*
X2055Y1832D02*
X2078Y1832D01*
X2108Y1832D02*
X2131Y1832D01*
X2155Y1832D02*
X2178Y1832D01*
X2208Y1832D02*
X2231Y1832D01*
X2255Y1832D02*
X2278Y1832D01*
X2708Y1832D02*
X2730Y1832D01*
X2755Y1832D02*
X2777Y1832D01*
X2808Y1832D02*
X2830Y1832D01*
X2855Y1832D02*
X2877Y1832D01*
X2908Y1832D02*
X2930Y1832D01*
X2955Y1832D02*
X2977Y1832D01*
X3008Y1832D02*
X3030Y1832D01*
X3055Y1832D02*
X3077Y1832D01*
X309Y1831D02*
X331Y1831D01*
X354Y1831D02*
X377Y1831D01*
X408Y1831D02*
X431Y1831D01*
X454Y1831D02*
X477Y1831D01*
X508Y1831D02*
X531Y1831D01*
X554Y1831D02*
X577Y1831D01*
X608Y1831D02*
X631Y1831D01*
X654Y1831D02*
X677Y1831D01*
X1109Y1831D02*
X1131Y1831D01*
X1154Y1831D02*
X1177Y1831D01*
X1208Y1831D02*
X1231Y1831D01*
X1254Y1831D02*
X1277Y1831D01*
X1308Y1831D02*
X1331Y1831D01*
X1354Y1831D02*
X1377Y1831D01*
X1408Y1831D02*
X1431Y1831D01*
X1454Y1831D02*
X1477Y1831D01*
X1908Y1831D02*
X1931Y1831D01*
X1954Y1831D02*
X1977Y1831D01*
X2008Y1831D02*
X2031Y1831D01*
X2054Y1831D02*
X2077Y1831D01*
X2108Y1831D02*
X2131Y1831D01*
X2154Y1831D02*
X2177Y1831D01*
X2208Y1831D02*
X2231Y1831D01*
X2254Y1831D02*
X2277Y1831D01*
X2708Y1831D02*
X2731Y1831D01*
X2754Y1831D02*
X2777Y1831D01*
X2808Y1831D02*
X2831Y1831D01*
X2854Y1831D02*
X2877Y1831D01*
X2908Y1831D02*
X2931Y1831D01*
X2954Y1831D02*
X2977Y1831D01*
X3008Y1831D02*
X3031Y1831D01*
X3054Y1831D02*
X3077Y1831D01*
X309Y1830D02*
X332Y1830D01*
X354Y1830D02*
X377Y1830D01*
X409Y1830D02*
X432Y1830D01*
X454Y1830D02*
X477Y1830D01*
X509Y1830D02*
X532Y1830D01*
X554Y1830D02*
X577Y1830D01*
X609Y1830D02*
X632Y1830D01*
X654Y1830D02*
X677Y1830D01*
X1109Y1830D02*
X1132Y1830D01*
X1154Y1830D02*
X1177Y1830D01*
X1209Y1830D02*
X1232Y1830D01*
X1254Y1830D02*
X1277Y1830D01*
X1309Y1830D02*
X1332Y1830D01*
X1354Y1830D02*
X1377Y1830D01*
X1409Y1830D02*
X1432Y1830D01*
X1454Y1830D02*
X1477Y1830D01*
X1908Y1830D02*
X1932Y1830D01*
X1954Y1830D02*
X1977Y1830D01*
X2008Y1830D02*
X2032Y1830D01*
X2054Y1830D02*
X2077Y1830D01*
X2108Y1830D02*
X2132Y1830D01*
X2154Y1830D02*
X2177Y1830D01*
X2208Y1830D02*
X2232Y1830D01*
X2254Y1830D02*
X2277Y1830D01*
X2708Y1830D02*
X2732Y1830D01*
X2753Y1830D02*
X2777Y1830D01*
X2808Y1830D02*
X2832Y1830D01*
X2853Y1830D02*
X2877Y1830D01*
X2908Y1830D02*
X2932Y1830D01*
X2953Y1830D02*
X2977Y1830D01*
X3008Y1830D02*
X3032Y1830D01*
X3053Y1830D02*
X3077Y1830D01*
X309Y1829D02*
X333Y1829D01*
X353Y1829D02*
X377Y1829D01*
X409Y1829D02*
X433Y1829D01*
X453Y1829D02*
X477Y1829D01*
X509Y1829D02*
X533Y1829D01*
X553Y1829D02*
X577Y1829D01*
X609Y1829D02*
X633Y1829D01*
X653Y1829D02*
X677Y1829D01*
X1109Y1829D02*
X1133Y1829D01*
X1153Y1829D02*
X1177Y1829D01*
X1209Y1829D02*
X1233Y1829D01*
X1253Y1829D02*
X1277Y1829D01*
X1309Y1829D02*
X1333Y1829D01*
X1353Y1829D02*
X1377Y1829D01*
X1409Y1829D02*
X1433Y1829D01*
X1453Y1829D02*
X1477Y1829D01*
X1908Y1829D02*
X1933Y1829D01*
X1953Y1829D02*
X1977Y1829D01*
X2009Y1829D02*
X2033Y1829D01*
X2053Y1829D02*
X2077Y1829D01*
X2109Y1829D02*
X2133Y1829D01*
X2153Y1829D02*
X2177Y1829D01*
X2209Y1829D02*
X2233Y1829D01*
X2253Y1829D02*
X2277Y1829D01*
X2708Y1829D02*
X2733Y1829D01*
X2753Y1829D02*
X2777Y1829D01*
X2809Y1829D02*
X2833Y1829D01*
X2853Y1829D02*
X2877Y1829D01*
X2909Y1829D02*
X2933Y1829D01*
X2953Y1829D02*
X2977Y1829D01*
X3009Y1829D02*
X3033Y1829D01*
X3053Y1829D02*
X3077Y1829D01*
X309Y1828D02*
X334Y1828D01*
X352Y1828D02*
X377Y1828D01*
X409Y1828D02*
X434Y1828D01*
X452Y1828D02*
X477Y1828D01*
X509Y1828D02*
X534Y1828D01*
X552Y1828D02*
X577Y1828D01*
X609Y1828D02*
X634Y1828D01*
X652Y1828D02*
X677Y1828D01*
X1109Y1828D02*
X1134Y1828D01*
X1152Y1828D02*
X1177Y1828D01*
X1209Y1828D02*
X1234Y1828D01*
X1251Y1828D02*
X1277Y1828D01*
X1309Y1828D02*
X1334Y1828D01*
X1352Y1828D02*
X1377Y1828D01*
X1409Y1828D02*
X1434Y1828D01*
X1451Y1828D02*
X1477Y1828D01*
X1908Y1828D02*
X1934Y1828D01*
X1951Y1828D02*
X1977Y1828D01*
X2009Y1828D02*
X2034Y1828D01*
X2051Y1828D02*
X2076Y1828D01*
X2109Y1828D02*
X2134Y1828D01*
X2151Y1828D02*
X2177Y1828D01*
X2209Y1828D02*
X2234Y1828D01*
X2251Y1828D02*
X2277Y1828D01*
X2708Y1828D02*
X2734Y1828D01*
X2751Y1828D02*
X2777Y1828D01*
X2809Y1828D02*
X2834Y1828D01*
X2851Y1828D02*
X2876Y1828D01*
X2909Y1828D02*
X2934Y1828D01*
X2951Y1828D02*
X2976Y1828D01*
X3009Y1828D02*
X3034Y1828D01*
X3051Y1828D02*
X3076Y1828D01*
X309Y1827D02*
X336Y1827D01*
X350Y1827D02*
X377Y1827D01*
X409Y1827D02*
X436Y1827D01*
X450Y1827D02*
X476Y1827D01*
X509Y1827D02*
X536Y1827D01*
X550Y1827D02*
X576Y1827D01*
X609Y1827D02*
X636Y1827D01*
X650Y1827D02*
X676Y1827D01*
X1109Y1827D02*
X1136Y1827D01*
X1150Y1827D02*
X1177Y1827D01*
X1209Y1827D02*
X1236Y1827D01*
X1250Y1827D02*
X1276Y1827D01*
X1309Y1827D02*
X1336Y1827D01*
X1350Y1827D02*
X1376Y1827D01*
X1409Y1827D02*
X1436Y1827D01*
X1450Y1827D02*
X1476Y1827D01*
X1908Y1827D02*
X1935Y1827D01*
X1950Y1827D02*
X1977Y1827D01*
X2009Y1827D02*
X2035Y1827D01*
X2050Y1827D02*
X2076Y1827D01*
X2109Y1827D02*
X2135Y1827D01*
X2150Y1827D02*
X2176Y1827D01*
X2209Y1827D02*
X2235Y1827D01*
X2250Y1827D02*
X2276Y1827D01*
X2708Y1827D02*
X2735Y1827D01*
X2750Y1827D02*
X2777Y1827D01*
X2809Y1827D02*
X2835Y1827D01*
X2850Y1827D02*
X2876Y1827D01*
X2909Y1827D02*
X2935Y1827D01*
X2950Y1827D02*
X2976Y1827D01*
X3009Y1827D02*
X3035Y1827D01*
X3050Y1827D02*
X3076Y1827D01*
X309Y1826D02*
X338Y1826D01*
X348Y1826D02*
X377Y1826D01*
X410Y1826D02*
X438Y1826D01*
X448Y1826D02*
X476Y1826D01*
X510Y1826D02*
X538Y1826D01*
X548Y1826D02*
X576Y1826D01*
X610Y1826D02*
X638Y1826D01*
X648Y1826D02*
X676Y1826D01*
X1109Y1826D02*
X1138Y1826D01*
X1148Y1826D02*
X1177Y1826D01*
X1210Y1826D02*
X1238Y1826D01*
X1248Y1826D02*
X1276Y1826D01*
X1310Y1826D02*
X1338Y1826D01*
X1348Y1826D02*
X1376Y1826D01*
X1410Y1826D02*
X1438Y1826D01*
X1448Y1826D02*
X1476Y1826D01*
X1908Y1826D02*
X1938Y1826D01*
X1948Y1826D02*
X1977Y1826D01*
X2010Y1826D02*
X2038Y1826D01*
X2048Y1826D02*
X2076Y1826D01*
X2110Y1826D02*
X2138Y1826D01*
X2148Y1826D02*
X2176Y1826D01*
X2210Y1826D02*
X2238Y1826D01*
X2248Y1826D02*
X2276Y1826D01*
X2708Y1826D02*
X2737Y1826D01*
X2748Y1826D02*
X2777Y1826D01*
X2810Y1826D02*
X2837Y1826D01*
X2848Y1826D02*
X2876Y1826D01*
X2910Y1826D02*
X2937Y1826D01*
X2948Y1826D02*
X2976Y1826D01*
X3010Y1826D02*
X3037Y1826D01*
X3048Y1826D02*
X3076Y1826D01*
X309Y1825D02*
X377Y1825D01*
X410Y1825D02*
X475Y1825D01*
X510Y1825D02*
X576Y1825D01*
X610Y1825D02*
X676Y1825D01*
X1109Y1825D02*
X1177Y1825D01*
X1210Y1825D02*
X1275Y1825D01*
X1310Y1825D02*
X1375Y1825D01*
X1410Y1825D02*
X1475Y1825D01*
X1908Y1825D02*
X1977Y1825D01*
X2010Y1825D02*
X2075Y1825D01*
X2110Y1825D02*
X2175Y1825D01*
X2210Y1825D02*
X2275Y1825D01*
X2708Y1825D02*
X2777Y1825D01*
X2810Y1825D02*
X2875Y1825D01*
X2910Y1825D02*
X2975Y1825D01*
X3010Y1825D02*
X3075Y1825D01*
X309Y1824D02*
X377Y1824D01*
X411Y1824D02*
X475Y1824D01*
X511Y1824D02*
X575Y1824D01*
X611Y1824D02*
X675Y1824D01*
X1109Y1824D02*
X1177Y1824D01*
X1211Y1824D02*
X1275Y1824D01*
X1311Y1824D02*
X1375Y1824D01*
X1411Y1824D02*
X1475Y1824D01*
X1908Y1824D02*
X1977Y1824D01*
X2011Y1824D02*
X2075Y1824D01*
X2111Y1824D02*
X2175Y1824D01*
X2211Y1824D02*
X2275Y1824D01*
X2708Y1824D02*
X2777Y1824D01*
X2811Y1824D02*
X2875Y1824D01*
X2911Y1824D02*
X2975Y1824D01*
X3011Y1824D02*
X3075Y1824D01*
X309Y1823D02*
X377Y1823D01*
X411Y1823D02*
X475Y1823D01*
X511Y1823D02*
X575Y1823D01*
X611Y1823D02*
X675Y1823D01*
X1109Y1823D02*
X1177Y1823D01*
X1211Y1823D02*
X1275Y1823D01*
X1311Y1823D02*
X1375Y1823D01*
X1411Y1823D02*
X1475Y1823D01*
X1908Y1823D02*
X1977Y1823D01*
X2011Y1823D02*
X2074Y1823D01*
X2111Y1823D02*
X2174Y1823D01*
X2211Y1823D02*
X2274Y1823D01*
X2708Y1823D02*
X2777Y1823D01*
X2811Y1823D02*
X2874Y1823D01*
X2911Y1823D02*
X2974Y1823D01*
X3011Y1823D02*
X3074Y1823D01*
X309Y1822D02*
X377Y1822D01*
X412Y1822D02*
X474Y1822D01*
X512Y1822D02*
X574Y1822D01*
X612Y1822D02*
X674Y1822D01*
X1109Y1822D02*
X1177Y1822D01*
X1212Y1822D02*
X1274Y1822D01*
X1312Y1822D02*
X1374Y1822D01*
X1412Y1822D02*
X1474Y1822D01*
X1908Y1822D02*
X1977Y1822D01*
X2012Y1822D02*
X2074Y1822D01*
X2112Y1822D02*
X2174Y1822D01*
X2212Y1822D02*
X2274Y1822D01*
X2708Y1822D02*
X2777Y1822D01*
X2811Y1822D02*
X2874Y1822D01*
X2911Y1822D02*
X2974Y1822D01*
X3011Y1822D02*
X3074Y1822D01*
X309Y1821D02*
X377Y1821D01*
X412Y1821D02*
X474Y1821D01*
X512Y1821D02*
X574Y1821D01*
X612Y1821D02*
X674Y1821D01*
X1109Y1821D02*
X1177Y1821D01*
X1212Y1821D02*
X1273Y1821D01*
X1312Y1821D02*
X1374Y1821D01*
X1412Y1821D02*
X1474Y1821D01*
X1908Y1821D02*
X1977Y1821D01*
X2012Y1821D02*
X2073Y1821D01*
X2112Y1821D02*
X2173Y1821D01*
X2212Y1821D02*
X2273Y1821D01*
X2708Y1821D02*
X2777Y1821D01*
X2812Y1821D02*
X2873Y1821D01*
X2912Y1821D02*
X2973Y1821D01*
X3012Y1821D02*
X3073Y1821D01*
X309Y1820D02*
X377Y1820D01*
X413Y1820D02*
X473Y1820D01*
X513Y1820D02*
X573Y1820D01*
X613Y1820D02*
X673Y1820D01*
X1109Y1820D02*
X1177Y1820D01*
X1213Y1820D02*
X1273Y1820D01*
X1313Y1820D02*
X1373Y1820D01*
X1413Y1820D02*
X1473Y1820D01*
X1908Y1820D02*
X1977Y1820D01*
X2013Y1820D02*
X2073Y1820D01*
X2113Y1820D02*
X2173Y1820D01*
X2213Y1820D02*
X2273Y1820D01*
X2708Y1820D02*
X2777Y1820D01*
X2813Y1820D02*
X2873Y1820D01*
X2913Y1820D02*
X2973Y1820D01*
X3013Y1820D02*
X3073Y1820D01*
X309Y1819D02*
X377Y1819D01*
X413Y1819D02*
X472Y1819D01*
X513Y1819D02*
X572Y1819D01*
X613Y1819D02*
X672Y1819D01*
X1109Y1819D02*
X1177Y1819D01*
X1213Y1819D02*
X1272Y1819D01*
X1313Y1819D02*
X1372Y1819D01*
X1413Y1819D02*
X1472Y1819D01*
X1908Y1819D02*
X1977Y1819D01*
X2013Y1819D02*
X2072Y1819D01*
X2113Y1819D02*
X2172Y1819D01*
X2213Y1819D02*
X2272Y1819D01*
X2708Y1819D02*
X2777Y1819D01*
X2813Y1819D02*
X2872Y1819D01*
X2913Y1819D02*
X2972Y1819D01*
X3013Y1819D02*
X3072Y1819D01*
X309Y1818D02*
X377Y1818D01*
X414Y1818D02*
X472Y1818D01*
X514Y1818D02*
X572Y1818D01*
X614Y1818D02*
X672Y1818D01*
X1109Y1818D02*
X1177Y1818D01*
X1214Y1818D02*
X1272Y1818D01*
X1314Y1818D02*
X1372Y1818D01*
X1414Y1818D02*
X1472Y1818D01*
X1908Y1818D02*
X1977Y1818D01*
X2014Y1818D02*
X2072Y1818D01*
X2114Y1818D02*
X2172Y1818D01*
X2214Y1818D02*
X2272Y1818D01*
X2708Y1818D02*
X2777Y1818D01*
X2814Y1818D02*
X2872Y1818D01*
X2914Y1818D02*
X2972Y1818D01*
X3014Y1818D02*
X3072Y1818D01*
X309Y1817D02*
X377Y1817D01*
X415Y1817D02*
X471Y1817D01*
X515Y1817D02*
X571Y1817D01*
X615Y1817D02*
X671Y1817D01*
X1109Y1817D02*
X1177Y1817D01*
X1215Y1817D02*
X1271Y1817D01*
X1315Y1817D02*
X1371Y1817D01*
X1415Y1817D02*
X1471Y1817D01*
X1908Y1817D02*
X1977Y1817D01*
X2015Y1817D02*
X2071Y1817D01*
X2115Y1817D02*
X2171Y1817D01*
X2215Y1817D02*
X2271Y1817D01*
X2708Y1817D02*
X2777Y1817D01*
X2815Y1817D02*
X2871Y1817D01*
X2915Y1817D02*
X2971Y1817D01*
X3015Y1817D02*
X3071Y1817D01*
X309Y1816D02*
X377Y1816D01*
X416Y1816D02*
X470Y1816D01*
X516Y1816D02*
X570Y1816D01*
X616Y1816D02*
X670Y1816D01*
X1109Y1816D02*
X1177Y1816D01*
X1215Y1816D02*
X1270Y1816D01*
X1315Y1816D02*
X1370Y1816D01*
X1415Y1816D02*
X1470Y1816D01*
X1908Y1816D02*
X1977Y1816D01*
X2015Y1816D02*
X2070Y1816D01*
X2115Y1816D02*
X2170Y1816D01*
X2215Y1816D02*
X2270Y1816D01*
X2708Y1816D02*
X2777Y1816D01*
X2815Y1816D02*
X2870Y1816D01*
X2915Y1816D02*
X2970Y1816D01*
X3015Y1816D02*
X3070Y1816D01*
X309Y1815D02*
X377Y1815D01*
X416Y1815D02*
X469Y1815D01*
X516Y1815D02*
X569Y1815D01*
X616Y1815D02*
X669Y1815D01*
X1109Y1815D02*
X1177Y1815D01*
X1216Y1815D02*
X1269Y1815D01*
X1316Y1815D02*
X1369Y1815D01*
X1416Y1815D02*
X1469Y1815D01*
X1908Y1815D02*
X1977Y1815D01*
X2016Y1815D02*
X2069Y1815D01*
X2116Y1815D02*
X2169Y1815D01*
X2216Y1815D02*
X2269Y1815D01*
X2708Y1815D02*
X2777Y1815D01*
X2816Y1815D02*
X2869Y1815D01*
X2916Y1815D02*
X2969Y1815D01*
X3016Y1815D02*
X3069Y1815D01*
X309Y1814D02*
X377Y1814D01*
X417Y1814D02*
X468Y1814D01*
X517Y1814D02*
X568Y1814D01*
X617Y1814D02*
X668Y1814D01*
X1109Y1814D02*
X1177Y1814D01*
X1217Y1814D02*
X1268Y1814D01*
X1317Y1814D02*
X1368Y1814D01*
X1417Y1814D02*
X1468Y1814D01*
X1908Y1814D02*
X1977Y1814D01*
X2017Y1814D02*
X2068Y1814D01*
X2117Y1814D02*
X2168Y1814D01*
X2217Y1814D02*
X2268Y1814D01*
X2708Y1814D02*
X2777Y1814D01*
X2817Y1814D02*
X2868Y1814D01*
X2917Y1814D02*
X2968Y1814D01*
X3017Y1814D02*
X3068Y1814D01*
X309Y1813D02*
X377Y1813D01*
X418Y1813D02*
X467Y1813D01*
X518Y1813D02*
X567Y1813D01*
X618Y1813D02*
X667Y1813D01*
X1109Y1813D02*
X1177Y1813D01*
X1218Y1813D02*
X1267Y1813D01*
X1318Y1813D02*
X1367Y1813D01*
X1418Y1813D02*
X1467Y1813D01*
X1908Y1813D02*
X1977Y1813D01*
X2018Y1813D02*
X2067Y1813D01*
X2118Y1813D02*
X2167Y1813D01*
X2218Y1813D02*
X2267Y1813D01*
X2708Y1813D02*
X2777Y1813D01*
X2818Y1813D02*
X2867Y1813D01*
X2918Y1813D02*
X2967Y1813D01*
X3018Y1813D02*
X3067Y1813D01*
X309Y1812D02*
X377Y1812D01*
X419Y1812D02*
X466Y1812D01*
X519Y1812D02*
X566Y1812D01*
X619Y1812D02*
X666Y1812D01*
X1109Y1812D02*
X1177Y1812D01*
X1219Y1812D02*
X1266Y1812D01*
X1319Y1812D02*
X1366Y1812D01*
X1419Y1812D02*
X1466Y1812D01*
X1908Y1812D02*
X1977Y1812D01*
X2019Y1812D02*
X2066Y1812D01*
X2119Y1812D02*
X2166Y1812D01*
X2219Y1812D02*
X2266Y1812D01*
X2708Y1812D02*
X2777Y1812D01*
X2819Y1812D02*
X2866Y1812D01*
X2919Y1812D02*
X2966Y1812D01*
X3019Y1812D02*
X3066Y1812D01*
X309Y1811D02*
X377Y1811D01*
X420Y1811D02*
X465Y1811D01*
X521Y1811D02*
X565Y1811D01*
X621Y1811D02*
X665Y1811D01*
X1109Y1811D02*
X1177Y1811D01*
X1220Y1811D02*
X1265Y1811D01*
X1320Y1811D02*
X1365Y1811D01*
X1420Y1811D02*
X1465Y1811D01*
X1908Y1811D02*
X1977Y1811D01*
X2020Y1811D02*
X2065Y1811D01*
X2120Y1811D02*
X2165Y1811D01*
X2220Y1811D02*
X2265Y1811D01*
X2708Y1811D02*
X2777Y1811D01*
X2820Y1811D02*
X2865Y1811D01*
X2920Y1811D02*
X2965Y1811D01*
X3020Y1811D02*
X3065Y1811D01*
X309Y1810D02*
X377Y1810D01*
X422Y1810D02*
X464Y1810D01*
X522Y1810D02*
X564Y1810D01*
X622Y1810D02*
X664Y1810D01*
X1109Y1810D02*
X1177Y1810D01*
X1222Y1810D02*
X1264Y1810D01*
X1322Y1810D02*
X1364Y1810D01*
X1422Y1810D02*
X1464Y1810D01*
X1908Y1810D02*
X1977Y1810D01*
X2022Y1810D02*
X2064Y1810D01*
X2122Y1810D02*
X2164Y1810D01*
X2222Y1810D02*
X2264Y1810D01*
X2708Y1810D02*
X2777Y1810D01*
X2822Y1810D02*
X2864Y1810D01*
X2922Y1810D02*
X2964Y1810D01*
X3022Y1810D02*
X3064Y1810D01*
X309Y1809D02*
X377Y1809D01*
X423Y1809D02*
X462Y1809D01*
X523Y1809D02*
X563Y1809D01*
X623Y1809D02*
X663Y1809D01*
X1109Y1809D02*
X1177Y1809D01*
X1223Y1809D02*
X1262Y1809D01*
X1323Y1809D02*
X1362Y1809D01*
X1423Y1809D02*
X1462Y1809D01*
X1908Y1809D02*
X1977Y1809D01*
X2023Y1809D02*
X2062Y1809D01*
X2123Y1809D02*
X2162Y1809D01*
X2223Y1809D02*
X2262Y1809D01*
X2708Y1809D02*
X2777Y1809D01*
X2823Y1809D02*
X2862Y1809D01*
X2923Y1809D02*
X2962Y1809D01*
X3023Y1809D02*
X3062Y1809D01*
X309Y1808D02*
X377Y1808D01*
X425Y1808D02*
X461Y1808D01*
X525Y1808D02*
X561Y1808D01*
X625Y1808D02*
X661Y1808D01*
X1109Y1808D02*
X1177Y1808D01*
X1225Y1808D02*
X1261Y1808D01*
X1325Y1808D02*
X1361Y1808D01*
X1425Y1808D02*
X1461Y1808D01*
X1908Y1808D02*
X1977Y1808D01*
X2025Y1808D02*
X2061Y1808D01*
X2125Y1808D02*
X2161Y1808D01*
X2225Y1808D02*
X2261Y1808D01*
X2708Y1808D02*
X2777Y1808D01*
X2825Y1808D02*
X2861Y1808D01*
X2925Y1808D02*
X2961Y1808D01*
X3025Y1808D02*
X3061Y1808D01*
X309Y1807D02*
X377Y1807D01*
X427Y1807D02*
X459Y1807D01*
X527Y1807D02*
X559Y1807D01*
X627Y1807D02*
X659Y1807D01*
X1109Y1807D02*
X1177Y1807D01*
X1227Y1807D02*
X1259Y1807D01*
X1327Y1807D02*
X1359Y1807D01*
X1427Y1807D02*
X1459Y1807D01*
X1908Y1807D02*
X1977Y1807D01*
X2026Y1807D02*
X2059Y1807D01*
X2127Y1807D02*
X2159Y1807D01*
X2227Y1807D02*
X2259Y1807D01*
X2708Y1807D02*
X2777Y1807D01*
X2826Y1807D02*
X2859Y1807D01*
X2926Y1807D02*
X2959Y1807D01*
X3026Y1807D02*
X3059Y1807D01*
X309Y1806D02*
X377Y1806D01*
X429Y1806D02*
X457Y1806D01*
X529Y1806D02*
X557Y1806D01*
X629Y1806D02*
X657Y1806D01*
X1109Y1806D02*
X1177Y1806D01*
X1229Y1806D02*
X1257Y1806D01*
X1329Y1806D02*
X1357Y1806D01*
X1429Y1806D02*
X1457Y1806D01*
X1908Y1806D02*
X1977Y1806D01*
X2029Y1806D02*
X2057Y1806D01*
X2129Y1806D02*
X2157Y1806D01*
X2229Y1806D02*
X2257Y1806D01*
X2708Y1806D02*
X2777Y1806D01*
X2829Y1806D02*
X2857Y1806D01*
X2929Y1806D02*
X2957Y1806D01*
X3029Y1806D02*
X3057Y1806D01*
X309Y1805D02*
X377Y1805D01*
X431Y1805D02*
X454Y1805D01*
X531Y1805D02*
X555Y1805D01*
X631Y1805D02*
X655Y1805D01*
X1109Y1805D02*
X1177Y1805D01*
X1231Y1805D02*
X1254Y1805D01*
X1331Y1805D02*
X1354Y1805D01*
X1431Y1805D02*
X1454Y1805D01*
X1908Y1805D02*
X1977Y1805D01*
X2031Y1805D02*
X2054Y1805D01*
X2131Y1805D02*
X2154Y1805D01*
X2231Y1805D02*
X2254Y1805D01*
X2708Y1805D02*
X2777Y1805D01*
X2831Y1805D02*
X2854Y1805D01*
X2931Y1805D02*
X2954Y1805D01*
X3031Y1805D02*
X3054Y1805D01*
X309Y1804D02*
X377Y1804D01*
X434Y1804D02*
X451Y1804D01*
X534Y1804D02*
X551Y1804D01*
X634Y1804D02*
X651Y1804D01*
X1109Y1804D02*
X1177Y1804D01*
X1234Y1804D02*
X1251Y1804D01*
X1334Y1804D02*
X1351Y1804D01*
X1434Y1804D02*
X1451Y1804D01*
X1909Y1804D02*
X1977Y1804D01*
X2034Y1804D02*
X2051Y1804D01*
X2134Y1804D02*
X2151Y1804D01*
X2234Y1804D02*
X2251Y1804D01*
X2709Y1804D02*
X2777Y1804D01*
X2834Y1804D02*
X2851Y1804D01*
X2934Y1804D02*
X2951Y1804D01*
X3034Y1804D02*
X3051Y1804D01*
X439Y1803D02*
X446Y1803D01*
X539Y1803D02*
X546Y1803D01*
X639Y1803D02*
X646Y1803D01*
X1239Y1803D02*
X1246Y1803D01*
X1339Y1803D02*
X1346Y1803D01*
X1439Y1803D02*
X1446Y1803D01*
X2039Y1803D02*
X2046Y1803D01*
X2139Y1803D02*
X2146Y1803D01*
X2239Y1803D02*
X2246Y1803D01*
X2839Y1803D02*
X2846Y1803D01*
X2939Y1803D02*
X2946Y1803D01*
X3039Y1803D02*
X3046Y1803D01*
X335Y862D02*
X346Y862D01*
X435Y862D02*
X446Y862D01*
X535Y862D02*
X546Y862D01*
X635Y862D02*
X646Y862D01*
X735Y862D02*
X746Y862D01*
X1135Y862D02*
X1146Y862D01*
X1235Y862D02*
X1246Y862D01*
X1335Y862D02*
X1346Y862D01*
X1435Y862D02*
X1446Y862D01*
X1534Y862D02*
X1546Y862D01*
X1934Y862D02*
X1946Y862D01*
X2034Y862D02*
X2046Y862D01*
X2134Y862D02*
X2146Y862D01*
X2234Y862D02*
X2246Y862D01*
X2334Y862D02*
X2345Y862D01*
X2734Y862D02*
X2745Y862D01*
X2834Y862D02*
X2845Y862D01*
X2934Y862D02*
X2945Y862D01*
X3034Y862D02*
X3045Y862D01*
X3134Y862D02*
X3145Y862D01*
X206Y861D02*
X274Y861D01*
X330Y861D02*
X350Y861D01*
X430Y861D02*
X450Y861D01*
X530Y861D02*
X550Y861D01*
X630Y861D02*
X650Y861D01*
X730Y861D02*
X750Y861D01*
X1006Y861D02*
X1074Y861D01*
X1130Y861D02*
X1150Y861D01*
X1230Y861D02*
X1250Y861D01*
X1330Y861D02*
X1350Y861D01*
X1430Y861D02*
X1450Y861D01*
X1530Y861D02*
X1550Y861D01*
X1806Y861D02*
X1874Y861D01*
X1930Y861D02*
X1950Y861D01*
X2030Y861D02*
X2050Y861D01*
X2130Y861D02*
X2150Y861D01*
X2230Y861D02*
X2250Y861D01*
X2330Y861D02*
X2350Y861D01*
X2606Y861D02*
X2674Y861D01*
X2730Y861D02*
X2750Y861D01*
X2830Y861D02*
X2850Y861D01*
X2930Y861D02*
X2950Y861D01*
X3030Y861D02*
X3050Y861D01*
X3130Y861D02*
X3150Y861D01*
X206Y860D02*
X274Y860D01*
X328Y860D02*
X353Y860D01*
X428Y860D02*
X453Y860D01*
X528Y860D02*
X553Y860D01*
X628Y860D02*
X653Y860D01*
X728Y860D02*
X753Y860D01*
X1006Y860D02*
X1074Y860D01*
X1127Y860D02*
X1153Y860D01*
X1227Y860D02*
X1253Y860D01*
X1327Y860D02*
X1353Y860D01*
X1427Y860D02*
X1453Y860D01*
X1527Y860D02*
X1553Y860D01*
X1806Y860D02*
X1874Y860D01*
X1927Y860D02*
X1953Y860D01*
X2027Y860D02*
X2053Y860D01*
X2127Y860D02*
X2153Y860D01*
X2227Y860D02*
X2253Y860D01*
X2327Y860D02*
X2353Y860D01*
X2606Y860D02*
X2674Y860D01*
X2727Y860D02*
X2753Y860D01*
X2827Y860D02*
X2852Y860D01*
X2927Y860D02*
X2953Y860D01*
X3027Y860D02*
X3053Y860D01*
X3127Y860D02*
X3152Y860D01*
X206Y859D02*
X274Y859D01*
X325Y859D02*
X355Y859D01*
X425Y859D02*
X455Y859D01*
X525Y859D02*
X555Y859D01*
X625Y859D02*
X655Y859D01*
X725Y859D02*
X755Y859D01*
X1006Y859D02*
X1074Y859D01*
X1125Y859D02*
X1155Y859D01*
X1225Y859D02*
X1255Y859D01*
X1325Y859D02*
X1355Y859D01*
X1425Y859D02*
X1455Y859D01*
X1525Y859D02*
X1555Y859D01*
X1806Y859D02*
X1874Y859D01*
X1925Y859D02*
X1955Y859D01*
X2025Y859D02*
X2055Y859D01*
X2125Y859D02*
X2155Y859D01*
X2225Y859D02*
X2255Y859D01*
X2325Y859D02*
X2355Y859D01*
X2606Y859D02*
X2674Y859D01*
X2725Y859D02*
X2755Y859D01*
X2825Y859D02*
X2855Y859D01*
X2925Y859D02*
X2955Y859D01*
X3025Y859D02*
X3055Y859D01*
X3125Y859D02*
X3155Y859D01*
X206Y858D02*
X274Y858D01*
X323Y858D02*
X357Y858D01*
X423Y858D02*
X457Y858D01*
X523Y858D02*
X557Y858D01*
X623Y858D02*
X657Y858D01*
X723Y858D02*
X757Y858D01*
X1006Y858D02*
X1074Y858D01*
X1123Y858D02*
X1157Y858D01*
X1223Y858D02*
X1257Y858D01*
X1323Y858D02*
X1357Y858D01*
X1423Y858D02*
X1457Y858D01*
X1523Y858D02*
X1557Y858D01*
X1806Y858D02*
X1874Y858D01*
X1923Y858D02*
X1957Y858D01*
X2023Y858D02*
X2057Y858D01*
X2123Y858D02*
X2157Y858D01*
X2223Y858D02*
X2257Y858D01*
X2323Y858D02*
X2357Y858D01*
X2606Y858D02*
X2674Y858D01*
X2723Y858D02*
X2757Y858D01*
X2823Y858D02*
X2857Y858D01*
X2923Y858D02*
X2957Y858D01*
X3023Y858D02*
X3057Y858D01*
X3123Y858D02*
X3157Y858D01*
X206Y857D02*
X274Y857D01*
X322Y857D02*
X359Y857D01*
X422Y857D02*
X459Y857D01*
X522Y857D02*
X559Y857D01*
X622Y857D02*
X659Y857D01*
X721Y857D02*
X759Y857D01*
X1006Y857D02*
X1074Y857D01*
X1121Y857D02*
X1159Y857D01*
X1221Y857D02*
X1259Y857D01*
X1321Y857D02*
X1359Y857D01*
X1421Y857D02*
X1459Y857D01*
X1521Y857D02*
X1559Y857D01*
X1806Y857D02*
X1874Y857D01*
X1921Y857D02*
X1959Y857D01*
X2021Y857D02*
X2059Y857D01*
X2121Y857D02*
X2159Y857D01*
X2221Y857D02*
X2259Y857D01*
X2321Y857D02*
X2359Y857D01*
X2606Y857D02*
X2674Y857D01*
X2721Y857D02*
X2759Y857D01*
X2821Y857D02*
X2859Y857D01*
X2921Y857D02*
X2959Y857D01*
X3021Y857D02*
X3059Y857D01*
X3121Y857D02*
X3159Y857D01*
X206Y856D02*
X274Y856D01*
X320Y856D02*
X360Y856D01*
X420Y856D02*
X460Y856D01*
X520Y856D02*
X560Y856D01*
X620Y856D02*
X660Y856D01*
X720Y856D02*
X760Y856D01*
X1006Y856D02*
X1074Y856D01*
X1120Y856D02*
X1160Y856D01*
X1220Y856D02*
X1260Y856D01*
X1320Y856D02*
X1360Y856D01*
X1420Y856D02*
X1460Y856D01*
X1520Y856D02*
X1560Y856D01*
X1806Y856D02*
X1874Y856D01*
X1920Y856D02*
X1960Y856D01*
X2020Y856D02*
X2060Y856D01*
X2120Y856D02*
X2160Y856D01*
X2220Y856D02*
X2260Y856D01*
X2320Y856D02*
X2360Y856D01*
X2606Y856D02*
X2674Y856D01*
X2720Y856D02*
X2760Y856D01*
X2820Y856D02*
X2860Y856D01*
X2920Y856D02*
X2960Y856D01*
X3020Y856D02*
X3060Y856D01*
X3120Y856D02*
X3160Y856D01*
X206Y855D02*
X274Y855D01*
X319Y855D02*
X362Y855D01*
X419Y855D02*
X462Y855D01*
X519Y855D02*
X562Y855D01*
X619Y855D02*
X662Y855D01*
X719Y855D02*
X762Y855D01*
X1006Y855D02*
X1074Y855D01*
X1119Y855D02*
X1162Y855D01*
X1219Y855D02*
X1262Y855D01*
X1319Y855D02*
X1362Y855D01*
X1419Y855D02*
X1462Y855D01*
X1519Y855D02*
X1562Y855D01*
X1806Y855D02*
X1874Y855D01*
X1919Y855D02*
X1961Y855D01*
X2018Y855D02*
X2061Y855D01*
X2118Y855D02*
X2161Y855D01*
X2219Y855D02*
X2261Y855D01*
X2318Y855D02*
X2361Y855D01*
X2606Y855D02*
X2674Y855D01*
X2718Y855D02*
X2761Y855D01*
X2818Y855D02*
X2861Y855D01*
X2918Y855D02*
X2961Y855D01*
X3018Y855D02*
X3061Y855D01*
X3118Y855D02*
X3161Y855D01*
X206Y854D02*
X274Y854D01*
X317Y854D02*
X363Y854D01*
X417Y854D02*
X463Y854D01*
X517Y854D02*
X563Y854D01*
X617Y854D02*
X663Y854D01*
X717Y854D02*
X763Y854D01*
X1006Y854D02*
X1074Y854D01*
X1117Y854D02*
X1163Y854D01*
X1217Y854D02*
X1263Y854D01*
X1317Y854D02*
X1363Y854D01*
X1417Y854D02*
X1463Y854D01*
X1517Y854D02*
X1563Y854D01*
X1806Y854D02*
X1874Y854D01*
X1917Y854D02*
X1963Y854D01*
X2017Y854D02*
X2063Y854D01*
X2117Y854D02*
X2163Y854D01*
X2217Y854D02*
X2263Y854D01*
X2317Y854D02*
X2363Y854D01*
X2606Y854D02*
X2674Y854D01*
X2717Y854D02*
X2763Y854D01*
X2817Y854D02*
X2863Y854D01*
X2917Y854D02*
X2963Y854D01*
X3017Y854D02*
X3063Y854D01*
X3117Y854D02*
X3163Y854D01*
X206Y853D02*
X274Y853D01*
X316Y853D02*
X364Y853D01*
X416Y853D02*
X464Y853D01*
X516Y853D02*
X564Y853D01*
X616Y853D02*
X664Y853D01*
X716Y853D02*
X764Y853D01*
X1006Y853D02*
X1074Y853D01*
X1116Y853D02*
X1164Y853D01*
X1216Y853D02*
X1264Y853D01*
X1316Y853D02*
X1364Y853D01*
X1416Y853D02*
X1464Y853D01*
X1516Y853D02*
X1564Y853D01*
X1806Y853D02*
X1874Y853D01*
X1916Y853D02*
X1964Y853D01*
X2016Y853D02*
X2064Y853D01*
X2116Y853D02*
X2164Y853D01*
X2216Y853D02*
X2264Y853D01*
X2316Y853D02*
X2364Y853D01*
X2606Y853D02*
X2674Y853D01*
X2716Y853D02*
X2764Y853D01*
X2816Y853D02*
X2864Y853D01*
X2916Y853D02*
X2964Y853D01*
X3016Y853D02*
X3064Y853D01*
X3116Y853D02*
X3164Y853D01*
X206Y852D02*
X274Y852D01*
X315Y852D02*
X365Y852D01*
X415Y852D02*
X465Y852D01*
X515Y852D02*
X565Y852D01*
X615Y852D02*
X665Y852D01*
X715Y852D02*
X765Y852D01*
X1006Y852D02*
X1074Y852D01*
X1115Y852D02*
X1165Y852D01*
X1215Y852D02*
X1265Y852D01*
X1315Y852D02*
X1365Y852D01*
X1415Y852D02*
X1465Y852D01*
X1515Y852D02*
X1565Y852D01*
X1806Y852D02*
X1874Y852D01*
X1915Y852D02*
X1965Y852D01*
X2015Y852D02*
X2065Y852D01*
X2115Y852D02*
X2165Y852D01*
X2215Y852D02*
X2265Y852D01*
X2315Y852D02*
X2365Y852D01*
X2606Y852D02*
X2674Y852D01*
X2715Y852D02*
X2765Y852D01*
X2815Y852D02*
X2865Y852D01*
X2915Y852D02*
X2965Y852D01*
X3015Y852D02*
X3065Y852D01*
X3115Y852D02*
X3165Y852D01*
X206Y851D02*
X274Y851D01*
X314Y851D02*
X366Y851D01*
X414Y851D02*
X466Y851D01*
X514Y851D02*
X566Y851D01*
X614Y851D02*
X666Y851D01*
X714Y851D02*
X766Y851D01*
X1006Y851D02*
X1074Y851D01*
X1114Y851D02*
X1166Y851D01*
X1214Y851D02*
X1266Y851D01*
X1314Y851D02*
X1366Y851D01*
X1414Y851D02*
X1466Y851D01*
X1514Y851D02*
X1566Y851D01*
X1806Y851D02*
X1874Y851D01*
X1914Y851D02*
X1966Y851D01*
X2014Y851D02*
X2066Y851D01*
X2114Y851D02*
X2166Y851D01*
X2214Y851D02*
X2266Y851D01*
X2314Y851D02*
X2366Y851D01*
X2606Y851D02*
X2674Y851D01*
X2714Y851D02*
X2766Y851D01*
X2814Y851D02*
X2866Y851D01*
X2914Y851D02*
X2966Y851D01*
X3014Y851D02*
X3066Y851D01*
X3114Y851D02*
X3166Y851D01*
X206Y850D02*
X274Y850D01*
X313Y850D02*
X367Y850D01*
X413Y850D02*
X467Y850D01*
X513Y850D02*
X567Y850D01*
X613Y850D02*
X667Y850D01*
X713Y850D02*
X767Y850D01*
X1006Y850D02*
X1074Y850D01*
X1113Y850D02*
X1167Y850D01*
X1213Y850D02*
X1267Y850D01*
X1313Y850D02*
X1367Y850D01*
X1413Y850D02*
X1467Y850D01*
X1513Y850D02*
X1567Y850D01*
X1806Y850D02*
X1874Y850D01*
X1913Y850D02*
X1967Y850D01*
X2013Y850D02*
X2067Y850D01*
X2113Y850D02*
X2167Y850D01*
X2213Y850D02*
X2267Y850D01*
X2313Y850D02*
X2367Y850D01*
X2606Y850D02*
X2674Y850D01*
X2713Y850D02*
X2767Y850D01*
X2813Y850D02*
X2867Y850D01*
X2913Y850D02*
X2967Y850D01*
X3013Y850D02*
X3067Y850D01*
X3113Y850D02*
X3167Y850D01*
X206Y849D02*
X274Y849D01*
X313Y849D02*
X368Y849D01*
X412Y849D02*
X468Y849D01*
X512Y849D02*
X568Y849D01*
X612Y849D02*
X668Y849D01*
X712Y849D02*
X768Y849D01*
X1006Y849D02*
X1074Y849D01*
X1112Y849D02*
X1168Y849D01*
X1212Y849D02*
X1268Y849D01*
X1312Y849D02*
X1368Y849D01*
X1412Y849D02*
X1468Y849D01*
X1512Y849D02*
X1568Y849D01*
X1806Y849D02*
X1874Y849D01*
X1912Y849D02*
X1968Y849D01*
X2012Y849D02*
X2068Y849D01*
X2112Y849D02*
X2168Y849D01*
X2212Y849D02*
X2268Y849D01*
X2312Y849D02*
X2368Y849D01*
X2606Y849D02*
X2674Y849D01*
X2712Y849D02*
X2768Y849D01*
X2812Y849D02*
X2868Y849D01*
X2912Y849D02*
X2968Y849D01*
X3012Y849D02*
X3068Y849D01*
X3112Y849D02*
X3168Y849D01*
X206Y848D02*
X274Y848D01*
X312Y848D02*
X368Y848D01*
X412Y848D02*
X468Y848D01*
X512Y848D02*
X568Y848D01*
X612Y848D02*
X668Y848D01*
X712Y848D02*
X768Y848D01*
X1006Y848D02*
X1074Y848D01*
X1112Y848D02*
X1168Y848D01*
X1212Y848D02*
X1268Y848D01*
X1312Y848D02*
X1368Y848D01*
X1412Y848D02*
X1468Y848D01*
X1512Y848D02*
X1568Y848D01*
X1806Y848D02*
X1874Y848D01*
X1912Y848D02*
X1968Y848D01*
X2012Y848D02*
X2068Y848D01*
X2112Y848D02*
X2168Y848D01*
X2212Y848D02*
X2268Y848D01*
X2312Y848D02*
X2368Y848D01*
X2606Y848D02*
X2674Y848D01*
X2712Y848D02*
X2768Y848D01*
X2812Y848D02*
X2868Y848D01*
X2912Y848D02*
X2968Y848D01*
X3012Y848D02*
X3068Y848D01*
X3112Y848D02*
X3168Y848D01*
X206Y847D02*
X274Y847D01*
X311Y847D02*
X369Y847D01*
X411Y847D02*
X469Y847D01*
X511Y847D02*
X569Y847D01*
X611Y847D02*
X669Y847D01*
X711Y847D02*
X769Y847D01*
X1006Y847D02*
X1074Y847D01*
X1111Y847D02*
X1169Y847D01*
X1211Y847D02*
X1269Y847D01*
X1311Y847D02*
X1369Y847D01*
X1411Y847D02*
X1469Y847D01*
X1511Y847D02*
X1569Y847D01*
X1806Y847D02*
X1874Y847D01*
X1911Y847D02*
X1969Y847D01*
X2011Y847D02*
X2069Y847D01*
X2111Y847D02*
X2169Y847D01*
X2211Y847D02*
X2269Y847D01*
X2311Y847D02*
X2369Y847D01*
X2606Y847D02*
X2674Y847D01*
X2711Y847D02*
X2769Y847D01*
X2811Y847D02*
X2869Y847D01*
X2911Y847D02*
X2969Y847D01*
X3011Y847D02*
X3069Y847D01*
X3111Y847D02*
X3169Y847D01*
X206Y846D02*
X274Y846D01*
X310Y846D02*
X370Y846D01*
X410Y846D02*
X470Y846D01*
X510Y846D02*
X570Y846D01*
X610Y846D02*
X670Y846D01*
X710Y846D02*
X770Y846D01*
X1006Y846D02*
X1074Y846D01*
X1110Y846D02*
X1170Y846D01*
X1210Y846D02*
X1270Y846D01*
X1310Y846D02*
X1370Y846D01*
X1410Y846D02*
X1470Y846D01*
X1510Y846D02*
X1570Y846D01*
X1806Y846D02*
X1874Y846D01*
X1910Y846D02*
X1970Y846D01*
X2010Y846D02*
X2070Y846D01*
X2110Y846D02*
X2170Y846D01*
X2210Y846D02*
X2270Y846D01*
X2310Y846D02*
X2370Y846D01*
X2606Y846D02*
X2674Y846D01*
X2710Y846D02*
X2770Y846D01*
X2810Y846D02*
X2870Y846D01*
X2910Y846D02*
X2970Y846D01*
X3010Y846D02*
X3070Y846D01*
X3110Y846D02*
X3170Y846D01*
X206Y845D02*
X274Y845D01*
X310Y845D02*
X370Y845D01*
X410Y845D02*
X470Y845D01*
X510Y845D02*
X570Y845D01*
X610Y845D02*
X670Y845D01*
X710Y845D02*
X770Y845D01*
X1006Y845D02*
X1074Y845D01*
X1110Y845D02*
X1170Y845D01*
X1210Y845D02*
X1270Y845D01*
X1310Y845D02*
X1370Y845D01*
X1410Y845D02*
X1470Y845D01*
X1510Y845D02*
X1570Y845D01*
X1806Y845D02*
X1874Y845D01*
X1910Y845D02*
X1970Y845D01*
X2010Y845D02*
X2070Y845D01*
X2110Y845D02*
X2170Y845D01*
X2210Y845D02*
X2270Y845D01*
X2310Y845D02*
X2370Y845D01*
X2606Y845D02*
X2674Y845D01*
X2710Y845D02*
X2770Y845D01*
X2810Y845D02*
X2870Y845D01*
X2910Y845D02*
X2970Y845D01*
X3010Y845D02*
X3070Y845D01*
X3110Y845D02*
X3170Y845D01*
X206Y844D02*
X274Y844D01*
X309Y844D02*
X371Y844D01*
X409Y844D02*
X471Y844D01*
X509Y844D02*
X571Y844D01*
X609Y844D02*
X671Y844D01*
X709Y844D02*
X771Y844D01*
X1006Y844D02*
X1074Y844D01*
X1109Y844D02*
X1171Y844D01*
X1209Y844D02*
X1271Y844D01*
X1309Y844D02*
X1371Y844D01*
X1409Y844D02*
X1471Y844D01*
X1509Y844D02*
X1571Y844D01*
X1806Y844D02*
X1874Y844D01*
X1909Y844D02*
X1971Y844D01*
X2009Y844D02*
X2071Y844D01*
X2109Y844D02*
X2171Y844D01*
X2209Y844D02*
X2271Y844D01*
X2309Y844D02*
X2371Y844D01*
X2606Y844D02*
X2674Y844D01*
X2709Y844D02*
X2771Y844D01*
X2809Y844D02*
X2871Y844D01*
X2909Y844D02*
X2971Y844D01*
X3009Y844D02*
X3071Y844D01*
X3109Y844D02*
X3171Y844D01*
X206Y843D02*
X274Y843D01*
X309Y843D02*
X371Y843D01*
X409Y843D02*
X471Y843D01*
X509Y843D02*
X571Y843D01*
X609Y843D02*
X671Y843D01*
X709Y843D02*
X771Y843D01*
X1006Y843D02*
X1074Y843D01*
X1109Y843D02*
X1171Y843D01*
X1209Y843D02*
X1271Y843D01*
X1309Y843D02*
X1371Y843D01*
X1409Y843D02*
X1471Y843D01*
X1509Y843D02*
X1571Y843D01*
X1806Y843D02*
X1874Y843D01*
X1909Y843D02*
X1971Y843D01*
X2009Y843D02*
X2071Y843D01*
X2109Y843D02*
X2171Y843D01*
X2209Y843D02*
X2271Y843D01*
X2309Y843D02*
X2371Y843D01*
X2606Y843D02*
X2674Y843D01*
X2709Y843D02*
X2771Y843D01*
X2809Y843D02*
X2871Y843D01*
X2909Y843D02*
X2971Y843D01*
X3009Y843D02*
X3071Y843D01*
X3109Y843D02*
X3171Y843D01*
X206Y842D02*
X274Y842D01*
X308Y842D02*
X372Y842D01*
X408Y842D02*
X472Y842D01*
X508Y842D02*
X572Y842D01*
X608Y842D02*
X672Y842D01*
X708Y842D02*
X772Y842D01*
X1006Y842D02*
X1074Y842D01*
X1108Y842D02*
X1172Y842D01*
X1208Y842D02*
X1272Y842D01*
X1308Y842D02*
X1372Y842D01*
X1408Y842D02*
X1472Y842D01*
X1508Y842D02*
X1572Y842D01*
X1806Y842D02*
X1874Y842D01*
X1908Y842D02*
X1972Y842D01*
X2008Y842D02*
X2072Y842D01*
X2108Y842D02*
X2172Y842D01*
X2208Y842D02*
X2272Y842D01*
X2308Y842D02*
X2372Y842D01*
X2606Y842D02*
X2674Y842D01*
X2708Y842D02*
X2772Y842D01*
X2808Y842D02*
X2872Y842D01*
X2908Y842D02*
X2972Y842D01*
X3008Y842D02*
X3072Y842D01*
X3108Y842D02*
X3172Y842D01*
X206Y841D02*
X274Y841D01*
X308Y841D02*
X372Y841D01*
X408Y841D02*
X472Y841D01*
X508Y841D02*
X572Y841D01*
X608Y841D02*
X672Y841D01*
X708Y841D02*
X772Y841D01*
X1006Y841D02*
X1074Y841D01*
X1108Y841D02*
X1172Y841D01*
X1208Y841D02*
X1272Y841D01*
X1308Y841D02*
X1372Y841D01*
X1408Y841D02*
X1472Y841D01*
X1508Y841D02*
X1572Y841D01*
X1806Y841D02*
X1874Y841D01*
X1908Y841D02*
X1972Y841D01*
X2008Y841D02*
X2072Y841D01*
X2108Y841D02*
X2172Y841D01*
X2208Y841D02*
X2272Y841D01*
X2308Y841D02*
X2372Y841D01*
X2606Y841D02*
X2674Y841D01*
X2708Y841D02*
X2772Y841D01*
X2808Y841D02*
X2872Y841D01*
X2908Y841D02*
X2972Y841D01*
X3008Y841D02*
X3072Y841D01*
X3108Y841D02*
X3172Y841D01*
X206Y840D02*
X238Y840D01*
X242Y840D02*
X274Y840D01*
X307Y840D02*
X338Y840D01*
X342Y840D02*
X373Y840D01*
X407Y840D02*
X438Y840D01*
X442Y840D02*
X473Y840D01*
X507Y840D02*
X538Y840D01*
X542Y840D02*
X573Y840D01*
X607Y840D02*
X638Y840D01*
X642Y840D02*
X673Y840D01*
X707Y840D02*
X738Y840D01*
X742Y840D02*
X773Y840D01*
X1006Y840D02*
X1038Y840D01*
X1042Y840D02*
X1074Y840D01*
X1107Y840D02*
X1138Y840D01*
X1142Y840D02*
X1173Y840D01*
X1207Y840D02*
X1238Y840D01*
X1242Y840D02*
X1273Y840D01*
X1307Y840D02*
X1338Y840D01*
X1342Y840D02*
X1373Y840D01*
X1407Y840D02*
X1438Y840D01*
X1442Y840D02*
X1473Y840D01*
X1507Y840D02*
X1538Y840D01*
X1542Y840D02*
X1573Y840D01*
X1806Y840D02*
X1838Y840D01*
X1842Y840D02*
X1874Y840D01*
X1907Y840D02*
X1938Y840D01*
X1942Y840D02*
X1973Y840D01*
X2007Y840D02*
X2038Y840D01*
X2042Y840D02*
X2073Y840D01*
X2107Y840D02*
X2138Y840D01*
X2142Y840D02*
X2173Y840D01*
X2207Y840D02*
X2238Y840D01*
X2242Y840D02*
X2273Y840D01*
X2307Y840D02*
X2338Y840D01*
X2342Y840D02*
X2373Y840D01*
X2606Y840D02*
X2638Y840D01*
X2642Y840D02*
X2674Y840D01*
X2707Y840D02*
X2738Y840D01*
X2742Y840D02*
X2773Y840D01*
X2807Y840D02*
X2838Y840D01*
X2842Y840D02*
X2873Y840D01*
X2907Y840D02*
X2938Y840D01*
X2942Y840D02*
X2973Y840D01*
X3007Y840D02*
X3038Y840D01*
X3042Y840D02*
X3073Y840D01*
X3107Y840D02*
X3138Y840D01*
X3142Y840D02*
X3173Y840D01*
X206Y839D02*
X234Y839D01*
X246Y839D02*
X274Y839D01*
X307Y839D02*
X334Y839D01*
X346Y839D02*
X373Y839D01*
X407Y839D02*
X434Y839D01*
X446Y839D02*
X473Y839D01*
X507Y839D02*
X534Y839D01*
X546Y839D02*
X573Y839D01*
X607Y839D02*
X634Y839D01*
X646Y839D02*
X673Y839D01*
X707Y839D02*
X734Y839D01*
X746Y839D02*
X773Y839D01*
X1006Y839D02*
X1034Y839D01*
X1046Y839D02*
X1074Y839D01*
X1107Y839D02*
X1134Y839D01*
X1146Y839D02*
X1173Y839D01*
X1207Y839D02*
X1234Y839D01*
X1246Y839D02*
X1273Y839D01*
X1307Y839D02*
X1334Y839D01*
X1346Y839D02*
X1373Y839D01*
X1407Y839D02*
X1434Y839D01*
X1446Y839D02*
X1473Y839D01*
X1507Y839D02*
X1534Y839D01*
X1546Y839D02*
X1573Y839D01*
X1806Y839D02*
X1834Y839D01*
X1846Y839D02*
X1874Y839D01*
X1907Y839D02*
X1934Y839D01*
X1946Y839D02*
X1973Y839D01*
X2007Y839D02*
X2034Y839D01*
X2046Y839D02*
X2073Y839D01*
X2107Y839D02*
X2134Y839D01*
X2146Y839D02*
X2173Y839D01*
X2207Y839D02*
X2234Y839D01*
X2246Y839D02*
X2273Y839D01*
X2307Y839D02*
X2334Y839D01*
X2346Y839D02*
X2373Y839D01*
X2606Y839D02*
X2634Y839D01*
X2646Y839D02*
X2674Y839D01*
X2707Y839D02*
X2734Y839D01*
X2746Y839D02*
X2773Y839D01*
X2807Y839D02*
X2834Y839D01*
X2846Y839D02*
X2873Y839D01*
X2907Y839D02*
X2934Y839D01*
X2946Y839D02*
X2973Y839D01*
X3007Y839D02*
X3034Y839D01*
X3046Y839D02*
X3073Y839D01*
X3107Y839D02*
X3134Y839D01*
X3146Y839D02*
X3173Y839D01*
X206Y838D02*
X232Y838D01*
X248Y838D02*
X274Y838D01*
X307Y838D02*
X332Y838D01*
X348Y838D02*
X374Y838D01*
X407Y838D02*
X432Y838D01*
X448Y838D02*
X474Y838D01*
X507Y838D02*
X532Y838D01*
X548Y838D02*
X574Y838D01*
X607Y838D02*
X632Y838D01*
X648Y838D02*
X674Y838D01*
X707Y838D02*
X732Y838D01*
X748Y838D02*
X774Y838D01*
X1006Y838D02*
X1032Y838D01*
X1048Y838D02*
X1074Y838D01*
X1107Y838D02*
X1132Y838D01*
X1148Y838D02*
X1174Y838D01*
X1207Y838D02*
X1232Y838D01*
X1248Y838D02*
X1274Y838D01*
X1307Y838D02*
X1332Y838D01*
X1348Y838D02*
X1374Y838D01*
X1407Y838D02*
X1432Y838D01*
X1448Y838D02*
X1474Y838D01*
X1507Y838D02*
X1532Y838D01*
X1548Y838D02*
X1574Y838D01*
X1806Y838D02*
X1832Y838D01*
X1848Y838D02*
X1874Y838D01*
X1907Y838D02*
X1932Y838D01*
X1948Y838D02*
X1974Y838D01*
X2006Y838D02*
X2032Y838D01*
X2048Y838D02*
X2073Y838D01*
X2106Y838D02*
X2132Y838D01*
X2148Y838D02*
X2173Y838D01*
X2206Y838D02*
X2232Y838D01*
X2248Y838D02*
X2273Y838D01*
X2306Y838D02*
X2332Y838D01*
X2348Y838D02*
X2373Y838D01*
X2606Y838D02*
X2632Y838D01*
X2648Y838D02*
X2674Y838D01*
X2706Y838D02*
X2732Y838D01*
X2748Y838D02*
X2773Y838D01*
X2806Y838D02*
X2832Y838D01*
X2848Y838D02*
X2873Y838D01*
X2906Y838D02*
X2932Y838D01*
X2948Y838D02*
X2973Y838D01*
X3006Y838D02*
X3032Y838D01*
X3048Y838D02*
X3073Y838D01*
X3106Y838D02*
X3132Y838D01*
X3148Y838D02*
X3173Y838D01*
X206Y837D02*
X231Y837D01*
X249Y837D02*
X274Y837D01*
X306Y837D02*
X331Y837D01*
X349Y837D02*
X374Y837D01*
X406Y837D02*
X431Y837D01*
X449Y837D02*
X474Y837D01*
X506Y837D02*
X531Y837D01*
X549Y837D02*
X574Y837D01*
X606Y837D02*
X631Y837D01*
X649Y837D02*
X674Y837D01*
X706Y837D02*
X731Y837D01*
X749Y837D02*
X774Y837D01*
X1006Y837D02*
X1031Y837D01*
X1049Y837D02*
X1074Y837D01*
X1106Y837D02*
X1131Y837D01*
X1149Y837D02*
X1174Y837D01*
X1206Y837D02*
X1231Y837D01*
X1249Y837D02*
X1274Y837D01*
X1306Y837D02*
X1331Y837D01*
X1349Y837D02*
X1374Y837D01*
X1406Y837D02*
X1431Y837D01*
X1449Y837D02*
X1474Y837D01*
X1506Y837D02*
X1531Y837D01*
X1549Y837D02*
X1574Y837D01*
X1806Y837D02*
X1831Y837D01*
X1849Y837D02*
X1874Y837D01*
X1906Y837D02*
X1931Y837D01*
X1949Y837D02*
X1974Y837D01*
X2006Y837D02*
X2031Y837D01*
X2049Y837D02*
X2074Y837D01*
X2106Y837D02*
X2131Y837D01*
X2149Y837D02*
X2174Y837D01*
X2206Y837D02*
X2231Y837D01*
X2249Y837D02*
X2274Y837D01*
X2306Y837D02*
X2331Y837D01*
X2349Y837D02*
X2374Y837D01*
X2606Y837D02*
X2631Y837D01*
X2649Y837D02*
X2674Y837D01*
X2706Y837D02*
X2731Y837D01*
X2749Y837D02*
X2774Y837D01*
X2806Y837D02*
X2831Y837D01*
X2849Y837D02*
X2874Y837D01*
X2906Y837D02*
X2931Y837D01*
X2949Y837D02*
X2974Y837D01*
X3006Y837D02*
X3031Y837D01*
X3049Y837D02*
X3074Y837D01*
X3106Y837D02*
X3131Y837D01*
X3149Y837D02*
X3174Y837D01*
X206Y836D02*
X230Y836D01*
X250Y836D02*
X274Y836D01*
X306Y836D02*
X330Y836D01*
X350Y836D02*
X374Y836D01*
X406Y836D02*
X430Y836D01*
X450Y836D02*
X474Y836D01*
X506Y836D02*
X530Y836D01*
X550Y836D02*
X574Y836D01*
X606Y836D02*
X630Y836D01*
X650Y836D02*
X674Y836D01*
X706Y836D02*
X730Y836D01*
X750Y836D02*
X774Y836D01*
X1006Y836D02*
X1030Y836D01*
X1050Y836D02*
X1074Y836D01*
X1106Y836D02*
X1130Y836D01*
X1150Y836D02*
X1174Y836D01*
X1206Y836D02*
X1230Y836D01*
X1250Y836D02*
X1274Y836D01*
X1306Y836D02*
X1330Y836D01*
X1350Y836D02*
X1374Y836D01*
X1406Y836D02*
X1430Y836D01*
X1450Y836D02*
X1474Y836D01*
X1506Y836D02*
X1530Y836D01*
X1550Y836D02*
X1574Y836D01*
X1806Y836D02*
X1830Y836D01*
X1850Y836D02*
X1874Y836D01*
X1906Y836D02*
X1930Y836D01*
X1950Y836D02*
X1974Y836D01*
X2006Y836D02*
X2030Y836D01*
X2050Y836D02*
X2074Y836D01*
X2106Y836D02*
X2130Y836D01*
X2150Y836D02*
X2174Y836D01*
X2206Y836D02*
X2230Y836D01*
X2250Y836D02*
X2274Y836D01*
X2306Y836D02*
X2330Y836D01*
X2350Y836D02*
X2374Y836D01*
X2606Y836D02*
X2630Y836D01*
X2650Y836D02*
X2674Y836D01*
X2706Y836D02*
X2730Y836D01*
X2750Y836D02*
X2774Y836D01*
X2806Y836D02*
X2830Y836D01*
X2850Y836D02*
X2874Y836D01*
X2906Y836D02*
X2930Y836D01*
X2950Y836D02*
X2974Y836D01*
X3006Y836D02*
X3030Y836D01*
X3050Y836D02*
X3074Y836D01*
X3106Y836D02*
X3130Y836D01*
X3150Y836D02*
X3174Y836D01*
X206Y835D02*
X229Y835D01*
X251Y835D02*
X274Y835D01*
X306Y835D02*
X329Y835D01*
X351Y835D02*
X374Y835D01*
X406Y835D02*
X429Y835D01*
X451Y835D02*
X474Y835D01*
X506Y835D02*
X529Y835D01*
X551Y835D02*
X574Y835D01*
X606Y835D02*
X629Y835D01*
X651Y835D02*
X674Y835D01*
X706Y835D02*
X729Y835D01*
X751Y835D02*
X774Y835D01*
X1006Y835D02*
X1029Y835D01*
X1051Y835D02*
X1074Y835D01*
X1106Y835D02*
X1129Y835D01*
X1151Y835D02*
X1174Y835D01*
X1206Y835D02*
X1229Y835D01*
X1251Y835D02*
X1274Y835D01*
X1306Y835D02*
X1329Y835D01*
X1351Y835D02*
X1374Y835D01*
X1406Y835D02*
X1429Y835D01*
X1451Y835D02*
X1474Y835D01*
X1506Y835D02*
X1529Y835D01*
X1551Y835D02*
X1574Y835D01*
X1806Y835D02*
X1829Y835D01*
X1851Y835D02*
X1874Y835D01*
X1906Y835D02*
X1929Y835D01*
X1951Y835D02*
X1974Y835D01*
X2006Y835D02*
X2029Y835D01*
X2051Y835D02*
X2074Y835D01*
X2106Y835D02*
X2129Y835D01*
X2151Y835D02*
X2174Y835D01*
X2206Y835D02*
X2229Y835D01*
X2251Y835D02*
X2274Y835D01*
X2306Y835D02*
X2329Y835D01*
X2351Y835D02*
X2374Y835D01*
X2606Y835D02*
X2629Y835D01*
X2651Y835D02*
X2674Y835D01*
X2706Y835D02*
X2729Y835D01*
X2751Y835D02*
X2774Y835D01*
X2806Y835D02*
X2829Y835D01*
X2851Y835D02*
X2874Y835D01*
X2906Y835D02*
X2929Y835D01*
X2951Y835D02*
X2974Y835D01*
X3006Y835D02*
X3029Y835D01*
X3051Y835D02*
X3074Y835D01*
X3106Y835D02*
X3129Y835D01*
X3151Y835D02*
X3174Y835D01*
X206Y834D02*
X228Y834D01*
X252Y834D02*
X274Y834D01*
X305Y834D02*
X328Y834D01*
X352Y834D02*
X375Y834D01*
X405Y834D02*
X428Y834D01*
X452Y834D02*
X475Y834D01*
X505Y834D02*
X528Y834D01*
X552Y834D02*
X575Y834D01*
X605Y834D02*
X628Y834D01*
X652Y834D02*
X675Y834D01*
X705Y834D02*
X728Y834D01*
X752Y834D02*
X775Y834D01*
X1006Y834D02*
X1028Y834D01*
X1052Y834D02*
X1074Y834D01*
X1105Y834D02*
X1128Y834D01*
X1152Y834D02*
X1175Y834D01*
X1205Y834D02*
X1228Y834D01*
X1252Y834D02*
X1275Y834D01*
X1305Y834D02*
X1328Y834D01*
X1352Y834D02*
X1375Y834D01*
X1405Y834D02*
X1428Y834D01*
X1452Y834D02*
X1475Y834D01*
X1505Y834D02*
X1528Y834D01*
X1552Y834D02*
X1575Y834D01*
X1806Y834D02*
X1828Y834D01*
X1852Y834D02*
X1874Y834D01*
X1905Y834D02*
X1928Y834D01*
X1952Y834D02*
X1975Y834D01*
X2005Y834D02*
X2028Y834D01*
X2052Y834D02*
X2075Y834D01*
X2105Y834D02*
X2128Y834D01*
X2152Y834D02*
X2175Y834D01*
X2205Y834D02*
X2228Y834D01*
X2252Y834D02*
X2275Y834D01*
X2305Y834D02*
X2328Y834D01*
X2352Y834D02*
X2375Y834D01*
X2606Y834D02*
X2628Y834D01*
X2652Y834D02*
X2674Y834D01*
X2705Y834D02*
X2728Y834D01*
X2752Y834D02*
X2775Y834D01*
X2805Y834D02*
X2828Y834D01*
X2852Y834D02*
X2875Y834D01*
X2905Y834D02*
X2928Y834D01*
X2952Y834D02*
X2975Y834D01*
X3005Y834D02*
X3028Y834D01*
X3052Y834D02*
X3075Y834D01*
X3105Y834D02*
X3128Y834D01*
X3152Y834D02*
X3175Y834D01*
X206Y833D02*
X228Y833D01*
X253Y833D02*
X274Y833D01*
X305Y833D02*
X328Y833D01*
X353Y833D02*
X375Y833D01*
X405Y833D02*
X428Y833D01*
X453Y833D02*
X475Y833D01*
X505Y833D02*
X528Y833D01*
X553Y833D02*
X575Y833D01*
X605Y833D02*
X628Y833D01*
X653Y833D02*
X675Y833D01*
X705Y833D02*
X728Y833D01*
X753Y833D02*
X775Y833D01*
X1006Y833D02*
X1028Y833D01*
X1053Y833D02*
X1074Y833D01*
X1105Y833D02*
X1128Y833D01*
X1152Y833D02*
X1175Y833D01*
X1205Y833D02*
X1228Y833D01*
X1252Y833D02*
X1275Y833D01*
X1305Y833D02*
X1328Y833D01*
X1352Y833D02*
X1375Y833D01*
X1405Y833D02*
X1428Y833D01*
X1452Y833D02*
X1475Y833D01*
X1505Y833D02*
X1528Y833D01*
X1552Y833D02*
X1575Y833D01*
X1806Y833D02*
X1828Y833D01*
X1852Y833D02*
X1874Y833D01*
X1905Y833D02*
X1928Y833D01*
X1952Y833D02*
X1975Y833D01*
X2005Y833D02*
X2028Y833D01*
X2052Y833D02*
X2075Y833D01*
X2105Y833D02*
X2128Y833D01*
X2152Y833D02*
X2175Y833D01*
X2205Y833D02*
X2228Y833D01*
X2252Y833D02*
X2275Y833D01*
X2305Y833D02*
X2328Y833D01*
X2352Y833D02*
X2375Y833D01*
X2606Y833D02*
X2628Y833D01*
X2652Y833D02*
X2674Y833D01*
X2705Y833D02*
X2728Y833D01*
X2752Y833D02*
X2775Y833D01*
X2805Y833D02*
X2827Y833D01*
X2852Y833D02*
X2875Y833D01*
X2905Y833D02*
X2928Y833D01*
X2952Y833D02*
X2975Y833D01*
X3005Y833D02*
X3027Y833D01*
X3052Y833D02*
X3075Y833D01*
X3105Y833D02*
X3127Y833D01*
X3152Y833D02*
X3175Y833D01*
X206Y832D02*
X227Y832D01*
X253Y832D02*
X274Y832D01*
X305Y832D02*
X327Y832D01*
X353Y832D02*
X375Y832D01*
X405Y832D02*
X427Y832D01*
X453Y832D02*
X475Y832D01*
X505Y832D02*
X527Y832D01*
X553Y832D02*
X575Y832D01*
X605Y832D02*
X627Y832D01*
X653Y832D02*
X675Y832D01*
X705Y832D02*
X727Y832D01*
X753Y832D02*
X775Y832D01*
X1006Y832D02*
X1027Y832D01*
X1053Y832D02*
X1074Y832D01*
X1105Y832D02*
X1127Y832D01*
X1153Y832D02*
X1175Y832D01*
X1205Y832D02*
X1227Y832D01*
X1253Y832D02*
X1275Y832D01*
X1305Y832D02*
X1327Y832D01*
X1353Y832D02*
X1375Y832D01*
X1405Y832D02*
X1427Y832D01*
X1453Y832D02*
X1475Y832D01*
X1505Y832D02*
X1527Y832D01*
X1553Y832D02*
X1575Y832D01*
X1806Y832D02*
X1827Y832D01*
X1853Y832D02*
X1874Y832D01*
X1905Y832D02*
X1927Y832D01*
X1953Y832D02*
X1975Y832D01*
X2005Y832D02*
X2027Y832D01*
X2053Y832D02*
X2075Y832D01*
X2105Y832D02*
X2127Y832D01*
X2153Y832D02*
X2175Y832D01*
X2205Y832D02*
X2227Y832D01*
X2253Y832D02*
X2275Y832D01*
X2305Y832D02*
X2327Y832D01*
X2353Y832D02*
X2375Y832D01*
X2606Y832D02*
X2627Y832D01*
X2653Y832D02*
X2674Y832D01*
X2705Y832D02*
X2727Y832D01*
X2753Y832D02*
X2775Y832D01*
X2805Y832D02*
X2827Y832D01*
X2853Y832D02*
X2875Y832D01*
X2905Y832D02*
X2927Y832D01*
X2953Y832D02*
X2975Y832D01*
X3005Y832D02*
X3027Y832D01*
X3053Y832D02*
X3075Y832D01*
X3105Y832D02*
X3127Y832D01*
X3153Y832D02*
X3175Y832D01*
X206Y831D02*
X227Y831D01*
X253Y831D02*
X274Y831D01*
X305Y831D02*
X327Y831D01*
X353Y831D02*
X375Y831D01*
X405Y831D02*
X427Y831D01*
X453Y831D02*
X475Y831D01*
X505Y831D02*
X527Y831D01*
X553Y831D02*
X575Y831D01*
X605Y831D02*
X627Y831D01*
X653Y831D02*
X675Y831D01*
X705Y831D02*
X727Y831D01*
X753Y831D02*
X775Y831D01*
X1006Y831D02*
X1027Y831D01*
X1053Y831D02*
X1074Y831D01*
X1105Y831D02*
X1127Y831D01*
X1153Y831D02*
X1175Y831D01*
X1205Y831D02*
X1227Y831D01*
X1253Y831D02*
X1275Y831D01*
X1305Y831D02*
X1327Y831D01*
X1353Y831D02*
X1375Y831D01*
X1405Y831D02*
X1427Y831D01*
X1453Y831D02*
X1475Y831D01*
X1505Y831D02*
X1527Y831D01*
X1553Y831D02*
X1575Y831D01*
X1806Y831D02*
X1827Y831D01*
X1853Y831D02*
X1874Y831D01*
X1905Y831D02*
X1927Y831D01*
X1953Y831D02*
X1975Y831D01*
X2005Y831D02*
X2027Y831D01*
X2053Y831D02*
X2075Y831D01*
X2105Y831D02*
X2127Y831D01*
X2153Y831D02*
X2175Y831D01*
X2205Y831D02*
X2227Y831D01*
X2253Y831D02*
X2275Y831D01*
X2305Y831D02*
X2327Y831D01*
X2353Y831D02*
X2375Y831D01*
X2606Y831D02*
X2627Y831D01*
X2653Y831D02*
X2674Y831D01*
X2705Y831D02*
X2727Y831D01*
X2753Y831D02*
X2775Y831D01*
X2805Y831D02*
X2827Y831D01*
X2853Y831D02*
X2875Y831D01*
X2905Y831D02*
X2927Y831D01*
X2953Y831D02*
X2975Y831D01*
X3005Y831D02*
X3027Y831D01*
X3053Y831D02*
X3075Y831D01*
X3105Y831D02*
X3127Y831D01*
X3153Y831D02*
X3175Y831D01*
X206Y830D02*
X226Y830D01*
X254Y830D02*
X274Y830D01*
X305Y830D02*
X326Y830D01*
X354Y830D02*
X375Y830D01*
X405Y830D02*
X426Y830D01*
X454Y830D02*
X475Y830D01*
X505Y830D02*
X526Y830D01*
X554Y830D02*
X575Y830D01*
X605Y830D02*
X626Y830D01*
X654Y830D02*
X675Y830D01*
X705Y830D02*
X726Y830D01*
X754Y830D02*
X775Y830D01*
X1006Y830D02*
X1026Y830D01*
X1054Y830D02*
X1074Y830D01*
X1105Y830D02*
X1126Y830D01*
X1154Y830D02*
X1175Y830D01*
X1205Y830D02*
X1226Y830D01*
X1254Y830D02*
X1275Y830D01*
X1305Y830D02*
X1326Y830D01*
X1354Y830D02*
X1375Y830D01*
X1405Y830D02*
X1426Y830D01*
X1454Y830D02*
X1475Y830D01*
X1505Y830D02*
X1526Y830D01*
X1554Y830D02*
X1575Y830D01*
X1806Y830D02*
X1826Y830D01*
X1854Y830D02*
X1874Y830D01*
X1905Y830D02*
X1926Y830D01*
X1954Y830D02*
X1975Y830D01*
X2005Y830D02*
X2026Y830D01*
X2054Y830D02*
X2075Y830D01*
X2105Y830D02*
X2126Y830D01*
X2154Y830D02*
X2175Y830D01*
X2205Y830D02*
X2226Y830D01*
X2254Y830D02*
X2275Y830D01*
X2305Y830D02*
X2326Y830D01*
X2354Y830D02*
X2375Y830D01*
X2606Y830D02*
X2626Y830D01*
X2654Y830D02*
X2674Y830D01*
X2705Y830D02*
X2726Y830D01*
X2754Y830D02*
X2775Y830D01*
X2805Y830D02*
X2826Y830D01*
X2854Y830D02*
X2875Y830D01*
X2905Y830D02*
X2926Y830D01*
X2954Y830D02*
X2975Y830D01*
X3005Y830D02*
X3026Y830D01*
X3054Y830D02*
X3075Y830D01*
X3105Y830D02*
X3126Y830D01*
X3154Y830D02*
X3175Y830D01*
X206Y829D02*
X226Y829D01*
X254Y829D02*
X274Y829D01*
X305Y829D02*
X326Y829D01*
X354Y829D02*
X375Y829D01*
X405Y829D02*
X426Y829D01*
X454Y829D02*
X475Y829D01*
X505Y829D02*
X526Y829D01*
X554Y829D02*
X575Y829D01*
X605Y829D02*
X626Y829D01*
X654Y829D02*
X675Y829D01*
X705Y829D02*
X726Y829D01*
X754Y829D02*
X775Y829D01*
X1006Y829D02*
X1026Y829D01*
X1054Y829D02*
X1074Y829D01*
X1105Y829D02*
X1126Y829D01*
X1154Y829D02*
X1175Y829D01*
X1205Y829D02*
X1226Y829D01*
X1254Y829D02*
X1275Y829D01*
X1305Y829D02*
X1326Y829D01*
X1354Y829D02*
X1375Y829D01*
X1405Y829D02*
X1426Y829D01*
X1454Y829D02*
X1475Y829D01*
X1505Y829D02*
X1526Y829D01*
X1554Y829D02*
X1575Y829D01*
X1806Y829D02*
X1826Y829D01*
X1854Y829D02*
X1874Y829D01*
X1905Y829D02*
X1926Y829D01*
X1954Y829D02*
X1975Y829D01*
X2005Y829D02*
X2026Y829D01*
X2054Y829D02*
X2075Y829D01*
X2105Y829D02*
X2126Y829D01*
X2154Y829D02*
X2175Y829D01*
X2205Y829D02*
X2226Y829D01*
X2254Y829D02*
X2275Y829D01*
X2305Y829D02*
X2326Y829D01*
X2354Y829D02*
X2375Y829D01*
X2606Y829D02*
X2626Y829D01*
X2654Y829D02*
X2674Y829D01*
X2705Y829D02*
X2726Y829D01*
X2754Y829D02*
X2775Y829D01*
X2805Y829D02*
X2826Y829D01*
X2854Y829D02*
X2875Y829D01*
X2905Y829D02*
X2926Y829D01*
X2954Y829D02*
X2975Y829D01*
X3005Y829D02*
X3026Y829D01*
X3054Y829D02*
X3075Y829D01*
X3105Y829D02*
X3126Y829D01*
X3154Y829D02*
X3175Y829D01*
X206Y828D02*
X226Y828D01*
X254Y828D02*
X274Y828D01*
X305Y828D02*
X326Y828D01*
X354Y828D02*
X375Y828D01*
X405Y828D02*
X426Y828D01*
X454Y828D02*
X475Y828D01*
X505Y828D02*
X526Y828D01*
X554Y828D02*
X575Y828D01*
X605Y828D02*
X626Y828D01*
X654Y828D02*
X675Y828D01*
X705Y828D02*
X726Y828D01*
X754Y828D02*
X775Y828D01*
X1006Y828D02*
X1026Y828D01*
X1054Y828D02*
X1074Y828D01*
X1105Y828D02*
X1126Y828D01*
X1154Y828D02*
X1175Y828D01*
X1205Y828D02*
X1226Y828D01*
X1254Y828D02*
X1275Y828D01*
X1305Y828D02*
X1326Y828D01*
X1354Y828D02*
X1375Y828D01*
X1405Y828D02*
X1426Y828D01*
X1454Y828D02*
X1475Y828D01*
X1505Y828D02*
X1526Y828D01*
X1554Y828D02*
X1575Y828D01*
X1806Y828D02*
X1826Y828D01*
X1854Y828D02*
X1874Y828D01*
X1905Y828D02*
X1926Y828D01*
X1954Y828D02*
X1975Y828D01*
X2005Y828D02*
X2026Y828D01*
X2054Y828D02*
X2075Y828D01*
X2105Y828D02*
X2126Y828D01*
X2154Y828D02*
X2175Y828D01*
X2205Y828D02*
X2226Y828D01*
X2254Y828D02*
X2275Y828D01*
X2305Y828D02*
X2326Y828D01*
X2354Y828D02*
X2375Y828D01*
X2606Y828D02*
X2626Y828D01*
X2654Y828D02*
X2674Y828D01*
X2705Y828D02*
X2726Y828D01*
X2754Y828D02*
X2775Y828D01*
X2805Y828D02*
X2826Y828D01*
X2854Y828D02*
X2875Y828D01*
X2905Y828D02*
X2926Y828D01*
X2954Y828D02*
X2975Y828D01*
X3005Y828D02*
X3026Y828D01*
X3054Y828D02*
X3075Y828D01*
X3105Y828D02*
X3126Y828D01*
X3154Y828D02*
X3175Y828D01*
X206Y827D02*
X226Y827D01*
X254Y827D02*
X274Y827D01*
X305Y827D02*
X326Y827D01*
X354Y827D02*
X376Y827D01*
X405Y827D02*
X426Y827D01*
X454Y827D02*
X476Y827D01*
X505Y827D02*
X526Y827D01*
X554Y827D02*
X576Y827D01*
X605Y827D02*
X626Y827D01*
X654Y827D02*
X676Y827D01*
X705Y827D02*
X726Y827D01*
X754Y827D02*
X775Y827D01*
X1006Y827D02*
X1026Y827D01*
X1054Y827D02*
X1074Y827D01*
X1105Y827D02*
X1126Y827D01*
X1154Y827D02*
X1175Y827D01*
X1205Y827D02*
X1226Y827D01*
X1254Y827D02*
X1275Y827D01*
X1305Y827D02*
X1326Y827D01*
X1354Y827D02*
X1375Y827D01*
X1405Y827D02*
X1426Y827D01*
X1454Y827D02*
X1475Y827D01*
X1505Y827D02*
X1526Y827D01*
X1554Y827D02*
X1575Y827D01*
X1806Y827D02*
X1826Y827D01*
X1854Y827D02*
X1874Y827D01*
X1905Y827D02*
X1926Y827D01*
X1954Y827D02*
X1975Y827D01*
X2005Y827D02*
X2026Y827D01*
X2054Y827D02*
X2075Y827D01*
X2105Y827D02*
X2126Y827D01*
X2154Y827D02*
X2175Y827D01*
X2205Y827D02*
X2226Y827D01*
X2254Y827D02*
X2275Y827D01*
X2305Y827D02*
X2326Y827D01*
X2354Y827D02*
X2375Y827D01*
X2606Y827D02*
X2626Y827D01*
X2654Y827D02*
X2674Y827D01*
X2705Y827D02*
X2726Y827D01*
X2754Y827D02*
X2775Y827D01*
X2804Y827D02*
X2826Y827D01*
X2854Y827D02*
X2875Y827D01*
X2904Y827D02*
X2926Y827D01*
X2954Y827D02*
X2975Y827D01*
X3005Y827D02*
X3026Y827D01*
X3054Y827D02*
X3075Y827D01*
X3104Y827D02*
X3126Y827D01*
X3154Y827D02*
X3175Y827D01*
X206Y826D02*
X226Y826D01*
X254Y826D02*
X274Y826D01*
X305Y826D02*
X326Y826D01*
X354Y826D02*
X376Y826D01*
X405Y826D02*
X426Y826D01*
X454Y826D02*
X475Y826D01*
X505Y826D02*
X526Y826D01*
X554Y826D02*
X576Y826D01*
X605Y826D02*
X626Y826D01*
X654Y826D02*
X676Y826D01*
X705Y826D02*
X726Y826D01*
X754Y826D02*
X775Y826D01*
X1006Y826D02*
X1026Y826D01*
X1054Y826D02*
X1074Y826D01*
X1105Y826D02*
X1126Y826D01*
X1154Y826D02*
X1175Y826D01*
X1205Y826D02*
X1226Y826D01*
X1254Y826D02*
X1275Y826D01*
X1305Y826D02*
X1326Y826D01*
X1354Y826D02*
X1375Y826D01*
X1405Y826D02*
X1426Y826D01*
X1454Y826D02*
X1475Y826D01*
X1505Y826D02*
X1526Y826D01*
X1554Y826D02*
X1575Y826D01*
X1806Y826D02*
X1826Y826D01*
X1854Y826D02*
X1874Y826D01*
X1905Y826D02*
X1926Y826D01*
X1954Y826D02*
X1975Y826D01*
X2005Y826D02*
X2026Y826D01*
X2054Y826D02*
X2075Y826D01*
X2105Y826D02*
X2126Y826D01*
X2154Y826D02*
X2175Y826D01*
X2205Y826D02*
X2226Y826D01*
X2254Y826D02*
X2275Y826D01*
X2305Y826D02*
X2326Y826D01*
X2354Y826D02*
X2375Y826D01*
X2606Y826D02*
X2626Y826D01*
X2654Y826D02*
X2674Y826D01*
X2705Y826D02*
X2726Y826D01*
X2754Y826D02*
X2775Y826D01*
X2805Y826D02*
X2826Y826D01*
X2854Y826D02*
X2875Y826D01*
X2905Y826D02*
X2926Y826D01*
X2954Y826D02*
X2975Y826D01*
X3005Y826D02*
X3026Y826D01*
X3054Y826D02*
X3075Y826D01*
X3104Y826D02*
X3126Y826D01*
X3154Y826D02*
X3175Y826D01*
X206Y825D02*
X226Y825D01*
X254Y825D02*
X274Y825D01*
X305Y825D02*
X326Y825D01*
X354Y825D02*
X375Y825D01*
X405Y825D02*
X426Y825D01*
X454Y825D02*
X475Y825D01*
X505Y825D02*
X526Y825D01*
X554Y825D02*
X575Y825D01*
X605Y825D02*
X626Y825D01*
X654Y825D02*
X675Y825D01*
X705Y825D02*
X726Y825D01*
X754Y825D02*
X775Y825D01*
X1006Y825D02*
X1026Y825D01*
X1054Y825D02*
X1074Y825D01*
X1105Y825D02*
X1126Y825D01*
X1154Y825D02*
X1175Y825D01*
X1205Y825D02*
X1226Y825D01*
X1254Y825D02*
X1275Y825D01*
X1305Y825D02*
X1326Y825D01*
X1354Y825D02*
X1375Y825D01*
X1405Y825D02*
X1426Y825D01*
X1454Y825D02*
X1475Y825D01*
X1505Y825D02*
X1526Y825D01*
X1554Y825D02*
X1575Y825D01*
X1806Y825D02*
X1826Y825D01*
X1854Y825D02*
X1874Y825D01*
X1905Y825D02*
X1926Y825D01*
X1954Y825D02*
X1975Y825D01*
X2005Y825D02*
X2026Y825D01*
X2054Y825D02*
X2075Y825D01*
X2105Y825D02*
X2126Y825D01*
X2154Y825D02*
X2175Y825D01*
X2205Y825D02*
X2226Y825D01*
X2254Y825D02*
X2275Y825D01*
X2305Y825D02*
X2326Y825D01*
X2354Y825D02*
X2375Y825D01*
X2606Y825D02*
X2626Y825D01*
X2654Y825D02*
X2674Y825D01*
X2705Y825D02*
X2726Y825D01*
X2754Y825D02*
X2775Y825D01*
X2805Y825D02*
X2826Y825D01*
X2854Y825D02*
X2875Y825D01*
X2905Y825D02*
X2926Y825D01*
X2954Y825D02*
X2975Y825D01*
X3005Y825D02*
X3026Y825D01*
X3054Y825D02*
X3075Y825D01*
X3105Y825D02*
X3126Y825D01*
X3154Y825D02*
X3175Y825D01*
X206Y824D02*
X226Y824D01*
X254Y824D02*
X274Y824D01*
X305Y824D02*
X326Y824D01*
X354Y824D02*
X375Y824D01*
X405Y824D02*
X426Y824D01*
X454Y824D02*
X475Y824D01*
X505Y824D02*
X526Y824D01*
X554Y824D02*
X575Y824D01*
X605Y824D02*
X626Y824D01*
X654Y824D02*
X675Y824D01*
X705Y824D02*
X726Y824D01*
X754Y824D02*
X775Y824D01*
X1006Y824D02*
X1026Y824D01*
X1054Y824D02*
X1074Y824D01*
X1105Y824D02*
X1126Y824D01*
X1154Y824D02*
X1175Y824D01*
X1205Y824D02*
X1226Y824D01*
X1254Y824D02*
X1275Y824D01*
X1305Y824D02*
X1326Y824D01*
X1354Y824D02*
X1375Y824D01*
X1405Y824D02*
X1426Y824D01*
X1454Y824D02*
X1475Y824D01*
X1505Y824D02*
X1526Y824D01*
X1554Y824D02*
X1575Y824D01*
X1806Y824D02*
X1826Y824D01*
X1854Y824D02*
X1874Y824D01*
X1905Y824D02*
X1926Y824D01*
X1954Y824D02*
X1975Y824D01*
X2005Y824D02*
X2026Y824D01*
X2054Y824D02*
X2075Y824D01*
X2105Y824D02*
X2126Y824D01*
X2154Y824D02*
X2175Y824D01*
X2205Y824D02*
X2226Y824D01*
X2254Y824D02*
X2275Y824D01*
X2305Y824D02*
X2326Y824D01*
X2354Y824D02*
X2375Y824D01*
X2606Y824D02*
X2626Y824D01*
X2654Y824D02*
X2674Y824D01*
X2705Y824D02*
X2726Y824D01*
X2754Y824D02*
X2775Y824D01*
X2805Y824D02*
X2826Y824D01*
X2854Y824D02*
X2875Y824D01*
X2905Y824D02*
X2926Y824D01*
X2954Y824D02*
X2975Y824D01*
X3005Y824D02*
X3026Y824D01*
X3054Y824D02*
X3075Y824D01*
X3105Y824D02*
X3126Y824D01*
X3154Y824D02*
X3175Y824D01*
X206Y823D02*
X227Y823D01*
X254Y823D02*
X274Y823D01*
X305Y823D02*
X327Y823D01*
X354Y823D02*
X375Y823D01*
X405Y823D02*
X427Y823D01*
X454Y823D02*
X475Y823D01*
X505Y823D02*
X527Y823D01*
X554Y823D02*
X575Y823D01*
X605Y823D02*
X627Y823D01*
X654Y823D02*
X675Y823D01*
X705Y823D02*
X727Y823D01*
X754Y823D02*
X775Y823D01*
X1006Y823D02*
X1027Y823D01*
X1054Y823D02*
X1074Y823D01*
X1105Y823D02*
X1127Y823D01*
X1154Y823D02*
X1175Y823D01*
X1205Y823D02*
X1226Y823D01*
X1254Y823D02*
X1275Y823D01*
X1305Y823D02*
X1327Y823D01*
X1354Y823D02*
X1375Y823D01*
X1405Y823D02*
X1426Y823D01*
X1454Y823D02*
X1475Y823D01*
X1505Y823D02*
X1526Y823D01*
X1554Y823D02*
X1575Y823D01*
X1806Y823D02*
X1826Y823D01*
X1854Y823D02*
X1874Y823D01*
X1905Y823D02*
X1926Y823D01*
X1954Y823D02*
X1975Y823D01*
X2005Y823D02*
X2026Y823D01*
X2054Y823D02*
X2075Y823D01*
X2105Y823D02*
X2126Y823D01*
X2154Y823D02*
X2175Y823D01*
X2205Y823D02*
X2226Y823D01*
X2253Y823D02*
X2275Y823D01*
X2305Y823D02*
X2326Y823D01*
X2354Y823D02*
X2375Y823D01*
X2606Y823D02*
X2626Y823D01*
X2653Y823D02*
X2674Y823D01*
X2705Y823D02*
X2726Y823D01*
X2753Y823D02*
X2775Y823D01*
X2805Y823D02*
X2826Y823D01*
X2853Y823D02*
X2875Y823D01*
X2905Y823D02*
X2926Y823D01*
X2953Y823D02*
X2975Y823D01*
X3005Y823D02*
X3026Y823D01*
X3053Y823D02*
X3075Y823D01*
X3105Y823D02*
X3126Y823D01*
X3153Y823D02*
X3175Y823D01*
X206Y822D02*
X227Y822D01*
X253Y822D02*
X274Y822D01*
X305Y822D02*
X327Y822D01*
X353Y822D02*
X375Y822D01*
X405Y822D02*
X427Y822D01*
X453Y822D02*
X475Y822D01*
X505Y822D02*
X527Y822D01*
X553Y822D02*
X575Y822D01*
X605Y822D02*
X627Y822D01*
X653Y822D02*
X675Y822D01*
X705Y822D02*
X727Y822D01*
X753Y822D02*
X775Y822D01*
X1006Y822D02*
X1027Y822D01*
X1053Y822D02*
X1074Y822D01*
X1105Y822D02*
X1127Y822D01*
X1153Y822D02*
X1175Y822D01*
X1205Y822D02*
X1227Y822D01*
X1253Y822D02*
X1275Y822D01*
X1305Y822D02*
X1327Y822D01*
X1353Y822D02*
X1375Y822D01*
X1405Y822D02*
X1427Y822D01*
X1453Y822D02*
X1475Y822D01*
X1505Y822D02*
X1527Y822D01*
X1553Y822D02*
X1575Y822D01*
X1806Y822D02*
X1827Y822D01*
X1853Y822D02*
X1874Y822D01*
X1905Y822D02*
X1927Y822D01*
X1953Y822D02*
X1975Y822D01*
X2005Y822D02*
X2027Y822D01*
X2053Y822D02*
X2075Y822D01*
X2105Y822D02*
X2127Y822D01*
X2153Y822D02*
X2175Y822D01*
X2205Y822D02*
X2227Y822D01*
X2253Y822D02*
X2275Y822D01*
X2305Y822D02*
X2327Y822D01*
X2353Y822D02*
X2375Y822D01*
X2606Y822D02*
X2627Y822D01*
X2653Y822D02*
X2674Y822D01*
X2705Y822D02*
X2727Y822D01*
X2753Y822D02*
X2775Y822D01*
X2805Y822D02*
X2827Y822D01*
X2853Y822D02*
X2875Y822D01*
X2905Y822D02*
X2927Y822D01*
X2953Y822D02*
X2975Y822D01*
X3005Y822D02*
X3027Y822D01*
X3053Y822D02*
X3075Y822D01*
X3105Y822D02*
X3127Y822D01*
X3153Y822D02*
X3175Y822D01*
X206Y821D02*
X227Y821D01*
X253Y821D02*
X274Y821D01*
X305Y821D02*
X327Y821D01*
X353Y821D02*
X375Y821D01*
X405Y821D02*
X427Y821D01*
X453Y821D02*
X475Y821D01*
X505Y821D02*
X527Y821D01*
X553Y821D02*
X575Y821D01*
X605Y821D02*
X627Y821D01*
X653Y821D02*
X675Y821D01*
X705Y821D02*
X727Y821D01*
X753Y821D02*
X775Y821D01*
X1006Y821D02*
X1027Y821D01*
X1053Y821D02*
X1074Y821D01*
X1105Y821D02*
X1127Y821D01*
X1153Y821D02*
X1175Y821D01*
X1205Y821D02*
X1227Y821D01*
X1253Y821D02*
X1275Y821D01*
X1305Y821D02*
X1327Y821D01*
X1353Y821D02*
X1375Y821D01*
X1405Y821D02*
X1427Y821D01*
X1453Y821D02*
X1475Y821D01*
X1505Y821D02*
X1527Y821D01*
X1553Y821D02*
X1575Y821D01*
X1806Y821D02*
X1827Y821D01*
X1853Y821D02*
X1874Y821D01*
X1905Y821D02*
X1927Y821D01*
X1953Y821D02*
X1975Y821D01*
X2005Y821D02*
X2027Y821D01*
X2053Y821D02*
X2075Y821D01*
X2105Y821D02*
X2127Y821D01*
X2153Y821D02*
X2175Y821D01*
X2205Y821D02*
X2227Y821D01*
X2253Y821D02*
X2275Y821D01*
X2305Y821D02*
X2327Y821D01*
X2353Y821D02*
X2375Y821D01*
X2606Y821D02*
X2627Y821D01*
X2653Y821D02*
X2674Y821D01*
X2705Y821D02*
X2727Y821D01*
X2753Y821D02*
X2775Y821D01*
X2805Y821D02*
X2827Y821D01*
X2853Y821D02*
X2875Y821D01*
X2905Y821D02*
X2927Y821D01*
X2953Y821D02*
X2975Y821D01*
X3005Y821D02*
X3027Y821D01*
X3053Y821D02*
X3075Y821D01*
X3105Y821D02*
X3127Y821D01*
X3153Y821D02*
X3175Y821D01*
X206Y820D02*
X228Y820D01*
X252Y820D02*
X274Y820D01*
X305Y820D02*
X328Y820D01*
X352Y820D02*
X375Y820D01*
X405Y820D02*
X428Y820D01*
X452Y820D02*
X475Y820D01*
X505Y820D02*
X528Y820D01*
X552Y820D02*
X575Y820D01*
X605Y820D02*
X628Y820D01*
X652Y820D02*
X675Y820D01*
X705Y820D02*
X728Y820D01*
X752Y820D02*
X775Y820D01*
X1006Y820D02*
X1028Y820D01*
X1052Y820D02*
X1074Y820D01*
X1105Y820D02*
X1128Y820D01*
X1152Y820D02*
X1175Y820D01*
X1205Y820D02*
X1228Y820D01*
X1252Y820D02*
X1275Y820D01*
X1305Y820D02*
X1328Y820D01*
X1352Y820D02*
X1375Y820D01*
X1405Y820D02*
X1428Y820D01*
X1452Y820D02*
X1475Y820D01*
X1505Y820D02*
X1528Y820D01*
X1552Y820D02*
X1575Y820D01*
X1806Y820D02*
X1828Y820D01*
X1852Y820D02*
X1874Y820D01*
X1905Y820D02*
X1928Y820D01*
X1952Y820D02*
X1975Y820D01*
X2005Y820D02*
X2028Y820D01*
X2052Y820D02*
X2075Y820D01*
X2105Y820D02*
X2128Y820D01*
X2152Y820D02*
X2175Y820D01*
X2205Y820D02*
X2228Y820D01*
X2252Y820D02*
X2275Y820D01*
X2305Y820D02*
X2328Y820D01*
X2352Y820D02*
X2375Y820D01*
X2606Y820D02*
X2628Y820D01*
X2652Y820D02*
X2674Y820D01*
X2705Y820D02*
X2728Y820D01*
X2752Y820D02*
X2775Y820D01*
X2805Y820D02*
X2828Y820D01*
X2852Y820D02*
X2875Y820D01*
X2905Y820D02*
X2928Y820D01*
X2952Y820D02*
X2975Y820D01*
X3005Y820D02*
X3028Y820D01*
X3052Y820D02*
X3075Y820D01*
X3105Y820D02*
X3128Y820D01*
X3152Y820D02*
X3175Y820D01*
X206Y819D02*
X228Y819D01*
X252Y819D02*
X274Y819D01*
X306Y819D02*
X328Y819D01*
X352Y819D02*
X375Y819D01*
X406Y819D02*
X428Y819D01*
X452Y819D02*
X475Y819D01*
X506Y819D02*
X528Y819D01*
X552Y819D02*
X575Y819D01*
X606Y819D02*
X628Y819D01*
X652Y819D02*
X675Y819D01*
X706Y819D02*
X728Y819D01*
X752Y819D02*
X775Y819D01*
X1006Y819D02*
X1028Y819D01*
X1052Y819D02*
X1074Y819D01*
X1105Y819D02*
X1128Y819D01*
X1152Y819D02*
X1175Y819D01*
X1205Y819D02*
X1228Y819D01*
X1252Y819D02*
X1275Y819D01*
X1305Y819D02*
X1328Y819D01*
X1352Y819D02*
X1375Y819D01*
X1405Y819D02*
X1428Y819D01*
X1452Y819D02*
X1475Y819D01*
X1505Y819D02*
X1528Y819D01*
X1552Y819D02*
X1575Y819D01*
X1806Y819D02*
X1828Y819D01*
X1852Y819D02*
X1874Y819D01*
X1905Y819D02*
X1928Y819D01*
X1952Y819D02*
X1975Y819D01*
X2005Y819D02*
X2028Y819D01*
X2052Y819D02*
X2075Y819D01*
X2105Y819D02*
X2128Y819D01*
X2152Y819D02*
X2175Y819D01*
X2205Y819D02*
X2228Y819D01*
X2252Y819D02*
X2275Y819D01*
X2305Y819D02*
X2328Y819D01*
X2352Y819D02*
X2375Y819D01*
X2606Y819D02*
X2628Y819D01*
X2652Y819D02*
X2674Y819D01*
X2705Y819D02*
X2728Y819D01*
X2752Y819D02*
X2775Y819D01*
X2805Y819D02*
X2828Y819D01*
X2852Y819D02*
X2874Y819D01*
X2905Y819D02*
X2928Y819D01*
X2952Y819D02*
X2975Y819D01*
X3005Y819D02*
X3028Y819D01*
X3052Y819D02*
X3074Y819D01*
X3105Y819D02*
X3128Y819D01*
X3152Y819D02*
X3174Y819D01*
X206Y818D02*
X229Y818D01*
X251Y818D02*
X274Y818D01*
X306Y818D02*
X329Y818D01*
X351Y818D02*
X374Y818D01*
X406Y818D02*
X429Y818D01*
X451Y818D02*
X474Y818D01*
X506Y818D02*
X529Y818D01*
X551Y818D02*
X574Y818D01*
X606Y818D02*
X629Y818D01*
X651Y818D02*
X674Y818D01*
X706Y818D02*
X729Y818D01*
X751Y818D02*
X774Y818D01*
X1006Y818D02*
X1029Y818D01*
X1051Y818D02*
X1074Y818D01*
X1106Y818D02*
X1129Y818D01*
X1151Y818D02*
X1174Y818D01*
X1206Y818D02*
X1229Y818D01*
X1251Y818D02*
X1274Y818D01*
X1306Y818D02*
X1329Y818D01*
X1351Y818D02*
X1374Y818D01*
X1406Y818D02*
X1429Y818D01*
X1451Y818D02*
X1474Y818D01*
X1506Y818D02*
X1529Y818D01*
X1551Y818D02*
X1574Y818D01*
X1806Y818D02*
X1829Y818D01*
X1851Y818D02*
X1874Y818D01*
X1906Y818D02*
X1929Y818D01*
X1951Y818D02*
X1974Y818D01*
X2006Y818D02*
X2029Y818D01*
X2051Y818D02*
X2074Y818D01*
X2106Y818D02*
X2129Y818D01*
X2151Y818D02*
X2174Y818D01*
X2206Y818D02*
X2229Y818D01*
X2251Y818D02*
X2274Y818D01*
X2306Y818D02*
X2329Y818D01*
X2351Y818D02*
X2374Y818D01*
X2606Y818D02*
X2629Y818D01*
X2651Y818D02*
X2674Y818D01*
X2706Y818D02*
X2729Y818D01*
X2751Y818D02*
X2774Y818D01*
X2806Y818D02*
X2829Y818D01*
X2851Y818D02*
X2874Y818D01*
X2906Y818D02*
X2929Y818D01*
X2951Y818D02*
X2974Y818D01*
X3006Y818D02*
X3029Y818D01*
X3051Y818D02*
X3074Y818D01*
X3106Y818D02*
X3129Y818D01*
X3151Y818D02*
X3174Y818D01*
X206Y817D02*
X230Y817D01*
X250Y817D02*
X274Y817D01*
X306Y817D02*
X330Y817D01*
X350Y817D02*
X374Y817D01*
X406Y817D02*
X430Y817D01*
X450Y817D02*
X474Y817D01*
X506Y817D02*
X530Y817D01*
X550Y817D02*
X574Y817D01*
X606Y817D02*
X630Y817D01*
X650Y817D02*
X674Y817D01*
X706Y817D02*
X730Y817D01*
X750Y817D02*
X774Y817D01*
X1006Y817D02*
X1030Y817D01*
X1050Y817D02*
X1074Y817D01*
X1106Y817D02*
X1130Y817D01*
X1150Y817D02*
X1174Y817D01*
X1206Y817D02*
X1230Y817D01*
X1250Y817D02*
X1274Y817D01*
X1306Y817D02*
X1330Y817D01*
X1350Y817D02*
X1374Y817D01*
X1406Y817D02*
X1430Y817D01*
X1450Y817D02*
X1474Y817D01*
X1506Y817D02*
X1530Y817D01*
X1550Y817D02*
X1574Y817D01*
X1806Y817D02*
X1830Y817D01*
X1850Y817D02*
X1874Y817D01*
X1906Y817D02*
X1930Y817D01*
X1950Y817D02*
X1974Y817D01*
X2006Y817D02*
X2030Y817D01*
X2050Y817D02*
X2074Y817D01*
X2106Y817D02*
X2130Y817D01*
X2150Y817D02*
X2174Y817D01*
X2206Y817D02*
X2230Y817D01*
X2250Y817D02*
X2274Y817D01*
X2306Y817D02*
X2330Y817D01*
X2350Y817D02*
X2374Y817D01*
X2606Y817D02*
X2630Y817D01*
X2650Y817D02*
X2674Y817D01*
X2706Y817D02*
X2730Y817D01*
X2750Y817D02*
X2774Y817D01*
X2806Y817D02*
X2830Y817D01*
X2850Y817D02*
X2874Y817D01*
X2906Y817D02*
X2930Y817D01*
X2950Y817D02*
X2974Y817D01*
X3006Y817D02*
X3030Y817D01*
X3050Y817D02*
X3074Y817D01*
X3106Y817D02*
X3130Y817D01*
X3150Y817D02*
X3174Y817D01*
X206Y816D02*
X231Y816D01*
X249Y816D02*
X274Y816D01*
X306Y816D02*
X331Y816D01*
X349Y816D02*
X374Y816D01*
X406Y816D02*
X431Y816D01*
X449Y816D02*
X474Y816D01*
X506Y816D02*
X531Y816D01*
X549Y816D02*
X574Y816D01*
X606Y816D02*
X631Y816D01*
X649Y816D02*
X674Y816D01*
X706Y816D02*
X731Y816D01*
X749Y816D02*
X774Y816D01*
X1006Y816D02*
X1031Y816D01*
X1049Y816D02*
X1074Y816D01*
X1106Y816D02*
X1131Y816D01*
X1149Y816D02*
X1174Y816D01*
X1206Y816D02*
X1231Y816D01*
X1249Y816D02*
X1274Y816D01*
X1306Y816D02*
X1331Y816D01*
X1349Y816D02*
X1374Y816D01*
X1406Y816D02*
X1431Y816D01*
X1449Y816D02*
X1474Y816D01*
X1506Y816D02*
X1531Y816D01*
X1549Y816D02*
X1574Y816D01*
X1806Y816D02*
X1831Y816D01*
X1849Y816D02*
X1874Y816D01*
X1906Y816D02*
X1931Y816D01*
X1949Y816D02*
X1974Y816D01*
X2006Y816D02*
X2031Y816D01*
X2049Y816D02*
X2074Y816D01*
X2106Y816D02*
X2131Y816D01*
X2149Y816D02*
X2174Y816D01*
X2206Y816D02*
X2231Y816D01*
X2249Y816D02*
X2274Y816D01*
X2306Y816D02*
X2331Y816D01*
X2349Y816D02*
X2374Y816D01*
X2606Y816D02*
X2631Y816D01*
X2649Y816D02*
X2674Y816D01*
X2706Y816D02*
X2731Y816D01*
X2749Y816D02*
X2774Y816D01*
X2806Y816D02*
X2831Y816D01*
X2849Y816D02*
X2874Y816D01*
X2906Y816D02*
X2931Y816D01*
X2949Y816D02*
X2974Y816D01*
X3006Y816D02*
X3031Y816D01*
X3049Y816D02*
X3074Y816D01*
X3106Y816D02*
X3131Y816D01*
X3149Y816D02*
X3174Y816D01*
X206Y815D02*
X233Y815D01*
X247Y815D02*
X274Y815D01*
X307Y815D02*
X333Y815D01*
X347Y815D02*
X374Y815D01*
X407Y815D02*
X433Y815D01*
X447Y815D02*
X473Y815D01*
X507Y815D02*
X533Y815D01*
X547Y815D02*
X573Y815D01*
X607Y815D02*
X633Y815D01*
X647Y815D02*
X673Y815D01*
X707Y815D02*
X733Y815D01*
X747Y815D02*
X773Y815D01*
X1006Y815D02*
X1033Y815D01*
X1047Y815D02*
X1074Y815D01*
X1107Y815D02*
X1133Y815D01*
X1147Y815D02*
X1173Y815D01*
X1207Y815D02*
X1233Y815D01*
X1247Y815D02*
X1273Y815D01*
X1307Y815D02*
X1333Y815D01*
X1347Y815D02*
X1373Y815D01*
X1407Y815D02*
X1433Y815D01*
X1447Y815D02*
X1473Y815D01*
X1507Y815D02*
X1533Y815D01*
X1547Y815D02*
X1573Y815D01*
X1806Y815D02*
X1833Y815D01*
X1847Y815D02*
X1874Y815D01*
X1907Y815D02*
X1933Y815D01*
X1947Y815D02*
X1973Y815D01*
X2007Y815D02*
X2033Y815D01*
X2047Y815D02*
X2073Y815D01*
X2107Y815D02*
X2133Y815D01*
X2147Y815D02*
X2173Y815D01*
X2207Y815D02*
X2233Y815D01*
X2247Y815D02*
X2273Y815D01*
X2307Y815D02*
X2333Y815D01*
X2347Y815D02*
X2373Y815D01*
X2606Y815D02*
X2633Y815D01*
X2647Y815D02*
X2674Y815D01*
X2707Y815D02*
X2733Y815D01*
X2747Y815D02*
X2773Y815D01*
X2807Y815D02*
X2833Y815D01*
X2847Y815D02*
X2873Y815D01*
X2907Y815D02*
X2933Y815D01*
X2947Y815D02*
X2973Y815D01*
X3007Y815D02*
X3033Y815D01*
X3047Y815D02*
X3073Y815D01*
X3107Y815D02*
X3133Y815D01*
X3147Y815D02*
X3173Y815D01*
X206Y814D02*
X235Y814D01*
X246Y814D02*
X274Y814D01*
X307Y814D02*
X335Y814D01*
X346Y814D02*
X373Y814D01*
X407Y814D02*
X435Y814D01*
X446Y814D02*
X473Y814D01*
X507Y814D02*
X535Y814D01*
X546Y814D02*
X573Y814D01*
X607Y814D02*
X635Y814D01*
X645Y814D02*
X673Y814D01*
X707Y814D02*
X735Y814D01*
X745Y814D02*
X773Y814D01*
X1006Y814D02*
X1035Y814D01*
X1045Y814D02*
X1074Y814D01*
X1107Y814D02*
X1135Y814D01*
X1145Y814D02*
X1173Y814D01*
X1207Y814D02*
X1235Y814D01*
X1245Y814D02*
X1273Y814D01*
X1307Y814D02*
X1335Y814D01*
X1345Y814D02*
X1373Y814D01*
X1407Y814D02*
X1435Y814D01*
X1445Y814D02*
X1473Y814D01*
X1507Y814D02*
X1535Y814D01*
X1545Y814D02*
X1573Y814D01*
X1806Y814D02*
X1835Y814D01*
X1845Y814D02*
X1874Y814D01*
X1907Y814D02*
X1935Y814D01*
X1945Y814D02*
X1973Y814D01*
X2007Y814D02*
X2035Y814D01*
X2045Y814D02*
X2073Y814D01*
X2107Y814D02*
X2135Y814D01*
X2145Y814D02*
X2173Y814D01*
X2207Y814D02*
X2235Y814D01*
X2245Y814D02*
X2273Y814D01*
X2307Y814D02*
X2335Y814D01*
X2345Y814D02*
X2373Y814D01*
X2606Y814D02*
X2635Y814D01*
X2645Y814D02*
X2674Y814D01*
X2707Y814D02*
X2735Y814D01*
X2745Y814D02*
X2773Y814D01*
X2807Y814D02*
X2835Y814D01*
X2845Y814D02*
X2873Y814D01*
X2907Y814D02*
X2935Y814D01*
X2945Y814D02*
X2973Y814D01*
X3007Y814D02*
X3034Y814D01*
X3045Y814D02*
X3073Y814D01*
X3107Y814D02*
X3134Y814D01*
X3145Y814D02*
X3173Y814D01*
X206Y813D02*
X274Y813D01*
X307Y813D02*
X373Y813D01*
X407Y813D02*
X473Y813D01*
X507Y813D02*
X573Y813D01*
X607Y813D02*
X673Y813D01*
X707Y813D02*
X773Y813D01*
X1006Y813D02*
X1074Y813D01*
X1107Y813D02*
X1173Y813D01*
X1207Y813D02*
X1273Y813D01*
X1307Y813D02*
X1373Y813D01*
X1407Y813D02*
X1473Y813D01*
X1507Y813D02*
X1573Y813D01*
X1806Y813D02*
X1874Y813D01*
X1907Y813D02*
X1973Y813D01*
X2007Y813D02*
X2073Y813D01*
X2107Y813D02*
X2173Y813D01*
X2207Y813D02*
X2273Y813D01*
X2307Y813D02*
X2373Y813D01*
X2606Y813D02*
X2674Y813D01*
X2707Y813D02*
X2773Y813D01*
X2807Y813D02*
X2873Y813D01*
X2907Y813D02*
X2973Y813D01*
X3007Y813D02*
X3073Y813D01*
X3107Y813D02*
X3173Y813D01*
X206Y812D02*
X274Y812D01*
X308Y812D02*
X372Y812D01*
X408Y812D02*
X472Y812D01*
X508Y812D02*
X572Y812D01*
X608Y812D02*
X672Y812D01*
X708Y812D02*
X772Y812D01*
X1006Y812D02*
X1074Y812D01*
X1108Y812D02*
X1172Y812D01*
X1208Y812D02*
X1272Y812D01*
X1308Y812D02*
X1372Y812D01*
X1408Y812D02*
X1472Y812D01*
X1508Y812D02*
X1572Y812D01*
X1806Y812D02*
X1874Y812D01*
X1908Y812D02*
X1972Y812D01*
X2008Y812D02*
X2072Y812D01*
X2108Y812D02*
X2172Y812D01*
X2208Y812D02*
X2272Y812D01*
X2308Y812D02*
X2372Y812D01*
X2606Y812D02*
X2674Y812D01*
X2708Y812D02*
X2772Y812D01*
X2808Y812D02*
X2872Y812D01*
X2908Y812D02*
X2972Y812D01*
X3008Y812D02*
X3072Y812D01*
X3108Y812D02*
X3172Y812D01*
X206Y811D02*
X274Y811D01*
X308Y811D02*
X372Y811D01*
X408Y811D02*
X472Y811D01*
X508Y811D02*
X572Y811D01*
X608Y811D02*
X672Y811D01*
X708Y811D02*
X772Y811D01*
X1006Y811D02*
X1074Y811D01*
X1108Y811D02*
X1172Y811D01*
X1208Y811D02*
X1272Y811D01*
X1308Y811D02*
X1372Y811D01*
X1408Y811D02*
X1472Y811D01*
X1508Y811D02*
X1572Y811D01*
X1806Y811D02*
X1874Y811D01*
X1908Y811D02*
X1972Y811D01*
X2008Y811D02*
X2072Y811D01*
X2108Y811D02*
X2172Y811D01*
X2208Y811D02*
X2272Y811D01*
X2308Y811D02*
X2372Y811D01*
X2606Y811D02*
X2674Y811D01*
X2708Y811D02*
X2772Y811D01*
X2808Y811D02*
X2872Y811D01*
X2908Y811D02*
X2972Y811D01*
X3008Y811D02*
X3072Y811D01*
X3108Y811D02*
X3172Y811D01*
X206Y810D02*
X274Y810D01*
X309Y810D02*
X371Y810D01*
X409Y810D02*
X471Y810D01*
X509Y810D02*
X571Y810D01*
X609Y810D02*
X671Y810D01*
X709Y810D02*
X771Y810D01*
X1006Y810D02*
X1074Y810D01*
X1109Y810D02*
X1171Y810D01*
X1209Y810D02*
X1271Y810D01*
X1309Y810D02*
X1371Y810D01*
X1409Y810D02*
X1471Y810D01*
X1509Y810D02*
X1571Y810D01*
X1806Y810D02*
X1874Y810D01*
X1909Y810D02*
X1971Y810D01*
X2009Y810D02*
X2071Y810D01*
X2109Y810D02*
X2171Y810D01*
X2209Y810D02*
X2271Y810D01*
X2309Y810D02*
X2371Y810D01*
X2606Y810D02*
X2674Y810D01*
X2709Y810D02*
X2771Y810D01*
X2809Y810D02*
X2871Y810D01*
X2909Y810D02*
X2971Y810D01*
X3009Y810D02*
X3071Y810D01*
X3109Y810D02*
X3171Y810D01*
X206Y809D02*
X274Y809D01*
X309Y809D02*
X371Y809D01*
X409Y809D02*
X471Y809D01*
X509Y809D02*
X571Y809D01*
X609Y809D02*
X671Y809D01*
X709Y809D02*
X771Y809D01*
X1006Y809D02*
X1074Y809D01*
X1109Y809D02*
X1171Y809D01*
X1209Y809D02*
X1271Y809D01*
X1309Y809D02*
X1371Y809D01*
X1409Y809D02*
X1471Y809D01*
X1509Y809D02*
X1571Y809D01*
X1806Y809D02*
X1874Y809D01*
X1909Y809D02*
X1971Y809D01*
X2009Y809D02*
X2071Y809D01*
X2109Y809D02*
X2171Y809D01*
X2209Y809D02*
X2271Y809D01*
X2309Y809D02*
X2371Y809D01*
X2606Y809D02*
X2674Y809D01*
X2709Y809D02*
X2771Y809D01*
X2809Y809D02*
X2871Y809D01*
X2909Y809D02*
X2971Y809D01*
X3009Y809D02*
X3071Y809D01*
X3109Y809D02*
X3171Y809D01*
X206Y808D02*
X274Y808D01*
X310Y808D02*
X370Y808D01*
X410Y808D02*
X470Y808D01*
X510Y808D02*
X570Y808D01*
X610Y808D02*
X670Y808D01*
X710Y808D02*
X770Y808D01*
X1006Y808D02*
X1074Y808D01*
X1110Y808D02*
X1170Y808D01*
X1210Y808D02*
X1270Y808D01*
X1310Y808D02*
X1370Y808D01*
X1410Y808D02*
X1470Y808D01*
X1510Y808D02*
X1570Y808D01*
X1806Y808D02*
X1874Y808D01*
X1910Y808D02*
X1970Y808D01*
X2010Y808D02*
X2070Y808D01*
X2110Y808D02*
X2170Y808D01*
X2210Y808D02*
X2270Y808D01*
X2310Y808D02*
X2370Y808D01*
X2606Y808D02*
X2674Y808D01*
X2710Y808D02*
X2770Y808D01*
X2810Y808D02*
X2870Y808D01*
X2910Y808D02*
X2970Y808D01*
X3010Y808D02*
X3070Y808D01*
X3110Y808D02*
X3170Y808D01*
X206Y807D02*
X274Y807D01*
X311Y807D02*
X370Y807D01*
X411Y807D02*
X470Y807D01*
X511Y807D02*
X570Y807D01*
X611Y807D02*
X670Y807D01*
X711Y807D02*
X770Y807D01*
X1006Y807D02*
X1074Y807D01*
X1111Y807D02*
X1170Y807D01*
X1211Y807D02*
X1270Y807D01*
X1311Y807D02*
X1370Y807D01*
X1411Y807D02*
X1470Y807D01*
X1510Y807D02*
X1570Y807D01*
X1806Y807D02*
X1874Y807D01*
X1910Y807D02*
X1970Y807D01*
X2010Y807D02*
X2069Y807D01*
X2110Y807D02*
X2170Y807D01*
X2210Y807D02*
X2270Y807D01*
X2310Y807D02*
X2369Y807D01*
X2606Y807D02*
X2674Y807D01*
X2710Y807D02*
X2769Y807D01*
X2810Y807D02*
X2869Y807D01*
X2910Y807D02*
X2969Y807D01*
X3010Y807D02*
X3069Y807D01*
X3110Y807D02*
X3169Y807D01*
X206Y806D02*
X274Y806D01*
X311Y806D02*
X369Y806D01*
X411Y806D02*
X469Y806D01*
X511Y806D02*
X569Y806D01*
X611Y806D02*
X669Y806D01*
X711Y806D02*
X769Y806D01*
X1006Y806D02*
X1074Y806D01*
X1111Y806D02*
X1169Y806D01*
X1211Y806D02*
X1269Y806D01*
X1311Y806D02*
X1369Y806D01*
X1411Y806D02*
X1469Y806D01*
X1511Y806D02*
X1569Y806D01*
X1806Y806D02*
X1874Y806D01*
X1911Y806D02*
X1969Y806D01*
X2011Y806D02*
X2069Y806D01*
X2111Y806D02*
X2169Y806D01*
X2211Y806D02*
X2269Y806D01*
X2311Y806D02*
X2369Y806D01*
X2606Y806D02*
X2674Y806D01*
X2711Y806D02*
X2769Y806D01*
X2811Y806D02*
X2869Y806D01*
X2911Y806D02*
X2969Y806D01*
X3011Y806D02*
X3069Y806D01*
X3111Y806D02*
X3169Y806D01*
X206Y805D02*
X274Y805D01*
X312Y805D02*
X368Y805D01*
X412Y805D02*
X468Y805D01*
X512Y805D02*
X568Y805D01*
X612Y805D02*
X668Y805D01*
X712Y805D02*
X768Y805D01*
X1006Y805D02*
X1074Y805D01*
X1112Y805D02*
X1168Y805D01*
X1212Y805D02*
X1268Y805D01*
X1312Y805D02*
X1368Y805D01*
X1412Y805D02*
X1468Y805D01*
X1512Y805D02*
X1568Y805D01*
X1806Y805D02*
X1874Y805D01*
X1912Y805D02*
X1968Y805D01*
X2012Y805D02*
X2068Y805D01*
X2112Y805D02*
X2168Y805D01*
X2212Y805D02*
X2268Y805D01*
X2312Y805D02*
X2368Y805D01*
X2606Y805D02*
X2674Y805D01*
X2712Y805D02*
X2768Y805D01*
X2812Y805D02*
X2868Y805D01*
X2912Y805D02*
X2968Y805D01*
X3012Y805D02*
X3068Y805D01*
X3112Y805D02*
X3168Y805D01*
X206Y804D02*
X274Y804D01*
X313Y804D02*
X367Y804D01*
X413Y804D02*
X467Y804D01*
X513Y804D02*
X567Y804D01*
X613Y804D02*
X667Y804D01*
X713Y804D02*
X767Y804D01*
X1006Y804D02*
X1074Y804D01*
X1113Y804D02*
X1167Y804D01*
X1213Y804D02*
X1267Y804D01*
X1313Y804D02*
X1367Y804D01*
X1413Y804D02*
X1467Y804D01*
X1513Y804D02*
X1567Y804D01*
X1806Y804D02*
X1874Y804D01*
X1913Y804D02*
X1967Y804D01*
X2013Y804D02*
X2067Y804D01*
X2113Y804D02*
X2167Y804D01*
X2213Y804D02*
X2267Y804D01*
X2313Y804D02*
X2367Y804D01*
X2606Y804D02*
X2674Y804D01*
X2713Y804D02*
X2767Y804D01*
X2813Y804D02*
X2867Y804D01*
X2913Y804D02*
X2967Y804D01*
X3013Y804D02*
X3067Y804D01*
X3113Y804D02*
X3167Y804D01*
X206Y803D02*
X274Y803D01*
X314Y803D02*
X367Y803D01*
X414Y803D02*
X467Y803D01*
X514Y803D02*
X567Y803D01*
X614Y803D02*
X667Y803D01*
X714Y803D02*
X767Y803D01*
X1006Y803D02*
X1074Y803D01*
X1114Y803D02*
X1167Y803D01*
X1214Y803D02*
X1267Y803D01*
X1314Y803D02*
X1367Y803D01*
X1414Y803D02*
X1467Y803D01*
X1513Y803D02*
X1567Y803D01*
X1806Y803D02*
X1874Y803D01*
X1913Y803D02*
X1967Y803D01*
X2013Y803D02*
X2067Y803D01*
X2113Y803D02*
X2167Y803D01*
X2213Y803D02*
X2267Y803D01*
X2313Y803D02*
X2366Y803D01*
X2606Y803D02*
X2674Y803D01*
X2713Y803D02*
X2766Y803D01*
X2813Y803D02*
X2866Y803D01*
X2913Y803D02*
X2966Y803D01*
X3013Y803D02*
X3066Y803D01*
X3113Y803D02*
X3166Y803D01*
X206Y802D02*
X274Y802D01*
X314Y802D02*
X366Y802D01*
X414Y802D02*
X466Y802D01*
X514Y802D02*
X566Y802D01*
X614Y802D02*
X666Y802D01*
X714Y802D02*
X766Y802D01*
X1006Y802D02*
X1074Y802D01*
X1114Y802D02*
X1166Y802D01*
X1214Y802D02*
X1266Y802D01*
X1314Y802D02*
X1366Y802D01*
X1414Y802D02*
X1466Y802D01*
X1514Y802D02*
X1566Y802D01*
X1806Y802D02*
X1874Y802D01*
X1914Y802D02*
X1966Y802D01*
X2014Y802D02*
X2066Y802D01*
X2114Y802D02*
X2166Y802D01*
X2214Y802D02*
X2266Y802D01*
X2314Y802D02*
X2366Y802D01*
X2606Y802D02*
X2674Y802D01*
X2714Y802D02*
X2766Y802D01*
X2814Y802D02*
X2866Y802D01*
X2914Y802D02*
X2966Y802D01*
X3014Y802D02*
X3066Y802D01*
X3114Y802D02*
X3166Y802D01*
X206Y801D02*
X274Y801D01*
X315Y801D02*
X365Y801D01*
X415Y801D02*
X465Y801D01*
X515Y801D02*
X565Y801D01*
X615Y801D02*
X665Y801D01*
X715Y801D02*
X765Y801D01*
X1006Y801D02*
X1074Y801D01*
X1115Y801D02*
X1165Y801D01*
X1215Y801D02*
X1265Y801D01*
X1315Y801D02*
X1365Y801D01*
X1415Y801D02*
X1465Y801D01*
X1515Y801D02*
X1565Y801D01*
X1806Y801D02*
X1874Y801D01*
X1915Y801D02*
X1965Y801D01*
X2015Y801D02*
X2065Y801D01*
X2115Y801D02*
X2165Y801D01*
X2215Y801D02*
X2265Y801D01*
X2315Y801D02*
X2365Y801D01*
X2606Y801D02*
X2674Y801D01*
X2715Y801D02*
X2765Y801D01*
X2815Y801D02*
X2865Y801D01*
X2915Y801D02*
X2965Y801D01*
X3015Y801D02*
X3065Y801D01*
X3115Y801D02*
X3165Y801D01*
X206Y800D02*
X274Y800D01*
X317Y800D02*
X364Y800D01*
X417Y800D02*
X464Y800D01*
X517Y800D02*
X564Y800D01*
X617Y800D02*
X664Y800D01*
X717Y800D02*
X764Y800D01*
X1006Y800D02*
X1074Y800D01*
X1116Y800D02*
X1164Y800D01*
X1216Y800D02*
X1264Y800D01*
X1316Y800D02*
X1364Y800D01*
X1416Y800D02*
X1464Y800D01*
X1516Y800D02*
X1564Y800D01*
X1806Y800D02*
X1874Y800D01*
X1916Y800D02*
X1964Y800D01*
X2016Y800D02*
X2064Y800D01*
X2116Y800D02*
X2164Y800D01*
X2216Y800D02*
X2264Y800D01*
X2316Y800D02*
X2364Y800D01*
X2606Y800D02*
X2674Y800D01*
X2716Y800D02*
X2764Y800D01*
X2816Y800D02*
X2864Y800D01*
X2916Y800D02*
X2964Y800D01*
X3016Y800D02*
X3064Y800D01*
X3116Y800D02*
X3163Y800D01*
X206Y799D02*
X274Y799D01*
X318Y799D02*
X363Y799D01*
X418Y799D02*
X463Y799D01*
X518Y799D02*
X563Y799D01*
X618Y799D02*
X663Y799D01*
X718Y799D02*
X762Y799D01*
X1006Y799D02*
X1074Y799D01*
X1118Y799D02*
X1162Y799D01*
X1218Y799D02*
X1262Y799D01*
X1318Y799D02*
X1362Y799D01*
X1418Y799D02*
X1462Y799D01*
X1518Y799D02*
X1562Y799D01*
X1806Y799D02*
X1874Y799D01*
X1918Y799D02*
X1962Y799D01*
X2018Y799D02*
X2062Y799D01*
X2118Y799D02*
X2162Y799D01*
X2218Y799D02*
X2262Y799D01*
X2318Y799D02*
X2362Y799D01*
X2606Y799D02*
X2674Y799D01*
X2718Y799D02*
X2762Y799D01*
X2818Y799D02*
X2862Y799D01*
X2918Y799D02*
X2962Y799D01*
X3018Y799D02*
X3062Y799D01*
X3117Y799D02*
X3162Y799D01*
X206Y798D02*
X274Y798D01*
X319Y798D02*
X361Y798D01*
X419Y798D02*
X461Y798D01*
X519Y798D02*
X561Y798D01*
X619Y798D02*
X661Y798D01*
X719Y798D02*
X761Y798D01*
X1006Y798D02*
X1074Y798D01*
X1119Y798D02*
X1161Y798D01*
X1219Y798D02*
X1261Y798D01*
X1319Y798D02*
X1361Y798D01*
X1419Y798D02*
X1461Y798D01*
X1519Y798D02*
X1561Y798D01*
X1806Y798D02*
X1874Y798D01*
X1919Y798D02*
X1961Y798D01*
X2019Y798D02*
X2061Y798D01*
X2119Y798D02*
X2161Y798D01*
X2219Y798D02*
X2261Y798D01*
X2319Y798D02*
X2361Y798D01*
X2606Y798D02*
X2674Y798D01*
X2719Y798D02*
X2761Y798D01*
X2819Y798D02*
X2861Y798D01*
X2919Y798D02*
X2961Y798D01*
X3019Y798D02*
X3061Y798D01*
X3119Y798D02*
X3161Y798D01*
X206Y797D02*
X274Y797D01*
X320Y797D02*
X360Y797D01*
X420Y797D02*
X460Y797D01*
X520Y797D02*
X560Y797D01*
X620Y797D02*
X660Y797D01*
X720Y797D02*
X760Y797D01*
X1006Y797D02*
X1074Y797D01*
X1120Y797D02*
X1160Y797D01*
X1220Y797D02*
X1260Y797D01*
X1320Y797D02*
X1360Y797D01*
X1420Y797D02*
X1460Y797D01*
X1520Y797D02*
X1560Y797D01*
X1806Y797D02*
X1874Y797D01*
X1920Y797D02*
X1960Y797D01*
X2020Y797D02*
X2060Y797D01*
X2120Y797D02*
X2160Y797D01*
X2220Y797D02*
X2260Y797D01*
X2320Y797D02*
X2360Y797D01*
X2606Y797D02*
X2674Y797D01*
X2720Y797D02*
X2760Y797D01*
X2820Y797D02*
X2860Y797D01*
X2920Y797D02*
X2960Y797D01*
X3020Y797D02*
X3060Y797D01*
X3120Y797D02*
X3160Y797D01*
X206Y796D02*
X274Y796D01*
X322Y796D02*
X358Y796D01*
X422Y796D02*
X458Y796D01*
X522Y796D02*
X558Y796D01*
X622Y796D02*
X658Y796D01*
X722Y796D02*
X758Y796D01*
X1006Y796D02*
X1074Y796D01*
X1122Y796D02*
X1158Y796D01*
X1222Y796D02*
X1258Y796D01*
X1322Y796D02*
X1358Y796D01*
X1422Y796D02*
X1458Y796D01*
X1522Y796D02*
X1558Y796D01*
X1806Y796D02*
X1874Y796D01*
X1922Y796D02*
X1958Y796D01*
X2022Y796D02*
X2058Y796D01*
X2122Y796D02*
X2158Y796D01*
X2222Y796D02*
X2258Y796D01*
X2322Y796D02*
X2358Y796D01*
X2606Y796D02*
X2674Y796D01*
X2722Y796D02*
X2758Y796D01*
X2822Y796D02*
X2858Y796D01*
X2922Y796D02*
X2958Y796D01*
X3022Y796D02*
X3058Y796D01*
X3122Y796D02*
X3158Y796D01*
X206Y795D02*
X274Y795D01*
X324Y795D02*
X356Y795D01*
X424Y795D02*
X456Y795D01*
X524Y795D02*
X556Y795D01*
X624Y795D02*
X656Y795D01*
X724Y795D02*
X756Y795D01*
X1006Y795D02*
X1074Y795D01*
X1124Y795D02*
X1156Y795D01*
X1224Y795D02*
X1256Y795D01*
X1324Y795D02*
X1356Y795D01*
X1424Y795D02*
X1456Y795D01*
X1524Y795D02*
X1556Y795D01*
X1806Y795D02*
X1874Y795D01*
X1924Y795D02*
X1956Y795D01*
X2024Y795D02*
X2056Y795D01*
X2124Y795D02*
X2156Y795D01*
X2224Y795D02*
X2256Y795D01*
X2324Y795D02*
X2356Y795D01*
X2606Y795D02*
X2674Y795D01*
X2724Y795D02*
X2756Y795D01*
X2824Y795D02*
X2856Y795D01*
X2924Y795D02*
X2956Y795D01*
X3024Y795D02*
X3056Y795D01*
X3124Y795D02*
X3156Y795D01*
X206Y794D02*
X274Y794D01*
X326Y794D02*
X354Y794D01*
X426Y794D02*
X454Y794D01*
X526Y794D02*
X554Y794D01*
X626Y794D02*
X654Y794D01*
X726Y794D02*
X754Y794D01*
X1006Y794D02*
X1074Y794D01*
X1126Y794D02*
X1154Y794D01*
X1226Y794D02*
X1254Y794D01*
X1326Y794D02*
X1354Y794D01*
X1426Y794D02*
X1454Y794D01*
X1526Y794D02*
X1554Y794D01*
X1806Y794D02*
X1874Y794D01*
X1926Y794D02*
X1954Y794D01*
X2026Y794D02*
X2054Y794D01*
X2126Y794D02*
X2154Y794D01*
X2226Y794D02*
X2254Y794D01*
X2326Y794D02*
X2354Y794D01*
X2606Y794D02*
X2674Y794D01*
X2726Y794D02*
X2754Y794D01*
X2826Y794D02*
X2854Y794D01*
X2926Y794D02*
X2954Y794D01*
X3026Y794D02*
X3054Y794D01*
X3126Y794D02*
X3154Y794D01*
X206Y793D02*
X274Y793D01*
X328Y793D02*
X352Y793D01*
X428Y793D02*
X452Y793D01*
X528Y793D02*
X552Y793D01*
X628Y793D02*
X652Y793D01*
X728Y793D02*
X752Y793D01*
X1006Y793D02*
X1074Y793D01*
X1128Y793D02*
X1152Y793D01*
X1228Y793D02*
X1252Y793D01*
X1328Y793D02*
X1352Y793D01*
X1428Y793D02*
X1452Y793D01*
X1528Y793D02*
X1552Y793D01*
X1806Y793D02*
X1874Y793D01*
X1928Y793D02*
X1952Y793D01*
X2028Y793D02*
X2052Y793D01*
X2128Y793D02*
X2152Y793D01*
X2228Y793D02*
X2252Y793D01*
X2328Y793D02*
X2352Y793D01*
X2606Y793D02*
X2674Y793D01*
X2728Y793D02*
X2752Y793D01*
X2828Y793D02*
X2852Y793D01*
X2928Y793D02*
X2952Y793D01*
X3028Y793D02*
X3052Y793D01*
X3128Y793D02*
X3152Y793D01*
X206Y792D02*
X274Y792D01*
X331Y792D02*
X349Y792D01*
X431Y792D02*
X449Y792D01*
X531Y792D02*
X549Y792D01*
X631Y792D02*
X649Y792D01*
X731Y792D02*
X749Y792D01*
X1006Y792D02*
X1074Y792D01*
X1131Y792D02*
X1149Y792D01*
X1231Y792D02*
X1249Y792D01*
X1331Y792D02*
X1349Y792D01*
X1431Y792D02*
X1449Y792D01*
X1531Y792D02*
X1549Y792D01*
X1806Y792D02*
X1874Y792D01*
X1931Y792D02*
X1949Y792D01*
X2031Y792D02*
X2049Y792D01*
X2131Y792D02*
X2149Y792D01*
X2231Y792D02*
X2249Y792D01*
X2331Y792D02*
X2349Y792D01*
X2606Y792D02*
X2674Y792D01*
X2731Y792D02*
X2749Y792D01*
X2831Y792D02*
X2849Y792D01*
X2931Y792D02*
X2949Y792D01*
X3031Y792D02*
X3049Y792D01*
X3131Y792D02*
X3149Y792D01*
X336Y791D02*
X344Y791D01*
X436Y791D02*
X444Y791D01*
X536Y791D02*
X544Y791D01*
X636Y791D02*
X644Y791D01*
X736Y791D02*
X744Y791D01*
X1136Y791D02*
X1144Y791D01*
X1236Y791D02*
X1244Y791D01*
X1336Y791D02*
X1344Y791D01*
X1436Y791D02*
X1444Y791D01*
X1536Y791D02*
X1544Y791D01*
X1936Y791D02*
X1944Y791D01*
X2036Y791D02*
X2044Y791D01*
X2136Y791D02*
X2144Y791D01*
X2236Y791D02*
X2244Y791D01*
X2336Y791D02*
X2344Y791D01*
X2736Y791D02*
X2744Y791D01*
X2836Y791D02*
X2844Y791D01*
X2936Y791D02*
X2944Y791D01*
X3036Y791D02*
X3044Y791D01*
X3136Y791D02*
X3144Y791D01*
D02*
G04 End of Mask1*
M02*