G04 MADE WITH FRITZING*
G04 WWW.FRITZING.ORG*
G04 DOUBLE SIDED*
G04 HOLES PLATED*
G04 CONTOUR ON CENTER OF CONTOUR VECTOR*
%ASAXBY*%
%FSLAX23Y23*%
%MOIN*%
%OFA0B0*%
%SFA1.0B1.0*%
%ADD10C,0.089370*%
%ADD11C,0.090000*%
%ADD12C,0.088000*%
%ADD13C,0.081889*%
%ADD14C,0.081917*%
%ADD15C,0.118268*%
%ADD16C,0.084000*%
%ADD17R,0.090000X0.090000*%
%ADD18R,0.088740X0.088740*%
%ADD19R,0.084000X0.084000*%
%LNMASK0*%
G90*
G70*
G54D10*
X2993Y688D03*
X3093Y688D03*
X3193Y688D03*
X2693Y688D03*
X2793Y688D03*
X2893Y688D03*
X2193Y688D03*
X2293Y688D03*
X2393Y688D03*
X1893Y688D03*
X1993Y688D03*
X2093Y688D03*
X1393Y688D03*
X1493Y688D03*
X1593Y688D03*
X1093Y688D03*
X1193Y688D03*
X1293Y688D03*
X643Y688D03*
X743Y688D03*
X843Y688D03*
X343Y688D03*
X443Y688D03*
X543Y688D03*
G54D11*
X693Y438D03*
X556Y438D03*
X418Y438D03*
X280Y438D03*
X2993Y438D03*
X2856Y438D03*
X2718Y438D03*
X2580Y438D03*
X1443Y438D03*
X1306Y438D03*
X1168Y438D03*
X1030Y438D03*
X2243Y438D03*
X2106Y438D03*
X1968Y438D03*
X1830Y438D03*
G54D12*
X93Y1888D03*
X93Y1788D03*
G54D13*
X343Y2038D03*
X443Y2038D03*
X543Y2038D03*
X643Y2038D03*
G54D14*
X743Y2038D03*
G54D13*
X843Y2038D03*
X943Y2038D03*
X1043Y2038D03*
X1143Y2038D03*
G54D14*
X1243Y2038D03*
G54D13*
X1343Y2038D03*
G54D14*
X1443Y2038D03*
G54D13*
X1543Y2038D03*
X1643Y2038D03*
X1743Y2038D03*
X1843Y2038D03*
G54D14*
X1943Y2038D03*
G54D13*
X2043Y2038D03*
X2143Y2038D03*
X2243Y2038D03*
X2243Y2138D03*
X2143Y2138D03*
X2043Y2138D03*
G54D14*
X1943Y2138D03*
G54D13*
X1843Y2138D03*
X1743Y2138D03*
X1643Y2138D03*
X1543Y2138D03*
G54D14*
X1443Y2138D03*
G54D13*
X1343Y2138D03*
G54D14*
X1243Y2138D03*
G54D13*
X1143Y2138D03*
X1043Y2138D03*
X943Y2138D03*
X843Y2138D03*
G54D14*
X743Y2138D03*
G54D13*
X643Y2138D03*
X543Y2138D03*
X443Y2138D03*
X343Y2138D03*
G54D15*
X2433Y2072D03*
X153Y2071D03*
X157Y142D03*
X2432Y138D03*
G54D16*
X393Y1688D03*
X493Y1688D03*
X593Y1688D03*
X693Y1688D03*
X782Y890D03*
X682Y890D03*
X582Y890D03*
X482Y890D03*
X382Y890D03*
X282Y890D03*
X1143Y1688D03*
X1243Y1688D03*
X1343Y1688D03*
X1443Y1688D03*
X1532Y890D03*
X1432Y890D03*
X1332Y890D03*
X1232Y890D03*
X1132Y890D03*
X1032Y890D03*
X1943Y1688D03*
X2043Y1688D03*
X2143Y1688D03*
X2243Y1688D03*
X2332Y890D03*
X2232Y890D03*
X2132Y890D03*
X2032Y890D03*
X1932Y890D03*
X1832Y890D03*
X2693Y1688D03*
X2793Y1688D03*
X2893Y1688D03*
X2993Y1688D03*
X3082Y890D03*
X2982Y890D03*
X2882Y890D03*
X2782Y890D03*
X2682Y890D03*
X2582Y890D03*
G54D17*
X693Y438D03*
X2993Y438D03*
X1443Y438D03*
X2243Y438D03*
G54D18*
X443Y1238D03*
X343Y1338D03*
X443Y1338D03*
X343Y1438D03*
X443Y1438D03*
G54D19*
X393Y1688D03*
X1143Y1688D03*
X1943Y1688D03*
X2693Y1688D03*
G04 End of Mask0*
M02*