<?xml version="1.0" encoding="UTF-8" standalone="no"?>
<!-- Generator: Adobe Illustrator 15.1.0, SVG Export Plug-In . SVG Version: 6.00 Build 0)  -->

<svg
   xmlns:dc="http://purl.org/dc/elements/1.1/"
   xmlns:cc="http://creativecommons.org/ns#"
   xmlns:rdf="http://www.w3.org/1999/02/22-rdf-syntax-ns#"
   xmlns:svg="http://www.w3.org/2000/svg"
   xmlns="http://www.w3.org/2000/svg"
   xmlns:sodipodi="http://sodipodi.sourceforge.net/DTD/sodipodi-0.dtd"
   xmlns:inkscape="http://www.inkscape.org/namespaces/inkscape"
   id="Layer_1"
   x="0px"
   y="0px"
   height="15.7mm"
   width="24mm"
   viewBox="0 0 68.0313 44.503908"
   xml:space="preserve"
   gorn="0"
   version="1.1"
   sodipodi:docname="svg.pcb.xfw_hx711_pcb.svg"
   inkscape:version="0.92.1 r15371"><metadata
     id="metadata394"><rdf:RDF><cc:Work
         rdf:about=""><dc:format>image/svg+xml</dc:format><dc:type
           rdf:resource="http://purl.org/dc/dcmitype/StillImage" /><dc:title /></cc:Work></rdf:RDF></metadata><defs
     id="defs392" /><sodipodi:namedview
     pagecolor="#ffffff"
     bordercolor="#666666"
     borderopacity="1"
     objecttolerance="10"
     gridtolerance="10"
     guidetolerance="10"
     inkscape:pageopacity="0"
     inkscape:pageshadow="2"
     inkscape:window-width="1920"
     inkscape:window-height="1017"
     id="namedview390"
     showgrid="false"
     units="mm"
     inkscape:lockguides="false"
     showguides="true"
     inkscape:document-units="mm"
     inkscape:guide-bbox="true"
     inkscape:measure-start="105.591,38.5701"
     inkscape:measure-end="82.4867,34.083"
     inkscape:snap-bbox="true"
     inkscape:snap-intersection-paths="true"
     inkscape:zoom="5.2372111"
     inkscape:cx="38.201488"
     inkscape:cy="44.475512"
     inkscape:window-x="-8"
     inkscape:window-y="-8"
     inkscape:window-maximized="1"
     inkscape:current-layer="Layer_1" /><desc
     id="desc2"><referenceFile>HX711_BREADBOARD_v4.svg</referenceFile></desc><g
     id="silkscreen"><path
       d="m 65.367083,8.5172199 c -2.347,0 -4.694,0 -7.041,0 -0.163,0 -0.3,0.136 -0.3,0.3 0,3.8880001 0,7.7770001 0,11.6650001 0.224,0.156 0.42,0.344 0.6,0.547 0,-2.154 0,-4.307 0,-6.46 0,-1.583 0,-3.165 0,-4.7480001 0,-0.235 0,-0.47 0,-0.705 0.343,0 0.686,0 1.028,0 1.804,0 3.608,0 5.413,0 0,0.092 0,0.185 0,0.277 0,0.587 0,1.1750001 0,1.7630001 0,6.68 0,13.359 0,20.039 0,1.817 0,3.635 0,5.452 -0.132,0 -0.264,0 -0.396,0 -0.844,0 -1.688,0 -2.532,0 -1.172,0 -2.343,0 -3.514,0 0,-3.705 0,-7.41 0,-11.114 -0.18,0.203 -0.376,0.391 -0.6,0.547 0,3.622 0,7.244 0,10.867 0,0.055 0.032,0.084 0.054,0.124 0.013,0.029 0.015,0.062 0.036,0.086 0.024,0.021 0.057,0.024 0.086,0.036 0.04,0.021 0.069,0.054 0.124,0.054 2.347,0 4.694,0 7.041,0 0.163,0 0.3,-0.137 0.3,-0.3 0,-9.377 0,-18.753 0,-28.1300001 0.001,-0.163 -0.136,-0.3 -0.299,-0.3 z"
       id="path354"
       inkscape:connector-curvature="0"
       style="fill:#ffffff" /><path
       style="fill:#ffffff"
       inkscape:connector-curvature="0"
       id="path368"
       d="m 8.0031896,43.168736 c -1.845,0 -3.69,0 -5.536,0 -0.405,0 -0.81,0 -1.215,0 -0.59199996,0 -0.074,-0.066 -0.074,0.289 0,-0.197 0,-0.396 0,-0.593 0,-2.953 0,-5.907 0,-8.861 0,-9.187 0,-18.374 0,-27.5600001 0,-1.375 0,-2.75 0,-4.125 0,-0.351 0,-0.702 0,-1.052 0,-0.086 0,-0.173 0,-0.259 0,-0.235 -0.49199996,0.23 -0.16,0.23 2.029,0 4.057,0 6.085,0 0.279,0 0.557,0 0.836,0 0.206,0 -0.236,-0.478 -0.236,-0.23 0,0.263 0,0.527 0,0.791 0,7.946 0,15.8910001 0,23.8360001 0,5.945 0,11.89 0,17.835 0,0.387 0.6,0.387 0.6,0 0,-14.025 0,-28.05 0,-42.0750001 0,-0.152 0,-0.304 0,-0.456 0,-0.164 -0.136,-0.3 -0.3,-0.3 -2.375,0 -4.75,0 -7.12499996,0 -0.164,0 -0.3,0.136 -0.3,0.3 0,14.0250001 0,28.0500001 0,42.0750001 0,0.152 0,0.304 0,0.456 0,0.163 0.136,0.3 0.3,0.3 2.37499996,0 4.74999996,0 7.12499996,0 0.386,-0.001 0.386,-0.601 0,-0.601 z" /></g><g
     id="copper1"><g
       id="copper0"><g
         id="g4540"><path
           id="connector16pin"
           gorn="0.24.0.0.0"
           d="m 4.4612045,42.439454 c 1.231,0 2.229,-0.998 2.229,-2.229 0,-1.231 -0.998,-2.229 -2.229,-2.229 -1.231,0 -2.229,0.998 -2.229,2.229 0,1.231 0.998,2.229 2.229,2.229 z m 0,-3.563 c 0.736,0 1.333,0.598 1.333,1.334 0,0.736 -0.597,1.334 -1.333,1.334 -0.736,0 -1.333,-0.598 -1.333,-1.334 0,-0.736 0.597,-1.334 1.333,-1.334 z"
           inkscape:connector-curvature="0"
           style="fill:#f4bd19" /><path
           id="connector15pin"
           gorn="0.24.0.0.1"
           d="m 4.4612045,35.240454 c 1.231,0 2.229,-0.998 2.229,-2.229 0,-1.231 -0.998,-2.229 -2.229,-2.229 -1.231,0 -2.229,0.998 -2.229,2.229 0,1.231 0.998,2.229 2.229,2.229 z m 0,-3.563 c 0.736,0 1.333,0.597 1.333,1.333 0,0.736 -0.597,1.333 -1.333,1.333 -0.736,0 -1.333,-0.597 -1.333,-1.333 0,-0.736 0.597,-1.333 1.333,-1.333 z"
           inkscape:connector-curvature="0"
           style="fill:#f4bd19" /><path
           id="connector14pin"
           gorn="0.24.0.0.2"
           d="m 4.4612045,28.040454 c 1.231,0 2.229,-0.998 2.229,-2.23 0,-1.23 -0.998,-2.229 -2.229,-2.229 -1.231,0 -2.229,0.998 -2.229,2.229 0,1.231 0.998,2.23 2.229,2.23 z m 0,-3.562 c 0.736,0 1.333,0.596 1.333,1.332 0,0.736 -0.597,1.334 -1.333,1.334 -0.736,0 -1.333,-0.597 -1.333,-1.333 0,-0.736 0.597,-1.333 1.333,-1.333 z"
           inkscape:connector-curvature="0"
           style="fill:#f4bd19" /><path
           id="connector13pin"
           gorn="0.24.0.0.3"
           d="m 4.4612045,20.839454 c 1.231,0 2.229,-0.998 2.229,-2.229 0,-1.231 -0.998,-2.229 -2.229,-2.229 -1.231,0 -2.229,0.998 -2.229,2.229 0,1.231 0.998,2.229 2.229,2.229 z m 0,-3.563 c 0.736,0 1.333,0.598 1.333,1.334 0,0.736 -0.597,1.334 -1.333,1.334 -0.736,0 -1.333,-0.598 -1.333,-1.334 0,-0.736 0.597,-1.334 1.333,-1.334 z"
           inkscape:connector-curvature="0"
           style="fill:#f4bd19" /><path
           id="connector12pin"
           style="fill:#f4bd19;stroke-width:1"
           d="m 4.4619369,9.1831003 c -1.231,0 -2.2294908,0.9970247 -2.2294908,2.2280257 0,1.230999 0.9984908,2.22949 2.2294908,2.22949 1.231,0 2.228026,-0.998491 2.228026,-2.22949 0,-1.231001 -0.997026,-2.2280257 -2.228026,-2.2280257 z m 0,0.8950177 c 0.736,0 1.333007,0.597008 1.333007,1.333008 0,0.736 -0.597007,1.333006 -1.333007,1.333007 -0.736,0 -1.333007,-0.597007 -1.333007,-1.333007 0,-0.736 0.597007,-1.333008 1.333007,-1.333008 z"
           inkscape:connector-curvature="0" /><path
           inkscape:connector-curvature="0"
           id="connector11pin"
           style="fill:#f4bd19;stroke-width:1"
           d="m 4.461937,1.9827941 c -1.2310001,0 -2.2294909,0.9970251 -2.2294909,2.2280261 0,1.2309991 0.9984908,2.2294902 2.2294909,2.2294902 1.2309999,0 2.2280259,-0.9984911 2.2280259,-2.2294902 0,-1.231001 -0.997026,-2.2280261 -2.2280259,-2.2280261 z m 0,0.8950181 c 0.7359999,0 1.3330069,0.597007 1.3330069,1.333008 0,0.7360001 -0.597007,1.3330061 -1.3330069,1.3330071 -0.7360001,0 -1.333007,-0.597007 -1.333007,-1.3330071 0,-0.736001 0.5970069,-1.333008 1.333007,-1.333008 z" /></g><g
         id="g4546"><path
           id="connector5pin"
           gorn="0.24.0.1.0"
           d="m 61.89109,35.999977 c 1.231,0 2.229,-0.998 2.229,-2.23 0,-1.23 -0.998,-2.229 -2.229,-2.229 -1.231,0 -2.229,0.998 -2.229,2.229 0,1.232 0.998,2.23 2.229,2.23 z m 0,-3.563 c 0.736,0 1.333,0.596 1.333,1.332 0,0.736 -0.597,1.334 -1.333,1.334 -0.736,0 -1.333,-0.598 -1.333,-1.334 0,-0.736 0.597,-1.332 1.333,-1.332 z"
           inkscape:connector-curvature="0"
           style="fill:#f4bd19" /><path
           id="connector10pin"
           gorn="0.24.0.1.1"
           d="m 61.89109,28.798977 c 1.231,0 2.229,-0.998 2.229,-2.229 0,-1.231 -0.998,-2.229 -2.229,-2.229 -1.231,0 -2.229,0.998 -2.229,2.229 0,1.231 0.998,2.229 2.229,2.229 z m 0,-3.563 c 0.736,0 1.333,0.598 1.333,1.334 0,0.736 -0.597,1.334 -1.333,1.334 -0.736,0 -1.333,-0.598 -1.333,-1.334 0,-0.736 0.597,-1.334 1.333,-1.334 z"
           inkscape:connector-curvature="0"
           style="fill:#f4bd19" /><path
           id="connector9pin"
           gorn="0.24.0.1.2"
           d="m 61.89109,21.597977 c 1.231,0 2.229,-0.999 2.229,-2.23 0,-1.231 -0.998,-2.229 -2.229,-2.229 -1.231,0 -2.229,0.998 -2.229,2.229 0,1.231 0.998,2.23 2.229,2.23 z m 0,-3.563 c 0.736,0 1.333,0.597 1.333,1.333 0,0.736 -0.597,1.333 -1.333,1.333 -0.736,0 -1.333,-0.597 -1.333,-1.333 0,-0.736 0.597,-1.333 1.333,-1.333 z"
           inkscape:connector-curvature="0"
           style="fill:#f4bd19" /><path
           id="connector6pin"
           gorn="0.24.0.1.3"
           d="m 64.03709,10.022977 h -4.291 v 4.292 h 4.291 z m -2.146,3.479 c -0.736,0 -1.333,-0.598 -1.333,-1.334 0,-0.736 0.597,-1.333 1.333,-1.333 0.736,0 1.333,0.597 1.333,1.333 0,0.736 -0.596,1.334 -1.333,1.334 z"
           inkscape:connector-curvature="0"
           style="fill:#f4bd19" /></g></g></g></svg>