G04 MADE WITH FRITZING*
G04 WWW.FRITZING.ORG*
G04 DOUBLE SIDED*
G04 HOLES PLATED*
G04 CONTOUR ON CENTER OF CONTOUR VECTOR*
%ASAXBY*%
%FSLAX23Y23*%
%MOIN*%
%OFA0B0*%
%SFA1.0B1.0*%
%ADD10C,0.076555*%
%ADD11C,0.059194*%
%ADD12C,0.090000*%
%ADD13C,0.088000*%
%ADD14C,0.085361*%
%ADD15C,0.118268*%
%ADD16R,0.090000X0.090000*%
%ADD17R,0.088740X0.088740*%
%ADD18R,0.001000X0.001000*%
%LNMASK0*%
G90*
G70*
G54D10*
X341Y726D03*
X441Y726D03*
X541Y726D03*
X641Y726D03*
X741Y726D03*
X241Y726D03*
X443Y1738D03*
X543Y1738D03*
G54D11*
X343Y1738D03*
G54D10*
X643Y1738D03*
X1141Y726D03*
X1241Y726D03*
X1341Y726D03*
X1441Y726D03*
X1541Y726D03*
X1041Y726D03*
X1243Y1738D03*
X1343Y1738D03*
G54D11*
X1143Y1738D03*
G54D10*
X1443Y1738D03*
X1941Y726D03*
X2041Y726D03*
X2141Y726D03*
X2241Y726D03*
X2341Y726D03*
X1841Y726D03*
X2043Y1738D03*
X2143Y1738D03*
G54D11*
X1943Y1738D03*
G54D10*
X2243Y1738D03*
X2741Y726D03*
X2841Y726D03*
X2941Y726D03*
X3041Y726D03*
X3141Y726D03*
X2641Y726D03*
X2843Y1738D03*
X2943Y1738D03*
G54D11*
X2743Y1738D03*
G54D10*
X3043Y1738D03*
G54D12*
X707Y388D03*
X569Y388D03*
X431Y388D03*
X293Y388D03*
X3007Y388D03*
X2869Y388D03*
X2731Y388D03*
X2593Y388D03*
X1457Y388D03*
X1319Y388D03*
X1181Y388D03*
X1043Y388D03*
X2207Y388D03*
X2069Y388D03*
X1931Y388D03*
X1793Y388D03*
G54D13*
X443Y1888D03*
X343Y1888D03*
X243Y1888D03*
X143Y1888D03*
G54D14*
X343Y2038D03*
X443Y2038D03*
X543Y2038D03*
X643Y2038D03*
X743Y2038D03*
X843Y2038D03*
X943Y2038D03*
X1043Y2038D03*
X1143Y2038D03*
X1243Y2038D03*
X1343Y2038D03*
X1443Y2038D03*
X1543Y2038D03*
X1643Y2038D03*
X1743Y2038D03*
X1843Y2038D03*
X1943Y2038D03*
X2043Y2038D03*
X2143Y2038D03*
X2243Y2038D03*
X2243Y2138D03*
X2143Y2138D03*
X2043Y2138D03*
X1943Y2138D03*
X1843Y2138D03*
X1743Y2138D03*
X1643Y2138D03*
X1543Y2138D03*
X1443Y2138D03*
X1343Y2138D03*
X1243Y2138D03*
X1143Y2138D03*
X1043Y2138D03*
X943Y2138D03*
X843Y2138D03*
X743Y2138D03*
X643Y2138D03*
X543Y2138D03*
X443Y2138D03*
X343Y2138D03*
G54D15*
X2433Y2072D03*
X153Y2071D03*
X157Y142D03*
X2432Y138D03*
G54D16*
X707Y388D03*
X3007Y388D03*
X1457Y388D03*
X2207Y388D03*
G54D17*
X443Y1238D03*
X343Y1338D03*
X443Y1338D03*
X343Y1438D03*
X443Y1438D03*
G54D18*
X309Y1773D02*
X377Y1773D01*
X1109Y1773D02*
X1177Y1773D01*
X1908Y1773D02*
X1977Y1773D01*
X2708Y1773D02*
X2777Y1773D01*
X309Y1772D02*
X377Y1772D01*
X1109Y1772D02*
X1177Y1772D01*
X1908Y1772D02*
X1977Y1772D01*
X2708Y1772D02*
X2777Y1772D01*
X309Y1771D02*
X377Y1771D01*
X1109Y1771D02*
X1177Y1771D01*
X1908Y1771D02*
X1977Y1771D01*
X2708Y1771D02*
X2777Y1771D01*
X309Y1770D02*
X377Y1770D01*
X1109Y1770D02*
X1177Y1770D01*
X1908Y1770D02*
X1977Y1770D01*
X2708Y1770D02*
X2777Y1770D01*
X309Y1769D02*
X377Y1769D01*
X1109Y1769D02*
X1177Y1769D01*
X1908Y1769D02*
X1977Y1769D01*
X2708Y1769D02*
X2777Y1769D01*
X309Y1768D02*
X377Y1768D01*
X1109Y1768D02*
X1177Y1768D01*
X1908Y1768D02*
X1977Y1768D01*
X2708Y1768D02*
X2777Y1768D01*
X309Y1767D02*
X377Y1767D01*
X1109Y1767D02*
X1177Y1767D01*
X1908Y1767D02*
X1977Y1767D01*
X2708Y1767D02*
X2777Y1767D01*
X309Y1766D02*
X377Y1766D01*
X1109Y1766D02*
X1177Y1766D01*
X1908Y1766D02*
X1977Y1766D01*
X2708Y1766D02*
X2777Y1766D01*
X309Y1765D02*
X377Y1765D01*
X1109Y1765D02*
X1177Y1765D01*
X1908Y1765D02*
X1977Y1765D01*
X2708Y1765D02*
X2777Y1765D01*
X309Y1764D02*
X377Y1764D01*
X1109Y1764D02*
X1177Y1764D01*
X1908Y1764D02*
X1977Y1764D01*
X2708Y1764D02*
X2777Y1764D01*
X309Y1763D02*
X377Y1763D01*
X1109Y1763D02*
X1177Y1763D01*
X1908Y1763D02*
X1977Y1763D01*
X2708Y1763D02*
X2777Y1763D01*
X309Y1762D02*
X377Y1762D01*
X1109Y1762D02*
X1177Y1762D01*
X1908Y1762D02*
X1977Y1762D01*
X2708Y1762D02*
X2777Y1762D01*
X309Y1761D02*
X377Y1761D01*
X1109Y1761D02*
X1177Y1761D01*
X1908Y1761D02*
X1977Y1761D01*
X2708Y1761D02*
X2777Y1761D01*
X309Y1760D02*
X377Y1760D01*
X1109Y1760D02*
X1177Y1760D01*
X1908Y1760D02*
X1977Y1760D01*
X2708Y1760D02*
X2777Y1760D01*
X309Y1759D02*
X377Y1759D01*
X1109Y1759D02*
X1177Y1759D01*
X1908Y1759D02*
X1977Y1759D01*
X2708Y1759D02*
X2777Y1759D01*
X309Y1758D02*
X377Y1758D01*
X1109Y1758D02*
X1177Y1758D01*
X1908Y1758D02*
X1977Y1758D01*
X2708Y1758D02*
X2777Y1758D01*
X309Y1757D02*
X377Y1757D01*
X1109Y1757D02*
X1177Y1757D01*
X1908Y1757D02*
X1977Y1757D01*
X2708Y1757D02*
X2777Y1757D01*
X309Y1756D02*
X377Y1756D01*
X1109Y1756D02*
X1177Y1756D01*
X1908Y1756D02*
X1977Y1756D01*
X2708Y1756D02*
X2777Y1756D01*
X309Y1755D02*
X377Y1755D01*
X1109Y1755D02*
X1177Y1755D01*
X1908Y1755D02*
X1977Y1755D01*
X2708Y1755D02*
X2777Y1755D01*
X309Y1754D02*
X377Y1754D01*
X1109Y1754D02*
X1177Y1754D01*
X1908Y1754D02*
X1977Y1754D01*
X2708Y1754D02*
X2777Y1754D01*
X309Y1753D02*
X377Y1753D01*
X1109Y1753D02*
X1177Y1753D01*
X1908Y1753D02*
X1977Y1753D01*
X2708Y1753D02*
X2777Y1753D01*
X309Y1752D02*
X340Y1752D01*
X346Y1752D02*
X377Y1752D01*
X1109Y1752D02*
X1140Y1752D01*
X1146Y1752D02*
X1177Y1752D01*
X1908Y1752D02*
X1940Y1752D01*
X1946Y1752D02*
X1977Y1752D01*
X2708Y1752D02*
X2739Y1752D01*
X2746Y1752D02*
X2777Y1752D01*
X309Y1751D02*
X337Y1751D01*
X349Y1751D02*
X377Y1751D01*
X1109Y1751D02*
X1137Y1751D01*
X1149Y1751D02*
X1177Y1751D01*
X1908Y1751D02*
X1937Y1751D01*
X1949Y1751D02*
X1977Y1751D01*
X2708Y1751D02*
X2736Y1751D01*
X2749Y1751D02*
X2777Y1751D01*
X309Y1750D02*
X335Y1750D01*
X351Y1750D02*
X377Y1750D01*
X1109Y1750D02*
X1135Y1750D01*
X1151Y1750D02*
X1177Y1750D01*
X1908Y1750D02*
X1935Y1750D01*
X1951Y1750D02*
X1977Y1750D01*
X2708Y1750D02*
X2735Y1750D01*
X2751Y1750D02*
X2777Y1750D01*
X309Y1749D02*
X334Y1749D01*
X352Y1749D02*
X377Y1749D01*
X1109Y1749D02*
X1134Y1749D01*
X1152Y1749D02*
X1177Y1749D01*
X1908Y1749D02*
X1934Y1749D01*
X1952Y1749D02*
X1977Y1749D01*
X2708Y1749D02*
X2734Y1749D01*
X2752Y1749D02*
X2777Y1749D01*
X309Y1748D02*
X333Y1748D01*
X353Y1748D02*
X377Y1748D01*
X1109Y1748D02*
X1133Y1748D01*
X1153Y1748D02*
X1177Y1748D01*
X1908Y1748D02*
X1933Y1748D01*
X1953Y1748D02*
X1977Y1748D01*
X2708Y1748D02*
X2732Y1748D01*
X2753Y1748D02*
X2777Y1748D01*
X309Y1747D02*
X332Y1747D01*
X354Y1747D02*
X377Y1747D01*
X1109Y1747D02*
X1132Y1747D01*
X1154Y1747D02*
X1177Y1747D01*
X1908Y1747D02*
X1932Y1747D01*
X1954Y1747D02*
X1977Y1747D01*
X2708Y1747D02*
X2732Y1747D01*
X2754Y1747D02*
X2777Y1747D01*
X309Y1746D02*
X331Y1746D01*
X355Y1746D02*
X377Y1746D01*
X1109Y1746D02*
X1131Y1746D01*
X1155Y1746D02*
X1177Y1746D01*
X1908Y1746D02*
X1931Y1746D01*
X1955Y1746D02*
X1977Y1746D01*
X2708Y1746D02*
X2731Y1746D01*
X2755Y1746D02*
X2777Y1746D01*
X309Y1745D02*
X330Y1745D01*
X355Y1745D02*
X377Y1745D01*
X1109Y1745D02*
X1130Y1745D01*
X1155Y1745D02*
X1177Y1745D01*
X1908Y1745D02*
X1930Y1745D01*
X1955Y1745D02*
X1977Y1745D01*
X2708Y1745D02*
X2730Y1745D01*
X2755Y1745D02*
X2777Y1745D01*
X309Y1744D02*
X330Y1744D01*
X356Y1744D02*
X377Y1744D01*
X1109Y1744D02*
X1130Y1744D01*
X1156Y1744D02*
X1177Y1744D01*
X1908Y1744D02*
X1930Y1744D01*
X1956Y1744D02*
X1977Y1744D01*
X2708Y1744D02*
X2730Y1744D01*
X2756Y1744D02*
X2777Y1744D01*
X309Y1743D02*
X330Y1743D01*
X356Y1743D02*
X377Y1743D01*
X1109Y1743D02*
X1129Y1743D01*
X1156Y1743D02*
X1177Y1743D01*
X1908Y1743D02*
X1929Y1743D01*
X1956Y1743D02*
X1977Y1743D01*
X2708Y1743D02*
X2729Y1743D01*
X2756Y1743D02*
X2777Y1743D01*
X309Y1742D02*
X329Y1742D01*
X357Y1742D02*
X377Y1742D01*
X1109Y1742D02*
X1129Y1742D01*
X1156Y1742D02*
X1177Y1742D01*
X1908Y1742D02*
X1929Y1742D01*
X1956Y1742D02*
X1977Y1742D01*
X2708Y1742D02*
X2729Y1742D01*
X2756Y1742D02*
X2777Y1742D01*
X309Y1741D02*
X329Y1741D01*
X357Y1741D02*
X377Y1741D01*
X1109Y1741D02*
X1129Y1741D01*
X1157Y1741D02*
X1177Y1741D01*
X1908Y1741D02*
X1929Y1741D01*
X1957Y1741D02*
X1977Y1741D01*
X2708Y1741D02*
X2729Y1741D01*
X2757Y1741D02*
X2777Y1741D01*
X309Y1740D02*
X329Y1740D01*
X357Y1740D02*
X377Y1740D01*
X1109Y1740D02*
X1129Y1740D01*
X1157Y1740D02*
X1177Y1740D01*
X1908Y1740D02*
X1929Y1740D01*
X1957Y1740D02*
X1977Y1740D01*
X2708Y1740D02*
X2729Y1740D01*
X2757Y1740D02*
X2777Y1740D01*
X309Y1739D02*
X329Y1739D01*
X357Y1739D02*
X377Y1739D01*
X1109Y1739D02*
X1129Y1739D01*
X1157Y1739D02*
X1177Y1739D01*
X1908Y1739D02*
X1929Y1739D01*
X1957Y1739D02*
X1977Y1739D01*
X2708Y1739D02*
X2729Y1739D01*
X2757Y1739D02*
X2777Y1739D01*
X309Y1738D02*
X329Y1738D01*
X357Y1738D02*
X377Y1738D01*
X1109Y1738D02*
X1129Y1738D01*
X1157Y1738D02*
X1177Y1738D01*
X1908Y1738D02*
X1929Y1738D01*
X1957Y1738D02*
X1977Y1738D01*
X2708Y1738D02*
X2729Y1738D01*
X2757Y1738D02*
X2777Y1738D01*
X309Y1737D02*
X329Y1737D01*
X357Y1737D02*
X377Y1737D01*
X1109Y1737D02*
X1129Y1737D01*
X1157Y1737D02*
X1177Y1737D01*
X1908Y1737D02*
X1929Y1737D01*
X1957Y1737D02*
X1977Y1737D01*
X2708Y1737D02*
X2729Y1737D01*
X2757Y1737D02*
X2777Y1737D01*
X309Y1736D02*
X329Y1736D01*
X357Y1736D02*
X377Y1736D01*
X1109Y1736D02*
X1129Y1736D01*
X1157Y1736D02*
X1177Y1736D01*
X1908Y1736D02*
X1929Y1736D01*
X1957Y1736D02*
X1977Y1736D01*
X2708Y1736D02*
X2729Y1736D01*
X2757Y1736D02*
X2777Y1736D01*
X309Y1735D02*
X329Y1735D01*
X356Y1735D02*
X377Y1735D01*
X1109Y1735D02*
X1129Y1735D01*
X1156Y1735D02*
X1177Y1735D01*
X1908Y1735D02*
X1929Y1735D01*
X1956Y1735D02*
X1977Y1735D01*
X2708Y1735D02*
X2729Y1735D01*
X2756Y1735D02*
X2777Y1735D01*
X309Y1734D02*
X330Y1734D01*
X356Y1734D02*
X377Y1734D01*
X1109Y1734D02*
X1130Y1734D01*
X1156Y1734D02*
X1177Y1734D01*
X1908Y1734D02*
X1930Y1734D01*
X1956Y1734D02*
X1977Y1734D01*
X2708Y1734D02*
X2730Y1734D01*
X2756Y1734D02*
X2777Y1734D01*
X309Y1733D02*
X330Y1733D01*
X356Y1733D02*
X377Y1733D01*
X1109Y1733D02*
X1130Y1733D01*
X1156Y1733D02*
X1177Y1733D01*
X1908Y1733D02*
X1930Y1733D01*
X1956Y1733D02*
X1977Y1733D01*
X2708Y1733D02*
X2730Y1733D01*
X2756Y1733D02*
X2777Y1733D01*
X309Y1732D02*
X331Y1732D01*
X355Y1732D02*
X377Y1732D01*
X1109Y1732D02*
X1131Y1732D01*
X1155Y1732D02*
X1177Y1732D01*
X1908Y1732D02*
X1931Y1732D01*
X1955Y1732D02*
X1977Y1732D01*
X2708Y1732D02*
X2731Y1732D01*
X2755Y1732D02*
X2777Y1732D01*
X309Y1731D02*
X331Y1731D01*
X354Y1731D02*
X377Y1731D01*
X1109Y1731D02*
X1131Y1731D01*
X1154Y1731D02*
X1177Y1731D01*
X1908Y1731D02*
X1931Y1731D01*
X1954Y1731D02*
X1977Y1731D01*
X2708Y1731D02*
X2731Y1731D01*
X2754Y1731D02*
X2777Y1731D01*
X309Y1730D02*
X332Y1730D01*
X354Y1730D02*
X377Y1730D01*
X1109Y1730D02*
X1132Y1730D01*
X1154Y1730D02*
X1177Y1730D01*
X1908Y1730D02*
X1932Y1730D01*
X1954Y1730D02*
X1977Y1730D01*
X2708Y1730D02*
X2732Y1730D01*
X2753Y1730D02*
X2777Y1730D01*
X309Y1729D02*
X333Y1729D01*
X353Y1729D02*
X377Y1729D01*
X1109Y1729D02*
X1133Y1729D01*
X1153Y1729D02*
X1177Y1729D01*
X1908Y1729D02*
X1933Y1729D01*
X1953Y1729D02*
X1977Y1729D01*
X2708Y1729D02*
X2733Y1729D01*
X2753Y1729D02*
X2777Y1729D01*
X309Y1728D02*
X334Y1728D01*
X352Y1728D02*
X377Y1728D01*
X1109Y1728D02*
X1134Y1728D01*
X1151Y1728D02*
X1177Y1728D01*
X1908Y1728D02*
X1934Y1728D01*
X1951Y1728D02*
X1977Y1728D01*
X2708Y1728D02*
X2734Y1728D01*
X2751Y1728D02*
X2777Y1728D01*
X309Y1727D02*
X336Y1727D01*
X350Y1727D02*
X377Y1727D01*
X1109Y1727D02*
X1136Y1727D01*
X1150Y1727D02*
X1177Y1727D01*
X1908Y1727D02*
X1936Y1727D01*
X1950Y1727D02*
X1977Y1727D01*
X2708Y1727D02*
X2736Y1727D01*
X2750Y1727D02*
X2777Y1727D01*
X309Y1726D02*
X338Y1726D01*
X348Y1726D02*
X377Y1726D01*
X1109Y1726D02*
X1138Y1726D01*
X1148Y1726D02*
X1177Y1726D01*
X1908Y1726D02*
X1938Y1726D01*
X1948Y1726D02*
X1977Y1726D01*
X2708Y1726D02*
X2738Y1726D01*
X2748Y1726D02*
X2777Y1726D01*
X309Y1725D02*
X377Y1725D01*
X1109Y1725D02*
X1177Y1725D01*
X1908Y1725D02*
X1977Y1725D01*
X2708Y1725D02*
X2777Y1725D01*
X309Y1724D02*
X377Y1724D01*
X1109Y1724D02*
X1177Y1724D01*
X1908Y1724D02*
X1977Y1724D01*
X2708Y1724D02*
X2777Y1724D01*
X309Y1723D02*
X377Y1723D01*
X1109Y1723D02*
X1177Y1723D01*
X1908Y1723D02*
X1977Y1723D01*
X2708Y1723D02*
X2777Y1723D01*
X309Y1722D02*
X377Y1722D01*
X1109Y1722D02*
X1177Y1722D01*
X1908Y1722D02*
X1977Y1722D01*
X2708Y1722D02*
X2777Y1722D01*
X309Y1721D02*
X377Y1721D01*
X1109Y1721D02*
X1177Y1721D01*
X1908Y1721D02*
X1977Y1721D01*
X2708Y1721D02*
X2777Y1721D01*
X309Y1720D02*
X377Y1720D01*
X1109Y1720D02*
X1177Y1720D01*
X1908Y1720D02*
X1977Y1720D01*
X2708Y1720D02*
X2777Y1720D01*
X309Y1719D02*
X377Y1719D01*
X1109Y1719D02*
X1177Y1719D01*
X1908Y1719D02*
X1977Y1719D01*
X2708Y1719D02*
X2777Y1719D01*
X309Y1718D02*
X377Y1718D01*
X1109Y1718D02*
X1177Y1718D01*
X1908Y1718D02*
X1977Y1718D01*
X2708Y1718D02*
X2777Y1718D01*
X309Y1717D02*
X377Y1717D01*
X1109Y1717D02*
X1177Y1717D01*
X1908Y1717D02*
X1977Y1717D01*
X2708Y1717D02*
X2777Y1717D01*
X309Y1716D02*
X377Y1716D01*
X1109Y1716D02*
X1177Y1716D01*
X1908Y1716D02*
X1977Y1716D01*
X2708Y1716D02*
X2777Y1716D01*
X309Y1715D02*
X377Y1715D01*
X1109Y1715D02*
X1177Y1715D01*
X1908Y1715D02*
X1977Y1715D01*
X2708Y1715D02*
X2777Y1715D01*
X309Y1714D02*
X377Y1714D01*
X1109Y1714D02*
X1177Y1714D01*
X1908Y1714D02*
X1977Y1714D01*
X2708Y1714D02*
X2777Y1714D01*
X309Y1713D02*
X377Y1713D01*
X1109Y1713D02*
X1177Y1713D01*
X1908Y1713D02*
X1977Y1713D01*
X2708Y1713D02*
X2777Y1713D01*
X309Y1712D02*
X377Y1712D01*
X1109Y1712D02*
X1177Y1712D01*
X1908Y1712D02*
X1977Y1712D01*
X2708Y1712D02*
X2777Y1712D01*
X309Y1711D02*
X377Y1711D01*
X1109Y1711D02*
X1177Y1711D01*
X1908Y1711D02*
X1977Y1711D01*
X2708Y1711D02*
X2777Y1711D01*
X309Y1710D02*
X377Y1710D01*
X1109Y1710D02*
X1177Y1710D01*
X1908Y1710D02*
X1977Y1710D01*
X2708Y1710D02*
X2777Y1710D01*
X309Y1709D02*
X377Y1709D01*
X1109Y1709D02*
X1177Y1709D01*
X1908Y1709D02*
X1977Y1709D01*
X2708Y1709D02*
X2777Y1709D01*
X309Y1708D02*
X377Y1708D01*
X1109Y1708D02*
X1177Y1708D01*
X1908Y1708D02*
X1977Y1708D01*
X2708Y1708D02*
X2777Y1708D01*
X309Y1707D02*
X377Y1707D01*
X1109Y1707D02*
X1177Y1707D01*
X1908Y1707D02*
X1977Y1707D01*
X2708Y1707D02*
X2777Y1707D01*
X309Y1706D02*
X377Y1706D01*
X1109Y1706D02*
X1177Y1706D01*
X1908Y1706D02*
X1977Y1706D01*
X2708Y1706D02*
X2777Y1706D01*
X309Y1705D02*
X377Y1705D01*
X1109Y1705D02*
X1177Y1705D01*
X1908Y1705D02*
X1977Y1705D01*
X2708Y1705D02*
X2777Y1705D01*
X309Y1704D02*
X377Y1704D01*
X1109Y1704D02*
X1177Y1704D01*
X1909Y1704D02*
X1977Y1704D01*
X2709Y1704D02*
X2777Y1704D01*
X206Y761D02*
X274Y761D01*
X1006Y761D02*
X1074Y761D01*
X1806Y761D02*
X1874Y761D01*
X2606Y761D02*
X2674Y761D01*
X206Y760D02*
X274Y760D01*
X1006Y760D02*
X1074Y760D01*
X1806Y760D02*
X1874Y760D01*
X2606Y760D02*
X2674Y760D01*
X206Y759D02*
X274Y759D01*
X1006Y759D02*
X1074Y759D01*
X1806Y759D02*
X1874Y759D01*
X2606Y759D02*
X2674Y759D01*
X206Y758D02*
X274Y758D01*
X1006Y758D02*
X1074Y758D01*
X1806Y758D02*
X1874Y758D01*
X2606Y758D02*
X2674Y758D01*
X206Y757D02*
X274Y757D01*
X1006Y757D02*
X1074Y757D01*
X1806Y757D02*
X1874Y757D01*
X2606Y757D02*
X2674Y757D01*
X206Y756D02*
X274Y756D01*
X1006Y756D02*
X1074Y756D01*
X1806Y756D02*
X1874Y756D01*
X2606Y756D02*
X2674Y756D01*
X206Y755D02*
X274Y755D01*
X1006Y755D02*
X1074Y755D01*
X1806Y755D02*
X1874Y755D01*
X2606Y755D02*
X2674Y755D01*
X206Y754D02*
X274Y754D01*
X1006Y754D02*
X1074Y754D01*
X1806Y754D02*
X1874Y754D01*
X2606Y754D02*
X2674Y754D01*
X206Y753D02*
X274Y753D01*
X1006Y753D02*
X1074Y753D01*
X1806Y753D02*
X1874Y753D01*
X2606Y753D02*
X2674Y753D01*
X206Y752D02*
X274Y752D01*
X1006Y752D02*
X1074Y752D01*
X1806Y752D02*
X1874Y752D01*
X2606Y752D02*
X2674Y752D01*
X206Y751D02*
X274Y751D01*
X1006Y751D02*
X1074Y751D01*
X1806Y751D02*
X1874Y751D01*
X2606Y751D02*
X2674Y751D01*
X206Y750D02*
X274Y750D01*
X1006Y750D02*
X1074Y750D01*
X1806Y750D02*
X1874Y750D01*
X2606Y750D02*
X2674Y750D01*
X206Y749D02*
X274Y749D01*
X1006Y749D02*
X1074Y749D01*
X1806Y749D02*
X1874Y749D01*
X2606Y749D02*
X2674Y749D01*
X206Y748D02*
X274Y748D01*
X1006Y748D02*
X1074Y748D01*
X1806Y748D02*
X1874Y748D01*
X2606Y748D02*
X2674Y748D01*
X206Y747D02*
X274Y747D01*
X1006Y747D02*
X1074Y747D01*
X1806Y747D02*
X1874Y747D01*
X2606Y747D02*
X2674Y747D01*
X206Y746D02*
X274Y746D01*
X1006Y746D02*
X1074Y746D01*
X1806Y746D02*
X1874Y746D01*
X2606Y746D02*
X2674Y746D01*
X206Y745D02*
X274Y745D01*
X1006Y745D02*
X1074Y745D01*
X1806Y745D02*
X1874Y745D01*
X2606Y745D02*
X2674Y745D01*
X206Y744D02*
X274Y744D01*
X1006Y744D02*
X1074Y744D01*
X1806Y744D02*
X1874Y744D01*
X2606Y744D02*
X2674Y744D01*
X206Y743D02*
X274Y743D01*
X1006Y743D02*
X1074Y743D01*
X1806Y743D02*
X1874Y743D01*
X2606Y743D02*
X2674Y743D01*
X206Y742D02*
X274Y742D01*
X1006Y742D02*
X1074Y742D01*
X1806Y742D02*
X1874Y742D01*
X2606Y742D02*
X2674Y742D01*
X206Y741D02*
X274Y741D01*
X1006Y741D02*
X1074Y741D01*
X1806Y741D02*
X1874Y741D01*
X2606Y741D02*
X2674Y741D01*
X206Y740D02*
X237Y740D01*
X243Y740D02*
X274Y740D01*
X1006Y740D02*
X1037Y740D01*
X1043Y740D02*
X1074Y740D01*
X1806Y740D02*
X1837Y740D01*
X1843Y740D02*
X1874Y740D01*
X2606Y740D02*
X2637Y740D01*
X2643Y740D02*
X2674Y740D01*
X206Y739D02*
X234Y739D01*
X246Y739D02*
X274Y739D01*
X1006Y739D02*
X1034Y739D01*
X1046Y739D02*
X1074Y739D01*
X1806Y739D02*
X1834Y739D01*
X1846Y739D02*
X1874Y739D01*
X2606Y739D02*
X2634Y739D01*
X2646Y739D02*
X2674Y739D01*
X206Y738D02*
X232Y738D01*
X248Y738D02*
X274Y738D01*
X1006Y738D02*
X1032Y738D01*
X1048Y738D02*
X1074Y738D01*
X1806Y738D02*
X1832Y738D01*
X1848Y738D02*
X1874Y738D01*
X2606Y738D02*
X2632Y738D01*
X2648Y738D02*
X2674Y738D01*
X206Y737D02*
X231Y737D01*
X249Y737D02*
X274Y737D01*
X1006Y737D02*
X1031Y737D01*
X1049Y737D02*
X1074Y737D01*
X1806Y737D02*
X1831Y737D01*
X1849Y737D02*
X1874Y737D01*
X2606Y737D02*
X2631Y737D01*
X2649Y737D02*
X2674Y737D01*
X206Y736D02*
X230Y736D01*
X250Y736D02*
X274Y736D01*
X1006Y736D02*
X1030Y736D01*
X1050Y736D02*
X1074Y736D01*
X1806Y736D02*
X1830Y736D01*
X1850Y736D02*
X1874Y736D01*
X2606Y736D02*
X2630Y736D01*
X2650Y736D02*
X2674Y736D01*
X206Y735D02*
X229Y735D01*
X251Y735D02*
X274Y735D01*
X1006Y735D02*
X1029Y735D01*
X1051Y735D02*
X1074Y735D01*
X1806Y735D02*
X1829Y735D01*
X1851Y735D02*
X1874Y735D01*
X2606Y735D02*
X2629Y735D01*
X2651Y735D02*
X2674Y735D01*
X206Y734D02*
X228Y734D01*
X252Y734D02*
X274Y734D01*
X1006Y734D02*
X1028Y734D01*
X1052Y734D02*
X1074Y734D01*
X1806Y734D02*
X1828Y734D01*
X1852Y734D02*
X1874Y734D01*
X2606Y734D02*
X2628Y734D01*
X2652Y734D02*
X2674Y734D01*
X206Y733D02*
X228Y733D01*
X253Y733D02*
X274Y733D01*
X1006Y733D02*
X1028Y733D01*
X1053Y733D02*
X1074Y733D01*
X1806Y733D02*
X1828Y733D01*
X1852Y733D02*
X1874Y733D01*
X2606Y733D02*
X2628Y733D01*
X2652Y733D02*
X2674Y733D01*
X206Y732D02*
X227Y732D01*
X253Y732D02*
X274Y732D01*
X1006Y732D02*
X1027Y732D01*
X1053Y732D02*
X1074Y732D01*
X1806Y732D02*
X1827Y732D01*
X1853Y732D02*
X1874Y732D01*
X2606Y732D02*
X2627Y732D01*
X2653Y732D02*
X2674Y732D01*
X206Y731D02*
X227Y731D01*
X253Y731D02*
X274Y731D01*
X1006Y731D02*
X1027Y731D01*
X1053Y731D02*
X1074Y731D01*
X1806Y731D02*
X1827Y731D01*
X1853Y731D02*
X1874Y731D01*
X2606Y731D02*
X2627Y731D01*
X2653Y731D02*
X2674Y731D01*
X206Y730D02*
X226Y730D01*
X254Y730D02*
X274Y730D01*
X1006Y730D02*
X1026Y730D01*
X1054Y730D02*
X1074Y730D01*
X1806Y730D02*
X1826Y730D01*
X1854Y730D02*
X1874Y730D01*
X2606Y730D02*
X2626Y730D01*
X2654Y730D02*
X2674Y730D01*
X206Y729D02*
X226Y729D01*
X254Y729D02*
X274Y729D01*
X1006Y729D02*
X1026Y729D01*
X1054Y729D02*
X1074Y729D01*
X1806Y729D02*
X1826Y729D01*
X1854Y729D02*
X1874Y729D01*
X2606Y729D02*
X2626Y729D01*
X2654Y729D02*
X2674Y729D01*
X206Y728D02*
X226Y728D01*
X254Y728D02*
X274Y728D01*
X1006Y728D02*
X1026Y728D01*
X1054Y728D02*
X1074Y728D01*
X1806Y728D02*
X1826Y728D01*
X1854Y728D02*
X1874Y728D01*
X2606Y728D02*
X2626Y728D01*
X2654Y728D02*
X2674Y728D01*
X206Y727D02*
X226Y727D01*
X254Y727D02*
X274Y727D01*
X1006Y727D02*
X1026Y727D01*
X1054Y727D02*
X1074Y727D01*
X1806Y727D02*
X1826Y727D01*
X1854Y727D02*
X1874Y727D01*
X2606Y727D02*
X2626Y727D01*
X2654Y727D02*
X2674Y727D01*
X206Y726D02*
X226Y726D01*
X254Y726D02*
X274Y726D01*
X1006Y726D02*
X1026Y726D01*
X1054Y726D02*
X1074Y726D01*
X1806Y726D02*
X1826Y726D01*
X1854Y726D02*
X1874Y726D01*
X2606Y726D02*
X2626Y726D01*
X2654Y726D02*
X2674Y726D01*
X206Y725D02*
X226Y725D01*
X254Y725D02*
X274Y725D01*
X1006Y725D02*
X1026Y725D01*
X1054Y725D02*
X1074Y725D01*
X1806Y725D02*
X1826Y725D01*
X1854Y725D02*
X1874Y725D01*
X2606Y725D02*
X2626Y725D01*
X2654Y725D02*
X2674Y725D01*
X206Y724D02*
X226Y724D01*
X254Y724D02*
X274Y724D01*
X1006Y724D02*
X1026Y724D01*
X1054Y724D02*
X1074Y724D01*
X1806Y724D02*
X1826Y724D01*
X1854Y724D02*
X1874Y724D01*
X2606Y724D02*
X2626Y724D01*
X2654Y724D02*
X2674Y724D01*
X206Y723D02*
X227Y723D01*
X254Y723D02*
X274Y723D01*
X1006Y723D02*
X1027Y723D01*
X1054Y723D02*
X1074Y723D01*
X1806Y723D02*
X1827Y723D01*
X1854Y723D02*
X1874Y723D01*
X2606Y723D02*
X2626Y723D01*
X2654Y723D02*
X2674Y723D01*
X206Y722D02*
X227Y722D01*
X253Y722D02*
X274Y722D01*
X1006Y722D02*
X1027Y722D01*
X1053Y722D02*
X1074Y722D01*
X1806Y722D02*
X1827Y722D01*
X1853Y722D02*
X1874Y722D01*
X2606Y722D02*
X2627Y722D01*
X2653Y722D02*
X2674Y722D01*
X206Y721D02*
X227Y721D01*
X253Y721D02*
X274Y721D01*
X1006Y721D02*
X1027Y721D01*
X1053Y721D02*
X1074Y721D01*
X1806Y721D02*
X1827Y721D01*
X1853Y721D02*
X1874Y721D01*
X2606Y721D02*
X2627Y721D01*
X2653Y721D02*
X2674Y721D01*
X206Y720D02*
X228Y720D01*
X252Y720D02*
X274Y720D01*
X1006Y720D02*
X1028Y720D01*
X1052Y720D02*
X1074Y720D01*
X1806Y720D02*
X1828Y720D01*
X1852Y720D02*
X1874Y720D01*
X2606Y720D02*
X2628Y720D01*
X2652Y720D02*
X2674Y720D01*
X206Y719D02*
X229Y719D01*
X252Y719D02*
X274Y719D01*
X1006Y719D02*
X1028Y719D01*
X1052Y719D02*
X1074Y719D01*
X1806Y719D02*
X1828Y719D01*
X1852Y719D02*
X1874Y719D01*
X2606Y719D02*
X2628Y719D01*
X2652Y719D02*
X2674Y719D01*
X206Y718D02*
X229Y718D01*
X251Y718D02*
X274Y718D01*
X1006Y718D02*
X1029Y718D01*
X1051Y718D02*
X1074Y718D01*
X1806Y718D02*
X1829Y718D01*
X1851Y718D02*
X1874Y718D01*
X2606Y718D02*
X2629Y718D01*
X2651Y718D02*
X2674Y718D01*
X206Y717D02*
X230Y717D01*
X250Y717D02*
X274Y717D01*
X1006Y717D02*
X1030Y717D01*
X1050Y717D02*
X1074Y717D01*
X1806Y717D02*
X1830Y717D01*
X1850Y717D02*
X1874Y717D01*
X2606Y717D02*
X2630Y717D01*
X2650Y717D02*
X2674Y717D01*
X206Y716D02*
X231Y716D01*
X249Y716D02*
X274Y716D01*
X1006Y716D02*
X1031Y716D01*
X1049Y716D02*
X1074Y716D01*
X1806Y716D02*
X1831Y716D01*
X1849Y716D02*
X1874Y716D01*
X2606Y716D02*
X2631Y716D01*
X2649Y716D02*
X2674Y716D01*
X206Y715D02*
X233Y715D01*
X247Y715D02*
X274Y715D01*
X1006Y715D02*
X1033Y715D01*
X1047Y715D02*
X1074Y715D01*
X1806Y715D02*
X1833Y715D01*
X1847Y715D02*
X1874Y715D01*
X2606Y715D02*
X2633Y715D01*
X2647Y715D02*
X2674Y715D01*
X206Y714D02*
X235Y714D01*
X245Y714D02*
X274Y714D01*
X1006Y714D02*
X1035Y714D01*
X1045Y714D02*
X1074Y714D01*
X1806Y714D02*
X1835Y714D01*
X1845Y714D02*
X1874Y714D01*
X2606Y714D02*
X2635Y714D01*
X2645Y714D02*
X2674Y714D01*
X206Y713D02*
X274Y713D01*
X1006Y713D02*
X1074Y713D01*
X1806Y713D02*
X1874Y713D01*
X2606Y713D02*
X2674Y713D01*
X206Y712D02*
X274Y712D01*
X1006Y712D02*
X1074Y712D01*
X1806Y712D02*
X1874Y712D01*
X2606Y712D02*
X2674Y712D01*
X206Y711D02*
X274Y711D01*
X1006Y711D02*
X1074Y711D01*
X1806Y711D02*
X1874Y711D01*
X2606Y711D02*
X2674Y711D01*
X206Y710D02*
X274Y710D01*
X1006Y710D02*
X1074Y710D01*
X1806Y710D02*
X1874Y710D01*
X2606Y710D02*
X2674Y710D01*
X206Y709D02*
X274Y709D01*
X1006Y709D02*
X1074Y709D01*
X1806Y709D02*
X1874Y709D01*
X2606Y709D02*
X2674Y709D01*
X206Y708D02*
X274Y708D01*
X1006Y708D02*
X1074Y708D01*
X1806Y708D02*
X1874Y708D01*
X2606Y708D02*
X2674Y708D01*
X206Y707D02*
X274Y707D01*
X1006Y707D02*
X1074Y707D01*
X1806Y707D02*
X1874Y707D01*
X2606Y707D02*
X2674Y707D01*
X206Y706D02*
X274Y706D01*
X1006Y706D02*
X1074Y706D01*
X1806Y706D02*
X1874Y706D01*
X2606Y706D02*
X2674Y706D01*
X206Y705D02*
X274Y705D01*
X1006Y705D02*
X1074Y705D01*
X1806Y705D02*
X1874Y705D01*
X2606Y705D02*
X2674Y705D01*
X206Y704D02*
X274Y704D01*
X1006Y704D02*
X1074Y704D01*
X1806Y704D02*
X1874Y704D01*
X2606Y704D02*
X2674Y704D01*
X206Y703D02*
X274Y703D01*
X1006Y703D02*
X1074Y703D01*
X1806Y703D02*
X1874Y703D01*
X2606Y703D02*
X2674Y703D01*
X206Y702D02*
X274Y702D01*
X1006Y702D02*
X1074Y702D01*
X1806Y702D02*
X1874Y702D01*
X2606Y702D02*
X2674Y702D01*
X206Y701D02*
X274Y701D01*
X1006Y701D02*
X1074Y701D01*
X1806Y701D02*
X1874Y701D01*
X2606Y701D02*
X2674Y701D01*
X206Y700D02*
X274Y700D01*
X1006Y700D02*
X1074Y700D01*
X1806Y700D02*
X1874Y700D01*
X2606Y700D02*
X2674Y700D01*
X206Y699D02*
X274Y699D01*
X1006Y699D02*
X1074Y699D01*
X1806Y699D02*
X1874Y699D01*
X2606Y699D02*
X2674Y699D01*
X206Y698D02*
X274Y698D01*
X1006Y698D02*
X1074Y698D01*
X1806Y698D02*
X1874Y698D01*
X2606Y698D02*
X2674Y698D01*
X206Y697D02*
X274Y697D01*
X1006Y697D02*
X1074Y697D01*
X1806Y697D02*
X1874Y697D01*
X2606Y697D02*
X2674Y697D01*
X206Y696D02*
X274Y696D01*
X1006Y696D02*
X1074Y696D01*
X1806Y696D02*
X1874Y696D01*
X2606Y696D02*
X2674Y696D01*
X206Y695D02*
X274Y695D01*
X1006Y695D02*
X1074Y695D01*
X1806Y695D02*
X1874Y695D01*
X2606Y695D02*
X2674Y695D01*
X206Y694D02*
X274Y694D01*
X1006Y694D02*
X1074Y694D01*
X1806Y694D02*
X1874Y694D01*
X2606Y694D02*
X2674Y694D01*
X206Y693D02*
X274Y693D01*
X1006Y693D02*
X1074Y693D01*
X1806Y693D02*
X1874Y693D01*
X2606Y693D02*
X2674Y693D01*
X206Y692D02*
X274Y692D01*
X1006Y692D02*
X1074Y692D01*
X1806Y692D02*
X1874Y692D01*
X2606Y692D02*
X2674Y692D01*
D02*
G04 End of Mask0*
M02*