; NON-PLATED HOLES START AT T1
; THROUGH (PLATED) HOLES START AT T100
M48
INCH
T1C0.049194
T2C0.108268
T100C0.040000
T101C0.031833
T102C0.040639
T103C0.038000
%
T1
X019434Y017380
X027434Y017380
X003434Y017380
X011434Y017380
T2
X024334Y020715
X024321Y001380
X001567Y001417
X001531Y020707
T100
X020689Y003880
X028689Y003880
X030067Y003880
X022067Y003880
X025934Y003880
X010434Y003880
X013189Y003880
X014567Y003880
X017934Y003880
X002934Y003880
X005689Y003880
X011811Y003880
X019311Y003880
X027311Y003880
X007067Y003880
X004312Y003880
T101
X031406Y007255
X022434Y017380
X030406Y007255
X003406Y007255
X020433Y017380
X002406Y007255
X006406Y007255
X004406Y007255
X021433Y017380
X007406Y007255
X005406Y007255
X029433Y017380
X030434Y017380
X028433Y017380
X013406Y007255
X011406Y007255
X006434Y017380
X018406Y007255
X010406Y007255
X014406Y007255
X012406Y007255
X019406Y007255
X015406Y007255
X013434Y017380
X023406Y007255
X021406Y007255
X005433Y017380
X014434Y017380
X012434Y017380
X022406Y007255
X020406Y007255
X026406Y007255
X028406Y007255
X004433Y017380
X029406Y007255
X027406Y007255
T102
X011433Y020380
X022434Y020380
X020434Y020380
X016433Y020380
X013434Y021380
X009433Y021380
X010434Y021380
X012434Y021380
X014434Y021380
X018434Y021380
X004433Y021380
X006433Y021380
X015434Y021380
X017434Y021380
X019434Y021380
X021433Y020380
X011433Y021380
X020434Y021380
X022434Y021380
X005434Y020380
X003434Y020380
X016433Y021380
X008434Y020380
X007434Y020380
X021433Y021380
X013434Y020380
X009433Y020380
X018434Y020380
X014434Y020380
X012434Y020380
X010434Y020380
X006433Y020380
X004433Y020380
X019434Y020380
X017434Y020380
X015434Y020380
X003434Y021380
X005434Y021380
X008434Y021380
X007434Y021380
T103
X004434Y018880
X003434Y018880
X002434Y018880
X001434Y018880
T00
M30
